<svg xmlns="http://www.w3.org/2000/svg" xmlns:xlink="http://www.w3.org/1999/xlink" viewBox="0 0 730.5 347.9">
  <defs>
    <style>
      .cls-1, .cls-2, .cls-4, .cls-7 {
        fill: none;
      }

      .cls-1, .cls-2 {
        clip-rule: evenodd;
      }

      .cls-2 {
        clip-path: url(#clip-path);
      }

      .cls-12, .cls-14, .cls-3, .cls-9 {
        fill: #fff;
      }

      .cls-3, .cls-4 {
        stroke: #4d4d4d;
        stroke-width: 1.4px;
      }

      .cls-12, .cls-3, .cls-4 {
        stroke-miterlimit: 10;
      }

      .cls-5 {
        clip-path: url(#clip-path-2);
      }

      .cls-10, .cls-15, .cls-6 {
        fill: #4d4d4d;
      }

      .cls-8 {
        fill: #0b2f60;
      }

      .cls-9 {
        fill-rule: evenodd;
      }

      .cls-10, .cls-15 {
        font-size: 33px;
        font-family: Jost-Medium, Jost;
        font-weight: 500;
      }

      .cls-11 {
        letter-spacing: -0.03em;
      }

      .cls-12 {
        stroke: #fff;
        stroke-width: 4.2px;
      }

      .cls-13 {
        letter-spacing: -0.1em;
      }

      .cls-15 {
        letter-spacing: -0.03em;
      }

      .cls-16 {
        letter-spacing: 0em;
      }

      .cls-17 {
        letter-spacing: -0.02em;
      }
    </style>
    <clipPath id="clip-path">
      <polygon class="cls-1" points="414.7 338.9 500.3 338.9 500.3 255.5 414.7 255.5 414.7 338.9 414.7 338.9"/>
    </clipPath>
    <clipPath id="clip-path-2">
      <polygon class="cls-2" points="414.7 255.5 500.3 255.5 500.3 338.9 414.7 338.9 414.7 255.5 414.7 255.5"/>
    </clipPath>
  </defs>
  <title>legend_1</title>
  <g id="Layer_2" data-name="Layer 2">
    <g id="Layer_1-2" data-name="Layer 1">
      <g>
        <g>
          <rect class="cls-3" x="0.7" y="247.2" width="505.3" height="100" rx="9.6"/>
          <line class="cls-4" x1="408.3" y1="247.2" x2="408.3" y2="347.2"/>
          <g class="cls-5">
            <path class="cls-6" d="M490.9,321.3l-11-10.8a6.4,6.4,0,0,0-5.4-1.6l-3.9-3.8a25.2,25.2,0,0,0,5.4-15.6c0-14.2-11.8-25.8-26.4-25.8s-26.4,11.6-26.4,25.8,11.9,25.8,26.4,25.8a26.7,26.7,0,0,0,16.1-5.4l3.8,3.8a6.2,6.2,0,0,0,1.7,5.4l11,10.7a6.3,6.3,0,0,0,8.8,0,6,6,0,0,0-.1-8.5ZM449.5,310c-11.6,0-21.1-9.2-21.1-20.6s9.5-20.6,21.1-20.6,21.2,9.3,21.2,20.6S461.2,310,449.5,310Z"/>
            <polygon class="cls-7" points="414.7 338.9 500.3 338.9 500.3 255.5 414.7 255.5 414.7 338.9 414.7 338.9"/>
          </g>
        </g>
        <g>
          <rect class="cls-8" x="1.7" y="121.7" width="100" height="100" rx="5.7"/>
          <polygon class="cls-9" points="74.5 159.9 74.5 143.1 65.4 143.1 65.4 151.2 51.7 138.2 13.8 174.2 12 175.8 24.3 175.8 24.3 205.2 47.1 205.2 47.1 182.4 56.2 182.4 56.2 205.3 79.1 205.3 79.1 175.8 83.8 175.8 91.3 175.8 74.5 159.9"/>
        </g>
        <text class="cls-10" transform="translate(127.7 160.2)">Default<tspan x="0" y="39.6">Location</tspan></text>
        <g>
          <g>
            <rect class="cls-8" x="1.8" width="100" height="100" rx="5.7"/>
            <polygon class="cls-9" points="89.4 44.4 57.5 44.4 57.5 12.5 46.2 12.5 46.2 44.4 14.3 44.4 14.3 55.6 46.2 55.6 46.2 87.5 57.5 87.5 57.5 55.6 89.4 55.6 89.4 44.4 89.4 44.4"/>
          </g>
          <text class="cls-10" transform="translate(129.4 58.2)"><tspan class="cls-11">Z</tspan><tspan x="18" y="0">oom In</tspan></text>
        </g>
        <g>
          <rect class="cls-8" x="406.2" y="123.2" width="100" height="100" rx="5.7"/>
          <path class="cls-12" d="M456.3,210.3a37.1,37.1,0,1,1,37-37.1A37.2,37.2,0,0,1,456.3,210.3Zm0-72a34.9,34.9,0,1,0,34.9,34.9A34.9,34.9,0,0,0,456.3,138.3Z"/>
          <g>
            <rect class="cls-12" x="455.2" y="137.3" width="2.2" height="6.39"/>
            <rect class="cls-12" x="455.3" y="202.8" width="2.2" height="6.39"/>
            <rect class="cls-12" x="420.3" y="172.1" width="6.4" height="2.17"/>
            <rect class="cls-12" x="485.9" y="172.1" width="6.4" height="2.17"/>
          </g>
        </g>
        <text class="cls-10" transform="translate(532.9 161.7)"><tspan class="cls-13">Y</tspan><tspan x="16.5" y="0">our</tspan><tspan x="0" y="39.6">Location</tspan></text>
        <g>
          <g>
            <rect class="cls-8" x="404.8" width="100" height="100" rx="5.7"/>
            <g>
              <polygon class="cls-9" points="417.3 44.5 492.4 44.5 492.4 55.5 417.3 55.5 417.3 44.5 417.3 44.5"/>
              <path class="cls-14" d="M492.6,55.7H417.1V44.3h75.5Zm-75.1-.4h74.7V44.7H417.5Z"/>
            </g>
          </g>
          <text class="cls-15" transform="translate(533.7 58.3)">Z<tspan class="cls-16" x="18" y="0">oom Out</tspan></text>
        </g>
        <text class="cls-10" transform="translate(536 285.7)">Sea<tspan class="cls-17" x="53.5" y="0">r</tspan><tspan x="65.2" y="0">ch for an</tspan><tspan x="0" y="39.6">Add</tspan><tspan class="cls-17" x="61.6" y="39.6">r</tspan><tspan x="73.3" y="39.6">ess</tspan></text>
      </g>
    </g>
  </g>
</svg>
