<svg xmlns="http://www.w3.org/2000/svg" viewBox="0 0 612.3 648">
  <defs>
    <style>
      .cls-1 {
        fill: #fff;
      }

      .cls-2 {
        fill: #f2f2f2;
      }

      .cls-3 {
        fill: #ffcf41;
      }

      .cls-4 {
        fill: #4c4c4c;
      }

      .cls-5 {
        fill: #27427c;
      }
    </style>
  </defs>
  <title>Asset 39</title>
  <g id="Layer_2" data-name="Layer 2">
    <g id="Layer_1-2" data-name="Layer 1">
      <g>
        <g>
          <rect class="cls-1" width="612.3" height="648" rx="8"/>
          <g>
            <path class="cls-2" d="M0,481.5V639.2C0,644,3.3,648,7.3,648H605c4,0,7.3-4,7.3-8.8V481.5Z"/>
            <path class="cls-3" d="M612.3,8.8C612.3,4,609,0,605,0H7.3C3.3,0,0,4,0,8.8V39.5H612.3Z"/>
          </g>
        </g>
        <g>
          <path class="cls-4" d="M26.9,306.8a13.7,13.7,0,0,0,2.9,4.2,13.6,13.6,0,0,0,4.1,2.6,13.9,13.9,0,0,0,5,.9,17.2,17.2,0,0,0,5.2-.8,17.4,17.4,0,0,0,4.1-2,16.7,16.7,0,0,0,3.1-2.8v9.4a20.6,20.6,0,0,1-5.4,3,21.8,21.8,0,0,1-7.4,1.1,23.9,23.9,0,0,1-8.6-1.5,21.8,21.8,0,0,1-6.9-4.3,20.8,20.8,0,0,1-4.5-6.7,23.6,23.6,0,0,1,0-17.1,20.8,20.8,0,0,1,4.5-6.7,18.8,18.8,0,0,1,6.9-4.3,23.9,23.9,0,0,1,8.6-1.6,21.8,21.8,0,0,1,7.4,1.1,21,21,0,0,1,5.4,3.1v9.4a16.7,16.7,0,0,0-3.1-2.8,14.2,14.2,0,0,0-4.1-2,17.2,17.2,0,0,0-5.2-.8,13.9,13.9,0,0,0-5,.9,13.4,13.4,0,0,0-7,6.8,13.5,13.5,0,0,0-1,5.5A13.3,13.3,0,0,0,26.9,306.8Z"/>
          <path class="cls-4" d="M58.3,301a13.2,13.2,0,0,1,5.3-4.9,16.6,16.6,0,0,1,7.5-1.7,17,17,0,0,1,7.6,1.7A13.2,13.2,0,0,1,84,301a14.3,14.3,0,0,1,0,14.6,13.2,13.2,0,0,1-5.3,4.9,15.8,15.8,0,0,1-7.6,1.7,15.4,15.4,0,0,1-7.5-1.7,13.2,13.2,0,0,1-5.3-4.9,14.3,14.3,0,0,1,0-14.6ZM65,312.2a6.6,6.6,0,0,0,2.5,2.7,7,7,0,0,0,7.2,0,6.3,6.3,0,0,0,2.5-2.6,7.7,7.7,0,0,0,1-4,7.1,7.1,0,0,0-1-3.9,6,6,0,0,0-2.5-2.7,7.7,7.7,0,0,0-7.2,0,6.9,6.9,0,0,0-2.5,2.6,8.7,8.7,0,0,0-.9,4A8,8,0,0,0,65,312.2Z"/>
          <path class="cls-4" d="M107.8,302.4a3.4,3.4,0,0,0-1.5-1.8,4.6,4.6,0,0,0-2.5-.6,6.1,6.1,0,0,0-2.8.6,5.8,5.8,0,0,0-1.9,1.9,6.5,6.5,0,0,0-.7,2.9v16.3H90.9V295h7.5v4a9,9,0,0,1,3.3-3.4,9.4,9.4,0,0,1,4.9-1.2,10.3,10.3,0,0,1,5.2,1.2,7.6,7.6,0,0,1,3.1,3.5,13.1,13.1,0,0,1,1.1,5.5v17.1h-7.8V305.4A13.6,13.6,0,0,0,107.8,302.4Z"/>
          <path class="cls-4" d="M122.7,300.6a11.2,11.2,0,0,1,4.8-4.6,12.3,12.3,0,0,1,6.3-1.6,11.8,11.8,0,0,1,4.6.9A9.5,9.5,0,0,1,142,298a10.7,10.7,0,0,1,2.4,4.3,17.2,17.2,0,0,1,.9,5.8,17.6,17.6,0,0,1-.9,5.8,10.3,10.3,0,0,1-2.4,4.2,9.5,9.5,0,0,1-3.6,2.7,10.3,10.3,0,0,1-4.6,1,13.4,13.4,0,0,1-6.3-1.6,11.8,11.8,0,0,1-4.8-4.6,14.9,14.9,0,0,1-1.8-7.5A14.4,14.4,0,0,1,122.7,300.6Zm6.2,22.9a6.6,6.6,0,0,0,.9,3,5.7,5.7,0,0,0,2.4,1.9,7.4,7.4,0,0,0,3.4.7,8.6,8.6,0,0,0,3.6-.8,7,7,0,0,0,2.7-2.7,8.8,8.8,0,0,0,1-4.5V295h7.3v26.1a15.2,15.2,0,0,1-2,8.1,11.8,11.8,0,0,1-5.2,4.7,17.8,17.8,0,0,1-7,1.4,18.1,18.1,0,0,1-7.8-1.5,11,11,0,0,1-4.8-4.2,12.2,12.2,0,0,1-1.9-6.1Zm.9-11.4a5.7,5.7,0,0,0,2.6,2.5,7.4,7.4,0,0,0,3.6.9,6.9,6.9,0,0,0,2.4-.5,6.2,6.2,0,0,0,2.3-1.4,6.3,6.3,0,0,0,1.6-2.3,8.3,8.3,0,0,0,.6-3.2,8.4,8.4,0,0,0-.6-3.3,6.3,6.3,0,0,0-1.6-2.3,7.9,7.9,0,0,0-2.3-1.4,6.7,6.7,0,0,0-2.4-.4,7.3,7.3,0,0,0-3.6.8,6.3,6.3,0,0,0-2.6,2.5,7.8,7.8,0,0,0-1,4.1A7.2,7.2,0,0,0,129.8,312.1Z"/>
          <path class="cls-4" d="M161.8,320.5a11.1,11.1,0,0,1-5-4.8,14.7,14.7,0,0,1-1.8-7.4,15.7,15.7,0,0,1,1-5.8,12.7,12.7,0,0,1,2.8-4.4,14.2,14.2,0,0,1,4.6-2.8,18.9,18.9,0,0,1,6-.9,15.4,15.4,0,0,1,7.5,1.6,11.2,11.2,0,0,1,4.8,4.6,15.6,15.6,0,0,1,1.7,7.4c0,.4-.1.7-.1,1.1s-.1.6-.1.8H159.3v-4.5h17.3l-2.1,2.6a2.3,2.3,0,0,0,.5-1,1.8,1.8,0,0,0,.2-1,6.7,6.7,0,0,0-.7-3.3,6.1,6.1,0,0,0-2-2.2,6.6,6.6,0,0,0-3.2-.8,8.8,8.8,0,0,0-2.9.5,5.4,5.4,0,0,0-2.1,1.6,9.7,9.7,0,0,0-1.3,2.7,12.8,12.8,0,0,0-.4,3.6,11.8,11.8,0,0,0,.7,4.5,7,7,0,0,0,2.4,2.9,6.4,6.4,0,0,0,3.7,1,8.3,8.3,0,0,0,4.3-1,6.8,6.8,0,0,0,2.9-2.9l6.6,2.1a13.5,13.5,0,0,1-5.5,5.6,16.4,16.4,0,0,1-8.3,1.9A15.2,15.2,0,0,1,161.8,320.5Z"/>
          <path class="cls-4" d="M192.8,315a9.9,9.9,0,0,0,2.8,1.3,7.4,7.4,0,0,0,2.4.5,3.2,3.2,0,0,0,2.3-.7,2.2,2.2,0,0,0,.8-1.8,2.7,2.7,0,0,0-.6-1.7,10.4,10.4,0,0,0-1.9-1.3l-3.3-1.2-3.6-1.6a8.7,8.7,0,0,1-2.8-2.6,6.6,6.6,0,0,1-1.1-4.1,6.9,6.9,0,0,1,1.2-4.1,8.3,8.3,0,0,1,3.5-2.5,14.9,14.9,0,0,1,9-.2,23.9,23.9,0,0,1,3.7,1.5,16.6,16.6,0,0,1,3,2.2l-3.3,4.7a12.4,12.4,0,0,0-3.5-2.5,8.9,8.9,0,0,0-3.9-1.1,3.2,3.2,0,0,0-2,.6,1.6,1.6,0,0,0-.8,1.4,2.1,2.1,0,0,0,.8,1.6,9.7,9.7,0,0,0,2.1,1.2l3.2,1.2,3.9,1.8a9.2,9.2,0,0,1,2.9,2.6,6.7,6.7,0,0,1,1,3.9,8.5,8.5,0,0,1-1.1,4.6,8.1,8.1,0,0,1-3.4,2.9,13.4,13.4,0,0,1-5.2,1,17.2,17.2,0,0,1-5.2-.8,15.4,15.4,0,0,1-4.3-2,22.4,22.4,0,0,1-3.4-2.7l3.7-4.7A30.5,30.5,0,0,0,192.8,315Z"/>
          <path class="cls-4" d="M226.3,295v6.4H209.8V295Zm-4.6-9.3v36h-7.3v-36Z"/>
          <path class="cls-4" d="M230.6,281.6a4.5,4.5,0,0,1,3.2-1.2,4.4,4.4,0,0,1,3.2,1.2,3.8,3.8,0,0,1,1.3,3,4,4,0,0,1-1.3,3.1,4.4,4.4,0,0,1-3.2,1.2,4.5,4.5,0,0,1-3.2-1.2,4.4,4.4,0,0,1-1.3-3.1A4.2,4.2,0,0,1,230.6,281.6Zm6.8,13.4v26.7h-7.2V295Z"/>
          <path class="cls-4" d="M244.9,301a13.6,13.6,0,0,1,5.2-4.9,17.3,17.3,0,0,1,7.6-1.7,17,17,0,0,1,7.6,1.7,13.9,13.9,0,0,1,5.3,4.9,14.3,14.3,0,0,1,0,14.6,13.9,13.9,0,0,1-5.3,4.9,15.8,15.8,0,0,1-7.6,1.7,16,16,0,0,1-7.6-1.7,14.1,14.1,0,0,1-5.2-19.5Zm6.7,11.2a6.6,6.6,0,0,0,2.5,2.7,7,7,0,0,0,7.2,0,6.9,6.9,0,0,0,2.5-2.6,7.7,7.7,0,0,0,1-4,7.1,7.1,0,0,0-1-3.9,6.6,6.6,0,0,0-2.5-2.7,7.6,7.6,0,0,0-7.2,0,6.9,6.9,0,0,0-2.5,2.6,8.8,8.8,0,0,0-1,4A8.1,8.1,0,0,0,251.6,312.2Z"/>
          <path class="cls-4" d="M294.3,302.4a3.2,3.2,0,0,0-1.4-1.8,4.6,4.6,0,0,0-2.5-.6,6.1,6.1,0,0,0-2.8.6,5.8,5.8,0,0,0-1.9,1.9,6.5,6.5,0,0,0-.7,2.9v16.3h-7.5V295H285v4a8.3,8.3,0,0,1,3.3-3.4,9.2,9.2,0,0,1,4.8-1.2,10.4,10.4,0,0,1,5.3,1.2,7.6,7.6,0,0,1,3.1,3.5,13.2,13.2,0,0,1,1,5.5v17.1h-7.7V305.4A9.4,9.4,0,0,0,294.3,302.4Z"/>
          <path class="cls-4" d="M335.1,281.1v40.6h-8.3V281.1Zm-3.2,0h8.6a18.8,18.8,0,0,1,8.2,1.6,12.3,12.3,0,0,1,5.2,4.6,12.4,12.4,0,0,1,1.8,6.7,11.8,11.8,0,0,1-7,11.3,18.8,18.8,0,0,1-8.2,1.6h-8.6v-6.6H340a8.7,8.7,0,0,0,3.7-.7,5.8,5.8,0,0,0,2.5-2.1,6.7,6.7,0,0,0,.8-3.3,6.6,6.6,0,0,0-.8-3.2,5.8,5.8,0,0,0-2.5-2.1,10.6,10.6,0,0,0-3.7-.7h-8.1Zm13,21.6,13.2,19h-9.9l-12.1-19Z"/>
          <path class="cls-4" d="M366.4,320.5a11.6,11.6,0,0,1-5-4.8,14.7,14.7,0,0,1-1.8-7.4,15.7,15.7,0,0,1,1-5.8,13,13,0,0,1,2.9-4.4,12.8,12.8,0,0,1,4.5-2.8,19.1,19.1,0,0,1,6.1-.9,16,16,0,0,1,7.5,1.6,11.6,11.6,0,0,1,4.7,4.6A15.6,15.6,0,0,1,388,308a4.1,4.1,0,0,1-.1,1.1v.8H364v-4.5h17.2l-2,2.6a4.6,4.6,0,0,0,.5-1,3.6,3.6,0,0,0,.2-1,6.7,6.7,0,0,0-.8-3.3,5.3,5.3,0,0,0-2-2.2,6.6,6.6,0,0,0-3.2-.8,8.2,8.2,0,0,0-2.8.5,4.2,4.2,0,0,0-2.1,1.6,7.7,7.7,0,0,0-1.4,2.7,17.9,17.9,0,0,0-.4,3.6,10.1,10.1,0,0,0,.8,4.5,6.1,6.1,0,0,0,2.3,2.9,6.5,6.5,0,0,0,3.8,1,8.2,8.2,0,0,0,4.2-1,6.8,6.8,0,0,0,2.9-2.9l6.7,2.1a13.7,13.7,0,0,1-5.6,5.6,16.1,16.1,0,0,1-8.2,1.9A15.6,15.6,0,0,1,366.4,320.5Z"/>
          <path class="cls-4" d="M393,300.7a12.5,12.5,0,0,1,4.7-4.7,12.3,12.3,0,0,1,6.3-1.6,11.8,11.8,0,0,1,4.6.9,10.9,10.9,0,0,1,3.6,2.8,11.1,11.1,0,0,1,2.4,4.4,19.1,19.1,0,0,1,0,11.6,10.4,10.4,0,0,1-2.4,4.4,10.9,10.9,0,0,1-3.6,2.8,11.8,11.8,0,0,1-4.6.9,12.3,12.3,0,0,1-6.3-1.6,12.5,12.5,0,0,1-4.7-4.7,16.9,16.9,0,0,1,0-15.2Zm7,11.7a7.3,7.3,0,0,0,6.2,3.6,5.3,5.3,0,0,0,2.4-.6,7.9,7.9,0,0,0,2.3-1.4,7.8,7.8,0,0,0,1.6-2.4,9.4,9.4,0,0,0,0-6.6,6.3,6.3,0,0,0-1.6-2.3,6.5,6.5,0,0,0-2.3-1.5,5.2,5.2,0,0,0-2.4-.5,7.4,7.4,0,0,0-3.6.9,6.5,6.5,0,0,0-2.6,2.6,7.8,7.8,0,0,0-1,4.1A7.6,7.6,0,0,0,400,312.4Zm20.7-36v45.3h-7.6V276.4Z"/>
          <path class="cls-4" d="M435.5,314.1a3.5,3.5,0,0,0,1.4,1.9,3.9,3.9,0,0,0,2.5.7,6.1,6.1,0,0,0,2.8-.7,4.4,4.4,0,0,0,1.9-1.9,5.4,5.4,0,0,0,.7-2.9V295h7.5v26.7h-7.5v-4.1a7.8,7.8,0,0,1-3.3,3.4,9.1,9.1,0,0,1-4.9,1.2,10.3,10.3,0,0,1-5.2-1.2,7.6,7.6,0,0,1-3.1-3.5,13.5,13.5,0,0,1-1.1-5.5V295h7.9v16.2A8.5,8.5,0,0,0,435.5,314.1Z"/>
          <path class="cls-4" d="M465.9,312.4a8.1,8.1,0,0,0,2.8,2.7,7.9,7.9,0,0,0,3.8.9,9.7,9.7,0,0,0,3.4-.5,7.3,7.3,0,0,0,2.9-1.5,5.9,5.9,0,0,0,2-2.2v7.7a8.9,8.9,0,0,1-3.6,2,16.1,16.1,0,0,1-5.1.7,15.9,15.9,0,0,1-7.7-1.7,12.6,12.6,0,0,1-5.3-4.9,14.3,14.3,0,0,1,0-14.6,12.6,12.6,0,0,1,5.3-4.9,17.1,17.1,0,0,1,7.7-1.7,16.1,16.1,0,0,1,5.1.7,10.3,10.3,0,0,1,3.6,2v7.7a5.9,5.9,0,0,0-2-2.2,14,14,0,0,0-3-1.5,9.6,9.6,0,0,0-3.3-.6,7,7,0,0,0-3.8,1.1,7.5,7.5,0,0,0-2.8,2.8,7.1,7.1,0,0,0-1,3.9A7.8,7.8,0,0,0,465.9,312.4Z"/>
          <path class="cls-4" d="M499.9,295v6.4H483.3V295Zm-4.7-9.3v36h-7.3v-36Z"/>
          <path class="cls-4" d="M504.1,281.6a4.7,4.7,0,0,1,3.2-1.2,4.8,4.8,0,0,1,3.3,1.2,4.2,4.2,0,0,1,1.3,3,4.4,4.4,0,0,1-1.3,3.1,4.8,4.8,0,0,1-3.3,1.2,4.7,4.7,0,0,1-3.2-1.2,4.3,4.3,0,0,1-1.2-3.1A4.1,4.1,0,0,1,504.1,281.6Zm6.8,13.4v26.7h-7.2V295Z"/>
          <path class="cls-4" d="M518.4,301a13.2,13.2,0,0,1,5.3-4.9,17.6,17.6,0,0,1,15.1,0,13.2,13.2,0,0,1,5.3,4.9,14.3,14.3,0,0,1,0,14.6,13.2,13.2,0,0,1-5.3,4.9,17.6,17.6,0,0,1-15.1,0,13.2,13.2,0,0,1-5.3-4.9,14.3,14.3,0,0,1,0-14.6Zm6.7,11.2a7.3,7.3,0,0,0,2.5,2.7,7,7,0,0,0,7.2,0,7.2,7.2,0,0,0,2.6-2.6,8.7,8.7,0,0,0,.9-4,8,8,0,0,0-.9-3.9,6.8,6.8,0,0,0-2.6-2.7,7.7,7.7,0,0,0-7.2,0,7.8,7.8,0,0,0-2.5,2.6,8.7,8.7,0,0,0-.9,4A8,8,0,0,0,525.1,312.2Z"/>
          <path class="cls-4" d="M567.9,302.4a3.4,3.4,0,0,0-1.5-1.8,4.6,4.6,0,0,0-2.5-.6,6.1,6.1,0,0,0-2.8.6,5.8,5.8,0,0,0-1.9,1.9,6.5,6.5,0,0,0-.7,2.9v16.3H551V295h7.5v4a9,9,0,0,1,3.3-3.4,9.6,9.6,0,0,1,4.9-1.2,10.3,10.3,0,0,1,5.2,1.2,7.6,7.6,0,0,1,3.1,3.5,13.1,13.1,0,0,1,1.1,5.5v17.1h-7.8V305.4A13.6,13.6,0,0,0,567.9,302.4Z"/>
          <path class="cls-4" d="M594.2,317.1l-7.1,14.5-5.6-1.3,5.1-15Z"/>
          <path class="cls-4" d="M49.6,391.3H40.9l6-42.7L64,374.8l16.9-26.2L87,391.3H78.3l-2.6-22.7L64,387.5,52.2,368.6Z"/>
          <path class="cls-4" d="M92.2,370.6a13.9,13.9,0,0,1,5.3-4.9,17,17,0,0,1,7.6-1.7,17.3,17.3,0,0,1,7.6,1.7,13.9,13.9,0,0,1,5.3,4.9,15,15,0,0,1,0,14.6,13.9,13.9,0,0,1-5.3,4.9,16,16,0,0,1-7.6,1.7,15.8,15.8,0,0,1-7.6-1.7,13.9,13.9,0,0,1-5.3-4.9,15,15,0,0,1,0-14.6ZM99,381.8a6,6,0,0,0,2.5,2.7,6.9,6.9,0,0,0,3.6,1,7.5,7.5,0,0,0,3.6-1,6.9,6.9,0,0,0,2.5-2.6,8.8,8.8,0,0,0,1-4,8.1,8.1,0,0,0-1-3.9,6.6,6.6,0,0,0-2.5-2.7,7.4,7.4,0,0,0-3.6-.9,6.9,6.9,0,0,0-3.6.9,6.3,6.3,0,0,0-2.5,2.6,7.7,7.7,0,0,0-1,4A7.1,7.1,0,0,0,99,381.8Z"/>
          <path class="cls-4" d="M132.3,391.3h-7.6V346h7.6Zm20.1-5.8a12.7,12.7,0,0,1-4.8,4.7,12.3,12.3,0,0,1-6.3,1.6,11,11,0,0,1-4.5-.9,12.5,12.5,0,0,1-3.7-2.8,11.5,11.5,0,0,1-2.3-4.4,21.4,21.4,0,0,1,0-11.6,12.3,12.3,0,0,1,2.3-4.4,12.5,12.5,0,0,1,3.7-2.8,11,11,0,0,1,4.5-.9,12.3,12.3,0,0,1,6.3,1.6,12.7,12.7,0,0,1,4.8,4.7,16.9,16.9,0,0,1,0,15.2Zm-7.1-11.7a6.5,6.5,0,0,0-2.6-2.6,7.4,7.4,0,0,0-3.6-.9,5.2,5.2,0,0,0-2.4.5,5.4,5.4,0,0,0-2.2,1.5,6.3,6.3,0,0,0-1.6,2.3,9.4,9.4,0,0,0,0,6.6,7.8,7.8,0,0,0,1.6,2.4,6.4,6.4,0,0,0,2.2,1.4,5.3,5.3,0,0,0,2.4.6,7.3,7.3,0,0,0,6.2-3.6,7.6,7.6,0,0,0,1-4.1A7.8,7.8,0,0,0,145.3,373.8Z"/>
          <path class="cls-4" d="M160.1,351.2a4.5,4.5,0,0,1,3.2-1.2,4.4,4.4,0,0,1,3.2,1.2,3.8,3.8,0,0,1,1.3,3,4,4,0,0,1-1.3,3.1,4.4,4.4,0,0,1-3.2,1.2,4.5,4.5,0,0,1-3.2-1.2,4.4,4.4,0,0,1-1.3-3.1A4.2,4.2,0,0,1,160.1,351.2Zm6.8,13.4v26.7h-7.2V364.6Z"/>
          <path class="cls-4" d="M181.8,346v45.3h-7.6V346Z"/>
          <path class="cls-4" d="M189.5,351.2a4.5,4.5,0,0,1,3.2-1.2,4.4,4.4,0,0,1,3.2,1.2,3.8,3.8,0,0,1,1.3,3,4,4,0,0,1-1.3,3.1,4.4,4.4,0,0,1-3.2,1.2,4.5,4.5,0,0,1-3.2-1.2,4.3,4.3,0,0,1-1.2-3.1A4.1,4.1,0,0,1,189.5,351.2Zm6.8,13.4v26.7h-7.2V364.6Z"/>
          <path class="cls-4" d="M216.7,364.6V371H200.2v-6.4Zm-4.6-9.3v36h-7.3v-36Z"/>
          <path class="cls-4" d="M228.2,404h-7.8l6.7-15.4-11.1-24h8.4l8.5,21.2h-3.7l8.5-21.1h7.9Z"/>
          <path class="cls-4" d="M259.5,386.7l-7,14.5-5.7-1.3,5.1-15Z"/>
          <path class="cls-4" d="M288.7,384.9a3.2,3.2,0,0,0,1.5,1.3,5.6,5.6,0,0,0,2.3.4,6.7,6.7,0,0,0,3.1-.7,5.5,5.5,0,0,0,2.3-2,5.8,5.8,0,0,0,.8-3.3l1,3.5a6.9,6.9,0,0,1-1.4,4.3,9.9,9.9,0,0,1-3.7,2.6,14.5,14.5,0,0,1-4.7.8,10,10,0,0,1-4.6-1,7.3,7.3,0,0,1-3.4-2.8,7.8,7.8,0,0,1-1.3-4.6,8.4,8.4,0,0,1,1.2-4.5,7.2,7.2,0,0,1,3.5-2.9,14.2,14.2,0,0,1,5.7-1,20.3,20.3,0,0,1,4.5.4,17.5,17.5,0,0,1,3.3,1.3,8.4,8.4,0,0,1,1.9,1.4v3.6a8.8,8.8,0,0,0-3.5-1.7,14,14,0,0,0-4.1-.6,11.2,11.2,0,0,0-2.9.4,3.1,3.1,0,0,0-1.5,1.2,2.9,2.9,0,0,0-.6,1.9A3.4,3.4,0,0,0,288.7,384.9ZM282.4,367a44.2,44.2,0,0,1,5.1-2.1,20.1,20.1,0,0,1,6.7-1,16.6,16.6,0,0,1,6.1,1,9.2,9.2,0,0,1,4.2,2.8,7.3,7.3,0,0,1,1.6,4.6v19h-7.4V374a5,5,0,0,0-.3-1.9,3.5,3.5,0,0,0-1.1-1.3,4.5,4.5,0,0,0-1.7-.8l-2.2-.2a13.4,13.4,0,0,0-3.5.4,13.9,13.9,0,0,0-2.9,1,7.4,7.4,0,0,0-1.8.9Z"/>
          <path class="cls-4" d="M329.2,372a3.4,3.4,0,0,0-1.5-1.8,4.6,4.6,0,0,0-2.5-.6,6.1,6.1,0,0,0-2.8.6,4.7,4.7,0,0,0-1.8,1.9,5.4,5.4,0,0,0-.7,2.9v16.3h-7.6V364.6h7.6v4a8.1,8.1,0,0,1,3.2-3.4A9.6,9.6,0,0,1,328,364a10,10,0,0,1,5.2,1.2,7.6,7.6,0,0,1,3.1,3.5,13.1,13.1,0,0,1,1.1,5.5v17.1h-7.8V375A9.5,9.5,0,0,0,329.2,372Z"/>
          <path class="cls-4" d="M344.2,370.3a12.5,12.5,0,0,1,4.7-4.7,12.3,12.3,0,0,1,6.3-1.6,11.8,11.8,0,0,1,4.6.9,10.9,10.9,0,0,1,3.6,2.8,11.1,11.1,0,0,1,2.4,4.4,19.1,19.1,0,0,1,0,11.6,10.4,10.4,0,0,1-2.4,4.4,10.9,10.9,0,0,1-3.6,2.8,11.8,11.8,0,0,1-4.6.9,12.3,12.3,0,0,1-6.3-1.6,12.5,12.5,0,0,1-4.7-4.7,16.9,16.9,0,0,1,0-15.2Zm7,11.7a7.3,7.3,0,0,0,6.2,3.6,5.3,5.3,0,0,0,2.4-.6,7.9,7.9,0,0,0,2.3-1.4,7.8,7.8,0,0,0,1.6-2.4,9.4,9.4,0,0,0,0-6.6,6.3,6.3,0,0,0-1.6-2.3,6.5,6.5,0,0,0-2.3-1.5,5.2,5.2,0,0,0-2.4-.5,7.4,7.4,0,0,0-3.6.9,6.5,6.5,0,0,0-2.6,2.6,7.8,7.8,0,0,0-1,4.1A7.6,7.6,0,0,0,351.2,382Zm20.7-36v45.3h-7.6V346Z"/>
          <path class="cls-4" d="M402.3,381.5a11.9,11.9,0,0,0,3.4,2.6,7.9,7.9,0,0,0,4,1,6.5,6.5,0,0,0,2.9-.6,4.6,4.6,0,0,0,2-1.6,5.3,5.3,0,0,0,.7-2.6,4.9,4.9,0,0,0-1-3,7.9,7.9,0,0,0-2.8-2.1c-1.2-.6-2.8-1.2-4.6-1.9l-3.4-1.5a15.1,15.1,0,0,1-3.5-2.3,10.6,10.6,0,0,1-2.8-3.5,9.4,9.4,0,0,1-1.1-4.9,10.8,10.8,0,0,1,1.7-6,13.3,13.3,0,0,1,4.8-3.9,17.4,17.4,0,0,1,6.9-1.4,17,17,0,0,1,6.7,1.3,13.9,13.9,0,0,1,4.7,3.4,13.1,13.1,0,0,1,2.9,4l-6.4,3.8a13.9,13.9,0,0,0-2.1-2.7,7.6,7.6,0,0,0-2.5-1.9,7.2,7.2,0,0,0-3.3-.7,5.4,5.4,0,0,0-2.7.5,3.6,3.6,0,0,0-1.6,1.4,2.8,2.8,0,0,0-.6,1.8,3.7,3.7,0,0,0,.6,2.1,6.9,6.9,0,0,0,1.7,1.7,19.2,19.2,0,0,0,2.9,1.5,34.4,34.4,0,0,0,4,1.5,32.6,32.6,0,0,1,3.8,1.8,15.9,15.9,0,0,1,3.3,2.5,11.8,11.8,0,0,1,2.3,3.5,11.4,11.4,0,0,1,.9,4.6,10.8,10.8,0,0,1-1.2,5.2,11.2,11.2,0,0,1-3.2,3.9,15.8,15.8,0,0,1-4.6,2.5,18.9,18.9,0,0,1-5.3.8,18.2,18.2,0,0,1-7-1.4,17.9,17.9,0,0,1-5.6-3.8,17.5,17.5,0,0,1-3.7-5.3l6-4.2A19.5,19.5,0,0,0,402.3,381.5Z"/>
          <path class="cls-4" d="M437.5,404h-7.7l6.7-15.4-11.1-24h8.4l8.5,21.2h-3.7l8.4-21.1h7.9Z"/>
          <path class="cls-4" d="M462,384.6a9.9,9.9,0,0,0,2.8,1.3,7.4,7.4,0,0,0,2.4.5,3.2,3.2,0,0,0,2.3-.7,2.2,2.2,0,0,0,.8-1.8,2.7,2.7,0,0,0-.6-1.7,10.4,10.4,0,0,0-1.9-1.3l-3.3-1.2-3.6-1.6a8.7,8.7,0,0,1-2.8-2.6,6.6,6.6,0,0,1-1.1-4.1,6.9,6.9,0,0,1,1.2-4.1,8.3,8.3,0,0,1,3.5-2.5,14.9,14.9,0,0,1,9-.2,23.9,23.9,0,0,1,3.7,1.5,16.6,16.6,0,0,1,3,2.2l-3.3,4.7a12.4,12.4,0,0,0-3.5-2.5,8.9,8.9,0,0,0-3.9-1.1,3.2,3.2,0,0,0-2,.6,1.6,1.6,0,0,0-.8,1.4,2.1,2.1,0,0,0,.8,1.6,9.8,9.8,0,0,0,2.1,1.2l3.2,1.2,3.9,1.8a9.2,9.2,0,0,1,2.9,2.6,6.7,6.7,0,0,1,1,3.9,8.5,8.5,0,0,1-1.1,4.6,8.1,8.1,0,0,1-3.4,2.9,13.4,13.4,0,0,1-5.2,1,17.2,17.2,0,0,1-5.2-.8,15.4,15.4,0,0,1-4.3-2,22.4,22.4,0,0,1-3.4-2.7l3.7-4.7A30.5,30.5,0,0,0,462,384.6Z"/>
          <path class="cls-4" d="M495.5,364.6V371H479v-6.4Zm-4.6-9.3v36h-7.3v-36Z"/>
          <path class="cls-4" d="M503.8,390.1a12.2,12.2,0,0,1-5-4.8,14.7,14.7,0,0,1-1.8-7.4,18.1,18.1,0,0,1,1-5.8,13,13,0,0,1,2.9-4.4,14.2,14.2,0,0,1,4.6-2.8,18,18,0,0,1,6-.9,16,16,0,0,1,7.5,1.6,11,11,0,0,1,4.7,4.6,14.5,14.5,0,0,1,1.7,7.4,4.1,4.1,0,0,1-.1,1.1v.8H501.4V375h17.3l-2.1,2.6a4.6,4.6,0,0,0,.5-1,3.7,3.7,0,0,0,.2-.9,8.2,8.2,0,0,0-.7-3.4,5.6,5.6,0,0,0-2.1-2.2,6.2,6.2,0,0,0-3.1-.8,8.4,8.4,0,0,0-2.9.5,6.5,6.5,0,0,0-2.1,1.6,7.5,7.5,0,0,0-1.3,2.7,12.5,12.5,0,0,0-.5,3.6,10.1,10.1,0,0,0,.8,4.5,6.1,6.1,0,0,0,2.3,2.9,6.7,6.7,0,0,0,3.8,1,8.2,8.2,0,0,0,4.2-1,7,7,0,0,0,3-2.9l6.6,2.1a13.5,13.5,0,0,1-5.5,5.6,16.7,16.7,0,0,1-8.3,1.9A15.6,15.6,0,0,1,503.8,390.1Z"/>
          <path class="cls-4" d="M569.8,391.3h-7.5V375a8.7,8.7,0,0,0-.4-3,3.5,3.5,0,0,0-1.3-1.8,3.8,3.8,0,0,0-2.2-.6,5.4,5.4,0,0,0-2.5.6,4,4,0,0,0-1.6,1.8,6.7,6.7,0,0,0-.5,3v16.3h-7.6V375a12.1,12.1,0,0,0-.4-3,3.5,3.5,0,0,0-1.3-1.8,3.6,3.6,0,0,0-2.2-.6,4.8,4.8,0,0,0-2.4.6,4,4,0,0,0-1.6,1.8,6.7,6.7,0,0,0-.6,3v16.3h-7.3V364.6h7.3v3.9a6.5,6.5,0,0,1,1.9-2.4,7.2,7.2,0,0,1,2.5-1.6,10.6,10.6,0,0,1,3.1-.5,13.8,13.8,0,0,1,3.7.5,5.8,5.8,0,0,1,2.5,1.5,7.2,7.2,0,0,1,1.6,2.5,9.5,9.5,0,0,1,3.5-3.4,11.4,11.4,0,0,1,4.9-1.1,8.5,8.5,0,0,1,4.8,1.2,6.6,6.6,0,0,1,2.8,3.5,17.3,17.3,0,0,1,.8,5.5Z"/>
          <path class="cls-4" d="M194,420.3v40.6h-8.3V420.3Zm-3.2,0h8.6a18.8,18.8,0,0,1,8.2,1.6,12.3,12.3,0,0,1,5.2,4.6,12.4,12.4,0,0,1,1.8,6.7,11.8,11.8,0,0,1-7,11.3,18.8,18.8,0,0,1-8.2,1.6h-8.6v-6.6h8a8.9,8.9,0,0,0,3.8-.7,5.5,5.5,0,0,0,2.4-2.1,5.8,5.8,0,0,0,.9-3.3,5.7,5.7,0,0,0-.9-3.2,5.5,5.5,0,0,0-2.4-2.1,10.7,10.7,0,0,0-3.8-.7h-8Zm13,21.6,13.2,19h-9.9l-12.1-19Z"/>
          <path class="cls-4" d="M225.3,459.7a11.1,11.1,0,0,1-5-4.8,14.7,14.7,0,0,1-1.8-7.4,15.7,15.7,0,0,1,1-5.8,11.7,11.7,0,0,1,2.9-4.4,12.8,12.8,0,0,1,4.5-2.8,18.9,18.9,0,0,1,6-.9,16.1,16.1,0,0,1,7.6,1.6,11.6,11.6,0,0,1,4.7,4.6,15.6,15.6,0,0,1,1.7,7.4c0,.4-.1.7-.1,1.1s-.1.6-.1.8H222.9v-4.5h17.2l-2.1,2.6a2.3,2.3,0,0,0,.5-1,1.6,1.6,0,0,0,.2-.9,6.9,6.9,0,0,0-.7-3.4,6.1,6.1,0,0,0-2-2.2,6.6,6.6,0,0,0-3.2-.8,7.8,7.8,0,0,0-2.8.5,6,6,0,0,0-2.2,1.6,9.7,9.7,0,0,0-1.3,2.7,12.8,12.8,0,0,0-.4,3.6,10.1,10.1,0,0,0,.8,4.5,6.1,6.1,0,0,0,2.3,2.9,6.4,6.4,0,0,0,3.7,1,8.3,8.3,0,0,0,4.3-1,6.8,6.8,0,0,0,2.9-2.9l6.6,2.1a12.9,12.9,0,0,1-5.5,5.6,16.2,16.2,0,0,1-8.3,1.9A15.5,15.5,0,0,1,225.3,459.7Z"/>
          <path class="cls-4" d="M259.4,415.6v45.3h-7.5V415.6Z"/>
          <path class="cls-4" d="M267.2,420.8a4.4,4.4,0,0,1,3.2-1.2,4.7,4.7,0,0,1,3.2,1.2,4.2,4.2,0,0,1,1.3,3,4.4,4.4,0,0,1-1.3,3.1,4.7,4.7,0,0,1-3.2,1.2,4.4,4.4,0,0,1-3.2-1.2,4,4,0,0,1-1.3-3.1A3.8,3.8,0,0,1,267.2,420.8Zm6.7,13.4v26.7h-7.2V434.2Z"/>
          <path class="cls-4" d="M287.2,454.5a3.7,3.7,0,0,0,1.5,1.3,5.9,5.9,0,0,0,2.3.4,6.4,6.4,0,0,0,3.1-.7,5,5,0,0,0,2.3-2,5.8,5.8,0,0,0,.9-3.3l.9,3.5a6.9,6.9,0,0,1-1.4,4.3,9.9,9.9,0,0,1-3.7,2.6,14.5,14.5,0,0,1-4.7.8,10,10,0,0,1-4.6-1,7.7,7.7,0,0,1-4.7-7.4,8.4,8.4,0,0,1,1.2-4.5,7,7,0,0,1,3.6-2.9,13.5,13.5,0,0,1,5.7-1,20,20,0,0,1,4.4.4,17.5,17.5,0,0,1,3.3,1.3,6.6,6.6,0,0,1,1.9,1.4v3.6a8.8,8.8,0,0,0-3.5-1.7,14,14,0,0,0-4.1-.6,9.8,9.8,0,0,0-2.8.4,3.4,3.4,0,0,0-1.6,1.2,2.9,2.9,0,0,0-.5,1.9A3.3,3.3,0,0,0,287.2,454.5Zm-6.3-17.9a44.2,44.2,0,0,1,5.1-2.1,20.5,20.5,0,0,1,6.7-1,16.3,16.3,0,0,1,6.1,1,9.2,9.2,0,0,1,4.2,2.8,6.8,6.8,0,0,1,1.6,4.6v19h-7.3V443.6a4.9,4.9,0,0,0-.4-1.9,3.5,3.5,0,0,0-1.1-1.3,3.8,3.8,0,0,0-1.7-.8l-2.2-.2a13.4,13.4,0,0,0-3.5.4,16.3,16.3,0,0,0-2.9,1,7.4,7.4,0,0,0-1.8.9Z"/>
          <path class="cls-4" d="M318.3,460.9h-7.6V415.6h7.6Zm20.1-5.8a13.5,13.5,0,0,1-4.8,4.7,12.6,12.6,0,0,1-6.3,1.6,11.4,11.4,0,0,1-4.6-.9,10.9,10.9,0,0,1-3.6-2.8,11.5,11.5,0,0,1-2.3-4.4,19.1,19.1,0,0,1,0-11.6,12.3,12.3,0,0,1,2.3-4.4,10.9,10.9,0,0,1,3.6-2.8,11.4,11.4,0,0,1,4.6-.9,12.6,12.6,0,0,1,6.3,1.6,13.5,13.5,0,0,1,4.8,4.7,16.9,16.9,0,0,1,0,15.2Zm-7.1-11.7a6.5,6.5,0,0,0-2.6-2.6,7.4,7.4,0,0,0-3.6-.9,5.2,5.2,0,0,0-2.4.5,5.4,5.4,0,0,0-2.2,1.5,6.3,6.3,0,0,0-1.6,2.3,9.4,9.4,0,0,0,0,6.6,7.8,7.8,0,0,0,1.6,2.4,6.4,6.4,0,0,0,2.2,1.4,5.3,5.3,0,0,0,2.4.6,7.3,7.3,0,0,0,6.2-3.6,7.6,7.6,0,0,0,1-4.1A7.8,7.8,0,0,0,331.3,443.4Z"/>
          <path class="cls-4" d="M346.1,420.8a4.4,4.4,0,0,1,3.2-1.2,4.5,4.5,0,0,1,3.2,1.2,3.8,3.8,0,0,1,1.3,3,4,4,0,0,1-1.3,3.1,4.5,4.5,0,0,1-3.2,1.2,4.4,4.4,0,0,1-3.2-1.2,4,4,0,0,1-1.3-3.1A3.8,3.8,0,0,1,346.1,420.8Zm6.8,13.4v26.7h-7.3V434.2Z"/>
          <path class="cls-4" d="M367.7,415.6v45.3h-7.5V415.6Z"/>
          <path class="cls-4" d="M375.5,420.8a4.9,4.9,0,0,1,6.4,0,3.8,3.8,0,0,1,1.3,3,4,4,0,0,1-1.3,3.1,4.9,4.9,0,0,1-6.4,0,4.4,4.4,0,0,1-1.3-3.1A4.2,4.2,0,0,1,375.5,420.8Zm6.8,13.4v26.7H375V434.2Z"/>
          <path class="cls-4" d="M402.7,434.2v6.4H386.2v-6.4Zm-4.6-9.3v36h-7.3v-36Z"/>
          <path class="cls-4" d="M414.1,473.6h-7.7l6.7-15.4-11.1-24h8.4l8.5,21.2h-3.7l8.4-21.1h7.9Z"/>
        </g>
        <g>
          <circle class="cls-5" cx="306.2" cy="160.4" r="83.4"/>
          <g>
            <g>
              <g>
                <path class="cls-1" d="M312.2,216.2h0q-3,.3-6,.3V159.4Z"/>
                <path class="cls-1" d="M306.1,159.4v57.1l-5.9-.2h0Z"/>
                <path class="cls-1" d="M306.1,102.3v57.1l-5.9-56.8h0Z"/>
                <path class="cls-1" d="M300.2,102.6l5.9,56.8-11.8-55.9h0a55.8,55.8,0,0,1,5.9-.9Z"/>
                <path class="cls-1" d="M294.3,103.5l11.8,55.9-17.6-54.3h0a54.7,54.7,0,0,1,5.8-1.5Z"/>
                <path class="cls-1" d="M288.5,105.1l17.6,54.3-23.2-52.2h0a53.7,53.7,0,0,1,5.6-2.1Z"/>
                <path class="cls-1" d="M282.9,107.2l23.2,52.2-28.5-49.5h0a52.8,52.8,0,0,1,5.3-2.7Z"/>
                <path class="cls-1" d="M277.6,109.9l28.6,49.5-33.6-46.2h0a53.9,53.9,0,0,1,5-3.3Z"/>
                <path class="cls-1" d="M272.6,113.2l33.5,46.2L267.9,117h0a43.3,43.3,0,0,1,4.7-3.8Z"/>
                <path class="cls-1" d="M306.1,159.4l-5.9,56.9h0l-5.9-1h0Z"/>
                <path class="cls-1" d="M306.1,159.4l-11.8,55.9h0a35.3,35.3,0,0,1-5.8-1.6h0Z"/>
                <path class="cls-1" d="M306.1,159.4l-17.6,54.3h0a53.7,53.7,0,0,1-5.6-2.1h0Z"/>
                <path class="cls-1" d="M306.1,159.4l-23.2,52.2h0a52.8,52.8,0,0,1-5.3-2.7h0Z"/>
                <path class="cls-1" d="M306.1,159.4l-28.5,49.5h0a53.9,53.9,0,0,1-5-3.3h0Z"/>
                <path class="cls-1" d="M306.1,159.4l-33.5,46.3h0a58.1,58.1,0,0,1-4.6-3.8h0Z"/>
                <path class="cls-1" d="M306.1,159.4l-42.4,38.3h0c-1.3-1.5-2.6-3.1-3.8-4.7h0Z"/>
                <path class="cls-1" d="M306.1,159.4,260,193h0a53.9,53.9,0,0,1-3.3-5h0Z"/>
                <path class="cls-1" d="M306.1,159.4,256.7,188h0c-1-1.7-1.9-3.5-2.8-5.4h0Z"/>
                <path class="cls-1" d="M306.1,159.4l-52.2,23.3h0a53.7,53.7,0,0,1-2.1-5.6h.1Z"/>
                <path class="cls-1" d="M306.1,159.4l-54.3,17.7h0c-.6-1.9-1.2-3.9-1.6-5.8h0Z"/>
                <path class="cls-1" d="M306.1,159.4l-55.8,11.9h0a55.8,55.8,0,0,1-1-5.9h0Z"/>
                <path class="cls-1" d="M306.1,159.4l-56.7,6h0q-.3-3-.3-6Z"/>
                <path class="cls-1" d="M306.1,159.4H249a56.8,56.8,0,0,1,.3-5.9h0Z"/>
                <path class="cls-1" d="M306.1,159.4l-56.7-6h0a55.8,55.8,0,0,1,.9-5.9h0Z"/>
                <path class="cls-1" d="M306.1,159.4l-55.8-11.9h0a52.9,52.9,0,0,1,1.5-5.7h.1Z"/>
                <path class="cls-1" d="M306.1,159.4l-54.3-17.6h0a53.7,53.7,0,0,1,2.1-5.6h0Z"/>
                <path class="cls-1" d="M306.1,159.4l-52.2-23.2h0a55.2,55.2,0,0,1,2.8-5.4h0Z"/>
                <path class="cls-1" d="M306.1,159.4l-49.4-28.6h0a53.9,53.9,0,0,1,3.3-5h0Z"/>
                <path class="cls-1" d="M306.1,159.4,260,125.8h0a41.4,41.4,0,0,1,3.7-4.6h0Z"/>
                <path class="cls-1" d="M267.9,117l38.2,42.4-42.4-38.2h0a41.6,41.6,0,0,1,4.2-4.2Z"/>
                <path class="cls-1" d="M306.1,159.4l-38.2,42.5h0l-4.2-4.2h0Z"/>
              </g>
              <g id="Fill">
                <path class="cls-1" d="M363.3,159.4H306.1l56.9-5.9h0A56.8,56.8,0,0,1,363.3,159.4Z"/>
                <path class="cls-1" d="M306.1,159.4h57.2a58.8,58.8,0,0,1-.3,6h0Z"/>
                <path class="cls-1" d="M363,153.4h0l-56.9,6L362,147.5h0A40.4,40.4,0,0,1,363,153.4Z"/>
                <path class="cls-1" d="M363,165.4h0a55.8,55.8,0,0,1-.9,5.9h0l-55.9-11.9Z"/>
                <path class="cls-1" d="M362.1,147.5h0l-55.9,11.9,54.3-17.6h.1C361.1,143.6,361.7,145.6,362.1,147.5Z"/>
                <path class="cls-1" d="M362,171.3h0a38,38,0,0,1-1.5,5.8h0l-54.4-17.7Z"/>
                <path class="cls-1" d="M360.5,141.7h0l-54.4,17.7,52.2-23.2h0A37.1,37.1,0,0,1,360.5,141.7Z"/>
                <path class="cls-1" d="M360.5,177.1h0a54.2,54.2,0,0,1-2.2,5.6h0l-52.2-23.3Z"/>
                <path class="cls-1" d="M358.3,136.2h0l-52.2,23.2,49.5-28.6h0A34,34,0,0,1,358.3,136.2Z"/>
                <path class="cls-1" d="M358.3,182.7h0a52.8,52.8,0,0,1-2.7,5.3h0l-49.4-28.6Z"/>
                <path class="cls-1" d="M355.6,130.8h0l-49.5,28.6,46.3-33.5h0A41.3,41.3,0,0,1,355.6,130.8Z"/>
                <path class="cls-1" d="M355.6,188h0a52.9,52.9,0,0,1-3.2,5h0l-46.2-33.6Z"/>
                <path class="cls-1" d="M352.4,125.8h0l-46.3,33.6,42.5-38.2h0A42.2,42.2,0,0,1,352.4,125.8Z"/>
                <path class="cls-1" d="M352.4,193h0c-1.2,1.6-2.4,3.1-3.8,4.7h0l-42.4-38.3Z"/>
                <path class="cls-1" d="M344.4,116.9c1.4,1.3,2.9,2.8,4.2,4.2h0l-42.5,38.3,38.3-42.5Z"/>
                <path class="cls-1" d="M306.1,159.4l42.5,38.3h0l-4.2,4.2h0Z"/>
                <path class="cls-1" d="M344.4,116.9h0l-38.3,42.5,33.6-46.3h0Z"/>
                <path class="cls-1" d="M344.4,201.9h0a59.9,59.9,0,0,1-4.7,3.8h0l-33.5-46.3Z"/>
                <path class="cls-1" d="M339.7,113.2h0l-33.6,46.2L334.7,110h0A32.7,32.7,0,0,1,339.7,113.2Z"/>
                <path class="cls-1" d="M339.7,205.6h0a43.2,43.2,0,0,1-5,3.3h0l-28.6-49.5Z"/>
                <path class="cls-1" d="M334.7,109.9h0l-28.6,49.5,23.3-52.2h0A52.8,52.8,0,0,1,334.7,109.9Z"/>
                <path class="cls-1" d="M334.7,208.9h0a52.8,52.8,0,0,1-5.3,2.7h0l-23.3-52.2Z"/>
                <path class="cls-1" d="M329.4,211.6h0a54.2,54.2,0,0,1-5.6,2.2h0l-17.7-54.3Z"/>
                <path class="cls-1" d="M329.4,107.2h0l-23.3,52.2,17.7-54.3h0Z"/>
                <path class="cls-1" d="M323.8,213.7h0a38.3,38.3,0,0,1-5.8,1.6h0l-11.9-55.9Z"/>
                <path class="cls-1" d="M323.8,105h0l-17.6,54.4L318,103.5h0A54.7,54.7,0,0,1,323.8,105Z"/>
                <path class="cls-1" d="M318,215.3h0l-5.9,1h0l-6-56.9Z"/>
                <path class="cls-1" d="M318,103.5h0l-11.9,55.9,6.1-56.8h0A58.1,58.1,0,0,1,318,103.5Z"/>
                <path class="cls-1" d="M312.2,102.6h0l-6,56.8V102.3Z"/>
              </g>
            </g>
            <path class="cls-1" d="M306.1,104.8a54.6,54.6,0,1,1-54.6,54.6,54.7,54.7,0,0,1,54.6-54.6m0-2.5a57.1,57.1,0,1,0,57.2,57.1A57.1,57.1,0,0,0,306.1,102.3Z"/>
            <g>
              <rect class="cls-5" x="305.6" y="107" width="1.1" height="8.66"/>
              <rect class="cls-5" x="281.6" y="113.5" width="1.1" height="8.59" transform="translate(-20.5 161.1) rotate(-30.8)"/>
              <rect class="cls-5" x="264" y="131.1" width="1.1" height="8.56" transform="translate(15.5 297.6) rotate(-60.2)"/>
              <rect class="cls-5" x="253.8" y="158.9" width="8.5" height="1.11"/>
              <rect class="cls-5" x="260.2" y="183" width="8.6" height="1.11" transform="translate(-56.2 155.9) rotate(-29.8)"/>
              <rect class="cls-5" x="277.8" y="200.5" width="8.7" height="1.11" transform="translate(-33.8 343.2) rotate(-59.7)"/>
              <rect class="cls-5" x="305.6" y="203.2" width="1.1" height="8.66"/>
              <rect class="cls-5" x="329.7" y="196.7" width="1.1" height="8.72" transform="translate(-56.3 194.2) rotate(-30.3)"/>
              <rect class="cls-5" x="347.2" y="179.2" width="1.1" height="8.52" transform="translate(15 393) rotate(-60)"/>
              <rect class="cls-5" x="349.9" y="158.9" width="8.7" height="1.11"/>
              <rect class="cls-5" x="343.5" y="134.9" width="8.5" height="1.11" transform="translate(-21.1 191.8) rotate(-30)"/>
              <rect class="cls-5" x="325.9" y="117.2" width="8.6" height="1.11" transform="matrix(0.51, -0.86, 0.86, 0.51, 60.13, 341.31)"/>
            </g>
            <path class="cls-5" d="M303.9,159.8a2.1,2.1,0,0,1,2-2.4,2.1,2.1,0,0,1,2.3,2c.2,1.3,1.9,39,1.9,39S304.2,160.9,303.9,159.8Z"/>
            <circle class="cls-5" cx="306.1" cy="159.4" r="4.5"/>
            <rect class="cls-1" x="303.5" y="97.2" width="5.3" height="6.29"/>
            <path class="cls-1" d="M303.9,91.2h4.4A2.8,2.8,0,0,1,311,94v2a2.8,2.8,0,0,1-2.7,2.7h-4.4a2.8,2.8,0,0,1-2.8-2.7V94A3,3,0,0,1,303.9,91.2Z"/>
            <rect class="cls-1" x="333.3" y="106.1" width="5.2" height="4.26" transform="translate(73.8 344.5) rotate(-59.9)"/>
            <path class="cls-1" d="M335.8,102.4l5.6,3.3a1.6,1.6,0,0,1,.6,2.2h0a1.7,1.7,0,0,1-2.3.6l-5.6-3.2a1.8,1.8,0,0,1-.6-2.3h0A1.9,1.9,0,0,1,335.8,102.4Z"/>
          </g>
        </g>
        <g>
          <path class="cls-4" d="M18.9,508.5a16.2,16.2,0,0,1,3.1-4.6,14.1,14.1,0,0,1,4.6-3,15.8,15.8,0,0,1,11.6,0,14.1,14.1,0,0,1,4.6,3,16.2,16.2,0,0,1,3.1,4.6,17.3,17.3,0,0,1,0,11.6,14.9,14.9,0,0,1-3.1,4.6,12.1,12.1,0,0,1-4.6,3.1,14,14,0,0,1-5.8,1.1,13.6,13.6,0,0,1-5.8-1.1,12.1,12.1,0,0,1-4.6-3.1,14.9,14.9,0,0,1-3.1-4.6,17.3,17.3,0,0,1,0-11.6Zm4.7,9.8a9.4,9.4,0,0,0,1.9,3.2,9.2,9.2,0,0,0,3.1,2,9.2,9.2,0,0,0,3.8.8,9.6,9.6,0,0,0,3.8-.8,7.9,7.9,0,0,0,3-2,9.6,9.6,0,0,0,2-3.2,10.2,10.2,0,0,0,.7-4,10.9,10.9,0,0,0-.7-4,8.9,8.9,0,0,0-1.9-3.1,9.5,9.5,0,0,0-3.1-2.1,9.2,9.2,0,0,0-3.8-.7,9.2,9.2,0,0,0-3.8.7,9.5,9.5,0,0,0-3.1,2.1,8.9,8.9,0,0,0-1.9,3.1,10.9,10.9,0,0,0-.7,4A10.2,10.2,0,0,0,23.6,518.3Z"/>
          <path class="cls-4" d="M55.4,528.3H51.1V497.1h4.3Zm14-4a8.7,8.7,0,0,1-3.3,3.3,9.3,9.3,0,0,1-4.4,1.1,8.3,8.3,0,0,1-3.2-.6,7.5,7.5,0,0,1-2.4-1.9,10.3,10.3,0,0,1-1.7-3.1,12.2,12.2,0,0,1-.5-4,12.5,12.5,0,0,1,.5-4,8.7,8.7,0,0,1,1.7-3,6.3,6.3,0,0,1,2.4-1.9,6.8,6.8,0,0,1,3.2-.7,8.3,8.3,0,0,1,4.4,1.2,7.8,7.8,0,0,1,3.3,3.2,11,11,0,0,1,0,10.4Zm-4-8.3a4.8,4.8,0,0,0-2-2,5,5,0,0,0-2.7-.7,4.1,4.1,0,0,0-1.9.4,4.5,4.5,0,0,0-1.7,1.1,5.7,5.7,0,0,0-1.2,1.8,7,7,0,0,0-.5,2.5,6.2,6.2,0,0,0,.5,2.5,5.2,5.2,0,0,0,1.2,1.9,6.2,6.2,0,0,0,1.7,1.1,5.8,5.8,0,0,0,1.9.4,6,6,0,0,0,2.7-.7,6.4,6.4,0,0,0,2-2,6.6,6.6,0,0,0,.8-3.2A5.9,5.9,0,0,0,65.4,516Z"/>
          <path class="cls-4" d="M71.9,533a1.8,1.8,0,0,0,1.1.3,2,2,0,0,0,1.1-.3,1.7,1.7,0,0,0,.6-1.1,9,9,0,0,0,.2-1.8V509.9h4.3v21a9.1,9.1,0,0,1-.7,3.5,5.8,5.8,0,0,1-2.1,2.3,6.3,6.3,0,0,1-3.2.7,5,5,0,0,1-1.8-.2,4,4,0,0,1-1.3-.7,2.2,2.2,0,0,1-1-.9l2-3.3A1.8,1.8,0,0,0,71.9,533ZM75,500.7a2.6,2.6,0,0,1,1.9-.7,2.9,2.9,0,0,1,2,.7,2.9,2.9,0,0,1,0,3.8,2.9,2.9,0,0,1-2,.7,2.6,2.6,0,0,1-1.9-.7,2.7,2.7,0,0,1,0-3.8Z"/>
          <path class="cls-4" d="M88.2,527.5a8.7,8.7,0,0,1-3.3-3.3,10.7,10.7,0,0,1-1.2-5.1,12.3,12.3,0,0,1,.7-3.9,9.2,9.2,0,0,1,2-3.1,9.1,9.1,0,0,1,3-1.9,9.7,9.7,0,0,1,3.9-.7,10.9,10.9,0,0,1,5,1.1,7.6,7.6,0,0,1,3.1,3.3,9.7,9.7,0,0,1,1.1,5v1.2H86.3v-3H98.8L97.4,519l.3-.7a1.9,1.9,0,0,0,.2-.7,5.1,5.1,0,0,0-.6-2.5,4.4,4.4,0,0,0-1.6-1.7,4.8,4.8,0,0,0-2.4-.6,5.1,5.1,0,0,0-2.2.4,6.1,6.1,0,0,0-1.6,1.2,4.9,4.9,0,0,0-1,1.9,10.3,10.3,0,0,0-.4,2.7,8.1,8.1,0,0,0,.6,3.3,4.6,4.6,0,0,0,1.8,2.1,5.1,5.1,0,0,0,2.8.8,6.2,6.2,0,0,0,3.1-.8,5.2,5.2,0,0,0,2.2-2.2l3.8,1.5a9.9,9.9,0,0,1-3.8,3.8,11.5,11.5,0,0,1-5.5,1.2A9.6,9.6,0,0,1,88.2,527.5Z"/>
          <path class="cls-4" d="M110.3,522.2a5.3,5.3,0,0,0,2.1,2.1,5.7,5.7,0,0,0,2.9.7,6.9,6.9,0,0,0,2.5-.4,7,7,0,0,0,2.1-1.1,5.2,5.2,0,0,0,1.4-1.6v4.7a6.1,6.1,0,0,1-2.6,1.6,13.6,13.6,0,0,1-3.6.5,10.7,10.7,0,0,1-5.1-1.2,9,9,0,0,1-3.6-3.4,10.3,10.3,0,0,1,0-10,9.8,9.8,0,0,1,8.7-4.6,10.5,10.5,0,0,1,3.6.6,6,6,0,0,1,2.6,1.5v4.8a4.6,4.6,0,0,0-1.4-1.7,10.3,10.3,0,0,0-2.1-1.1,10.9,10.9,0,0,0-2.5-.4,5.7,5.7,0,0,0-2.9.8,5.3,5.3,0,0,0-2.1,2.1,6,6,0,0,0-.7,3A6.2,6.2,0,0,0,110.3,522.2Z"/>
          <path class="cls-4" d="M134,509.9v3.8H123.5v-3.8Zm-3.1-6.4v24.8h-4.3V503.5Z"/>
          <path class="cls-4" d="M137.6,500.7a2.6,2.6,0,0,1,1.9-.7,2.6,2.6,0,1,1,0,5.2,2.6,2.6,0,0,1-1.9-.7,2.7,2.7,0,0,1,0-3.8Zm4.1,9.2v18.4h-4.3V509.9Z"/>
          <path class="cls-4" d="M149.6,509.9l4.8,11.9,4.8-11.9h4.7L154.4,530l-9.6-20.1Z"/>
          <path class="cls-4" d="M169.7,527.5a8.7,8.7,0,0,1-3.3-3.3,10.6,10.6,0,0,1-1.1-5.1,12.3,12.3,0,0,1,.6-3.9,9.2,9.2,0,0,1,2-3.1,9.1,9.1,0,0,1,3-1.9,10,10,0,0,1,3.9-.7,10.9,10.9,0,0,1,5,1.1,7.6,7.6,0,0,1,3.1,3.3,9.7,9.7,0,0,1,1.2,5c0,.3-.1.5-.1.7v.5H167.8v-3h12.5l-1.4,1.9.3-.7a1.9,1.9,0,0,0,.2-.7,5.1,5.1,0,0,0-.6-2.5,4.4,4.4,0,0,0-1.6-1.7,4.8,4.8,0,0,0-2.4-.6,5.4,5.4,0,0,0-2.2.4,6.1,6.1,0,0,0-1.6,1.2,6.7,6.7,0,0,0-1,1.9,10.3,10.3,0,0,0-.4,2.7,6.7,6.7,0,0,0,.7,3.3,3.9,3.9,0,0,0,1.7,2.1,5.1,5.1,0,0,0,2.8.8,5.9,5.9,0,0,0,3.1-.8,5.2,5.2,0,0,0,2.2-2.2l3.8,1.5a9.9,9.9,0,0,1-3.8,3.8,11.5,11.5,0,0,1-5.5,1.2A9.9,9.9,0,0,1,169.7,527.5Z"/>
          <path class="cls-4" d="M189.6,509.2a2.8,2.8,0,0,1,4.8,2,2.4,2.4,0,0,1-.8,1.9,2.7,2.7,0,0,1-4,0,2.7,2.7,0,0,1-.8-1.9A2.8,2.8,0,0,1,189.6,509.2Zm0,15.1a2.9,2.9,0,0,1,4,0,2.4,2.4,0,0,1,.8,2,2.4,2.4,0,0,1-.8,1.9,2.7,2.7,0,0,1-4,0,2.7,2.7,0,0,1-.8-1.9A2.8,2.8,0,0,1,189.6,524.3Z"/>
          <path class="cls-4" d="M22.9,548.3v28H19.5v-28Zm-1.5,0h5.7a12.6,12.6,0,0,1,4.9,1,8.8,8.8,0,0,1,3.4,2.9,8.4,8.4,0,0,1,0,9,8.8,8.8,0,0,1-3.4,2.9,11,11,0,0,1-4.9,1H21.4v-3h5.7a7.9,7.9,0,0,0,3.2-.6,5.1,5.1,0,0,0,2.2-1.9,5.2,5.2,0,0,0,.8-2.9,5.5,5.5,0,0,0-.8-2.9,4.9,4.9,0,0,0-2.2-1.8,6.6,6.6,0,0,0-3.2-.7H21.4Zm6.9,14.2,10,13.8H34.1l-9.6-13.8Z"/>
          <path class="cls-4" d="M44.4,575.5a7.3,7.3,0,0,1-3.1-3.4,10,10,0,0,1-1.1-5,12.3,12.3,0,0,1,.6-3.9,9.1,9.1,0,0,1,1.9-3,8.4,8.4,0,0,1,2.9-2,10.6,10.6,0,0,1,3.7-.7,8.9,8.9,0,0,1,4.7,1.2,7.5,7.5,0,0,1,2.9,3.2A11.3,11.3,0,0,1,58,567v.5a1,1,0,0,0-.1.4H42.2v-2.7H55.4L54.1,567a1.6,1.6,0,0,0,.3-.6,2,2,0,0,0,.1-.7,5.1,5.1,0,0,0-.7-2.8A4.7,4.7,0,0,0,52,561a5,5,0,0,0-2.7-.7,7,7,0,0,0-2.5.5A5.7,5.7,0,0,0,45,562a7.2,7.2,0,0,0-1.2,2.1,8.2,8.2,0,0,0-.4,2.8,8.2,8.2,0,0,0,.7,3.7,4.5,4.5,0,0,0,2,2.3,5.5,5.5,0,0,0,3.2.8,7,7,0,0,0,3.3-.8,6.7,6.7,0,0,0,2.5-2.5l2.6,1.6a8.8,8.8,0,0,1-3.7,3.5,10.1,10.1,0,0,1-5.1,1.2A8.4,8.4,0,0,1,44.4,575.5Z"/>
          <path class="cls-4" d="M62.1,562a8.7,8.7,0,0,1,3.3-3.3,8.9,8.9,0,0,1,4.5-1.2,6.8,6.8,0,0,1,3.2.7,7.2,7.2,0,0,1,2.4,1.9,8.6,8.6,0,0,1,1.6,3,12.5,12.5,0,0,1,.6,4,12,12,0,0,1-.6,4,10.1,10.1,0,0,1-1.6,3.1,8.8,8.8,0,0,1-2.4,1.9,8.3,8.3,0,0,1-3.2.6,10,10,0,0,1-4.5-1.1,8.3,8.3,0,0,1-3.3-3.4,10.7,10.7,0,0,1,0-10.2Zm2.8,8.7a6.3,6.3,0,0,0,2.3,2.3,6.7,6.7,0,0,0,3.1.7,5.2,5.2,0,0,0,2.1-.4,5.9,5.9,0,0,0,1.9-1.3,6.4,6.4,0,0,0,1.4-2.1,7.8,7.8,0,0,0,.5-2.8,8.2,8.2,0,0,0-.5-2.8,7.7,7.7,0,0,0-1.4-2.1,7.6,7.6,0,0,0-1.9-1.2,5.4,5.4,0,0,0-2.1-.5,6.8,6.8,0,0,0-3.1.8,6,6,0,0,0-2.3,2.2,8.5,8.5,0,0,0,0,7.2Zm14.5-25.6v31.2H76.2V545.1Z"/>
          <path class="cls-4" d="M88.9,571.6a3.4,3.4,0,0,0,1.3,1.6,5.1,5.1,0,0,0,4.6-.1,3.7,3.7,0,0,0,1.7-1.6,4.8,4.8,0,0,0,.6-2.4V557.9h3.2v18.4H97.1v-2.9a7,7,0,0,1-2.3,2.5,6.6,6.6,0,0,1-3.2.8,6.4,6.4,0,0,1-3.4-.9,6,6,0,0,1-2.2-2.5,8.6,8.6,0,0,1-.7-3.8V557.9h3.2v11.2A6.2,6.2,0,0,0,88.9,571.6Z"/>
          <path class="cls-4" d="M108.6,570.5a5.6,5.6,0,0,0,2.2,2.4,6.6,6.6,0,0,0,3.2.8,7.4,7.4,0,0,0,5.1-1.7,6.1,6.1,0,0,0,1.3-1.6v4a6,6,0,0,1-2.7,1.7,11.5,11.5,0,0,1-3.7.6,9.5,9.5,0,0,1-4.8-1.2,8.6,8.6,0,0,1-3.4-3.4,9.3,9.3,0,0,1-1.3-5,9,9,0,0,1,1.3-4.9,8,8,0,0,1,3.4-3.4,8.6,8.6,0,0,1,4.8-1.3,11.5,11.5,0,0,1,3.7.6,6.1,6.1,0,0,1,2.7,1.8v4a5.2,5.2,0,0,0-1.3-1.7,8.4,8.4,0,0,0-2.3-1.2,8.7,8.7,0,0,0-2.8-.5,5.7,5.7,0,0,0-3.2.9,4.9,4.9,0,0,0-2.2,2.3,6.9,6.9,0,0,0,0,6.8Z"/>
          <path class="cls-4" d="M128,575.5a7.7,7.7,0,0,1-3-3.4,10,10,0,0,1-1.1-5,12.3,12.3,0,0,1,.6-3.9,9.1,9.1,0,0,1,1.9-3,7.5,7.5,0,0,1,2.9-2,10.6,10.6,0,0,1,3.7-.7,8.5,8.5,0,0,1,4.6,1.2,7.2,7.2,0,0,1,3,3.2,11.3,11.3,0,0,1,1.1,5.1,4.3,4.3,0,0,0-.1.5v.4H125.9v-2.7h13.2l-1.3,1.8a1.6,1.6,0,0,0,.3-.6c0-.3.1-.5.1-.7a5.1,5.1,0,0,0-.7-2.8,4.7,4.7,0,0,0-1.8-1.9,5,5,0,0,0-2.7-.7,6.6,6.6,0,0,0-2.5.5,5.7,5.7,0,0,0-1.8,1.2,5.5,5.5,0,0,0-1.2,2.1,8.2,8.2,0,0,0-.4,2.8,8.2,8.2,0,0,0,.7,3.7,4.5,4.5,0,0,0,2,2.3,5.5,5.5,0,0,0,3.2.8,7.3,7.3,0,0,0,3.3-.8,5.8,5.8,0,0,0,2.4-2.5l2.6,1.6a8.1,8.1,0,0,1-3.6,3.5,10.4,10.4,0,0,1-5.1,1.2A9,9,0,0,1,128,575.5Z"/>
          <path class="cls-4" d="M164.5,557.9v3h-9.2v-3Zm-3-6.4v24.8h-3.2V551.5Z"/>
          <path class="cls-4" d="M171,576.3h-3.2V557.9H171Zm4.4-15.6-1.3-.2a2.7,2.7,0,0,0-1.9.6,3.2,3.2,0,0,0-1,1.7,15.2,15.2,0,0,0-.2,2.3h-1.5a10.1,10.1,0,0,1,.8-3.9,7.9,7.9,0,0,1,2-2.7,4.7,4.7,0,0,1,2.6-1,5.7,5.7,0,0,1,1.8.3,3.9,3.9,0,0,1,1.6,1l-1.8,2.6Z"/>
          <path class="cls-4" d="M183.5,572.4a3.3,3.3,0,0,0,1.4,1.2,6.5,6.5,0,0,0,2,.4,6,6,0,0,0,2.7-.6,5.2,5.2,0,0,0,1.9-1.7,5.6,5.6,0,0,0,.7-2.6l.6,2.4a3.9,3.9,0,0,1-1,2.9,7.6,7.6,0,0,1-2.6,1.8,11.8,11.8,0,0,1-3.1.5,6.4,6.4,0,0,1-3.1-.7,5.2,5.2,0,0,1-2.4-2,5.5,5.5,0,0,1-.9-3.2,5.4,5.4,0,0,1,.9-3.1,5.8,5.8,0,0,1,2.5-2.1,8.9,8.9,0,0,1,3.8-.7,10.9,10.9,0,0,1,3.4.4,6.8,6.8,0,0,1,2.1,1.1l1.1.9v1.9a11.1,11.1,0,0,0-2.9-1.4,10.6,10.6,0,0,0-3.1-.4,6.5,6.5,0,0,0-2.6.4,3.1,3.1,0,0,0-1.4,1.1,2.6,2.6,0,0,0-.5,1.7A2.7,2.7,0,0,0,183.5,572.4Zm-2.6-12.6a15.4,15.4,0,0,1,2.9-1.5,11.5,11.5,0,0,1,4.4-.8,9.2,9.2,0,0,1,3.8.7,6,6,0,0,1,2.5,1.9,4.9,4.9,0,0,1,.9,3v13.2h-3.2V563.6a3.5,3.5,0,0,0-.3-1.6,4.5,4.5,0,0,0-.9-1l-1.4-.5-1.6-.2a8.8,8.8,0,0,0-2.4.3l-1.9.8a6.2,6.2,0,0,0-1.2.8Z"/>
          <path class="cls-4" d="M201.4,557.9l5.2,13,5.2-13h3.6l-8.8,19.8-8.8-19.8Z"/>
          <path class="cls-4" d="M221,575.5a7.7,7.7,0,0,1-3-3.4,10,10,0,0,1-1.1-5,12.3,12.3,0,0,1,.6-3.9,9.1,9.1,0,0,1,1.9-3,7.5,7.5,0,0,1,2.9-2,10.6,10.6,0,0,1,3.7-.7,8.5,8.5,0,0,1,4.6,1.2,7.2,7.2,0,0,1,3,3.2,11.3,11.3,0,0,1,1.1,5.1,4.3,4.3,0,0,0-.1.5v.4H218.9v-2.7h13.2l-1.3,1.8a1.6,1.6,0,0,0,.3-.6c0-.3.1-.5.1-.7a5.1,5.1,0,0,0-.7-2.8,4.7,4.7,0,0,0-1.8-1.9,5,5,0,0,0-2.7-.7,6.6,6.6,0,0,0-2.5.5,5.7,5.7,0,0,0-1.8,1.2,5.5,5.5,0,0,0-1.2,2.1,8.2,8.2,0,0,0-.4,2.8,8.2,8.2,0,0,0,.7,3.7,4.5,4.5,0,0,0,2,2.3,5.5,5.5,0,0,0,3.2.8,7.3,7.3,0,0,0,3.3-.8,5.8,5.8,0,0,0,2.4-2.5l2.6,1.6a8.1,8.1,0,0,1-3.6,3.5,10.4,10.4,0,0,1-5.1,1.2A9,9,0,0,1,221,575.5Z"/>
          <path class="cls-4" d="M242.3,545.1v31.2h-3.2V545.1Z"/>
          <path class="cls-4" d="M266.8,557.9v3h-9.2v-3Zm-3-6.4v24.8h-3.2V551.5Z"/>
          <path class="cls-4" d="M270.7,548.8a1.8,1.8,0,0,1,1.5-.7,2.1,2.1,0,0,1,1.6.7,2,2,0,0,1,.6,1.5,2.1,2.1,0,0,1-2.2,2.2,2,2,0,0,1-1.5-.6,2.1,2.1,0,0,1-.7-1.6A1.8,1.8,0,0,1,270.7,548.8Zm3.1,9.1v18.4h-3.2V557.9Z"/>
          <path class="cls-4" d="M305.6,576.3h-3.2V565.1a9.8,9.8,0,0,0-.3-2.6,4.4,4.4,0,0,0-1.2-1.5,3.9,3.9,0,0,0-2-.5,4.4,4.4,0,0,0-2.3.6,2.9,2.9,0,0,0-1.4,1.5,5.1,5.1,0,0,0-.6,2.5v11.2h-3.2V565.1a9.8,9.8,0,0,0-.3-2.6,4.4,4.4,0,0,0-1.2-1.5,3.9,3.9,0,0,0-2-.5,4.4,4.4,0,0,0-2.3.6,2.9,2.9,0,0,0-1.4,1.5,5.1,5.1,0,0,0-.6,2.5v11.2h-3.2V557.9h3.2v2.7a8.4,8.4,0,0,1,1.3-1.7,4.2,4.2,0,0,1,1.7-1,5.2,5.2,0,0,1,2.1-.4,7.3,7.3,0,0,1,2.3.4,7.6,7.6,0,0,1,1.9,1.2A4,4,0,0,1,294,561a7.6,7.6,0,0,1,2.4-2.6,6.3,6.3,0,0,1,3.3-.9,5.5,5.5,0,0,1,3.2.9,4.4,4.4,0,0,1,2,2.4,9.4,9.4,0,0,1,.7,3.9Z"/>
          <path class="cls-4" d="M314.3,575.5a7.3,7.3,0,0,1-3.1-3.4,11.2,11.2,0,0,1-1.1-5,12.3,12.3,0,0,1,.6-3.9,9.1,9.1,0,0,1,1.9-3,8.4,8.4,0,0,1,2.9-2,10.6,10.6,0,0,1,3.7-.7,8.9,8.9,0,0,1,4.7,1.2,6.5,6.5,0,0,1,2.9,3.2,11.3,11.3,0,0,1,1.1,5.1v.5a1,1,0,0,1-.1.4H312.1v-2.7h13.2L324,567a1.6,1.6,0,0,0,.3-.6,2,2,0,0,0,.1-.7,5.1,5.1,0,0,0-.7-2.8,4.9,4.9,0,0,0-4.5-2.6,7,7,0,0,0-2.5.5,5.7,5.7,0,0,0-1.8,1.2,7.2,7.2,0,0,0-1.2,2.1,11.8,11.8,0,0,0-.4,2.8,9.8,9.8,0,0,0,.7,3.7,5,5,0,0,0,2,2.3,5.7,5.7,0,0,0,3.2.8,6.4,6.4,0,0,0,5.8-3.3l2.6,1.6a8.8,8.8,0,0,1-3.7,3.5,10.1,10.1,0,0,1-5.1,1.2A8.4,8.4,0,0,1,314.3,575.5Z"/>
          <path class="cls-4" d="M346.3,572.4a3.3,3.3,0,0,0,1.4,1.2,6.5,6.5,0,0,0,2.1.4,5.5,5.5,0,0,0,2.6-.6,5.2,5.2,0,0,0,1.9-1.7,4.6,4.6,0,0,0,.7-2.6l.6,2.4a3.9,3.9,0,0,1-1,2.9,6.8,6.8,0,0,1-2.6,1.8,11.2,11.2,0,0,1-3.1.5,6.7,6.7,0,0,1-3.1-.7,5.2,5.2,0,0,1-2.4-2,6.3,6.3,0,0,1-.8-3.2,6.2,6.2,0,0,1,.8-3.1,5.8,5.8,0,0,1,2.5-2.1,9.4,9.4,0,0,1,3.9-.7,10.6,10.6,0,0,1,3.3.4,6.8,6.8,0,0,1,2.1,1.1l1.1.9v1.9a11.1,11.1,0,0,0-2.9-1.4,10.1,10.1,0,0,0-3.1-.4,6.5,6.5,0,0,0-2.6.4,3.1,3.1,0,0,0-1.4,1.1,3.4,3.4,0,0,0-.5,1.7A3.5,3.5,0,0,0,346.3,572.4Zm-2.5-12.6a14.1,14.1,0,0,1,2.8-1.5,11.5,11.5,0,0,1,4.4-.8,9.2,9.2,0,0,1,3.8.7,5.4,5.4,0,0,1,2.5,1.9,4.9,4.9,0,0,1,.9,3v13.2H355V563.6a3.5,3.5,0,0,0-.3-1.6,2.2,2.2,0,0,0-.9-1,4.6,4.6,0,0,0-1.4-.5l-1.6-.2a8.8,8.8,0,0,0-2.4.3l-1.9.8a6.2,6.2,0,0,0-1.2.8Z"/>
          <path class="cls-4" d="M375,562.6a3.4,3.4,0,0,0-1.3-1.6,5.1,5.1,0,0,0-4.6.1,4.4,4.4,0,0,0-1.7,1.6,4.8,4.8,0,0,0-.6,2.4v11.2h-3.2V557.9h3.2v2.9a8,8,0,0,1,2.3-2.5,6.9,6.9,0,0,1,3.2-.8,6.2,6.2,0,0,1,3.4.9,6.7,6.7,0,0,1,2.2,2.5,8.6,8.6,0,0,1,.7,3.8v11.6h-3.2V565.1A6.2,6.2,0,0,0,375,562.6Z"/>
          <path class="cls-4" d="M384.3,562a10.4,10.4,0,0,1,3.3-3.3,9.3,9.3,0,0,1,4.6-1.2,6.2,6.2,0,0,1,3.1.7,6.7,6.7,0,0,1,2.5,1.9,8.6,8.6,0,0,1,1.6,3,16.2,16.2,0,0,1,.5,4,15.6,15.6,0,0,1-.5,4,10.1,10.1,0,0,1-1.6,3.1,7.9,7.9,0,0,1-2.5,1.9,7.5,7.5,0,0,1-3.1.6,10.4,10.4,0,0,1-4.6-1.1,9.8,9.8,0,0,1-3.3-3.4,11.4,11.4,0,0,1,0-10.2Zm2.9,8.7a5.7,5.7,0,0,0,2.3,2.3,6.4,6.4,0,0,0,3.1.7,5.2,5.2,0,0,0,2.1-.4,5.9,5.9,0,0,0,1.9-1.3,6.4,6.4,0,0,0,1.4-2.1,7.8,7.8,0,0,0,.5-2.8,8.2,8.2,0,0,0-.5-2.8,7.7,7.7,0,0,0-1.4-2.1,7.6,7.6,0,0,0-1.9-1.2,5.4,5.4,0,0,0-2.1-.5,6.5,6.5,0,0,0-3.1.8,5.4,5.4,0,0,0-2.3,2.2,7.6,7.6,0,0,0,0,7.2Zm14.5-25.6v31.2h-3.2V545.1Z"/>
          <path class="cls-4" d="M419.2,562a8.7,8.7,0,0,1,3.3-3.3,9,9,0,0,1,4.6-1.2,6.4,6.4,0,0,1,3.1.7,6.7,6.7,0,0,1,2.5,1.9,8.4,8.4,0,0,1,1.5,3,12.5,12.5,0,0,1,.6,4,12,12,0,0,1-.6,4,9.9,9.9,0,0,1-1.5,3.1,7.9,7.9,0,0,1-2.5,1.9,7.8,7.8,0,0,1-3.1.6,10.1,10.1,0,0,1-4.6-1.1,8.3,8.3,0,0,1-3.3-3.4,11.4,11.4,0,0,1,0-10.2Zm2.9,8.7a5.1,5.1,0,0,0,2.3,2.3,6.4,6.4,0,0,0,3.1.7,5.2,5.2,0,0,0,2.1-.4,5.9,5.9,0,0,0,1.9-1.3,6.2,6.2,0,0,0,1.3-2.1,6.1,6.1,0,0,0,.6-2.8,6.4,6.4,0,0,0-.6-2.8,7.4,7.4,0,0,0-1.3-2.1,7.6,7.6,0,0,0-1.9-1.2,5.4,5.4,0,0,0-2.1-.5,6.5,6.5,0,0,0-3.1.8,4.9,4.9,0,0,0-2.3,2.2,7.7,7.7,0,0,0,0,7.2Zm14.5-25.6v31.2h-3.2V545.1Z"/>
          <path class="cls-4" d="M445,575.5a7.9,7.9,0,0,1-3.1-3.4,11.2,11.2,0,0,1-1.1-5,10,10,0,0,1,.7-3.9,7.5,7.5,0,0,1,1.8-3,8.4,8.4,0,0,1,2.9-2,11.1,11.1,0,0,1,3.7-.7,8.9,8.9,0,0,1,4.7,1.2,7.2,7.2,0,0,1,3,3.2,11.3,11.3,0,0,1,1,5.1v.9H442.8v-2.7H456l-1.2,1.8a3.9,3.9,0,0,1,.2-.6,2,2,0,0,0,.1-.7,6.1,6.1,0,0,0-.6-2.8,5.8,5.8,0,0,0-1.9-1.9,4.5,4.5,0,0,0-2.7-.7,6,6,0,0,0-2.4.5,5.2,5.2,0,0,0-1.9,1.2,7.2,7.2,0,0,0-1.2,2.1,11.8,11.8,0,0,0-.4,2.8,9.8,9.8,0,0,0,.7,3.7,5,5,0,0,0,2,2.3,5.7,5.7,0,0,0,3.2.8,6.4,6.4,0,0,0,5.8-3.3l2.6,1.6a9.2,9.2,0,0,1-3.6,3.5,10.8,10.8,0,0,1-5.2,1.2A8.4,8.4,0,0,1,445,575.5Z"/>
          <path class="cls-4" d="M466.2,545.1v31.2H463V545.1Z"/>
          <path class="cls-4" d="M474.2,572.4a4.1,4.1,0,0,0,1.4,1.2,6.5,6.5,0,0,0,2.1.4,5.3,5.3,0,0,0,2.6-.6,4.5,4.5,0,0,0,1.9-1.7,4.6,4.6,0,0,0,.7-2.6l.7,2.4a4,4,0,0,1-1.1,2.9,6.8,6.8,0,0,1-2.6,1.8,10.6,10.6,0,0,1-3.1.5,6.7,6.7,0,0,1-3.1-.7,5,5,0,0,1-2.3-2,5.5,5.5,0,0,1-.9-3.2,6.2,6.2,0,0,1,.8-3.1,5.8,5.8,0,0,1,2.5-2.1,9.4,9.4,0,0,1,3.9-.7,10.6,10.6,0,0,1,3.3.4,9,9,0,0,1,2.2,1.1,4.8,4.8,0,0,1,1,.9v1.9a10.5,10.5,0,0,0-2.8-1.4,11.2,11.2,0,0,0-3.2-.4,6,6,0,0,0-2.5.4,3,3,0,0,0-1.5,1.1,3.4,3.4,0,0,0-.5,1.7A3.5,3.5,0,0,0,474.2,572.4Zm-2.5-12.6a14.1,14.1,0,0,1,2.8-1.5,11.9,11.9,0,0,1,4.4-.8,8.9,8.9,0,0,1,3.8.7,5.4,5.4,0,0,1,2.5,1.9,4.9,4.9,0,0,1,.9,3v13.2h-3.2V563.6a3.5,3.5,0,0,0-.3-1.6,2.2,2.2,0,0,0-.9-1l-1.3-.5-1.6-.2a9.5,9.5,0,0,0-2.5.3l-1.9.8a6.2,6.2,0,0,0-1.2.8Z"/>
          <path class="cls-4" d="M494.2,585.1h-3.6l5-11.4-7-15.8h3.8l5.8,14.4h-1.3l5.7-14.3h3.6Z"/>
          <path class="cls-4" d="M523.2,572.4a3.3,3.3,0,0,0,1.4,1.2,6.5,6.5,0,0,0,2,.4,6,6,0,0,0,2.7-.6,5.2,5.2,0,0,0,1.9-1.7,4.6,4.6,0,0,0,.7-2.6l.6,2.4a3.9,3.9,0,0,1-1,2.9,6.8,6.8,0,0,1-2.6,1.8,11.8,11.8,0,0,1-3.1.5,6.4,6.4,0,0,1-3.1-.7,5.2,5.2,0,0,1-2.4-2,5.5,5.5,0,0,1-.9-3.2,5.4,5.4,0,0,1,.9-3.1,5.8,5.8,0,0,1,2.5-2.1,9.2,9.2,0,0,1,3.8-.7,10.9,10.9,0,0,1,3.4.4,6.8,6.8,0,0,1,2.1,1.1l1.1.9v1.9a11.1,11.1,0,0,0-2.9-1.4,10.6,10.6,0,0,0-3.1-.4,6.5,6.5,0,0,0-2.6.4,3.1,3.1,0,0,0-1.4,1.1,2.6,2.6,0,0,0-.5,1.7A3.5,3.5,0,0,0,523.2,572.4Zm-2.6-12.6a15.4,15.4,0,0,1,2.9-1.5,11.5,11.5,0,0,1,4.4-.8,9.2,9.2,0,0,1,3.8.7,6,6,0,0,1,2.5,1.9,4.9,4.9,0,0,1,.9,3v13.2h-3.2V563.6a3.5,3.5,0,0,0-.3-1.6,2.2,2.2,0,0,0-.9-1l-1.4-.5-1.6-.2a8.8,8.8,0,0,0-2.4.3l-1.9.8a6.2,6.2,0,0,0-1.2.8Z"/>
          <path class="cls-4" d="M551.9,562.6a3.4,3.4,0,0,0-1.3-1.6,4.8,4.8,0,0,0-2.2-.5,5.4,5.4,0,0,0-2.5.6,4.1,4.1,0,0,0-1.6,1.6,4.8,4.8,0,0,0-.6,2.4v11.2h-3.2V557.9h3.2v2.9a7,7,0,0,1,2.3-2.5,6.6,6.6,0,0,1,3.2-.8,6.4,6.4,0,0,1,3.4.9,5.8,5.8,0,0,1,2.1,2.5,7.4,7.4,0,0,1,.8,3.8v11.6h-3.2V565.1A6.2,6.2,0,0,0,551.9,562.6Z"/>
          <path class="cls-4" d="M561.2,562a8.7,8.7,0,0,1,3.3-3.3,9,9,0,0,1,4.6-1.2,6.4,6.4,0,0,1,3.1.7,6.7,6.7,0,0,1,2.5,1.9,8.4,8.4,0,0,1,1.5,3,12.5,12.5,0,0,1,.6,4,12,12,0,0,1-.6,4,9.9,9.9,0,0,1-1.5,3.1,7.9,7.9,0,0,1-2.5,1.9,7.8,7.8,0,0,1-3.1.6,10.1,10.1,0,0,1-4.6-1.1,8.3,8.3,0,0,1-3.3-3.4,11.4,11.4,0,0,1,0-10.2Zm2.9,8.7a5.1,5.1,0,0,0,2.3,2.3,6.4,6.4,0,0,0,3.1.7,5.2,5.2,0,0,0,2.1-.4,5.9,5.9,0,0,0,1.9-1.3,6.2,6.2,0,0,0,1.3-2.1,6.1,6.1,0,0,0,.6-2.8,6.4,6.4,0,0,0-.6-2.8,7.4,7.4,0,0,0-1.3-2.1,7.6,7.6,0,0,0-1.9-1.2,5.4,5.4,0,0,0-2.1-.5,6.5,6.5,0,0,0-3.1.8,4.9,4.9,0,0,0-2.3,2.2,7.6,7.6,0,0,0,0,7.2Zm14.5-25.6v31.2h-3.2V545.1Z"/>
          <path class="cls-4" d="M20,596.8a1.8,1.8,0,0,1,1.5-.7,2,2,0,0,1,1.6.7,2,2,0,0,1,.6,1.5,2.5,2.5,0,0,1-.6,1.6,2.3,2.3,0,0,1-1.6.6,2,2,0,0,1-1.5-.6,2.6,2.6,0,0,1-.7-1.6A2.1,2.1,0,0,1,20,596.8Zm3.1,9.1v18.4H19.9V605.9Z"/>
          <path class="cls-4" d="M55,624.3H51.8V613.1a9.5,9.5,0,0,0-.4-2.6,3.5,3.5,0,0,0-1.2-1.5,3.6,3.6,0,0,0-1.9-.5,4.1,4.1,0,0,0-2.3.6,2.8,2.8,0,0,0-1.5,1.5,5.1,5.1,0,0,0-.5,2.5v11.2H40.8V613.1a9.5,9.5,0,0,0-.4-2.6,3.5,3.5,0,0,0-1.2-1.5,3.6,3.6,0,0,0-1.9-.5,4.1,4.1,0,0,0-2.3.6,2.8,2.8,0,0,0-1.5,1.5,5.1,5.1,0,0,0-.5,2.5v11.2H29.8V605.9H33v2.7a4.5,4.5,0,0,1,1.3-1.7,3.7,3.7,0,0,1,1.7-1,4.6,4.6,0,0,1,2.1-.4,8.5,8.5,0,0,1,2.3.4,5.7,5.7,0,0,1,1.8,1.2,5.2,5.2,0,0,1,1.2,1.9,6.1,6.1,0,0,1,2.4-2.6,5.8,5.8,0,0,1,3.3-.9,5.7,5.7,0,0,1,3.2.9,5.4,5.4,0,0,1,2,2.4,11.3,11.3,0,0,1,.7,3.9Z"/>
          <path class="cls-4" d="M60.8,633.1V605.9H64v27.2Zm17.4-12.9a9.8,9.8,0,0,1-3.3,3.4,10.1,10.1,0,0,1-4.6,1.1,7.5,7.5,0,0,1-3.1-.6,7.9,7.9,0,0,1-2.5-1.9,10.1,10.1,0,0,1-1.6-3.1,15.6,15.6,0,0,1-.5-4,16.2,16.2,0,0,1,.5-4,8.6,8.6,0,0,1,1.6-3,6.7,6.7,0,0,1,2.5-1.9,6.2,6.2,0,0,1,3.1-.7,9,9,0,0,1,4.6,1.2,10.4,10.4,0,0,1,3.3,3.3,11.4,11.4,0,0,1,0,10.2Zm-2.9-8.7a5.4,5.4,0,0,0-2.3-2.2,6.5,6.5,0,0,0-3.1-.8,5.4,5.4,0,0,0-2.1.5,7.6,7.6,0,0,0-1.9,1.2,7.7,7.7,0,0,0-1.4,2.1,8.2,8.2,0,0,0-.5,2.8,7.8,7.8,0,0,0,.5,2.8,6.4,6.4,0,0,0,1.4,2.1,5.9,5.9,0,0,0,1.9,1.3,5.2,5.2,0,0,0,2.1.4A6.4,6.4,0,0,0,73,621a5.7,5.7,0,0,0,2.3-2.3,7.7,7.7,0,0,0,0-7.2Z"/>
          <path class="cls-4" d="M87.1,624.3H83.9V605.9h3.2Zm4.4-15.6-1.4-.2a2.4,2.4,0,0,0-1.8.6,3.2,3.2,0,0,0-1,1.7,8.2,8.2,0,0,0-.2,2.3H85.6a10.1,10.1,0,0,1,.8-3.9,7.9,7.9,0,0,1,2-2.7,4.4,4.4,0,0,1,2.5-1,5.8,5.8,0,0,1,1.9.3,3.9,3.9,0,0,1,1.6,1l-1.8,2.6Z"/>
          <path class="cls-4" d="M97.3,610.2a8.6,8.6,0,0,1,3.4-3.4,8.6,8.6,0,0,1,4.8-1.3,9,9,0,0,1,4.9,1.3,8.6,8.6,0,0,1,3.4,3.4,9.9,9.9,0,0,1,1.3,4.9,10.3,10.3,0,0,1-1.3,5,9.2,9.2,0,0,1-3.4,3.4,9.9,9.9,0,0,1-4.9,1.2,9.5,9.5,0,0,1-4.8-1.2,9.5,9.5,0,0,1-4.7-8.4A9,9,0,0,1,97.3,610.2Zm2.8,8.3a6.4,6.4,0,0,0,2.2,2.4,6.9,6.9,0,0,0,3.2.8,5.7,5.7,0,0,0,5.5-3.2,7.6,7.6,0,0,0,0-6.8,6.1,6.1,0,0,0-2.2-2.3,6.3,6.3,0,0,0-3.3-.9,5.9,5.9,0,0,0-3.2.9,5.4,5.4,0,0,0-2.2,2.3,7.6,7.6,0,0,0,0,6.8Z"/>
          <path class="cls-4" d="M120.1,605.9l5.2,13,5.2-13h3.6l-8.8,19.8-8.8-19.8Z"/>
          <path class="cls-4" d="M139.7,623.5a8.5,8.5,0,0,1-3.1-3.4,11.2,11.2,0,0,1-1.1-5,12.3,12.3,0,0,1,.7-3.9,7.7,7.7,0,0,1,1.9-3,8,8,0,0,1,2.8-2,11.7,11.7,0,0,1,3.8-.7,8.5,8.5,0,0,1,4.6,1.2,7.2,7.2,0,0,1,3,3.2,11.3,11.3,0,0,1,1,5.1v.9H137.6v-2.7h13.2l-1.3,1.8a.8.8,0,0,0,.2-.6,2.5,2.5,0,0,0,.2-.7,6.1,6.1,0,0,0-.7-2.8,5.5,5.5,0,0,0-1.8-1.9,5,5,0,0,0-2.7-.7,6.6,6.6,0,0,0-4.4,1.7,5.3,5.3,0,0,0-1.1,2.1,8.2,8.2,0,0,0-.4,2.8,8.2,8.2,0,0,0,.7,3.7,4.5,4.5,0,0,0,2,2.3,5.3,5.3,0,0,0,3.2.8,7.3,7.3,0,0,0,3.3-.8,7.2,7.2,0,0,0,2.4-2.5L153,620a8.6,8.6,0,0,1-3.6,3.5,10.7,10.7,0,0,1-5.1,1.2A8.5,8.5,0,0,1,139.7,623.5Z"/>
          <path class="cls-4" d="M173,593.1v31.2h-3.2V593.1Z"/>
          <path class="cls-4" d="M181.6,623.5a7.7,7.7,0,0,1-3-3.4,10,10,0,0,1-1.1-5,12.3,12.3,0,0,1,.6-3.9,9.1,9.1,0,0,1,1.9-3,7.5,7.5,0,0,1,2.9-2,10.6,10.6,0,0,1,3.7-.7,8.5,8.5,0,0,1,4.6,1.2,7.2,7.2,0,0,1,3,3.2,11.3,11.3,0,0,1,1.1,5.1,4.3,4.3,0,0,0-.1.5v.4H179.5v-2.7h13.2l-1.3,1.8a1.6,1.6,0,0,0,.3-.6c0-.3.1-.5.1-.7a5.1,5.1,0,0,0-.7-2.8,4.7,4.7,0,0,0-1.8-1.9,5,5,0,0,0-2.7-.7,6.6,6.6,0,0,0-2.5.5,5.7,5.7,0,0,0-1.8,1.2,5.5,5.5,0,0,0-1.2,2.1,8.2,8.2,0,0,0-.4,2.8,8.2,8.2,0,0,0,.7,3.7,4.5,4.5,0,0,0,2,2.3,5.5,5.5,0,0,0,3.2.8,7.3,7.3,0,0,0,3.3-.8,5.8,5.8,0,0,0,2.4-2.5l2.6,1.6a8.1,8.1,0,0,1-3.6,3.5,10.4,10.4,0,0,1-5.1,1.2A9,9,0,0,1,181.6,623.5Z"/>
          <path class="cls-4" d="M200.3,605.9l5.2,13,5.2-13h3.6l-8.8,19.8-8.8-19.8Z"/>
          <path class="cls-4" d="M219.9,623.5a8.5,8.5,0,0,1-3.1-3.4,11.2,11.2,0,0,1-1.1-5,12.3,12.3,0,0,1,.7-3.9,7.7,7.7,0,0,1,1.9-3,8,8,0,0,1,2.8-2,11.7,11.7,0,0,1,3.8-.7,8.5,8.5,0,0,1,4.6,1.2,7.2,7.2,0,0,1,3,3.2,11.3,11.3,0,0,1,1,5.1v.9H217.8v-2.7H231l-1.3,1.8a.8.8,0,0,0,.2-.6,2.5,2.5,0,0,0,.2-.7,6.1,6.1,0,0,0-.7-2.8,5.5,5.5,0,0,0-1.8-1.9,5,5,0,0,0-2.7-.7,6.6,6.6,0,0,0-4.4,1.7,5.3,5.3,0,0,0-1.1,2.1,8.2,8.2,0,0,0-.4,2.8,8.2,8.2,0,0,0,.7,3.7,4.5,4.5,0,0,0,2,2.3,5.3,5.3,0,0,0,3.2.8,7.3,7.3,0,0,0,3.3-.8,7.2,7.2,0,0,0,2.4-2.5l2.6,1.6a8.6,8.6,0,0,1-3.6,3.5,10.7,10.7,0,0,1-5.1,1.2A8.5,8.5,0,0,1,219.9,623.5Z"/>
          <path class="cls-4" d="M241.2,593.1v31.2H238V593.1Z"/>
          <path class="cls-4" d="M258.9,610.2a9.5,9.5,0,0,1,8.3-4.7,8.6,8.6,0,0,1,4.8,1.3,8,8,0,0,1,3.4,3.4,9,9,0,0,1,1.3,4.9,9.3,9.3,0,0,1-1.3,5,8.6,8.6,0,0,1-3.4,3.4,9.5,9.5,0,0,1-4.8,1.2,10.2,10.2,0,0,1-4.9-1.2,10.1,10.1,0,0,1-3.4-3.4,10.3,10.3,0,0,1-1.2-5A9.9,9.9,0,0,1,258.9,610.2Zm2.8,8.3a6,6,0,0,0,5.5,3.2,6.9,6.9,0,0,0,3.2-.8,6.9,6.9,0,0,0,2.2-9.2,5.4,5.4,0,0,0-2.2-2.3,5.9,5.9,0,0,0-3.2-.9,6.5,6.5,0,0,0-5.5,3.2,7.6,7.6,0,0,0,0,6.8Z"/>
          <path class="cls-4" d="M288.9,605.9v3h-9.2v-3Zm-1.2-9.8-1.1-.2a1.4,1.4,0,0,0-1,.4,1.7,1.7,0,0,0-.6,1.1,5.8,5.8,0,0,0-.3,2.1v24.8h-3.2V599.1a8,8,0,0,1,.7-3.6,4.6,4.6,0,0,1,1.8-2.1,6.1,6.1,0,0,1,2.8-.7,3.8,3.8,0,0,1,1.6.3,2.3,2.3,0,0,1,1.2.6l.8.7-1.8,2.7A1.9,1.9,0,0,0,287.7,596.1Z"/>
          <path class="cls-4" d="M306.7,620.2a6.1,6.1,0,0,0,1.6,1.2,5.2,5.2,0,0,0,2.1.4,3.8,3.8,0,0,0,2.2-.6,2.1,2.1,0,0,0,.7-1.7,2.1,2.1,0,0,0-.6-1.6,4,4,0,0,0-1.6-1.2l-2-.8a13.4,13.4,0,0,1-2.4-1.2,6.8,6.8,0,0,1-2.1-1.7,4.7,4.7,0,0,1,.1-5.4,5.2,5.2,0,0,1,2.2-1.6,9.3,9.3,0,0,1,2.9-.5,8.7,8.7,0,0,1,2.8.5,6.1,6.1,0,0,1,2.2,1.3,5.5,5.5,0,0,1,1.6,1.8l-2.6,1.7a6.6,6.6,0,0,0-1.9-1.8,5.1,5.1,0,0,0-2.5-.6,3.4,3.4,0,0,0-1.8.4,1.6,1.6,0,0,0-.7,1.4,1.6,1.6,0,0,0,.6,1.2,5,5,0,0,0,1.4,1l1.9.9,2.9,1.4a6,6,0,0,1,2.1,1.7,4.6,4.6,0,0,1,.8,2.7,5.7,5.7,0,0,1-.8,2.9,7,7,0,0,1-2.2,2,7.4,7.4,0,0,1-3.4.7,8.8,8.8,0,0,1-3.3-.6,9.2,9.2,0,0,1-2.5-1.7,6.2,6.2,0,0,1-1.5-2.2l2.5-1.5A9.3,9.3,0,0,0,306.7,620.2Z"/>
          <path class="cls-4" d="M323.4,623.5a7.9,7.9,0,0,1-3.1-3.4,11.2,11.2,0,0,1-1.1-5,10,10,0,0,1,.7-3.9,7.5,7.5,0,0,1,1.8-3,8.4,8.4,0,0,1,2.9-2,11.1,11.1,0,0,1,3.7-.7,8.9,8.9,0,0,1,4.7,1.2,7.2,7.2,0,0,1,3,3.2,11.3,11.3,0,0,1,1,5.1v.9H321.3v-2.7h13.1l-1.2,1.8c.1-.1.1-.3.2-.6a2,2,0,0,0,.1-.7,6.1,6.1,0,0,0-.6-2.8,6.6,6.6,0,0,0-1.8-1.9,5.1,5.1,0,0,0-2.8-.7,6,6,0,0,0-2.4.5A5.2,5.2,0,0,0,324,610a7.2,7.2,0,0,0-1.2,2.1,11.8,11.8,0,0,0-.4,2.8,9.8,9.8,0,0,0,.7,3.7,5.3,5.3,0,0,0,5.2,3.1,6.4,6.4,0,0,0,5.8-3.3l2.6,1.6a9.2,9.2,0,0,1-3.6,3.5,10.8,10.8,0,0,1-5.2,1.2A8.4,8.4,0,0,1,323.4,623.5Z"/>
          <path class="cls-4" d="M344.6,624.3h-3.2V605.9h3.2Zm4.4-15.6-1.3-.2a2.9,2.9,0,0,0-1.9.6,3.9,3.9,0,0,0-.9,1.7,8,8,0,0,0-.3,2.3h-1.4a10.1,10.1,0,0,1,.8-3.9,7.9,7.9,0,0,1,2-2.7,4.4,4.4,0,0,1,2.5-1,5.8,5.8,0,0,1,1.9.3,3.9,3.9,0,0,1,1.6,1l-1.8,2.6Z"/>
          <path class="cls-4" d="M355.8,605.9l5.2,13,5.2-13h3.6L361,625.7l-8.8-19.8Z"/>
          <path class="cls-4" d="M373.5,596.8a1.9,1.9,0,0,1,1.5-.7,1.9,1.9,0,0,1,1.6.7,2,2,0,0,1,.6,1.5,2.5,2.5,0,0,1-.6,1.6,2.1,2.1,0,0,1-1.6.6,2.2,2.2,0,0,1-1.5-.6,2.6,2.6,0,0,1-.7-1.6A2.1,2.1,0,0,1,373.5,596.8Zm3.1,9.1v18.4h-3.2V605.9Z"/>
          <path class="cls-4" d="M385.5,618.5a6,6,0,0,0,5.5,3.2,8.6,8.6,0,0,0,2.8-.4A6.7,6.7,0,0,0,396,620a5,5,0,0,0,1.4-1.6v4a6,6,0,0,1-2.7,1.7,11.5,11.5,0,0,1-3.7.6,9.5,9.5,0,0,1-8.3-4.6,10.3,10.3,0,0,1-1.2-5,9.9,9.9,0,0,1,1.2-4.9,8.8,8.8,0,0,1,3.5-3.4,8.6,8.6,0,0,1,4.8-1.3,11.5,11.5,0,0,1,3.7.6,6.1,6.1,0,0,1,2.7,1.8v4a4.4,4.4,0,0,0-1.4-1.7,6.6,6.6,0,0,0-2.2-1.2,8.7,8.7,0,0,0-2.8-.5,6.5,6.5,0,0,0-5.5,3.2,7.6,7.6,0,0,0,0,6.8Z"/>
          <path class="cls-4" d="M405,623.5a8.5,8.5,0,0,1-3.1-3.4,11.2,11.2,0,0,1-1.1-5,12.3,12.3,0,0,1,.7-3.9,7.7,7.7,0,0,1,1.9-3,8,8,0,0,1,2.8-2,11.7,11.7,0,0,1,3.8-.7,8.5,8.5,0,0,1,4.6,1.2,7.2,7.2,0,0,1,3,3.2,11.3,11.3,0,0,1,1,5.1v.9H402.9v-2.7h13.2l-1.3,1.8a.8.8,0,0,0,.2-.6,2.5,2.5,0,0,0,.2-.7,6.1,6.1,0,0,0-.7-2.8,4.7,4.7,0,0,0-1.8-1.9,5,5,0,0,0-2.7-.7,6.6,6.6,0,0,0-2.5.5,7.6,7.6,0,0,0-1.9,1.2,7,7,0,0,0-1.1,2.1,8.2,8.2,0,0,0-.4,2.8,8.2,8.2,0,0,0,.7,3.7,4.5,4.5,0,0,0,2,2.3,5.3,5.3,0,0,0,3.2.8,7.3,7.3,0,0,0,3.3-.8,6.4,6.4,0,0,0,2.4-2.5l2.6,1.6a8.1,8.1,0,0,1-3.6,3.5,10.4,10.4,0,0,1-5.1,1.2A8.8,8.8,0,0,1,405,623.5Z"/>
        </g>
      </g>
    </g>
  </g>
</svg>
