<svg xmlns="http://www.w3.org/2000/svg" viewBox="0 0 612.3 648">
  <defs>
    <style>
      .cls-1 {
        fill: #fff;
      }

      .cls-2 {
        fill: #f2f2f2;
      }

      .cls-3 {
        fill: #ffcf41;
      }

      .cls-4 {
        fill: #4c4c4c;
      }

      .cls-5, .cls-7 {
        fill: #27437d;
      }

      .cls-6 {
        isolation: isolate;
      }

      .cls-7, .cls-8 {
        stroke: #27437d;
        stroke-miterlimit: 10;
      }

      .cls-7 {
        stroke-width: 0.92px;
      }

      .cls-8 {
        fill: none;
        stroke-width: 0.14px;
      }
    </style>
  </defs>
  <title>Asset 41</title>
  <g id="Layer_2" data-name="Layer 2">
    <g id="Layer_1-2" data-name="Layer 1">
      <g>
        <g>
          <rect class="cls-1" width="612.3" height="648" rx="8"/>
          <g>
            <path class="cls-2" d="M0,481.5V639.2C0,644,3.3,648,7.3,648H605c4,0,7.3-4,7.3-8.8V481.5Z"/>
            <path class="cls-3" d="M612.3,8.8C612.3,4,609,0,605,0H7.3C3.3,0,0,4,0,8.8V39.5H612.3Z"/>
          </g>
        </g>
        <g>
          <path class="cls-4" d="M194.7,281.1v40.6h-8.1V281.1Zm-2.8,0h20.5v7H191.9Zm0,15.6h19.4v6.9H191.9Zm0,17.9h20.5v7.1H191.9Z"/>
          <path class="cls-4" d="M226.1,312.4a7.8,7.8,0,0,0,2.7,2.7,8.6,8.6,0,0,0,3.9.9,9.7,9.7,0,0,0,3.4-.5A8,8,0,0,0,239,314a6.9,6.9,0,0,0,2-2.2v7.7a8.9,8.9,0,0,1-3.6,2,16.4,16.4,0,0,1-5.2.7,15.8,15.8,0,0,1-7.6-1.7,13.7,13.7,0,0,1,0-24.4,17,17,0,0,1,7.6-1.7,16.4,16.4,0,0,1,5.2.7,10.3,10.3,0,0,1,3.6,2v7.7a6.2,6.2,0,0,0-2.1-2.2,15.9,15.9,0,0,0-2.9-1.5,9.6,9.6,0,0,0-3.3-.6,7.7,7.7,0,0,0-3.9,1.1,7.3,7.3,0,0,0-2.7,2.8,7.1,7.1,0,0,0-1,3.9A7.8,7.8,0,0,0,226.1,312.4Z"/>
          <path class="cls-4" d="M247.1,301a13.6,13.6,0,0,1,5.2-4.9,17.3,17.3,0,0,1,7.6-1.7,17,17,0,0,1,7.6,1.7,13.2,13.2,0,0,1,5.3,4.9,14.3,14.3,0,0,1,0,14.6,13.2,13.2,0,0,1-5.3,4.9,15.8,15.8,0,0,1-7.6,1.7,16,16,0,0,1-7.6-1.7,14.1,14.1,0,0,1-5.2-19.5Zm6.7,11.2a6.6,6.6,0,0,0,2.5,2.7,7,7,0,0,0,7.2,0,6.9,6.9,0,0,0,2.5-2.6,7.7,7.7,0,0,0,1-4,7.1,7.1,0,0,0-1-3.9,6.6,6.6,0,0,0-2.5-2.7,7.6,7.6,0,0,0-7.2,0,6.9,6.9,0,0,0-2.5,2.6,8.8,8.8,0,0,0-1,4A8.1,8.1,0,0,0,253.8,312.2Z"/>
          <path class="cls-4" d="M296.5,302.4a3.2,3.2,0,0,0-1.4-1.8,4.6,4.6,0,0,0-2.5-.6,6.1,6.1,0,0,0-2.8.6,5.8,5.8,0,0,0-1.9,1.9,6.5,6.5,0,0,0-.7,2.9v16.3h-7.5V295h7.5v4a8.3,8.3,0,0,1,3.3-3.4,9.2,9.2,0,0,1,4.8-1.2,10.4,10.4,0,0,1,5.3,1.2,7.6,7.6,0,0,1,3.1,3.5,13.2,13.2,0,0,1,1,5.5v17.1H297V305.4A9.4,9.4,0,0,0,296.5,302.4Z"/>
          <path class="cls-4" d="M311.7,301a13.2,13.2,0,0,1,5.3-4.9,16.6,16.6,0,0,1,7.5-1.7,17,17,0,0,1,7.6,1.7,13.2,13.2,0,0,1,5.3,4.9,14.3,14.3,0,0,1,0,14.6,13.2,13.2,0,0,1-5.3,4.9,15.8,15.8,0,0,1-7.6,1.7,15.4,15.4,0,0,1-7.5-1.7,13.2,13.2,0,0,1-5.3-4.9,14.3,14.3,0,0,1,0-14.6Zm6.7,11.2a6.6,6.6,0,0,0,2.5,2.7,7,7,0,0,0,7.2,0,6.3,6.3,0,0,0,2.5-2.6,7.7,7.7,0,0,0,1-4,7.1,7.1,0,0,0-1-3.9,6,6,0,0,0-2.5-2.7,7.6,7.6,0,0,0-7.2,0,6.9,6.9,0,0,0-2.5,2.6,8.8,8.8,0,0,0-1,4A8.1,8.1,0,0,0,318.4,312.2Z"/>
          <path class="cls-4" d="M383.7,321.7h-7.5V305.4a8.7,8.7,0,0,0-.4-3,3.5,3.5,0,0,0-1.3-1.8,3.8,3.8,0,0,0-2.2-.6,5.4,5.4,0,0,0-2.5.6,4,4,0,0,0-1.6,1.8,8.5,8.5,0,0,0-.5,3v16.3h-7.6V305.4a12.1,12.1,0,0,0-.4-3,3.5,3.5,0,0,0-1.3-1.8,3.6,3.6,0,0,0-2.2-.6,4.8,4.8,0,0,0-2.4.6,4,4,0,0,0-1.6,1.8,6.7,6.7,0,0,0-.6,3v16.3h-7.3V295h7.3v3.9a7.5,7.5,0,0,1,1.9-2.4,8.2,8.2,0,0,1,2.5-1.6,10.6,10.6,0,0,1,3.1-.5,13.8,13.8,0,0,1,3.7.5,5.8,5.8,0,0,1,2.5,1.5,7.2,7.2,0,0,1,1.6,2.5,9,9,0,0,1,3.6-3.4,10.6,10.6,0,0,1,4.8-1.1,8.5,8.5,0,0,1,4.8,1.2,6.6,6.6,0,0,1,2.8,3.5,14.9,14.9,0,0,1,.8,5.5Z"/>
          <path class="cls-4" d="M391.5,281.6a4.5,4.5,0,0,1,3.2-1.2,4.4,4.4,0,0,1,3.2,1.2,3.8,3.8,0,0,1,1.3,3,4,4,0,0,1-1.3,3.1,4.4,4.4,0,0,1-3.2,1.2,4.5,4.5,0,0,1-3.2-1.2,4.4,4.4,0,0,1-1.3-3.1A4.2,4.2,0,0,1,391.5,281.6Zm6.8,13.4v26.7h-7.2V295Z"/>
          <path class="cls-4" d="M412.4,312.4a7.4,7.4,0,0,0,6.7,3.6,9.5,9.5,0,0,0,3.3-.5,8.5,8.5,0,0,0,3-1.5,8.3,8.3,0,0,0,2-2.2v7.7a10.1,10.1,0,0,1-3.7,2,18.5,18.5,0,0,1-12.8-1,13.9,13.9,0,0,1-5.3-4.9,14.3,14.3,0,0,1,0-14.6,13.9,13.9,0,0,1,5.3-4.9,17.4,17.4,0,0,1,7.7-1.7,16.1,16.1,0,0,1,5.1.7,11.8,11.8,0,0,1,3.7,2v7.7a7.3,7.3,0,0,0-2.1-2.2,14,14,0,0,0-3-1.5,9.5,9.5,0,0,0-3.2-.6,7.1,7.1,0,0,0-3.9,1.1,7.5,7.5,0,0,0-2.8,2.8,7.1,7.1,0,0,0-1,3.9A7.8,7.8,0,0,0,412.4,312.4Z"/>
          <path class="cls-4" d="M107.8,376.4a11.9,11.9,0,0,0,2.8,4.2,13.6,13.6,0,0,0,4.1,2.6,14.3,14.3,0,0,0,5,.9,16.7,16.7,0,0,0,5.2-.8,17.4,17.4,0,0,0,4.1-2,16.7,16.7,0,0,0,3.1-2.8v9.4a19.1,19.1,0,0,1-5.4,3,21.6,21.6,0,0,1-7.3,1.1,24.1,24.1,0,0,1-8.7-1.5,21.8,21.8,0,0,1-6.9-4.3,20.8,20.8,0,0,1-4.5-6.7,23.6,23.6,0,0,1,0-17.1,20.8,20.8,0,0,1,4.5-6.7,18.8,18.8,0,0,1,6.9-4.3,24.1,24.1,0,0,1,8.7-1.6,21.6,21.6,0,0,1,7.3,1.1,19.4,19.4,0,0,1,5.4,3.1v9.4a16.7,16.7,0,0,0-3.1-2.8,14.2,14.2,0,0,0-4.1-2,16.7,16.7,0,0,0-5.2-.8,14.3,14.3,0,0,0-5,.9,12.2,12.2,0,0,0-4.1,2.7,10.7,10.7,0,0,0-2.8,4.1,13.5,13.5,0,0,0-1.1,5.5A13.3,13.3,0,0,0,107.8,376.4Z"/>
          <path class="cls-4" d="M139.1,370.6a13.9,13.9,0,0,1,5.3-4.9,17.6,17.6,0,0,1,15.1,0,13.5,13.5,0,0,1,5.4,4.9,15,15,0,0,1,0,14.6,13.5,13.5,0,0,1-5.4,4.9,17.6,17.6,0,0,1-15.1,0,13.9,13.9,0,0,1-5.3-4.9,15,15,0,0,1,0-14.6Zm6.7,11.2a7.1,7.1,0,0,0,6.1,3.7,6.9,6.9,0,0,0,3.6-1,7.2,7.2,0,0,0,2.6-2.6,8.7,8.7,0,0,0,.9-4,8,8,0,0,0-.9-3.9,6.8,6.8,0,0,0-2.6-2.7,6.9,6.9,0,0,0-3.6-.9,6.8,6.8,0,0,0-3.5.9,7.2,7.2,0,0,0-2.6,2.6,8.7,8.7,0,0,0-.9,4A8,8,0,0,0,145.8,381.8Z"/>
          <path class="cls-4" d="M211.2,391.3h-7.6V375a8.7,8.7,0,0,0-.4-3,3.5,3.5,0,0,0-1.3-1.8,3.6,3.6,0,0,0-2.2-.6,4.8,4.8,0,0,0-2.4.6,3.5,3.5,0,0,0-1.6,1.8,6.7,6.7,0,0,0-.6,3v16.3h-7.6V375a8.7,8.7,0,0,0-.4-3,3.5,3.5,0,0,0-1.3-1.8,3.3,3.3,0,0,0-2.1-.6,4.9,4.9,0,0,0-2.5.6,4,4,0,0,0-1.6,1.8,6.7,6.7,0,0,0-.6,3v16.3h-7.3V364.6H179v3.9a7.8,7.8,0,0,1,1.9-2.4,8.2,8.2,0,0,1,2.5-1.6,11.3,11.3,0,0,1,3.2-.5,12.5,12.5,0,0,1,3.6.5,6.1,6.1,0,0,1,2.6,1.5,7,7,0,0,1,1.5,2.5,9.4,9.4,0,0,1,8.4-4.5,9.1,9.1,0,0,1,4.9,1.2,6.9,6.9,0,0,1,2.7,3.5,14.7,14.7,0,0,1,.9,5.5Z"/>
          <path class="cls-4" d="M217.8,404V364.6h7.6V404Zm27.7-18.3a12,12,0,0,1-4.8,4.7,12.3,12.3,0,0,1-6.3,1.6,9.7,9.7,0,0,1-4.6-1,8.8,8.8,0,0,1-3.6-2.8,14,14,0,0,1-2.2-4.4,21.7,21.7,0,0,1-.7-5.9,20.5,20.5,0,0,1,.7-5.8,13.5,13.5,0,0,1,2.2-4.5,11.2,11.2,0,0,1,3.6-2.9,11.1,11.1,0,0,1,4.6-.9,12.5,12.5,0,0,1,11.1,6.4,15.4,15.4,0,0,1,1.8,7.7A15.8,15.8,0,0,1,245.5,385.7Zm-7.1-11.8a5.7,5.7,0,0,0-2.6-2.5,7.4,7.4,0,0,0-3.6-.9,6.7,6.7,0,0,0-2.4.4,6.4,6.4,0,0,0-2.2,1.4,7.8,7.8,0,0,0-1.6,2.4,8.8,8.8,0,0,0,0,6.4,7.8,7.8,0,0,0,1.6,2.4,6.4,6.4,0,0,0,2.2,1.4,6.7,6.7,0,0,0,2.4.4,8.6,8.6,0,0,0,3.6-.8,6.5,6.5,0,0,0,2.6-2.6,8.5,8.5,0,0,0,0-8Z"/>
          <path class="cls-4" d="M257.2,390.1a12.2,12.2,0,0,1-5-4.8,14.7,14.7,0,0,1-1.8-7.4,18.1,18.1,0,0,1,1-5.8,13,13,0,0,1,2.9-4.4,13.7,13.7,0,0,1,4.5-2.8,19.1,19.1,0,0,1,6.1-.9,16,16,0,0,1,7.5,1.6,11,11,0,0,1,4.7,4.6,15.6,15.6,0,0,1,1.7,7.4,4.1,4.1,0,0,1-.1,1.1v.8H254.8V375h17.3l-2.1,2.6a4.6,4.6,0,0,0,.5-1,3.7,3.7,0,0,0,.2-.9,6.8,6.8,0,0,0-.8-3.4,4.7,4.7,0,0,0-2-2.2,6.2,6.2,0,0,0-3.1-.8,8.4,8.4,0,0,0-2.9.5,5.6,5.6,0,0,0-2.1,1.6,7.5,7.5,0,0,0-1.3,2.7,12.5,12.5,0,0,0-.5,3.6,10.1,10.1,0,0,0,.8,4.5,6.1,6.1,0,0,0,2.3,2.9,6.7,6.7,0,0,0,3.8,1,8.2,8.2,0,0,0,4.2-1,7,7,0,0,0,3-2.9l6.6,2.1a14.1,14.1,0,0,1-5.5,5.6,16.7,16.7,0,0,1-8.3,1.9A15.6,15.6,0,0,1,257.2,390.1Z"/>
          <path class="cls-4" d="M296.9,364.6V371H280.4v-6.4Zm-4.7-9.3v36h-7.3v-36Z"/>
          <path class="cls-4" d="M301.2,351.2a4.4,4.4,0,0,1,3.2-1.2,4.7,4.7,0,0,1,3.2,1.2,3.8,3.8,0,0,1,1.3,3,4,4,0,0,1-1.3,3.1,4.7,4.7,0,0,1-3.2,1.2,4.4,4.4,0,0,1-3.2-1.2,4,4,0,0,1-1.3-3.1A3.8,3.8,0,0,1,301.2,351.2Zm6.8,13.4v26.7h-7.3V364.6Z"/>
          <path class="cls-4" d="M328.4,364.6V371H311.9v-6.4Zm-4.7-9.3v36h-7.3v-36Z"/>
          <path class="cls-4" d="M332.7,351.2a4.4,4.4,0,0,1,3.2-1.2,4.7,4.7,0,0,1,3.2,1.2,3.8,3.8,0,0,1,1.3,3,4,4,0,0,1-1.3,3.1,4.7,4.7,0,0,1-3.2,1.2,4.4,4.4,0,0,1-3.2-1.2,4,4,0,0,1-1.3-3.1A3.8,3.8,0,0,1,332.7,351.2Zm6.8,13.4v26.7h-7.3V364.6Z"/>
          <path class="cls-4" d="M351.1,364.6l6.5,16,6.6-16h8.1L357.6,394l-14.7-29.4Z"/>
          <path class="cls-4" d="M380.1,390.1a12.2,12.2,0,0,1-5-4.8,14.7,14.7,0,0,1-1.8-7.4,18.1,18.1,0,0,1,1-5.8,13,13,0,0,1,2.9-4.4,13.7,13.7,0,0,1,4.5-2.8,19.1,19.1,0,0,1,6.1-.9,16,16,0,0,1,7.5,1.6,11,11,0,0,1,4.7,4.6,15.6,15.6,0,0,1,1.7,7.4,4.1,4.1,0,0,1-.1,1.1v.8H377.7V375H395l-2.1,2.6a4.6,4.6,0,0,0,.5-1,3.7,3.7,0,0,0,.2-.9,6.8,6.8,0,0,0-.8-3.4,4.7,4.7,0,0,0-2-2.2,6.2,6.2,0,0,0-3.1-.8,8.4,8.4,0,0,0-2.9.5,5.6,5.6,0,0,0-2.1,1.6,7.5,7.5,0,0,0-1.3,2.7,12.5,12.5,0,0,0-.5,3.6,10.1,10.1,0,0,0,.8,4.5,6.1,6.1,0,0,0,2.3,2.9,6.7,6.7,0,0,0,3.8,1,8.2,8.2,0,0,0,4.2-1,7,7,0,0,0,3-2.9l6.6,2.1a14.1,14.1,0,0,1-5.5,5.6,16.7,16.7,0,0,1-8.3,1.9A15.6,15.6,0,0,1,380.1,390.1Z"/>
          <path class="cls-4" d="M423.5,372a3.2,3.2,0,0,0-1.4-1.8,4.6,4.6,0,0,0-2.5-.6,6.1,6.1,0,0,0-2.8.6,5.8,5.8,0,0,0-1.9,1.9,6.5,6.5,0,0,0-.7,2.9v16.3h-7.5V364.6h7.5v4a8.3,8.3,0,0,1,3.3-3.4,9,9,0,0,1,4.8-1.2,10.4,10.4,0,0,1,5.3,1.2,7.6,7.6,0,0,1,3.1,3.5,13.2,13.2,0,0,1,1,5.5v17.1H424V375A9.4,9.4,0,0,0,423.5,372Z"/>
          <path class="cls-4" d="M443.5,390.1a11.6,11.6,0,0,1-5-4.8,14.7,14.7,0,0,1-1.8-7.4,18.1,18.1,0,0,1,1-5.8,13,13,0,0,1,2.9-4.4,13.7,13.7,0,0,1,4.5-2.8,19.1,19.1,0,0,1,6.1-.9,16,16,0,0,1,7.5,1.6,11.6,11.6,0,0,1,4.7,4.6,15.6,15.6,0,0,1,1.7,7.4,4.1,4.1,0,0,1-.1,1.1v.8H441.1V375h17.3l-2.1,2.6a4.6,4.6,0,0,0,.5-1,3.7,3.7,0,0,0,.2-.9,6.8,6.8,0,0,0-.8-3.4,4.7,4.7,0,0,0-2-2.2,6.6,6.6,0,0,0-3.2-.8,8.2,8.2,0,0,0-2.8.5,4.9,4.9,0,0,0-2.1,1.6,6.2,6.2,0,0,0-1.3,2.7,12.5,12.5,0,0,0-.5,3.6,10.1,10.1,0,0,0,.8,4.5,6.1,6.1,0,0,0,2.3,2.9,6.5,6.5,0,0,0,3.8,1,8.2,8.2,0,0,0,4.2-1,7.6,7.6,0,0,0,3-2.9l6.6,2.1a14.1,14.1,0,0,1-5.5,5.6,16.7,16.7,0,0,1-8.3,1.9A15.6,15.6,0,0,1,443.5,390.1Z"/>
          <path class="cls-4" d="M474.6,384.6a10.9,10.9,0,0,0,2.7,1.3,7.9,7.9,0,0,0,2.5.5,3.3,3.3,0,0,0,2.3-.7,2.1,2.1,0,0,0,.7-1.8,2.7,2.7,0,0,0-.6-1.7,7.8,7.8,0,0,0-1.9-1.3l-3.3-1.2-3.5-1.6a8.1,8.1,0,0,1-2.9-2.6,7.3,7.3,0,0,1-1.1-4.1,6.3,6.3,0,0,1,1.3-4.1,8,8,0,0,1,3.4-2.5,14.9,14.9,0,0,1,9-.2,17.9,17.9,0,0,1,3.7,1.5,16.6,16.6,0,0,1,3,2.2l-3.3,4.7a11.2,11.2,0,0,0-3.5-2.5,8.2,8.2,0,0,0-3.9-1.1,3.2,3.2,0,0,0-2,.6,1.5,1.5,0,0,0-.7,1.4,2,2,0,0,0,.7,1.6,9.8,9.8,0,0,0,2.1,1.2l3.2,1.2,3.9,1.8a9.2,9.2,0,0,1,2.9,2.6,6.7,6.7,0,0,1,1.1,3.9,7.8,7.8,0,0,1-4.5,7.5,13.9,13.9,0,0,1-5.3,1,17.2,17.2,0,0,1-5.2-.8,15.4,15.4,0,0,1-4.3-2,21.6,21.6,0,0,1-3.3-2.7l3.6-4.7A22.9,22.9,0,0,0,474.6,384.6Z"/>
          <path class="cls-4" d="M499.4,384.6a11.4,11.4,0,0,0,2.8,1.3,7.9,7.9,0,0,0,2.4.5,3.2,3.2,0,0,0,2.3-.7,1.9,1.9,0,0,0,.8-1.8,2.7,2.7,0,0,0-.6-1.7,7.8,7.8,0,0,0-1.9-1.3l-3.3-1.2-3.6-1.6a8.7,8.7,0,0,1-2.8-2.6,6.6,6.6,0,0,1-1.1-4.1,6.3,6.3,0,0,1,1.3-4.1,7.4,7.4,0,0,1,3.4-2.5,14.9,14.9,0,0,1,9-.2,20.4,20.4,0,0,1,3.7,1.5,16.6,16.6,0,0,1,3,2.2l-3.3,4.7a11.2,11.2,0,0,0-3.5-2.5,8.2,8.2,0,0,0-3.9-1.1,3.2,3.2,0,0,0-2,.6,1.6,1.6,0,0,0-.8,1.4,2.1,2.1,0,0,0,.8,1.6,9.7,9.7,0,0,0,2.1,1.2l3.2,1.2,3.9,1.8a9.2,9.2,0,0,1,2.9,2.6,6.7,6.7,0,0,1,1.1,3.9,7.8,7.8,0,0,1-4.5,7.5,13.9,13.9,0,0,1-5.3,1,17.2,17.2,0,0,1-5.2-.8,15.4,15.4,0,0,1-4.3-2,22.4,22.4,0,0,1-3.4-2.7l3.7-4.7A30.5,30.5,0,0,0,499.4,384.6Z"/>
        </g>
        <g>
          <path class="cls-4" d="M18.9,508.5a16.2,16.2,0,0,1,3.1-4.6,14.1,14.1,0,0,1,4.6-3,15.8,15.8,0,0,1,11.6,0,14.1,14.1,0,0,1,4.6,3,16.2,16.2,0,0,1,3.1,4.6,17.3,17.3,0,0,1,0,11.6,14.9,14.9,0,0,1-3.1,4.6,12.1,12.1,0,0,1-4.6,3.1,14,14,0,0,1-5.8,1.1,13.6,13.6,0,0,1-5.8-1.1,12.1,12.1,0,0,1-4.6-3.1,14.9,14.9,0,0,1-3.1-4.6,17.3,17.3,0,0,1,0-11.6Zm4.7,9.8a9.4,9.4,0,0,0,1.9,3.2,9.2,9.2,0,0,0,3.1,2,9.2,9.2,0,0,0,3.8.8,9.6,9.6,0,0,0,3.8-.8,7.9,7.9,0,0,0,3-2,9.6,9.6,0,0,0,2-3.2,10.2,10.2,0,0,0,.7-4,10.9,10.9,0,0,0-.7-4,8.9,8.9,0,0,0-1.9-3.1,9.5,9.5,0,0,0-3.1-2.1,9.2,9.2,0,0,0-3.8-.7,9.2,9.2,0,0,0-3.8.7,9.5,9.5,0,0,0-3.1,2.1,8.9,8.9,0,0,0-1.9,3.1,10.9,10.9,0,0,0-.7,4A10.2,10.2,0,0,0,23.6,518.3Z"/>
          <path class="cls-4" d="M55.4,528.3H51.1V497.1h4.3Zm14-4a8.7,8.7,0,0,1-3.3,3.3,9.3,9.3,0,0,1-4.4,1.1,8.3,8.3,0,0,1-3.2-.6,7.5,7.5,0,0,1-2.4-1.9,10.3,10.3,0,0,1-1.7-3.1,12.2,12.2,0,0,1-.5-4,12.5,12.5,0,0,1,.5-4,8.7,8.7,0,0,1,1.7-3,6.3,6.3,0,0,1,2.4-1.9,6.8,6.8,0,0,1,3.2-.7,8.3,8.3,0,0,1,4.4,1.2,7.8,7.8,0,0,1,3.3,3.2,11,11,0,0,1,0,10.4Zm-4-8.3a4.8,4.8,0,0,0-2-2,5,5,0,0,0-2.7-.7,4.1,4.1,0,0,0-1.9.4,4.5,4.5,0,0,0-1.7,1.1,5.7,5.7,0,0,0-1.2,1.8,7,7,0,0,0-.5,2.5,6.2,6.2,0,0,0,.5,2.5,5.2,5.2,0,0,0,1.2,1.9,6.2,6.2,0,0,0,1.7,1.1,5.8,5.8,0,0,0,1.9.4,6,6,0,0,0,2.7-.7,6.4,6.4,0,0,0,2-2,6.6,6.6,0,0,0,.8-3.2A5.9,5.9,0,0,0,65.4,516Z"/>
          <path class="cls-4" d="M71.9,533a1.8,1.8,0,0,0,1.1.3,2,2,0,0,0,1.1-.3,1.7,1.7,0,0,0,.6-1.1,9,9,0,0,0,.2-1.8V509.9h4.3v21a9.1,9.1,0,0,1-.7,3.5,5.8,5.8,0,0,1-2.1,2.3,6.3,6.3,0,0,1-3.2.7,5,5,0,0,1-1.8-.2,4,4,0,0,1-1.3-.7,2.2,2.2,0,0,1-1-.9l2-3.3A1.8,1.8,0,0,0,71.9,533ZM75,500.7a2.6,2.6,0,0,1,1.9-.7,2.9,2.9,0,0,1,2,.7,2.9,2.9,0,0,1,0,3.8,2.9,2.9,0,0,1-2,.7,2.6,2.6,0,0,1-1.9-.7,2.7,2.7,0,0,1,0-3.8Z"/>
          <path class="cls-4" d="M88.2,527.5a8.7,8.7,0,0,1-3.3-3.3,10.7,10.7,0,0,1-1.2-5.1,12.3,12.3,0,0,1,.7-3.9,9.2,9.2,0,0,1,2-3.1,9.1,9.1,0,0,1,3-1.9,9.7,9.7,0,0,1,3.9-.7,10.9,10.9,0,0,1,5,1.1,7.6,7.6,0,0,1,3.1,3.3,9.7,9.7,0,0,1,1.1,5v1.2H86.3v-3H98.8L97.4,519l.3-.7a1.9,1.9,0,0,0,.2-.7,5.1,5.1,0,0,0-.6-2.5,4.4,4.4,0,0,0-1.6-1.7,4.8,4.8,0,0,0-2.4-.6,5.1,5.1,0,0,0-2.2.4,6.1,6.1,0,0,0-1.6,1.2,4.9,4.9,0,0,0-1,1.9,10.3,10.3,0,0,0-.4,2.7,8.1,8.1,0,0,0,.6,3.3,4.6,4.6,0,0,0,1.8,2.1,5.1,5.1,0,0,0,2.8.8,6.2,6.2,0,0,0,3.1-.8,5.2,5.2,0,0,0,2.2-2.2l3.8,1.5a9.9,9.9,0,0,1-3.8,3.8,11.5,11.5,0,0,1-5.5,1.2A9.6,9.6,0,0,1,88.2,527.5Z"/>
          <path class="cls-4" d="M110.3,522.2a5.3,5.3,0,0,0,2.1,2.1,5.7,5.7,0,0,0,2.9.7,6.9,6.9,0,0,0,2.5-.4,7,7,0,0,0,2.1-1.1,5.2,5.2,0,0,0,1.4-1.6v4.7a6.1,6.1,0,0,1-2.6,1.6,13.6,13.6,0,0,1-3.6.5,10.7,10.7,0,0,1-5.1-1.2,9,9,0,0,1-3.6-3.4,10.3,10.3,0,0,1,0-10,9.8,9.8,0,0,1,8.7-4.6,10.5,10.5,0,0,1,3.6.6,6,6,0,0,1,2.6,1.5v4.8a4.6,4.6,0,0,0-1.4-1.7,10.3,10.3,0,0,0-2.1-1.1,10.9,10.9,0,0,0-2.5-.4,5.7,5.7,0,0,0-2.9.8,5.3,5.3,0,0,0-2.1,2.1,6,6,0,0,0-.7,3A6.2,6.2,0,0,0,110.3,522.2Z"/>
          <path class="cls-4" d="M134,509.9v3.8H123.5v-3.8Zm-3.1-6.4v24.8h-4.3V503.5Z"/>
          <path class="cls-4" d="M137.6,500.7a2.6,2.6,0,0,1,1.9-.7,2.6,2.6,0,1,1,0,5.2,2.6,2.6,0,0,1-1.9-.7,2.7,2.7,0,0,1,0-3.8Zm4.1,9.2v18.4h-4.3V509.9Z"/>
          <path class="cls-4" d="M149.6,509.9l4.8,11.9,4.8-11.9h4.7L154.4,530l-9.6-20.1Z"/>
          <path class="cls-4" d="M169.7,527.5a8.7,8.7,0,0,1-3.3-3.3,10.6,10.6,0,0,1-1.1-5.1,12.3,12.3,0,0,1,.6-3.9,9.2,9.2,0,0,1,2-3.1,9.1,9.1,0,0,1,3-1.9,10,10,0,0,1,3.9-.7,10.9,10.9,0,0,1,5,1.1,7.6,7.6,0,0,1,3.1,3.3,9.7,9.7,0,0,1,1.2,5c0,.3-.1.5-.1.7v.5H167.8v-3h12.5l-1.4,1.9.3-.7a1.9,1.9,0,0,0,.2-.7,5.1,5.1,0,0,0-.6-2.5,4.4,4.4,0,0,0-1.6-1.7,4.8,4.8,0,0,0-2.4-.6,5.4,5.4,0,0,0-2.2.4,6.1,6.1,0,0,0-1.6,1.2,6.7,6.7,0,0,0-1,1.9,10.3,10.3,0,0,0-.4,2.7,6.7,6.7,0,0,0,.7,3.3,3.9,3.9,0,0,0,1.7,2.1,5.1,5.1,0,0,0,2.8.8,5.9,5.9,0,0,0,3.1-.8,5.2,5.2,0,0,0,2.2-2.2l3.8,1.5a9.9,9.9,0,0,1-3.8,3.8,11.5,11.5,0,0,1-5.5,1.2A9.9,9.9,0,0,1,169.7,527.5Z"/>
          <path class="cls-4" d="M189.6,509.2a2.8,2.8,0,0,1,4.8,2,2.4,2.4,0,0,1-.8,1.9,2.7,2.7,0,0,1-4,0,2.7,2.7,0,0,1-.8-1.9A2.8,2.8,0,0,1,189.6,509.2Zm0,15.1a2.9,2.9,0,0,1,4,0,2.4,2.4,0,0,1,.8,2,2.4,2.4,0,0,1-.8,1.9,2.7,2.7,0,0,1-4,0,2.7,2.7,0,0,1-.8-1.9A2.8,2.8,0,0,1,189.6,524.3Z"/>
          <path class="cls-4" d="M22.6,570.8a7.6,7.6,0,0,0,2.4,2,6,6,0,0,0,3,.7,6.7,6.7,0,0,0,2.6-.5,4.3,4.3,0,0,0,2.3-3.9,5.6,5.6,0,0,0-.8-3,8.4,8.4,0,0,0-2.3-1.8L26.7,563l-2.3-.9a12,12,0,0,1-2.4-1.5,6.7,6.7,0,0,1-1.9-2.2,6.6,6.6,0,0,1-.8-3.2,7,7,0,0,1,1.1-3.8,6.5,6.5,0,0,1,2.9-2.5,8.2,8.2,0,0,1,4.2-1,8,8,0,0,1,3.9.9,9.3,9.3,0,0,1,2.9,2.2,9.9,9.9,0,0,1,1.9,2.8l-2.9,1.7a23.9,23.9,0,0,0-1.3-2.1,7.8,7.8,0,0,0-2-1.6,5.7,5.7,0,0,0-2.7-.6,4.4,4.4,0,0,0-2.5.5,3,3,0,0,0-1.4,1.3,2.6,2.6,0,0,0-.5,1.7,4.7,4.7,0,0,0,.3,1.7,4.5,4.5,0,0,0,1.1,1.4,6.3,6.3,0,0,0,2,1.3,19.3,19.3,0,0,0,3.1,1.3l2.3,1a9.8,9.8,0,0,1,2.3,1.7,8.4,8.4,0,0,1,1.8,2.3,8.1,8.1,0,0,1,.7,3.3,8.4,8.4,0,0,1-.7,3.3,8.6,8.6,0,0,1-2,2.6,9.2,9.2,0,0,1-2.7,1.6,11.9,11.9,0,0,1-3.2.5,8.8,8.8,0,0,1-4.3-1,10.6,10.6,0,0,1-3.4-2.6,15.6,15.6,0,0,1-2.3-3.4l2.7-1.9A17.4,17.4,0,0,0,22.6,570.8Z"/>
          <path class="cls-4" d="M44.9,571.6a3.6,3.6,0,0,0,1.4,1.6,4.3,4.3,0,0,0,2.1.5,5.1,5.1,0,0,0,2.5-.6,3.5,3.5,0,0,0,1.6-1.6,4.8,4.8,0,0,0,.6-2.4V557.9h3.2v18.4H53.1v-2.9a6.2,6.2,0,0,1-2.3,2.5,6.6,6.6,0,0,1-3.2.8,5.8,5.8,0,0,1-3.3-.9,4.9,4.9,0,0,1-2.2-2.5,8.6,8.6,0,0,1-.8-3.8V557.9h3.2v11.2A6.2,6.2,0,0,0,44.9,571.6Z"/>
          <path class="cls-4" d="M62.1,585.1V557.9h3.2v27.2Zm17.4-12.9a8.3,8.3,0,0,1-3.3,3.4,10.1,10.1,0,0,1-4.6,1.1,7.8,7.8,0,0,1-3.1-.6,7.9,7.9,0,0,1-2.5-1.9,9.9,9.9,0,0,1-1.5-3.1,12,12,0,0,1-.6-4,12.5,12.5,0,0,1,.6-4,8.4,8.4,0,0,1,1.5-3,6.7,6.7,0,0,1,2.5-1.9,6.4,6.4,0,0,1,3.1-.7,9,9,0,0,1,4.6,1.2,8.7,8.7,0,0,1,3.3,3.3,11.4,11.4,0,0,1,0,10.2Zm-2.9-8.7a5.2,5.2,0,0,0-2.2-2.2,6.9,6.9,0,0,0-3.2-.8,5.4,5.4,0,0,0-2.1.5,7.6,7.6,0,0,0-1.9,1.2,7.4,7.4,0,0,0-1.3,2.1,6.4,6.4,0,0,0-.6,2.8,6.1,6.1,0,0,0,.6,2.8,6.2,6.2,0,0,0,1.3,2.1,5.9,5.9,0,0,0,1.9,1.3,5.2,5.2,0,0,0,2.1.4,6.8,6.8,0,0,0,3.2-.7,5.4,5.4,0,0,0,2.2-2.3,7.7,7.7,0,0,0,0-7.2Z"/>
          <path class="cls-4" d="M85,585.1V557.9h3.2v27.2Zm17.3-12.9a8.3,8.3,0,0,1-3.3,3.4,9.7,9.7,0,0,1-4.5,1.1,8.3,8.3,0,0,1-3.2-.6,8.8,8.8,0,0,1-2.4-1.9,10.1,10.1,0,0,1-1.6-3.1,12,12,0,0,1-.6-4,12.5,12.5,0,0,1,.6-4,8.6,8.6,0,0,1,1.6-3,7.2,7.2,0,0,1,2.4-1.9,6.8,6.8,0,0,1,3.2-.7,9,9,0,0,1,7.8,4.5,10.7,10.7,0,0,1,0,10.2Zm-2.8-8.7a6,6,0,0,0-2.3-2.2,6.8,6.8,0,0,0-3.1-.8,5.4,5.4,0,0,0-2.1.5,6.2,6.2,0,0,0-1.9,1.2,6,6,0,0,0-1.4,2.1,6.4,6.4,0,0,0-.5,2.8,6.1,6.1,0,0,0,.5,2.8,5.2,5.2,0,0,0,1.4,2.1,5,5,0,0,0,1.9,1.3,5.2,5.2,0,0,0,2.1.4,6.7,6.7,0,0,0,3.1-.7,6.3,6.3,0,0,0,2.3-2.3,8.5,8.5,0,0,0,0-7.2Z"/>
          <path class="cls-4" d="M107.7,562.2a8.6,8.6,0,0,1,3.4-3.4,8.6,8.6,0,0,1,4.8-1.3,9,9,0,0,1,4.9,1.3,8.6,8.6,0,0,1,3.4,3.4,9.9,9.9,0,0,1,1.3,4.9,10.3,10.3,0,0,1-1.3,5,9.2,9.2,0,0,1-3.4,3.4,9.9,9.9,0,0,1-4.9,1.2,9.5,9.5,0,0,1-4.8-1.2,9.5,9.5,0,0,1-4.7-8.4A9,9,0,0,1,107.7,562.2Zm2.8,8.3a6.4,6.4,0,0,0,2.2,2.4,6.9,6.9,0,0,0,3.2.8,5.7,5.7,0,0,0,5.5-3.2,7.6,7.6,0,0,0,0-6.8,6.1,6.1,0,0,0-2.2-2.3,6.3,6.3,0,0,0-3.3-.9,5.9,5.9,0,0,0-3.2.9,5.4,5.4,0,0,0-2.2,2.3,7.6,7.6,0,0,0,0,6.8Z"/>
          <path class="cls-4" d="M133.1,576.3h-3.2V557.9h3.2Zm4.4-15.6-1.3-.2a2.7,2.7,0,0,0-1.9.6,2.6,2.6,0,0,0-.9,1.7,8,8,0,0,0-.3,2.3h-1.4a10,10,0,0,1,.7-3.9,8.2,8.2,0,0,1,2.1-2.7,4.2,4.2,0,0,1,2.5-1,5.2,5.2,0,0,1,1.8.3,3.9,3.9,0,0,1,1.6,1l-1.7,2.6Z"/>
          <path class="cls-4" d="M150.1,557.9v3h-9.2v-3Zm-3-6.4v24.8h-3.2V551.5Z"/>
          <path class="cls-4" d="M167.3,572.4a3.3,3.3,0,0,0,1.4,1.2,6.5,6.5,0,0,0,2,.4,6,6,0,0,0,2.7-.6,5.2,5.2,0,0,0,1.9-1.7,5.6,5.6,0,0,0,.7-2.6l.6,2.4a3.9,3.9,0,0,1-1,2.9,7.6,7.6,0,0,1-2.6,1.8,11.8,11.8,0,0,1-3.1.5,6.4,6.4,0,0,1-3.1-.7,5.2,5.2,0,0,1-2.4-2,5.5,5.5,0,0,1-.9-3.2,5.4,5.4,0,0,1,.9-3.1,5.8,5.8,0,0,1,2.5-2.1,8.9,8.9,0,0,1,3.8-.7,10.9,10.9,0,0,1,3.4.4,6.8,6.8,0,0,1,2.1,1.1l1.1.9v1.9a11.1,11.1,0,0,0-2.9-1.4,10.6,10.6,0,0,0-3.1-.4,6.5,6.5,0,0,0-2.6.4,3.1,3.1,0,0,0-1.4,1.1,2.6,2.6,0,0,0-.5,1.7A2.7,2.7,0,0,0,167.3,572.4Zm-2.6-12.6a15.4,15.4,0,0,1,2.9-1.5,11.5,11.5,0,0,1,4.4-.8,9.2,9.2,0,0,1,3.8.7,6,6,0,0,1,2.5,1.9,4.9,4.9,0,0,1,.9,3v13.2H176V563.6a3.5,3.5,0,0,0-.3-1.6,4.5,4.5,0,0,0-.9-1l-1.4-.5-1.6-.2a8.8,8.8,0,0,0-2.4.3l-1.9.8a6.2,6.2,0,0,0-1.2.8Z"/>
          <path class="cls-4" d="M196,562.6a4.2,4.2,0,0,0-1.3-1.6,5.3,5.3,0,0,0-4.7.1,4.1,4.1,0,0,0-1.6,1.6,4.8,4.8,0,0,0-.6,2.4v11.2h-3.2V557.9h3.2v2.9a7,7,0,0,1,2.3-2.5,6.6,6.6,0,0,1,3.2-.8,6.4,6.4,0,0,1,3.4.9,5.8,5.8,0,0,1,2.1,2.5,7.4,7.4,0,0,1,.8,3.8v11.6h-3.2V565.1A6.2,6.2,0,0,0,196,562.6Z"/>
          <path class="cls-4" d="M205.3,562a8.7,8.7,0,0,1,3.3-3.3,9,9,0,0,1,4.6-1.2,6.4,6.4,0,0,1,3.1.7,6.7,6.7,0,0,1,2.5,1.9,8.4,8.4,0,0,1,1.5,3,12.5,12.5,0,0,1,.6,4,12,12,0,0,1-.6,4,9.9,9.9,0,0,1-1.5,3.1,7.9,7.9,0,0,1-2.5,1.9,7.8,7.8,0,0,1-3.1.6,10.1,10.1,0,0,1-4.6-1.1,8.3,8.3,0,0,1-3.3-3.4,11.4,11.4,0,0,1,0-10.2Zm2.9,8.7a5.1,5.1,0,0,0,2.3,2.3,6.4,6.4,0,0,0,3.1.7,5.2,5.2,0,0,0,2.1-.4,7.2,7.2,0,0,0,1.9-1.3,6.2,6.2,0,0,0,1.3-2.1,6.1,6.1,0,0,0,.6-2.8,6.4,6.4,0,0,0-.6-2.8,7.4,7.4,0,0,0-1.3-2.1,10,10,0,0,0-1.9-1.2,5.4,5.4,0,0,0-2.1-.5,6.5,6.5,0,0,0-3.1.8,4.9,4.9,0,0,0-2.3,2.2,7.6,7.6,0,0,0,0,7.2Zm14.5-25.6v31.2h-3.2V545.1Z"/>
          <path class="cls-4" d="M242.6,572.2a6.1,6.1,0,0,0,1.6,1.2,4.9,4.9,0,0,0,2.1.4,3.3,3.3,0,0,0,2.1-.6,1.9,1.9,0,0,0,.8-1.7,2.1,2.1,0,0,0-.6-1.6,4,4,0,0,0-1.6-1.2l-2-.8a13.4,13.4,0,0,1-2.4-1.2,5.8,5.8,0,0,1-2.1-1.7,4.7,4.7,0,0,1,.1-5.4,5.2,5.2,0,0,1,2.2-1.6,9.3,9.3,0,0,1,2.9-.5,8.1,8.1,0,0,1,2.7.5,5.8,5.8,0,0,1,2.3,1.3,5.5,5.5,0,0,1,1.6,1.8l-2.6,1.7a6.6,6.6,0,0,0-1.9-1.8,5.1,5.1,0,0,0-2.5-.6,3.4,3.4,0,0,0-1.8.4,1.6,1.6,0,0,0-.7,1.4,1.6,1.6,0,0,0,.6,1.2,3.9,3.9,0,0,0,1.4,1l1.9.9,2.9,1.4a6,6,0,0,1,2.1,1.7,4.6,4.6,0,0,1,.8,2.7,5.7,5.7,0,0,1-.8,2.9,6.4,6.4,0,0,1-2.3,2,6.7,6.7,0,0,1-3.3.7,8.8,8.8,0,0,1-3.3-.6,9.2,9.2,0,0,1-2.5-1.7,6.2,6.2,0,0,1-1.5-2.2l2.5-1.5A9.3,9.3,0,0,0,242.6,572.2Z"/>
          <path class="cls-4" d="M263.1,557.9v3h-9.2v-3Zm-3-6.4v24.8h-3.2V551.5Z"/>
          <path class="cls-4" d="M269.5,576.3h-3.2V557.9h3.2Zm4.4-15.6-1.3-.2a2.9,2.9,0,0,0-1.9.6,3.9,3.9,0,0,0-.9,1.7,8,8,0,0,0-.3,2.3h-1.4a8.5,8.5,0,0,1,.8-3.9,7.9,7.9,0,0,1,2-2.7,4.4,4.4,0,0,1,2.5-1,5.8,5.8,0,0,1,1.9.3,3.6,3.6,0,0,1,1.5,1l-1.7,2.6Z"/>
          <path class="cls-4" d="M282.7,575.5a7.3,7.3,0,0,1-3.1-3.4,11.2,11.2,0,0,1-1.1-5,12.3,12.3,0,0,1,.6-3.9,9.1,9.1,0,0,1,1.9-3,8.4,8.4,0,0,1,2.9-2,10.6,10.6,0,0,1,3.7-.7,8.9,8.9,0,0,1,4.7,1.2,6.5,6.5,0,0,1,2.9,3.2,11.3,11.3,0,0,1,1.1,5.1v.5a1,1,0,0,1-.1.4H280.5v-2.7h13.2l-1.3,1.8a1.6,1.6,0,0,0,.3-.6,2,2,0,0,0,.1-.7,5.1,5.1,0,0,0-.7-2.8,4.9,4.9,0,0,0-4.5-2.6,7,7,0,0,0-2.5.5,5.7,5.7,0,0,0-1.8,1.2,7.2,7.2,0,0,0-1.2,2.1,11.8,11.8,0,0,0-.4,2.8,9.8,9.8,0,0,0,.7,3.7,5,5,0,0,0,2,2.3,5.7,5.7,0,0,0,3.2.8,6.4,6.4,0,0,0,5.8-3.3L296,572a8.8,8.8,0,0,1-3.7,3.5,10.1,10.1,0,0,1-5.1,1.2A8.4,8.4,0,0,1,282.7,575.5Z"/>
          <path class="cls-4" d="M312.1,562.6a3.4,3.4,0,0,0-1.3-1.6,4.8,4.8,0,0,0-2.2-.5,5.4,5.4,0,0,0-2.5.6,4.1,4.1,0,0,0-1.6,1.6,4.8,4.8,0,0,0-.6,2.4v11.2h-3.2V557.9h3.2v2.9a7,7,0,0,1,2.3-2.5,6.6,6.6,0,0,1,3.2-.8,6.4,6.4,0,0,1,3.4.9,5.8,5.8,0,0,1,2.1,2.5,7.4,7.4,0,0,1,.8,3.8v11.6h-3.2V565.1A6.2,6.2,0,0,0,312.1,562.6Z"/>
          <path class="cls-4" d="M321.4,562a8.7,8.7,0,0,1,3.3-3.3,9,9,0,0,1,4.6-1.2,6.4,6.4,0,0,1,3.1.7,6.7,6.7,0,0,1,2.5,1.9,8.4,8.4,0,0,1,1.5,3,12.5,12.5,0,0,1,.6,4,12,12,0,0,1-.6,4,9.9,9.9,0,0,1-1.5,3.1,7.9,7.9,0,0,1-2.5,1.9,7.8,7.8,0,0,1-3.1.6,10.1,10.1,0,0,1-4.6-1.1,8.3,8.3,0,0,1-3.3-3.4,11.4,11.4,0,0,1,0-10.2Zm2.4,15.5a4.5,4.5,0,0,0,.7,2.5,5,5,0,0,0,2,1.8,6.2,6.2,0,0,0,3.1.7,5.5,5.5,0,0,0,2.8-.7,5.1,5.1,0,0,0,2.3-2.1,7.1,7.1,0,0,0,.9-3.8v-18h3.2v18a9.7,9.7,0,0,1-1.4,5.3,8.1,8.1,0,0,1-3.4,3.2,8.2,8.2,0,0,1-4.4,1.1,10.4,10.4,0,0,1-4.7-1,7.3,7.3,0,0,1-3.2-2.8,7.4,7.4,0,0,1-1.2-4.2Zm.5-6.8a5.1,5.1,0,0,0,2.3,2.3,6.4,6.4,0,0,0,3.1.7,5.2,5.2,0,0,0,2.1-.4,5.9,5.9,0,0,0,1.9-1.3,6.2,6.2,0,0,0,1.3-2.1,6.1,6.1,0,0,0,.6-2.8,6.4,6.4,0,0,0-.6-2.8,7.4,7.4,0,0,0-1.3-2.1,7.6,7.6,0,0,0-1.9-1.2,5.4,5.4,0,0,0-2.1-.5,6.5,6.5,0,0,0-3.1.8,4.9,4.9,0,0,0-2.3,2.2,7.7,7.7,0,0,0,0,7.2Z"/>
          <path class="cls-4" d="M351,557.9v3h-9.2v-3Zm-3-6.4v24.8h-3.2V551.5Z"/>
          <path class="cls-4" d="M357.4,576.3h-3.2V545.1h3.2Zm8.2-13.7a3.4,3.4,0,0,0-1.3-1.6,5.1,5.1,0,0,0-4.6.1,4.6,4.6,0,0,0-1.7,1.7,4.4,4.4,0,0,0-.6,2.3h-1a10.1,10.1,0,0,1,.8-3.9,8.7,8.7,0,0,1,2.3-2.7,6.5,6.5,0,0,1,3.4-1,7.4,7.4,0,0,1,3.4.8,7.3,7.3,0,0,1,2.2,2.4,9.6,9.6,0,0,1,.7,4v11.6H366V565.1A6.2,6.2,0,0,0,365.6,562.6Z"/>
          <path class="cls-4" d="M377.9,575.5a7.3,7.3,0,0,1-3.1-3.4,11.2,11.2,0,0,1-1.1-5,12.3,12.3,0,0,1,.6-3.9,9.1,9.1,0,0,1,1.9-3,8.4,8.4,0,0,1,2.9-2,10.6,10.6,0,0,1,3.7-.7,8.9,8.9,0,0,1,4.7,1.2,6.5,6.5,0,0,1,2.9,3.2,11.3,11.3,0,0,1,1.1,5.1v.5a1,1,0,0,1-.1.4H375.7v-2.7h13.2l-1.3,1.8a1.6,1.6,0,0,0,.3-.6,2,2,0,0,0,.1-.7,5.1,5.1,0,0,0-.7-2.8,4.9,4.9,0,0,0-4.5-2.6,7,7,0,0,0-2.5.5,5.7,5.7,0,0,0-1.8,1.2,7.2,7.2,0,0,0-1.2,2.1,11.8,11.8,0,0,0-.4,2.8,9.8,9.8,0,0,0,.7,3.7,5,5,0,0,0,2,2.3,5.7,5.7,0,0,0,3.2.8,6.4,6.4,0,0,0,5.8-3.3l2.6,1.6a8.8,8.8,0,0,1-3.7,3.5,10.1,10.1,0,0,1-5.1,1.2A8.4,8.4,0,0,1,377.9,575.5Z"/>
          <path class="cls-4" d="M407.3,562.6A3.4,3.4,0,0,0,406,561a4.8,4.8,0,0,0-2.2-.5,5.4,5.4,0,0,0-2.5.6,4.1,4.1,0,0,0-1.6,1.6,4.8,4.8,0,0,0-.6,2.4v11.2h-3.2V557.9h3.2v2.9a7,7,0,0,1,2.3-2.5,6.6,6.6,0,0,1,3.2-.8,6.4,6.4,0,0,1,3.4.9,5.8,5.8,0,0,1,2.1,2.5,7.4,7.4,0,0,1,.8,3.8v11.6h-3.2V565.1A6.2,6.2,0,0,0,407.3,562.6Z"/>
          <path class="cls-4" d="M432.2,545.1v31.2H429V545.1Z"/>
          <path class="cls-4" d="M437.9,562.2a8.6,8.6,0,0,1,3.4-3.4,9.2,9.2,0,0,1,4.9-1.3,8.6,8.6,0,0,1,4.8,1.3,8,8,0,0,1,3.4,3.4,9,9,0,0,1,1.3,4.9,9.3,9.3,0,0,1-1.3,5,8.6,8.6,0,0,1-3.4,3.4,9.5,9.5,0,0,1-4.8,1.2,10.2,10.2,0,0,1-4.9-1.2,9.2,9.2,0,0,1-3.4-3.4,10.3,10.3,0,0,1-1.3-5A9.9,9.9,0,0,1,437.9,562.2Zm2.8,8.3a5.7,5.7,0,0,0,5.5,3.2,6.9,6.9,0,0,0,3.2-.8,7.3,7.3,0,0,0,2.2-9.2,5.4,5.4,0,0,0-2.2-2.3,5.9,5.9,0,0,0-3.2-.9,6.3,6.3,0,0,0-3.3.9,6.1,6.1,0,0,0-2.2,2.3,7.6,7.6,0,0,0,0,6.8Z"/>
          <path class="cls-4" d="M462.4,570.5a6.4,6.4,0,0,0,2.2,2.4,6.9,6.9,0,0,0,3.2.8,8.2,8.2,0,0,0,2.8-.4,8.6,8.6,0,0,0,2.3-1.3,4.6,4.6,0,0,0,1.3-1.6v4a6,6,0,0,1-2.7,1.7,11.5,11.5,0,0,1-3.7.6,9.8,9.8,0,0,1-4.8-1.2,9.5,9.5,0,0,1-4.7-8.4,9,9,0,0,1,1.3-4.9,8.6,8.6,0,0,1,3.4-3.4,8.9,8.9,0,0,1,4.8-1.3,11.5,11.5,0,0,1,3.7.6,6.1,6.1,0,0,1,2.7,1.8v4a4.1,4.1,0,0,0-1.3-1.7,8.4,8.4,0,0,0-2.3-1.2,8.2,8.2,0,0,0-2.8-.5,5.9,5.9,0,0,0-3.2.9,5.4,5.4,0,0,0-2.2,2.3,7.6,7.6,0,0,0,0,6.8Z"/>
          <path class="cls-4" d="M481.2,572.4a4.1,4.1,0,0,0,1.4,1.2,6.5,6.5,0,0,0,2.1.4,5.3,5.3,0,0,0,2.6-.6,4.5,4.5,0,0,0,1.9-1.7,4.6,4.6,0,0,0,.7-2.6l.7,2.4a4,4,0,0,1-1.1,2.9,6.8,6.8,0,0,1-2.6,1.8,10.6,10.6,0,0,1-3.1.5,6.7,6.7,0,0,1-3.1-.7,5,5,0,0,1-2.3-2,5.5,5.5,0,0,1-.9-3.2,6.2,6.2,0,0,1,.8-3.1,5.8,5.8,0,0,1,2.5-2.1,9.4,9.4,0,0,1,3.9-.7,10.6,10.6,0,0,1,3.3.4,9,9,0,0,1,2.2,1.1,4.8,4.8,0,0,1,1,.9v1.9a10.5,10.5,0,0,0-2.8-1.4,11.2,11.2,0,0,0-3.2-.4,6,6,0,0,0-2.5.4,3,3,0,0,0-1.5,1.1,3.4,3.4,0,0,0-.5,1.7A3.5,3.5,0,0,0,481.2,572.4Zm-2.5-12.6a14.1,14.1,0,0,1,2.8-1.5,11.9,11.9,0,0,1,4.4-.8,8.9,8.9,0,0,1,3.8.7,5.4,5.4,0,0,1,2.5,1.9,4.9,4.9,0,0,1,.9,3v13.2h-3.2V563.6a3.5,3.5,0,0,0-.3-1.6,2.2,2.2,0,0,0-.9-1l-1.3-.5-1.6-.2a9.5,9.5,0,0,0-2.5.3l-1.9.8a6.2,6.2,0,0,0-1.2.8Z"/>
          <path class="cls-4" d="M501.8,545.1v31.2h-3.2V545.1Z"/>
          <path class="cls-4" d="M21.9,623.5a8.5,8.5,0,0,1-3.1-3.4,11.2,11.2,0,0,1-1.1-5,12.3,12.3,0,0,1,.7-3.9,7.7,7.7,0,0,1,1.9-3,8,8,0,0,1,2.8-2,11.7,11.7,0,0,1,3.8-.7,8.5,8.5,0,0,1,4.6,1.2,7.2,7.2,0,0,1,3,3.2,11.3,11.3,0,0,1,1,5.1v.9H19.8v-2.7H33L31.7,615a.8.8,0,0,0,.2-.6,2.5,2.5,0,0,0,.2-.7,6.1,6.1,0,0,0-.7-2.8,5.5,5.5,0,0,0-1.8-1.9,5,5,0,0,0-2.7-.7,6.6,6.6,0,0,0-4.4,1.7,5.3,5.3,0,0,0-1.1,2.1,8.2,8.2,0,0,0-.4,2.8,8.2,8.2,0,0,0,.7,3.7,4.5,4.5,0,0,0,2,2.3,5.3,5.3,0,0,0,3.2.8,7.3,7.3,0,0,0,3.3-.8,7.2,7.2,0,0,0,2.4-2.5l2.6,1.6a8.6,8.6,0,0,1-3.6,3.5,10.7,10.7,0,0,1-5.1,1.2A8.5,8.5,0,0,1,21.9,623.5Z"/>
          <path class="cls-4" d="M42.2,618.5a6,6,0,0,0,5.5,3.2,8.6,8.6,0,0,0,2.8-.4,8,8,0,0,0,2.2-1.3,5,5,0,0,0,1.4-1.6v4a6.6,6.6,0,0,1-2.7,1.7,11.9,11.9,0,0,1-3.7.6,9.5,9.5,0,0,1-8.3-4.6,10.3,10.3,0,0,1-1.2-5,9.9,9.9,0,0,1,1.2-4.9,8.8,8.8,0,0,1,3.5-3.4,8.6,8.6,0,0,1,4.8-1.3,11.9,11.9,0,0,1,3.7.6,6.7,6.7,0,0,1,2.7,1.8v4a4.4,4.4,0,0,0-1.4-1.7,7.8,7.8,0,0,0-2.2-1.2,8.7,8.7,0,0,0-2.8-.5,6.5,6.5,0,0,0-5.5,3.2,7.6,7.6,0,0,0,0,6.8Z"/>
          <path class="cls-4" d="M58.8,610.2a8.6,8.6,0,0,1,3.4-3.4,9.2,9.2,0,0,1,4.9-1.3,8.6,8.6,0,0,1,4.8,1.3,8.6,8.6,0,0,1,3.4,3.4,9,9,0,0,1,1.3,4.9,9.5,9.5,0,0,1-4.7,8.4,9.5,9.5,0,0,1-4.8,1.2,10.2,10.2,0,0,1-4.9-1.2,9.2,9.2,0,0,1-3.4-3.4,10.3,10.3,0,0,1-1.3-5A9.9,9.9,0,0,1,58.8,610.2Zm2.8,8.3a6.4,6.4,0,0,0,2.2,2.4,7.3,7.3,0,0,0,3.3.8,6.9,6.9,0,0,0,3.2-.8,7.3,7.3,0,0,0,2.2-9.2,5.4,5.4,0,0,0-2.2-2.3,5.9,5.9,0,0,0-3.2-.9,6.3,6.3,0,0,0-3.3.9,5.4,5.4,0,0,0-2.2,2.3,7.6,7.6,0,0,0,0,6.8Z"/>
          <path class="cls-4" d="M92.4,610.6a4.2,4.2,0,0,0-1.3-1.6,5.3,5.3,0,0,0-4.7.1,4.1,4.1,0,0,0-1.6,1.6,4.8,4.8,0,0,0-.6,2.4v11.2H81V605.9h3.2v2.9a7,7,0,0,1,2.3-2.5,6.6,6.6,0,0,1,3.2-.8,6.4,6.4,0,0,1,3.4.9,5.8,5.8,0,0,1,2.1,2.5,7.4,7.4,0,0,1,.8,3.8v11.6H92.8V613.1A6.2,6.2,0,0,0,92.4,610.6Z"/>
          <path class="cls-4" d="M101.7,610.2a9.5,9.5,0,0,1,8.3-4.7,8.6,8.6,0,0,1,4.8,1.3,8,8,0,0,1,3.4,3.4,9,9,0,0,1,1.3,4.9,9.3,9.3,0,0,1-1.3,5,8.6,8.6,0,0,1-3.4,3.4,9.5,9.5,0,0,1-4.8,1.2,10.2,10.2,0,0,1-4.9-1.2,10.1,10.1,0,0,1-3.4-3.4,10.3,10.3,0,0,1-1.2-5A9.9,9.9,0,0,1,101.7,610.2Zm2.8,8.3a6,6,0,0,0,5.5,3.2,6.9,6.9,0,0,0,3.2-.8,6.9,6.9,0,0,0,2.2-9.2,5.4,5.4,0,0,0-2.2-2.3,5.9,5.9,0,0,0-3.2-.9,6.5,6.5,0,0,0-5.5,3.2,7.6,7.6,0,0,0,0,6.8Z"/>
          <path class="cls-4" d="M149.1,624.3h-3.2V613.1a9.8,9.8,0,0,0-.3-2.6,4.4,4.4,0,0,0-1.2-1.5,3.9,3.9,0,0,0-2-.5,4.4,4.4,0,0,0-2.3.6,2.9,2.9,0,0,0-1.4,1.5,5.1,5.1,0,0,0-.6,2.5v11.2h-3.2V613.1a9.8,9.8,0,0,0-.3-2.6,4.4,4.4,0,0,0-1.2-1.5,3.9,3.9,0,0,0-2-.5,4.4,4.4,0,0,0-2.3.6,2.9,2.9,0,0,0-1.4,1.5,5.1,5.1,0,0,0-.6,2.5v11.2h-3.2V605.9h3.2v2.7a5.9,5.9,0,0,1,1.3-1.7,4.2,4.2,0,0,1,1.7-1,5.2,5.2,0,0,1,2.1-.4,7.9,7.9,0,0,1,2.3.4,7.6,7.6,0,0,1,1.9,1.2,4,4,0,0,1,1.1,1.9,7.6,7.6,0,0,1,2.4-2.6,6.3,6.3,0,0,1,3.3-.9,5.5,5.5,0,0,1,3.2.9,4.4,4.4,0,0,1,2,2.4,9.4,9.4,0,0,1,.7,3.9Z"/>
          <path class="cls-4" d="M155.8,596.8a2.1,2.1,0,0,1,1.6-.7,2.4,2.4,0,0,1,2.2,2.2,2.1,2.1,0,0,1-.7,1.6,2,2,0,0,1-1.5.6,2.1,2.1,0,0,1-2.2-2.2A2,2,0,0,1,155.8,596.8Zm3.2,9.1v18.4h-3.2V605.9Z"/>
          <path class="cls-4" d="M167.9,618.5a6.4,6.4,0,0,0,2.2,2.4,6.9,6.9,0,0,0,3.2.8,7.4,7.4,0,0,0,5.1-1.7,4.6,4.6,0,0,0,1.3-1.6v4a6,6,0,0,1-2.7,1.7,11.5,11.5,0,0,1-3.7.6,9.5,9.5,0,0,1-4.8-1.2,9.5,9.5,0,0,1-4.7-8.4,9,9,0,0,1,1.3-4.9,8.6,8.6,0,0,1,3.4-3.4,8.6,8.6,0,0,1,4.8-1.3,11.5,11.5,0,0,1,3.7.6,6.1,6.1,0,0,1,2.7,1.8v4a4.1,4.1,0,0,0-1.3-1.7,8.4,8.4,0,0,0-2.3-1.2,8.7,8.7,0,0,0-2.8-.5,5.9,5.9,0,0,0-3.2.9,5.4,5.4,0,0,0-2.2,2.3,7.6,7.6,0,0,0,0,6.8Z"/>
          <path class="cls-4" d="M222,624.3h-3.2V613.1a6.8,6.8,0,0,0-.4-2.6,3.3,3.3,0,0,0-1.1-1.5,3.9,3.9,0,0,0-2-.5,4.4,4.4,0,0,0-2.3.6,3.6,3.6,0,0,0-1.5,1.5,6.6,6.6,0,0,0-.5,2.5v11.2h-3.2V613.1a6.8,6.8,0,0,0-.4-2.6,3.3,3.3,0,0,0-1.1-1.5,3.9,3.9,0,0,0-2-.5,4.4,4.4,0,0,0-2.3.6,3.6,3.6,0,0,0-1.5,1.5,6.6,6.6,0,0,0-.5,2.5v11.2h-3.2V605.9H200v2.7a5.9,5.9,0,0,1,1.3-1.7,4.2,4.2,0,0,1,1.7-1,4.9,4.9,0,0,1,2.1-.4,8.5,8.5,0,0,1,2.3.4,5.7,5.7,0,0,1,1.8,1.2,4.1,4.1,0,0,1,1.2,1.9,7.6,7.6,0,0,1,2.4-2.6,6.3,6.3,0,0,1,3.3-.9,5.7,5.7,0,0,1,3.2.9,4.8,4.8,0,0,1,2,2.4,9.4,9.4,0,0,1,.7,3.9Z"/>
          <path class="cls-4" d="M230,620.4a3.3,3.3,0,0,0,1.4,1.2,6.5,6.5,0,0,0,2.1.4,5.8,5.8,0,0,0,2.6-.6,5.2,5.2,0,0,0,1.9-1.7,4.6,4.6,0,0,0,.7-2.6l.6,2.4a3.9,3.9,0,0,1-1,2.9,6.8,6.8,0,0,1-2.6,1.8,11.8,11.8,0,0,1-3.1.5,6.4,6.4,0,0,1-3.1-.7,5.2,5.2,0,0,1-2.4-2,5.5,5.5,0,0,1-.8-3.2,5.3,5.3,0,0,1,.8-3.1,5.8,5.8,0,0,1,2.5-2.1,9.4,9.4,0,0,1,3.9-.7,10.6,10.6,0,0,1,3.3.4,6.8,6.8,0,0,1,2.1,1.1l1.1.9v1.9a11.1,11.1,0,0,0-2.9-1.4,10.6,10.6,0,0,0-3.1-.4,6.5,6.5,0,0,0-2.6.4,3.1,3.1,0,0,0-1.4,1.1,3.4,3.4,0,0,0-.5,1.7A3.5,3.5,0,0,0,230,620.4Zm-2.5-12.6a11.7,11.7,0,0,1,2.8-1.5,11.5,11.5,0,0,1,4.4-.8,9.2,9.2,0,0,1,3.8.7,5.4,5.4,0,0,1,2.5,1.9,4.9,4.9,0,0,1,.9,3v13.2h-3.2V611.6a3.5,3.5,0,0,0-.3-1.6,2.2,2.2,0,0,0-.9-1l-1.4-.5-1.6-.2a8.8,8.8,0,0,0-2.4.3l-1.9.8a6.2,6.2,0,0,0-1.2.8Z"/>
          <path class="cls-4" d="M250.5,624.3h-3.2V605.9h3.2Zm4.4-15.6-1.3-.2a2.9,2.9,0,0,0-1.9.6,3.9,3.9,0,0,0-.9,1.7,8,8,0,0,0-.3,2.3h-1.4a10.1,10.1,0,0,1,.8-3.9,7.9,7.9,0,0,1,2-2.7,4.4,4.4,0,0,1,2.5-1,5.8,5.8,0,0,1,1.9.3,4.7,4.7,0,0,1,1.6,1l-1.8,2.6Z"/>
          <path class="cls-4" d="M264.1,593.1v31.2h-3.2V593.1Zm10.8,12.8-8,7.6,8.8,10.8h-4l-8.8-10.8,8-7.6Z"/>
          <path class="cls-4" d="M281.3,623.5a8.5,8.5,0,0,1-3.1-3.4,11.2,11.2,0,0,1-1.1-5,12.3,12.3,0,0,1,.7-3.9,7.7,7.7,0,0,1,1.9-3,8,8,0,0,1,2.8-2,11.7,11.7,0,0,1,3.8-.7,8.5,8.5,0,0,1,4.6,1.2,7.2,7.2,0,0,1,3,3.2,11.3,11.3,0,0,1,1,5.1v.9H279.2v-2.7h13.2l-1.3,1.8a.8.8,0,0,0,.2-.6,2.5,2.5,0,0,0,.2-.7,6.1,6.1,0,0,0-.7-2.8A5.5,5.5,0,0,0,289,609a5,5,0,0,0-2.7-.7,6.6,6.6,0,0,0-4.4,1.7,5.3,5.3,0,0,0-1.1,2.1,8.2,8.2,0,0,0-.4,2.8,8.2,8.2,0,0,0,.7,3.7,4.5,4.5,0,0,0,2,2.3,5.3,5.3,0,0,0,3.2.8,7.3,7.3,0,0,0,3.3-.8,7.2,7.2,0,0,0,2.4-2.5l2.6,1.6a8.6,8.6,0,0,1-3.6,3.5,10.7,10.7,0,0,1-5.1,1.2A8.5,8.5,0,0,1,281.3,623.5Z"/>
          <path class="cls-4" d="M305.8,605.9v3h-9.2v-3Zm-3-6.4v24.8h-3.2V599.5Z"/>
          <path class="cls-4" d="M311.1,620.2a4.8,4.8,0,0,0,1.6,1.2,4.6,4.6,0,0,0,2.1.4,3.3,3.3,0,0,0,2.1-.6,2.1,2.1,0,0,0,.8-1.7,2.1,2.1,0,0,0-.6-1.6,4.8,4.8,0,0,0-1.6-1.2l-2-.8a11.5,11.5,0,0,1-2.5-1.2,5.5,5.5,0,0,1-2-1.7,3.8,3.8,0,0,1-.8-2.6,5.1,5.1,0,0,1,.8-2.8,5.6,5.6,0,0,1,2.3-1.6,8.1,8.1,0,0,1,5.6,0,6.5,6.5,0,0,1,2.3,1.3,5.5,5.5,0,0,1,1.6,1.8l-2.6,1.7a6.6,6.6,0,0,0-1.9-1.8,5.3,5.3,0,0,0-2.6-.6,3.3,3.3,0,0,0-1.7.4,1.4,1.4,0,0,0-.7,1.4,1.8,1.8,0,0,0,.5,1.2,5.6,5.6,0,0,0,1.5,1l1.8.9a20.9,20.9,0,0,1,3,1.4,6.7,6.7,0,0,1,2,1.7,4,4,0,0,1,.8,2.7,4.9,4.9,0,0,1-.8,2.9,5.4,5.4,0,0,1-2.2,2,6.7,6.7,0,0,1-3.3.7,8.8,8.8,0,0,1-3.3-.6,9.2,9.2,0,0,1-2.5-1.7,6.2,6.2,0,0,1-1.5-2.2l2.5-1.5A6.1,6.1,0,0,0,311.1,620.2Z"/>
        </g>
        <g id="Layer_2-2" data-name="Layer 2">
          <g id="Layer_1-2-2" data-name="Layer 1-2">
            <path class="cls-1" d="M306.2,243.8h0c-8-.1-35.5-1.8-57.4-24-19.4-19.6-22.6-43.3-23.1-52.5s-.1-36.3,21.9-59.5S298,82.6,306.1,82.6a3.3,3.3,0,0,1,3.3,3.3v77.3h0v77.3a3.3,3.3,0,0,1-1,2.3A3.4,3.4,0,0,1,306.2,243.8ZM302.8,89.3c-10.1.5-32.4,4-50.4,23-20.2,21.3-20.6,47.2-20.2,54.6s3.5,30.3,21.3,48.3,39.5,21.3,49.4,21.9V89.3Z"/>
            <circle class="cls-5" cx="306.2" cy="163.2" r="77.3"/>
            <path class="cls-5" d="M306.2,242.5a2,2,0,0,1-2-2V85.9a2,2,0,0,1,4,0V240.5A2,2,0,0,1,306.2,242.5Z"/>
            <path class="cls-1" d="M306.2,164.7H228.9a1.5,1.5,0,0,1,0-3h77.3a1.5,1.5,0,0,1,0,3Z"/>
            <path class="cls-1" d="M306.1,136.2H233.9a1.5,1.5,0,0,1,0-3h72.2a1.5,1.5,0,0,1,0,3Z"/>
            <path class="cls-1" d="M306.3,107.7H254.5a1.5,1.5,0,0,1,0-3h51.8a1.5,1.5,0,0,1,0,3Z"/>
            <path class="cls-1" d="M306.1,193.2H233.9a1.5,1.5,0,0,1-1.5-1.5,1.5,1.5,0,0,1,1.5-1.5h72.2a1.4,1.4,0,0,1,1.5,1.5A1.5,1.5,0,0,1,306.1,193.2Z"/>
            <path class="cls-1" d="M306.3,221.7H254.5a1.5,1.5,0,0,1-1.5-1.5,1.5,1.5,0,0,1,1.5-1.5h51.8a1.5,1.5,0,0,1,1.5,1.5A1.5,1.5,0,0,1,306.3,221.7Z"/>
            <path class="cls-1" d="M306.2,242a1.6,1.6,0,0,1-1.2-.6c-9.9-12.3-26.8-38.4-27.7-74.9-1.1-41.2,19-70.8,27.7-81.6a1.7,1.7,0,0,1,2.2-.2,1.6,1.6,0,0,1,.2,2.1c-8.5,10.6-28.2,39.4-27.1,79.6a122.6,122.6,0,0,0,27.1,73.1,1.7,1.7,0,0,1-.2,2.2A1.9,1.9,0,0,1,306.2,242Z"/>
            <path class="cls-1" d="M306.2,242h-.5a82.8,82.8,0,0,1,0-157.5,1.5,1.5,0,0,1,1.9,1,1.4,1.4,0,0,1-.9,1.9,79.7,79.7,0,0,0,0,151.7,1.4,1.4,0,0,1,.9,1.9A1.5,1.5,0,0,1,306.2,242Z"/>
            <g>
              <path class="cls-1" d="M306.2,163.2V85.9c4.9,0,33.7.5,56.1,24.1s21.3,52.2,21.1,57.1-2.3,30.3-22.2,50.4c-22.1,22.3-49.7,23-55,23Z"/>
              <path class="cls-5" d="M306.2,243.8a3.7,3.7,0,0,1-2.4-1,3.2,3.2,0,0,1-.9-2.3V163.2h0V85.9a3.3,3.3,0,0,1,3.3-3.3c8.1,0,36.4,1.8,58.5,25.2s22.4,51.4,22,59.4-3.8,33-23.2,52.6c-21.9,22.2-49.4,23.9-57.3,24Zm3.3-80.6v73.9c9.8-.6,31.6-4,49.3-21.9s20.8-39.8,21.3-48.3.1-33.3-20.2-54.6c-17.9-19-40.3-22.5-50.4-23v73.9Z"/>
            </g>
            <g class="cls-6">
              <path class="cls-7" d="M336.3,210.6v-7.9c-13.5-2-18-11.2-18.4-22.5h16.9c.2,5.6,1.9,9.7,7.5,9.7s6.5-3.1,6.5-7.5-2.3-8.2-9.7-11.6c-14.5-6.1-20.4-12.1-20.4-24.8,0-11.2,6.5-19.5,17.6-21.4v-6.1h11.9v6.1c11.5,1.9,16.4,9.4,16.6,21.3H348.6c-.2-5.6-2.3-8.6-6.8-8.6s-6.1,2.8-6.1,7.1,2.5,7.1,10.6,10.5c14.1,6,19.8,13,19.8,25.2s-5.3,20.4-17.9,22.5v8Z"/>
            </g>
            <g class="cls-6">
              <path class="cls-8" d="M336.3,210.6v-7.9c-13.5-2-18-11.2-18.4-22.5h16.9c.2,5.6,1.9,9.7,7.5,9.7s6.5-3.1,6.5-7.5-2.3-8.2-9.7-11.6c-14.5-6.1-20.4-12.1-20.4-24.8,0-11.2,6.5-19.5,17.6-21.4v-6.1h11.9v6.1c11.5,1.9,16.4,9.4,16.6,21.3H348.6c-.2-5.6-2.3-8.6-6.8-8.6s-6.1,2.8-6.1,7.1,2.5,7.1,10.6,10.5c14.1,6,19.8,13,19.8,25.2s-5.3,20.4-17.9,22.5v8Z"/>
            </g>
          </g>
        </g>
      </g>
    </g>
  </g>
</svg>
