<svg xmlns="http://www.w3.org/2000/svg" viewBox="0 0 612.3 648">
  <defs>
    <style>
      .cls-1 {
        fill: #fff;
      }

      .cls-2 {
        fill: #f2f2f2;
      }

      .cls-3 {
        fill: #ffcf41;
      }

      .cls-4 {
        fill: #4c4c4c;
      }

      .cls-5 {
        fill: #27427c;
      }
    </style>
  </defs>
  <title>Asset 42</title>
  <g id="Layer_2" data-name="Layer 2">
    <g id="Layer_1-2" data-name="Layer 1">
      <g>
        <g>
          <rect class="cls-1" width="612.3" height="648" rx="8"/>
          <g>
            <path class="cls-2" d="M0,481.5V639.2C0,644,3.3,648,7.3,648H605c4,0,7.3-4,7.3-8.8V481.5Z"/>
            <path class="cls-3" d="M612.3,8.8C612.3,4,609,0,605,0H7.3C3.3,0,0,4,0,8.8V39.5H612.3Z"/>
          </g>
        </g>
        <g>
          <path class="cls-4" d="M135.8,281.1v40.6h-8.1V281.1Zm-2.8,0h20.5v7H133Zm0,15.6h19.4v6.9H133Zm0,17.9h20.5v7.1H133Z"/>
          <path class="cls-4" d="M177.2,302.4a3.7,3.7,0,0,0-1.4-1.8,5,5,0,0,0-2.6-.6,6,6,0,0,0-2.7.6,5.8,5.8,0,0,0-1.9,1.9,5.4,5.4,0,0,0-.7,2.9v16.3h-7.5V295h7.5v4a8.8,8.8,0,0,1,3.2-3.4,9.6,9.6,0,0,1,4.9-1.2,10.7,10.7,0,0,1,5.3,1.2,8.1,8.1,0,0,1,3.1,3.5,13.2,13.2,0,0,1,1,5.5v17.1h-7.8V305.4A9.5,9.5,0,0,0,177.2,302.4Z"/>
          <path class="cls-4" d="M196.5,295l6.5,16,6.6-16h8.1L203,324.4,188.4,295Z"/>
          <path class="cls-4" d="M221.5,281.6a4.7,4.7,0,0,1,3.2-1.2,4.8,4.8,0,0,1,3.3,1.2,4.2,4.2,0,0,1,1.3,3,4.4,4.4,0,0,1-1.3,3.1,4.8,4.8,0,0,1-3.3,1.2,4.7,4.7,0,0,1-3.2-1.2,4.3,4.3,0,0,1-1.2-3.1A4.1,4.1,0,0,1,221.5,281.6Zm6.8,13.4v26.7h-7.2V295Z"/>
          <path class="cls-4" d="M243.1,321.7h-7.5V295h7.5Zm6.3-19.9a4.2,4.2,0,0,0-2-.4,4.1,4.1,0,0,0-2.4.8,4.6,4.6,0,0,0-1.4,2.1,8.2,8.2,0,0,0-.5,3.3l-2.1-2.2a12.5,12.5,0,0,1,1.2-5.6,10.7,10.7,0,0,1,3.2-4,6.9,6.9,0,0,1,4-1.4,8.7,8.7,0,0,1,2.8.5,5.7,5.7,0,0,1,2.1,1.5l-3.4,6.5A4.8,4.8,0,0,0,249.4,301.8Z"/>
          <path class="cls-4" d="M257.8,301a13.6,13.6,0,0,1,5.2-4.9,17.3,17.3,0,0,1,7.6-1.7,17,17,0,0,1,7.6,1.7,13.2,13.2,0,0,1,5.3,4.9,14.3,14.3,0,0,1,0,14.6,13.2,13.2,0,0,1-5.3,4.9,15.8,15.8,0,0,1-7.6,1.7,16,16,0,0,1-7.6-1.7,14.1,14.1,0,0,1-5.2-19.5Zm6.7,11.2a6.6,6.6,0,0,0,2.5,2.7,7,7,0,0,0,7.2,0,6.9,6.9,0,0,0,2.5-2.6,7.7,7.7,0,0,0,1-4,7.1,7.1,0,0,0-1-3.9,6.6,6.6,0,0,0-2.5-2.7,7.7,7.7,0,0,0-7.2,0,6.9,6.9,0,0,0-2.5,2.6,8.8,8.8,0,0,0-1,4A8.1,8.1,0,0,0,264.5,312.2Z"/>
          <path class="cls-4" d="M307.2,302.4a2.8,2.8,0,0,0-1.4-1.8,4.6,4.6,0,0,0-2.5-.6,6.1,6.1,0,0,0-2.8.6,5.8,5.8,0,0,0-1.9,1.9,6.5,6.5,0,0,0-.7,2.9v16.3h-7.5V295h7.5v4a8.3,8.3,0,0,1,3.3-3.4,9.4,9.4,0,0,1,4.9-1.2,10.3,10.3,0,0,1,5.2,1.2,7.6,7.6,0,0,1,3.1,3.5,13.2,13.2,0,0,1,1,5.5v17.1h-7.7V305.4A9.4,9.4,0,0,0,307.2,302.4Z"/>
          <path class="cls-4" d="M361.7,321.7h-7.6V305.4a8.7,8.7,0,0,0-.4-3,3.4,3.4,0,0,0-1.2-1.8,4.1,4.1,0,0,0-2.3-.6,4.8,4.8,0,0,0-2.4.6,3.5,3.5,0,0,0-1.6,1.8,6.7,6.7,0,0,0-.6,3v16.3H338V305.4a8.7,8.7,0,0,0-.4-3,4.1,4.1,0,0,0-1.2-1.8,3.8,3.8,0,0,0-2.2-.6,5.1,5.1,0,0,0-2.5.6,4,4,0,0,0-1.6,1.8,6.7,6.7,0,0,0-.6,3v16.3h-7.3V295h7.3v3.9a9.2,9.2,0,0,1,1.9-2.4,8.2,8.2,0,0,1,2.5-1.6,11.3,11.3,0,0,1,3.2-.5,12.5,12.5,0,0,1,3.6.5,6.1,6.1,0,0,1,2.6,1.5,8.9,8.9,0,0,1,1.6,2.5,9.5,9.5,0,0,1,3.5-3.4,10.6,10.6,0,0,1,4.8-1.1,9.1,9.1,0,0,1,4.9,1.2,6.9,6.9,0,0,1,2.7,3.5,14.7,14.7,0,0,1,.9,5.5Z"/>
          <path class="cls-4" d="M373.4,320.5a12.2,12.2,0,0,1-5-4.8,15.8,15.8,0,0,1-1.7-7.4,18.1,18.1,0,0,1,.9-5.8,14.6,14.6,0,0,1,2.9-4.4,14.2,14.2,0,0,1,4.6-2.8,18.5,18.5,0,0,1,6-.9,16,16,0,0,1,7.5,1.6,11.2,11.2,0,0,1,4.8,4.6A15.5,15.5,0,0,1,395,308v1.1a2.5,2.5,0,0,0-.1.8H371v-4.5h17.3l-2.1,2.6a2.3,2.3,0,0,0,.5-1,3.6,3.6,0,0,0,.2-1,6.7,6.7,0,0,0-.7-3.3,5.6,5.6,0,0,0-2.1-2.2,6.2,6.2,0,0,0-3.1-.8,8.4,8.4,0,0,0-2.9.5,5.4,5.4,0,0,0-2.1,1.6,7.5,7.5,0,0,0-1.3,2.7,12.8,12.8,0,0,0-.4,3.6,10.2,10.2,0,0,0,.7,4.5,6.3,6.3,0,0,0,2.4,2.9,6.2,6.2,0,0,0,3.7,1,8.8,8.8,0,0,0,4.3-1,6.8,6.8,0,0,0,2.9-2.9l6.6,2.1a13.5,13.5,0,0,1-5.5,5.6,16.4,16.4,0,0,1-8.3,1.9A15.9,15.9,0,0,1,373.4,320.5Z"/>
          <path class="cls-4" d="M416.9,302.4a3.4,3.4,0,0,0-1.5-1.8,4.6,4.6,0,0,0-2.5-.6,6.1,6.1,0,0,0-2.8.6,5.8,5.8,0,0,0-1.9,1.9,6.5,6.5,0,0,0-.6,2.9v16.3H400V295h7.6v4a8.1,8.1,0,0,1,3.2-3.4,9.6,9.6,0,0,1,4.9-1.2,10.3,10.3,0,0,1,5.2,1.2,7.6,7.6,0,0,1,3.1,3.5,13.1,13.1,0,0,1,1.1,5.5v17.1h-7.8V305.4A13.6,13.6,0,0,0,416.9,302.4Z"/>
          <path class="cls-4" d="M445,295v6.4H428.4V295Zm-4.7-9.3v36H433v-36Z"/>
          <path class="cls-4" d="M454.2,315.3a3.7,3.7,0,0,0,1.5,1.3,5.9,5.9,0,0,0,2.3.4,6.4,6.4,0,0,0,3.1-.7,5,5,0,0,0,2.3-2,5.8,5.8,0,0,0,.9-3.3l.9,3.5a6.9,6.9,0,0,1-1.4,4.3,9.9,9.9,0,0,1-3.7,2.6,14.4,14.4,0,0,1-4.6.8,10.4,10.4,0,0,1-4.7-1,7.7,7.7,0,0,1-4.7-7.4,8.4,8.4,0,0,1,1.2-4.5,7,7,0,0,1,3.6-2.9,13.5,13.5,0,0,1,5.7-1,20,20,0,0,1,4.4.4,17.5,17.5,0,0,1,3.3,1.3,6.6,6.6,0,0,1,1.9,1.4v3.6a8.8,8.8,0,0,0-3.5-1.7,14,14,0,0,0-4.1-.6,9.8,9.8,0,0,0-2.8.4,3.4,3.4,0,0,0-1.6,1.2,2.9,2.9,0,0,0-.5,1.9A3.3,3.3,0,0,0,454.2,315.3Zm-6.3-17.9a44.2,44.2,0,0,1,5.1-2.1,20.7,20.7,0,0,1,6.8-1,16.1,16.1,0,0,1,6,1,9.2,9.2,0,0,1,4.2,2.8,6.8,6.8,0,0,1,1.6,4.6v19h-7.3V304.4a4.9,4.9,0,0,0-.4-1.9,3.5,3.5,0,0,0-1.1-1.3,3.8,3.8,0,0,0-1.7-.8l-2.2-.2a13.4,13.4,0,0,0-3.5.4,16.3,16.3,0,0,0-2.9,1,7.4,7.4,0,0,0-1.8.9Z"/>
          <path class="cls-4" d="M485.4,276.4v45.3h-7.6V276.4Z"/>
          <path class="cls-4" d="M148.3,381.5a10.6,10.6,0,0,0,3.4,2.6,7.9,7.9,0,0,0,4,1,6.5,6.5,0,0,0,2.9-.6,4.2,4.2,0,0,0,2.7-4.2,4.9,4.9,0,0,0-1-3,7.9,7.9,0,0,0-2.8-2.1l-4.6-1.9-3.4-1.5a15.1,15.1,0,0,1-3.5-2.3,10.6,10.6,0,0,1-2.8-3.5,9.4,9.4,0,0,1-1.1-4.9,10.1,10.1,0,0,1,1.7-6,13.3,13.3,0,0,1,4.8-3.9,17.4,17.4,0,0,1,6.9-1.4,17,17,0,0,1,6.7,1.3,13.9,13.9,0,0,1,4.7,3.4,15,15,0,0,1,2.9,4l-6.5,3.8a10.5,10.5,0,0,0-2-2.7,7.6,7.6,0,0,0-2.5-1.9,7.2,7.2,0,0,0-3.3-.7,5.4,5.4,0,0,0-2.7.5,3.6,3.6,0,0,0-1.6,1.4,2.8,2.8,0,0,0-.6,1.8,3.7,3.7,0,0,0,.6,2.1,6.9,6.9,0,0,0,1.7,1.7,19.2,19.2,0,0,0,2.9,1.5l3.9,1.5a27.6,27.6,0,0,1,3.9,1.8,15.9,15.9,0,0,1,3.3,2.5,14.1,14.1,0,0,1,2.3,3.5,11.4,11.4,0,0,1,.9,4.6,10.8,10.8,0,0,1-1.2,5.2,11.2,11.2,0,0,1-3.2,3.9,15.8,15.8,0,0,1-4.6,2.5,18.9,18.9,0,0,1-5.3.8,18.2,18.2,0,0,1-7-1.4,17.9,17.9,0,0,1-5.6-3.8,17.5,17.5,0,0,1-3.7-5.3l6-4.2A19.5,19.5,0,0,0,148.3,381.5Z"/>
          <path class="cls-4" d="M183.7,383.7a3.1,3.1,0,0,0,1.4,1.9,3.7,3.7,0,0,0,2.5.7,6.4,6.4,0,0,0,2.8-.7,5,5,0,0,0,1.9-1.9,5.4,5.4,0,0,0,.7-2.9V364.6h7.5v26.7H193v-4.1a9,9,0,0,1-3.3,3.4,9.4,9.4,0,0,1-4.9,1.2,10.3,10.3,0,0,1-5.2-1.2,7.1,7.1,0,0,1-3.1-3.5,13.5,13.5,0,0,1-1.1-5.5v-17h7.8v16.2A8.4,8.4,0,0,0,183.7,383.7Z"/>
          <path class="cls-4" d="M211.7,384.6a9.9,9.9,0,0,0,2.8,1.3,7.9,7.9,0,0,0,2.4.5,3.2,3.2,0,0,0,2.3-.7,2.2,2.2,0,0,0,.8-1.8,2.7,2.7,0,0,0-.6-1.7,10.4,10.4,0,0,0-1.9-1.3l-3.3-1.2-3.6-1.6a8.7,8.7,0,0,1-2.8-2.6,6.6,6.6,0,0,1-1.1-4.1,6.9,6.9,0,0,1,1.2-4.1,8.3,8.3,0,0,1,3.5-2.5,14.9,14.9,0,0,1,9-.2,23.9,23.9,0,0,1,3.7,1.5,16.6,16.6,0,0,1,3,2.2l-3.3,4.7a11.2,11.2,0,0,0-3.5-2.5,8.6,8.6,0,0,0-3.9-1.1,3.2,3.2,0,0,0-2,.6,1.6,1.6,0,0,0-.8,1.4,2.1,2.1,0,0,0,.8,1.6,9.8,9.8,0,0,0,2.1,1.2l3.2,1.2,3.9,1.8a9.2,9.2,0,0,1,2.9,2.6,6.7,6.7,0,0,1,1.1,3.9,7.8,7.8,0,0,1-4.5,7.5,13.9,13.9,0,0,1-5.3,1,17.2,17.2,0,0,1-5.2-.8,15.4,15.4,0,0,1-4.3-2,22.4,22.4,0,0,1-3.4-2.7l3.7-4.7A30.5,30.5,0,0,0,211.7,384.6Z"/>
          <path class="cls-4" d="M245.2,364.6V371H228.7v-6.4Zm-4.6-9.3v36h-7.3v-36Z"/>
          <path class="cls-4" d="M254.5,384.9a3.7,3.7,0,0,0,1.5,1.3,5.6,5.6,0,0,0,2.3.4,6.7,6.7,0,0,0,3.1-.7,5.5,5.5,0,0,0,2.3-2,5.8,5.8,0,0,0,.9-3.3l.9,3.5a6.9,6.9,0,0,1-1.4,4.3,9.9,9.9,0,0,1-3.7,2.6,14.5,14.5,0,0,1-4.7.8,10,10,0,0,1-4.6-1,7.7,7.7,0,0,1-4.7-7.4,8.4,8.4,0,0,1,1.2-4.5,7,7,0,0,1,3.6-2.9,13.4,13.4,0,0,1,5.6-1,20.3,20.3,0,0,1,4.5.4,17.5,17.5,0,0,1,3.3,1.3,8.4,8.4,0,0,1,1.9,1.4v3.6A8.8,8.8,0,0,0,263,380a14,14,0,0,0-4.1-.6,9.8,9.8,0,0,0-2.8.4,3,3,0,0,0-1.6,1.2,2.9,2.9,0,0,0-.6,1.9A3.4,3.4,0,0,0,254.5,384.9ZM248.2,367a44.2,44.2,0,0,1,5.1-2.1,20.5,20.5,0,0,1,6.7-1,16.6,16.6,0,0,1,6.1,1,9.2,9.2,0,0,1,4.2,2.8,7.3,7.3,0,0,1,1.6,4.6v19h-7.3V374a4.9,4.9,0,0,0-.4-1.9,3.5,3.5,0,0,0-1.1-1.3,4.5,4.5,0,0,0-1.7-.8l-2.2-.2a13.4,13.4,0,0,0-3.5.4,16.3,16.3,0,0,0-2.9,1,7.4,7.4,0,0,0-1.8.9Z"/>
          <path class="cls-4" d="M279.1,351.2a4.9,4.9,0,0,1,6.4,0,3.8,3.8,0,0,1,1.3,3,4,4,0,0,1-1.3,3.1,4.9,4.9,0,0,1-6.4,0,4.4,4.4,0,0,1-1.3-3.1A4.2,4.2,0,0,1,279.1,351.2Zm6.8,13.4v26.7h-7.3V364.6Z"/>
          <path class="cls-4" d="M310.1,372a3.4,3.4,0,0,0-1.5-1.8,4.6,4.6,0,0,0-2.5-.6,6.1,6.1,0,0,0-2.8.6,5.8,5.8,0,0,0-1.9,1.9,6.5,6.5,0,0,0-.7,2.9v16.3h-7.5V364.6h7.5v4a9,9,0,0,1,3.3-3.4,9.4,9.4,0,0,1,4.9-1.2,10.3,10.3,0,0,1,5.2,1.2,7.6,7.6,0,0,1,3.1,3.5,13.1,13.1,0,0,1,1.1,5.5v17.1h-7.8V375A13.6,13.6,0,0,0,310.1,372Z"/>
          <path class="cls-4" d="M331,384.9a3.7,3.7,0,0,0,1.5,1.3,5.6,5.6,0,0,0,2.3.4,6.7,6.7,0,0,0,3.1-.7,5.5,5.5,0,0,0,2.3-2,5.8,5.8,0,0,0,.9-3.3l.9,3.5a6.9,6.9,0,0,1-1.4,4.3,9.9,9.9,0,0,1-3.7,2.6,14.5,14.5,0,0,1-4.7.8,10,10,0,0,1-4.6-1,7.7,7.7,0,0,1-4.7-7.4,8.4,8.4,0,0,1,1.2-4.5,7,7,0,0,1,3.6-2.9,13.4,13.4,0,0,1,5.6-1,20.3,20.3,0,0,1,4.5.4,17.5,17.5,0,0,1,3.3,1.3,8.4,8.4,0,0,1,1.9,1.4v3.6a8.8,8.8,0,0,0-3.5-1.7,14,14,0,0,0-4.1-.6,9.8,9.8,0,0,0-2.8.4A3,3,0,0,0,331,381a2.9,2.9,0,0,0-.6,1.9A3.4,3.4,0,0,0,331,384.9ZM324.7,367a44.2,44.2,0,0,1,5.1-2.1,20.5,20.5,0,0,1,6.7-1,16.6,16.6,0,0,1,6.1,1,9.2,9.2,0,0,1,4.2,2.8,7.3,7.3,0,0,1,1.6,4.6v19h-7.3V374a4.9,4.9,0,0,0-.4-1.9,3.5,3.5,0,0,0-1.1-1.3,4.5,4.5,0,0,0-1.7-.8l-2.2-.2a13.4,13.4,0,0,0-3.5.4,16.3,16.3,0,0,0-2.9,1,7.4,7.4,0,0,0-1.8.9Z"/>
          <path class="cls-4" d="M362,391.3h-7.5V346H362Zm20.1-5.8a13.2,13.2,0,0,1-4.7,4.7,12.8,12.8,0,0,1-6.3,1.6,11.4,11.4,0,0,1-4.6-.9,10.9,10.9,0,0,1-3.6-2.8,13.2,13.2,0,0,1-2.4-4.4,21.4,21.4,0,0,1,0-11.6,14.3,14.3,0,0,1,2.4-4.4,10.9,10.9,0,0,1,3.6-2.8,11.4,11.4,0,0,1,4.6-.9,12.8,12.8,0,0,1,6.3,1.6,13.2,13.2,0,0,1,4.7,4.7,16.2,16.2,0,0,1,0,15.2Zm-7-11.7a7.2,7.2,0,0,0-2.6-2.6,7.4,7.4,0,0,0-3.6-.9,5.2,5.2,0,0,0-2.4.5,4.8,4.8,0,0,0-2.2,1.5,6.3,6.3,0,0,0-1.6,2.3,8.1,8.1,0,0,0,0,6.6,7.8,7.8,0,0,0,1.6,2.4,5.5,5.5,0,0,0,2.2,1.4,5.3,5.3,0,0,0,2.4.6,6.5,6.5,0,0,0,3.6-1,7.2,7.2,0,0,0,2.6-2.6,7.6,7.6,0,0,0,1-4.1A7.8,7.8,0,0,0,375.1,373.8Z"/>
          <path class="cls-4" d="M389.9,351.2a4.4,4.4,0,0,1,3.2-1.2,4.5,4.5,0,0,1,3.2,1.2,3.8,3.8,0,0,1,1.3,3,4,4,0,0,1-1.3,3.1,4.5,4.5,0,0,1-3.2,1.2,4.4,4.4,0,0,1-3.2-1.2,4,4,0,0,1-1.3-3.1A3.8,3.8,0,0,1,389.9,351.2Zm6.8,13.4v26.7h-7.3V364.6Z"/>
          <path class="cls-4" d="M411.5,346v45.3H404V346Z"/>
          <path class="cls-4" d="M419.3,351.2a4.4,4.4,0,0,1,3.2-1.2,4.5,4.5,0,0,1,3.2,1.2,3.8,3.8,0,0,1,1.3,3,4,4,0,0,1-1.3,3.1,4.5,4.5,0,0,1-3.2,1.2,4.4,4.4,0,0,1-3.2-1.2,4,4,0,0,1-1.3-3.1A3.8,3.8,0,0,1,419.3,351.2Zm6.8,13.4v26.7h-7.3V364.6Z"/>
          <path class="cls-4" d="M446.5,364.6V371H430v-6.4Zm-4.6-9.3v36h-7.4v-36Z"/>
          <path class="cls-4" d="M457.9,404h-7.8l6.8-15.4-11.2-24h8.5l8.5,21.2H459l8.4-21.1h7.9Z"/>
        </g>
        <g>
          <path class="cls-4" d="M18.9,508.5a16.2,16.2,0,0,1,3.1-4.6,14.1,14.1,0,0,1,4.6-3,15.8,15.8,0,0,1,11.6,0,14.1,14.1,0,0,1,4.6,3,16.2,16.2,0,0,1,3.1,4.6,17.3,17.3,0,0,1,0,11.6,14.9,14.9,0,0,1-3.1,4.6,12.1,12.1,0,0,1-4.6,3.1,14,14,0,0,1-5.8,1.1,13.6,13.6,0,0,1-5.8-1.1,12.1,12.1,0,0,1-4.6-3.1,14.9,14.9,0,0,1-3.1-4.6,17.3,17.3,0,0,1,0-11.6Zm4.7,9.8a9.4,9.4,0,0,0,1.9,3.2,9.2,9.2,0,0,0,3.1,2,9.2,9.2,0,0,0,3.8.8,9.6,9.6,0,0,0,3.8-.8,7.9,7.9,0,0,0,3-2,9.6,9.6,0,0,0,2-3.2,10.2,10.2,0,0,0,.7-4,10.9,10.9,0,0,0-.7-4,8.9,8.9,0,0,0-1.9-3.1,9.5,9.5,0,0,0-3.1-2.1,9.2,9.2,0,0,0-3.8-.7,9.2,9.2,0,0,0-3.8.7,9.5,9.5,0,0,0-3.1,2.1,8.9,8.9,0,0,0-1.9,3.1,10.9,10.9,0,0,0-.7,4A10.2,10.2,0,0,0,23.6,518.3Z"/>
          <path class="cls-4" d="M55.4,528.3H51.1V497.1h4.3Zm14-4a8.7,8.7,0,0,1-3.3,3.3,9.3,9.3,0,0,1-4.4,1.1,8.3,8.3,0,0,1-3.2-.6,7.5,7.5,0,0,1-2.4-1.9,10.3,10.3,0,0,1-1.7-3.1,12.2,12.2,0,0,1-.5-4,12.5,12.5,0,0,1,.5-4,8.7,8.7,0,0,1,1.7-3,6.3,6.3,0,0,1,2.4-1.9,6.8,6.8,0,0,1,3.2-.7,8.3,8.3,0,0,1,4.4,1.2,7.8,7.8,0,0,1,3.3,3.2,11,11,0,0,1,0,10.4Zm-4-8.3a4.8,4.8,0,0,0-2-2,5,5,0,0,0-2.7-.7,4.1,4.1,0,0,0-1.9.4,4.5,4.5,0,0,0-1.7,1.1,5.7,5.7,0,0,0-1.2,1.8,7,7,0,0,0-.5,2.5,6.2,6.2,0,0,0,.5,2.5,5.2,5.2,0,0,0,1.2,1.9,6.2,6.2,0,0,0,1.7,1.1,5.8,5.8,0,0,0,1.9.4,6,6,0,0,0,2.7-.7,6.4,6.4,0,0,0,2-2,6.6,6.6,0,0,0,.8-3.2A5.9,5.9,0,0,0,65.4,516Z"/>
          <path class="cls-4" d="M71.9,533a1.8,1.8,0,0,0,1.1.3,2,2,0,0,0,1.1-.3,1.7,1.7,0,0,0,.6-1.1,9,9,0,0,0,.2-1.8V509.9h4.3v21a9.1,9.1,0,0,1-.7,3.5,5.8,5.8,0,0,1-2.1,2.3,6.3,6.3,0,0,1-3.2.7,5,5,0,0,1-1.8-.2,4,4,0,0,1-1.3-.7,2.2,2.2,0,0,1-1-.9l2-3.3A1.8,1.8,0,0,0,71.9,533ZM75,500.7a2.6,2.6,0,0,1,1.9-.7,2.9,2.9,0,0,1,2,.7,2.9,2.9,0,0,1,0,3.8,2.9,2.9,0,0,1-2,.7,2.6,2.6,0,0,1-1.9-.7,2.7,2.7,0,0,1,0-3.8Z"/>
          <path class="cls-4" d="M88.2,527.5a8.7,8.7,0,0,1-3.3-3.3,10.7,10.7,0,0,1-1.2-5.1,12.3,12.3,0,0,1,.7-3.9,9.2,9.2,0,0,1,2-3.1,9.1,9.1,0,0,1,3-1.9,9.7,9.7,0,0,1,3.9-.7,10.9,10.9,0,0,1,5,1.1,7.6,7.6,0,0,1,3.1,3.3,9.7,9.7,0,0,1,1.1,5v1.2H86.3v-3H98.8L97.4,519l.3-.7a1.9,1.9,0,0,0,.2-.7,5.1,5.1,0,0,0-.6-2.5,4.4,4.4,0,0,0-1.6-1.7,4.8,4.8,0,0,0-2.4-.6,5.1,5.1,0,0,0-2.2.4,6.1,6.1,0,0,0-1.6,1.2,4.9,4.9,0,0,0-1,1.9,10.3,10.3,0,0,0-.4,2.7,8.1,8.1,0,0,0,.6,3.3,4.6,4.6,0,0,0,1.8,2.1,5.1,5.1,0,0,0,2.8.8,6.2,6.2,0,0,0,3.1-.8,5.2,5.2,0,0,0,2.2-2.2l3.8,1.5a9.9,9.9,0,0,1-3.8,3.8,11.5,11.5,0,0,1-5.5,1.2A9.6,9.6,0,0,1,88.2,527.5Z"/>
          <path class="cls-4" d="M110.3,522.2a5.3,5.3,0,0,0,2.1,2.1,5.7,5.7,0,0,0,2.9.7,6.9,6.9,0,0,0,2.5-.4,7,7,0,0,0,2.1-1.1,5.2,5.2,0,0,0,1.4-1.6v4.7a6.1,6.1,0,0,1-2.6,1.6,13.6,13.6,0,0,1-3.6.5,10.7,10.7,0,0,1-5.1-1.2,9,9,0,0,1-3.6-3.4,10.3,10.3,0,0,1,0-10,9.8,9.8,0,0,1,8.7-4.6,10.5,10.5,0,0,1,3.6.6,6,6,0,0,1,2.6,1.5v4.8a4.6,4.6,0,0,0-1.4-1.7,10.3,10.3,0,0,0-2.1-1.1,10.9,10.9,0,0,0-2.5-.4,5.7,5.7,0,0,0-2.9.8,5.3,5.3,0,0,0-2.1,2.1,6,6,0,0,0-.7,3A6.2,6.2,0,0,0,110.3,522.2Z"/>
          <path class="cls-4" d="M134,509.9v3.8H123.5v-3.8Zm-3.1-6.4v24.8h-4.3V503.5Z"/>
          <path class="cls-4" d="M137.6,500.7a2.6,2.6,0,0,1,1.9-.7,2.6,2.6,0,1,1,0,5.2,2.6,2.6,0,0,1-1.9-.7,2.7,2.7,0,0,1,0-3.8Zm4.1,9.2v18.4h-4.3V509.9Z"/>
          <path class="cls-4" d="M149.6,509.9l4.8,11.9,4.8-11.9h4.7L154.4,530l-9.6-20.1Z"/>
          <path class="cls-4" d="M169.7,527.5a8.7,8.7,0,0,1-3.3-3.3,10.6,10.6,0,0,1-1.1-5.1,12.3,12.3,0,0,1,.6-3.9,9.2,9.2,0,0,1,2-3.1,9.1,9.1,0,0,1,3-1.9,10,10,0,0,1,3.9-.7,10.9,10.9,0,0,1,5,1.1,7.6,7.6,0,0,1,3.1,3.3,9.7,9.7,0,0,1,1.2,5c0,.3-.1.5-.1.7v.5H167.8v-3h12.5l-1.4,1.9.3-.7a1.9,1.9,0,0,0,.2-.7,5.1,5.1,0,0,0-.6-2.5,4.4,4.4,0,0,0-1.6-1.7,4.8,4.8,0,0,0-2.4-.6,5.4,5.4,0,0,0-2.2.4,6.1,6.1,0,0,0-1.6,1.2,6.7,6.7,0,0,0-1,1.9,10.3,10.3,0,0,0-.4,2.7,6.7,6.7,0,0,0,.7,3.3,3.9,3.9,0,0,0,1.7,2.1,5.1,5.1,0,0,0,2.8.8,5.9,5.9,0,0,0,3.1-.8,5.2,5.2,0,0,0,2.2-2.2l3.8,1.5a9.9,9.9,0,0,1-3.8,3.8,11.5,11.5,0,0,1-5.5,1.2A9.9,9.9,0,0,1,169.7,527.5Z"/>
          <path class="cls-4" d="M189.6,509.2a2.8,2.8,0,0,1,4.8,2,2.4,2.4,0,0,1-.8,1.9,2.7,2.7,0,0,1-4,0,2.7,2.7,0,0,1-.8-1.9A2.8,2.8,0,0,1,189.6,509.2Zm0,15.1a2.9,2.9,0,0,1,4,0,2.4,2.4,0,0,1,.8,2,2.4,2.4,0,0,1-.8,1.9,2.7,2.7,0,0,1-4,0,2.7,2.7,0,0,1-.8-1.9A2.8,2.8,0,0,1,189.6,524.3Z"/>
          <path class="cls-4" d="M21.3,576.3H17.9l3.4-29.4,11.2,20.3,11.2-20.3,3.4,29.4H43.7l-2-18.9-9.2,16.3-9.1-16.3Z"/>
          <path class="cls-4" d="M52.4,548.8a2.1,2.1,0,0,1,1.6-.7,2.4,2.4,0,0,1,2.2,2.2,2.1,2.1,0,0,1-.7,1.6,2,2,0,0,1-1.5.6,2.1,2.1,0,0,1-2.2-2.2A2,2,0,0,1,52.4,548.8Zm3.2,9.1v18.4H52.4V557.9Z"/>
          <path class="cls-4" d="M73.6,562.6a4.2,4.2,0,0,0-1.3-1.6,5.3,5.3,0,0,0-4.7.1,4.1,4.1,0,0,0-1.6,1.6,4.8,4.8,0,0,0-.6,2.4v11.2H62.2V557.9h3.2v2.9a7,7,0,0,1,2.3-2.5,6.6,6.6,0,0,1,3.2-.8,6.4,6.4,0,0,1,3.4.9,5.8,5.8,0,0,1,2.1,2.5,7.4,7.4,0,0,1,.8,3.8v11.6H74V565.1A6.2,6.2,0,0,0,73.6,562.6Z"/>
          <path class="cls-4" d="M83.9,548.8a2.1,2.1,0,0,1,1.6-.7,1.8,1.8,0,0,1,1.5.7,2.1,2.1,0,0,1,.7,1.5,2.6,2.6,0,0,1-.7,1.6,2,2,0,0,1-1.5.6,2.1,2.1,0,0,1-2.2-2.2A2,2,0,0,1,83.9,548.8Zm3.2,9.1v18.4H83.9V557.9Z"/>
          <path class="cls-4" d="M118.9,576.3h-3.2V565.1a6.8,6.8,0,0,0-.4-2.6,3.3,3.3,0,0,0-1.1-1.5,4.2,4.2,0,0,0-2-.5,4.1,4.1,0,0,0-2.3.6,3.6,3.6,0,0,0-1.5,1.5,6.6,6.6,0,0,0-.5,2.5v11.2h-3.2V565.1a6.8,6.8,0,0,0-.4-2.6,3.3,3.3,0,0,0-1.1-1.5,4.2,4.2,0,0,0-2-.5,4.1,4.1,0,0,0-2.3.6,3.6,3.6,0,0,0-1.5,1.5,6.6,6.6,0,0,0-.5,2.5v11.2H93.7V557.9h3.2v2.7a5.9,5.9,0,0,1,1.3-1.7,4.2,4.2,0,0,1,1.7-1,4.6,4.6,0,0,1,2.1-.4,8.5,8.5,0,0,1,2.3.4,5.7,5.7,0,0,1,1.8,1.2,5.2,5.2,0,0,1,1.2,1.9,6.3,6.3,0,0,1,5.7-3.5,5.7,5.7,0,0,1,3.2.9,4.8,4.8,0,0,1,2,2.4,9.4,9.4,0,0,1,.7,3.9Z"/>
          <path class="cls-4" d="M125.6,548.8a1.8,1.8,0,0,1,1.5-.7,2,2,0,0,1,1.6.7,2,2,0,0,1,.6,1.5,2.5,2.5,0,0,1-.6,1.6,2.3,2.3,0,0,1-1.6.6,2,2,0,0,1-1.5-.6,2.6,2.6,0,0,1-.7-1.6A2.1,2.1,0,0,1,125.6,548.8Zm3.1,9.1v18.4h-3.2V557.9Z"/>
          <path class="cls-4" d="M134.2,560.9v-3h16l-11.4,15.4h10.6v3H133l11.4-15.4Z"/>
          <path class="cls-4" d="M156.4,575.5a7.9,7.9,0,0,1-3.1-3.4,11.2,11.2,0,0,1-1.1-5,10,10,0,0,1,.7-3.9,7.5,7.5,0,0,1,1.8-3,8.4,8.4,0,0,1,2.9-2,11.1,11.1,0,0,1,3.7-.7,8.9,8.9,0,0,1,4.7,1.2,7.2,7.2,0,0,1,3,3.2,11.3,11.3,0,0,1,1,5.1v.9H154.3v-2.7h13.2l-1.3,1.8c.1-.1.1-.3.2-.6a2,2,0,0,0,.1-.7,6.1,6.1,0,0,0-.6-2.8,6.6,6.6,0,0,0-1.8-1.9,5.1,5.1,0,0,0-2.8-.7,6,6,0,0,0-2.4.5A5.2,5.2,0,0,0,157,562a5.3,5.3,0,0,0-1.1,2.1,8.2,8.2,0,0,0-.4,2.8,9.9,9.9,0,0,0,.6,3.7,5.3,5.3,0,0,0,5.2,3.1,7.4,7.4,0,0,0,3.4-.8,7.2,7.2,0,0,0,2.4-2.5l2.6,1.6a9.2,9.2,0,0,1-3.6,3.5,10.8,10.8,0,0,1-5.2,1.2A8.4,8.4,0,0,1,156.4,575.5Z"/>
          <path class="cls-4" d="M186.3,585.1V557.9h3.2v27.2Zm17.4-12.9a9.8,9.8,0,0,1-3.3,3.4,10.1,10.1,0,0,1-4.6,1.1,8.3,8.3,0,0,1-3.2-.6,8.8,8.8,0,0,1-2.4-1.9,10.1,10.1,0,0,1-1.6-3.1,12.2,12.2,0,0,1-.5-4,12.5,12.5,0,0,1,.5-4,8.6,8.6,0,0,1,1.6-3,7.2,7.2,0,0,1,2.4-1.9,6.8,6.8,0,0,1,3.2-.7,9,9,0,0,1,4.6,1.2,10.4,10.4,0,0,1,3.3,3.3,11.4,11.4,0,0,1,0,10.2Zm-2.9-8.7a5.4,5.4,0,0,0-2.3-2.2,6.5,6.5,0,0,0-3.1-.8,5.4,5.4,0,0,0-2.1.5,7.6,7.6,0,0,0-1.9,1.2,7.7,7.7,0,0,0-1.4,2.1,8.2,8.2,0,0,0-.5,2.8,7.8,7.8,0,0,0,.5,2.8,6.4,6.4,0,0,0,1.4,2.1,5.9,5.9,0,0,0,1.9,1.3,5.2,5.2,0,0,0,2.1.4,6.4,6.4,0,0,0,3.1-.7,5.7,5.7,0,0,0,2.3-2.3,7.7,7.7,0,0,0,0-7.2Z"/>
          <path class="cls-4" d="M209,562.2a8.6,8.6,0,0,1,3.4-3.4,9,9,0,0,1,4.9-1.3,8.6,8.6,0,0,1,4.8,1.3,8.6,8.6,0,0,1,3.4,3.4,9.9,9.9,0,0,1,1.3,4.9,10.3,10.3,0,0,1-1.3,5,9.2,9.2,0,0,1-3.4,3.4,9.5,9.5,0,0,1-4.8,1.2,9.9,9.9,0,0,1-4.9-1.2,9.2,9.2,0,0,1-3.4-3.4,10.3,10.3,0,0,1-1.3-5A9.9,9.9,0,0,1,209,562.2Zm2.8,8.3a6.4,6.4,0,0,0,2.2,2.4,7.3,7.3,0,0,0,3.3.8,6.9,6.9,0,0,0,3.2-.8,7.3,7.3,0,0,0,2.2-9.2,5.4,5.4,0,0,0-2.2-2.3,5.9,5.9,0,0,0-3.2-.9,6.3,6.3,0,0,0-3.3.9,5.4,5.4,0,0,0-2.2,2.3,7.6,7.6,0,0,0,0,6.8Z"/>
          <path class="cls-4" d="M237.6,557.9v3h-9.2v-3Zm-3-6.4v24.8h-3.2V551.5Z"/>
          <path class="cls-4" d="M243.4,575.5a8.5,8.5,0,0,1-3.1-3.4,11.2,11.2,0,0,1-1-5,12.3,12.3,0,0,1,.6-3.9,7.7,7.7,0,0,1,1.9-3,8,8,0,0,1,2.8-2,11.7,11.7,0,0,1,3.8-.7,8.5,8.5,0,0,1,4.6,1.2,7.2,7.2,0,0,1,3,3.2,11.3,11.3,0,0,1,1.1,5.1,4.3,4.3,0,0,0-.1.5v.4H241.3v-2.7h13.2l-1.3,1.8a.8.8,0,0,0,.2-.6,2.5,2.5,0,0,0,.2-.7,6.1,6.1,0,0,0-.7-2.8,4.7,4.7,0,0,0-1.8-1.9,5,5,0,0,0-2.7-.7,6.6,6.6,0,0,0-2.5.5,5.7,5.7,0,0,0-1.8,1.2,5.5,5.5,0,0,0-1.2,2.1,8.2,8.2,0,0,0-.4,2.8,8.2,8.2,0,0,0,.7,3.7,4.5,4.5,0,0,0,2,2.3,5.5,5.5,0,0,0,3.2.8,7.3,7.3,0,0,0,3.3-.8,6.4,6.4,0,0,0,2.4-2.5l2.6,1.6a8.1,8.1,0,0,1-3.6,3.5,10.4,10.4,0,0,1-5.1,1.2A9,9,0,0,1,243.4,575.5Z"/>
          <path class="cls-4" d="M272.8,562.6a2.9,2.9,0,0,0-1.3-1.6,4.6,4.6,0,0,0-2.1-.5,4.9,4.9,0,0,0-2.5.6,4.1,4.1,0,0,0-1.6,1.6,4.8,4.8,0,0,0-.6,2.4v11.2h-3.2V557.9h3.2v2.9a7,7,0,0,1,2.3-2.5,6.6,6.6,0,0,1,3.2-.8,5.8,5.8,0,0,1,3.3.9,5.4,5.4,0,0,1,2.2,2.5,8.6,8.6,0,0,1,.8,3.8v11.6h-3.2V565.1A6.2,6.2,0,0,0,272.8,562.6Z"/>
          <path class="cls-4" d="M288.9,557.9v3h-9.2v-3Zm-3-6.4v24.8h-3.2V551.5Z"/>
          <path class="cls-4" d="M292.8,548.8a2.1,2.1,0,0,1,1.6-.7,2.4,2.4,0,0,1,2.2,2.2,2.1,2.1,0,0,1-.7,1.6,2,2,0,0,1-1.5.6,2.1,2.1,0,0,1-2.2-2.2A2,2,0,0,1,292.8,548.8Zm3.2,9.1v18.4h-3.2V557.9Z"/>
          <path class="cls-4" d="M304.5,572.4a4.1,4.1,0,0,0,1.4,1.2,6.5,6.5,0,0,0,2.1.4,6,6,0,0,0,2.7-.6,4.2,4.2,0,0,0,1.8-1.7,4.6,4.6,0,0,0,.7-2.6l.7,2.4a4,4,0,0,1-1.1,2.9,6.1,6.1,0,0,1-2.6,1.8,10.5,10.5,0,0,1-3,.5,6.8,6.8,0,0,1-3.2-.7,5.6,5.6,0,0,1-3.2-5.2,5.4,5.4,0,0,1,.9-3.1,5.5,5.5,0,0,1,2.4-2.1,9.4,9.4,0,0,1,3.9-.7,10.2,10.2,0,0,1,3.3.4,7.5,7.5,0,0,1,2.2,1.1l1.1.9v1.9a12.8,12.8,0,0,0-2.9-1.4,11.2,11.2,0,0,0-3.2-.4,6,6,0,0,0-2.5.4,3,3,0,0,0-1.5,1.1,3.4,3.4,0,0,0-.5,1.7A3.5,3.5,0,0,0,304.5,572.4ZM302,559.8a15.4,15.4,0,0,1,2.9-1.5,11,11,0,0,1,4.3-.8,8.9,8.9,0,0,1,3.8.7,5.4,5.4,0,0,1,2.5,1.9,4.9,4.9,0,0,1,.9,3v13.2h-3.2V563.6a3.5,3.5,0,0,0-.3-1.6,2.2,2.2,0,0,0-.9-1l-1.3-.5-1.6-.2a10.1,10.1,0,0,0-2.5.3l-1.8.8a6.2,6.2,0,0,0-1.2.8Z"/>
          <path class="cls-4" d="M325.1,545.1v31.2h-3.2V545.1Z"/>
          <path class="cls-4" d="M343.8,548.8a2.1,2.1,0,0,1,1.6-.7,2.4,2.4,0,0,1,2.2,2.2,2.1,2.1,0,0,1-.7,1.6,2,2,0,0,1-1.5.6,2.1,2.1,0,0,1-2.2-2.2A2,2,0,0,1,343.8,548.8Zm3.2,9.1v18.4h-3.2V557.9Z"/>
          <path class="cls-4" d="M378.8,576.3h-3.2V565.1a6.8,6.8,0,0,0-.4-2.6,3.3,3.3,0,0,0-1.1-1.5,4.2,4.2,0,0,0-2-.5,4.1,4.1,0,0,0-2.3.6,3.6,3.6,0,0,0-1.5,1.5,6.6,6.6,0,0,0-.5,2.5v11.2h-3.2V565.1a6.8,6.8,0,0,0-.4-2.6,3.3,3.3,0,0,0-1.1-1.5,4.2,4.2,0,0,0-2-.5,4.1,4.1,0,0,0-2.3.6,3.6,3.6,0,0,0-1.5,1.5,6.6,6.6,0,0,0-.5,2.5v11.2h-3.2V557.9h3.2v2.7a5.9,5.9,0,0,1,1.3-1.7,4.2,4.2,0,0,1,1.7-1,4.6,4.6,0,0,1,2.1-.4,8.5,8.5,0,0,1,2.3.4,5.7,5.7,0,0,1,1.8,1.2,5.2,5.2,0,0,1,1.2,1.9,6.1,6.1,0,0,1,2.4-2.6,6.3,6.3,0,0,1,3.3-.9,5.7,5.7,0,0,1,3.2.9,4.8,4.8,0,0,1,2,2.4,9.4,9.4,0,0,1,.7,3.9Z"/>
          <path class="cls-4" d="M384.6,585.1V557.9h3.2v27.2ZM402,572.2a8.3,8.3,0,0,1-3.3,3.4,10.1,10.1,0,0,1-4.6,1.1,7.8,7.8,0,0,1-3.1-.6,7.9,7.9,0,0,1-2.5-1.9,9.9,9.9,0,0,1-1.5-3.1,12,12,0,0,1-.6-4,12.5,12.5,0,0,1,.6-4,8.4,8.4,0,0,1,1.5-3,6.7,6.7,0,0,1,2.5-1.9,6.4,6.4,0,0,1,3.1-.7,9,9,0,0,1,4.6,1.2A8.7,8.7,0,0,1,402,562a11.4,11.4,0,0,1,0,10.2Zm-2.9-8.7a5.2,5.2,0,0,0-2.2-2.2,6.9,6.9,0,0,0-3.2-.8,5.4,5.4,0,0,0-2.1.5,10,10,0,0,0-1.9,1.2,7.4,7.4,0,0,0-1.3,2.1,6.4,6.4,0,0,0-.6,2.8,6.1,6.1,0,0,0,.6,2.8,6.2,6.2,0,0,0,1.3,2.1,7.2,7.2,0,0,0,1.9,1.3,5.2,5.2,0,0,0,2.1.4,6.8,6.8,0,0,0,3.2-.7,5.4,5.4,0,0,0,2.2-2.3,7.7,7.7,0,0,0,0-7.2Z"/>
          <path class="cls-4" d="M409.6,572.4a4.1,4.1,0,0,0,1.4,1.2,6.5,6.5,0,0,0,2.1.4,5.3,5.3,0,0,0,2.6-.6,4.5,4.5,0,0,0,1.9-1.7,4.6,4.6,0,0,0,.7-2.6l.7,2.4a4,4,0,0,1-1.1,2.9,6.8,6.8,0,0,1-2.6,1.8,10.6,10.6,0,0,1-3.1.5,6.7,6.7,0,0,1-3.1-.7,5,5,0,0,1-2.3-2,5.5,5.5,0,0,1-.9-3.2,6.2,6.2,0,0,1,.8-3.1,5.8,5.8,0,0,1,2.5-2.1,9.4,9.4,0,0,1,3.9-.7,10.6,10.6,0,0,1,3.3.4,9,9,0,0,1,2.2,1.1,4.8,4.8,0,0,1,1,.9v1.9a10.5,10.5,0,0,0-2.8-1.4,11.2,11.2,0,0,0-3.2-.4,6,6,0,0,0-2.5.4,3,3,0,0,0-1.5,1.1,3.4,3.4,0,0,0-.5,1.7A3.5,3.5,0,0,0,409.6,572.4Zm-2.5-12.6a14.1,14.1,0,0,1,2.8-1.5,11.9,11.9,0,0,1,4.4-.8,8.9,8.9,0,0,1,3.8.7,5.4,5.4,0,0,1,2.5,1.9,4.9,4.9,0,0,1,.9,3v13.2h-3.2V563.6a3.5,3.5,0,0,0-.3-1.6,2.2,2.2,0,0,0-.9-1l-1.3-.5-1.6-.2a9.5,9.5,0,0,0-2.5.3l-1.9.8a6.2,6.2,0,0,0-1.2.8Z"/>
          <path class="cls-4" d="M429.2,570.5a6,6,0,0,0,5.5,3.2,8.6,8.6,0,0,0,2.8-.4,8,8,0,0,0,2.2-1.3,5,5,0,0,0,1.4-1.6v4a7,7,0,0,1-2.8,1.7,10.9,10.9,0,0,1-3.6.6,10.2,10.2,0,0,1-4.9-1.2,10.1,10.1,0,0,1-3.4-3.4,10.3,10.3,0,0,1-1.2-5,9.9,9.9,0,0,1,1.2-4.9,9.5,9.5,0,0,1,8.3-4.7,10.9,10.9,0,0,1,3.6.6,7.1,7.1,0,0,1,2.8,1.8v4a4.4,4.4,0,0,0-1.4-1.7,7.8,7.8,0,0,0-2.2-1.2,8.7,8.7,0,0,0-2.8-.5,6.5,6.5,0,0,0-5.5,3.2,7.6,7.6,0,0,0,0,6.8Z"/>
          <path class="cls-4" d="M452.5,557.9v3h-9.2v-3Zm-3-6.4v24.8h-3.2V551.5Z"/>
          <path class="cls-4" d="M457.8,572.2a5.2,5.2,0,0,0,1.7,1.2,4.5,4.5,0,0,0,2,.4,3.8,3.8,0,0,0,2.2-.6,2.1,2.1,0,0,0,.7-1.7,2.1,2.1,0,0,0-.6-1.6,4,4,0,0,0-1.6-1.2l-2-.8a13.4,13.4,0,0,1-2.4-1.2,6.8,6.8,0,0,1-2.1-1.7,4.7,4.7,0,0,1,.1-5.4A6,6,0,0,1,458,558a9.3,9.3,0,0,1,2.9-.5,8.7,8.7,0,0,1,2.8.5,7.6,7.6,0,0,1,2.3,1.3,5.2,5.2,0,0,1,1.5,1.8l-2.5,1.7a8.1,8.1,0,0,0-1.9-1.8,5.8,5.8,0,0,0-2.6-.6,2.9,2.9,0,0,0-1.7.4,1.5,1.5,0,0,0-.8,1.4,1.6,1.6,0,0,0,.6,1.2,7.1,7.1,0,0,0,1.4,1l1.9.9a19.5,19.5,0,0,1,2.9,1.4,6,6,0,0,1,2.1,1.7,4.6,4.6,0,0,1,.8,2.7,5.7,5.7,0,0,1-.8,2.9,6.1,6.1,0,0,1-2.2,2,7.2,7.2,0,0,1-3.3.7,9,9,0,0,1-3.4-.6,11,11,0,0,1-2.5-1.7,10.7,10.7,0,0,1-1.5-2.2l2.5-1.5A9.3,9.3,0,0,0,457.8,572.2Z"/>
          <path class="cls-4" d="M483.6,562.2a9.5,9.5,0,0,1,8.3-4.7,8.6,8.6,0,0,1,4.8,1.3,8,8,0,0,1,3.4,3.4,9,9,0,0,1,1.3,4.9,9.3,9.3,0,0,1-1.3,5,8.6,8.6,0,0,1-3.4,3.4,9.5,9.5,0,0,1-4.8,1.2,10.2,10.2,0,0,1-4.9-1.2,10.1,10.1,0,0,1-3.4-3.4,10.3,10.3,0,0,1-1.2-5A9.9,9.9,0,0,1,483.6,562.2Zm2.8,8.3a6.5,6.5,0,0,0,8.7,2.4,5.6,5.6,0,0,0,2.2-2.4,6.9,6.9,0,0,0,0-6.8,4.9,4.9,0,0,0-2.2-2.3,6.4,6.4,0,0,0-8.7,2.3,7.6,7.6,0,0,0,0,6.8Z"/>
          <path class="cls-4" d="M517.2,562.6a3.4,3.4,0,0,0-1.3-1.6,5.1,5.1,0,0,0-4.6.1,4.4,4.4,0,0,0-1.7,1.6,4.8,4.8,0,0,0-.6,2.4v11.2h-3.2V557.9H509v2.9a8,8,0,0,1,2.3-2.5,6.9,6.9,0,0,1,3.2-.8,6.2,6.2,0,0,1,3.4.9,6.7,6.7,0,0,1,2.2,2.5,8.6,8.6,0,0,1,.7,3.8v11.6h-3.2V565.1A6.2,6.2,0,0,0,517.2,562.6Z"/>
          <path class="cls-4" d="M30.7,610.6a3.4,3.4,0,0,0-1.3-1.6,5.1,5.1,0,0,0-4.6.1,3.8,3.8,0,0,0-1.7,1.6,4.8,4.8,0,0,0-.6,2.4v11.2H19.3V605.9h3.2v2.9a7,7,0,0,1,2.3-2.5,6.9,6.9,0,0,1,3.2-.8,6.4,6.4,0,0,1,3.4.9,6.7,6.7,0,0,1,2.2,2.5,8.6,8.6,0,0,1,.7,3.8v11.6H31.1V613.1A6.2,6.2,0,0,0,30.7,610.6Z"/>
          <path class="cls-4" d="M42.3,620.4a3.3,3.3,0,0,0,1.4,1.2,6.5,6.5,0,0,0,2.1.4,5.5,5.5,0,0,0,2.6-.6,5.2,5.2,0,0,0,1.9-1.7,4.6,4.6,0,0,0,.7-2.6l.7,2.4a4,4,0,0,1-1.1,2.9,6.8,6.8,0,0,1-2.6,1.8,11.2,11.2,0,0,1-3.1.5,6.7,6.7,0,0,1-3.1-.7,4.5,4.5,0,0,1-2.3-2,5.5,5.5,0,0,1-.9-3.2,6.2,6.2,0,0,1,.8-3.1,5.8,5.8,0,0,1,2.5-2.1,9.4,9.4,0,0,1,3.9-.7,10.6,10.6,0,0,1,3.3.4,9,9,0,0,1,2.2,1.1l1,.9v1.9a12.2,12.2,0,0,0-2.8-1.4,11.2,11.2,0,0,0-3.2-.4,6,6,0,0,0-2.5.4,3,3,0,0,0-1.5,1.1,3.4,3.4,0,0,0-.5,1.7A3.5,3.5,0,0,0,42.3,620.4Zm-2.5-12.6a14.1,14.1,0,0,1,2.8-1.5,11.5,11.5,0,0,1,4.4-.8,8.9,8.9,0,0,1,3.8.7,5.4,5.4,0,0,1,2.5,1.9,4.9,4.9,0,0,1,.9,3v13.2H51V611.6a3.5,3.5,0,0,0-.3-1.6,2.2,2.2,0,0,0-.9-1l-1.3-.5-1.6-.2a9,9,0,0,0-2.5.3l-1.9.8a6.2,6.2,0,0,0-1.2.8Z"/>
          <path class="cls-4" d="M66.1,605.9v3H56.9v-3Zm-3-6.4v24.8H59.9V599.5Z"/>
          <path class="cls-4" d="M72.9,619.6a3.6,3.6,0,0,0,1.4,1.6,4.3,4.3,0,0,0,2.1.5,5.1,5.1,0,0,0,2.5-.6,3.5,3.5,0,0,0,1.6-1.6,4.8,4.8,0,0,0,.6-2.4V605.9h3.2v18.4H81.1v-2.9a6.2,6.2,0,0,1-2.3,2.5,6.6,6.6,0,0,1-3.2.8,5.8,5.8,0,0,1-3.3-.9,4.9,4.9,0,0,1-2.2-2.5,8.6,8.6,0,0,1-.8-3.8V605.9h3.2v11.2A6.2,6.2,0,0,0,72.9,619.6Z"/>
          <path class="cls-4" d="M93.5,624.3H90.3V605.9h3.2Zm4.4-15.6-1.3-.2a2.9,2.9,0,0,0-1.9.6,3.9,3.9,0,0,0-.9,1.7,8,8,0,0,0-.3,2.3H92.1a10.1,10.1,0,0,1,.8-3.9,7.9,7.9,0,0,1,2-2.7,4.4,4.4,0,0,1,2.5-1,5.8,5.8,0,0,1,1.9.3,4.7,4.7,0,0,1,1.6,1l-1.8,2.6Z"/>
          <path class="cls-4" d="M106,620.4a4.1,4.1,0,0,0,1.4,1.2,6.5,6.5,0,0,0,2.1.4,6,6,0,0,0,2.7-.6,4.9,4.9,0,0,0,1.8-1.7,4.6,4.6,0,0,0,.7-2.6l.7,2.4a4,4,0,0,1-1.1,2.9,6.8,6.8,0,0,1-2.6,1.8,10.5,10.5,0,0,1-3,.5,6.8,6.8,0,0,1-3.2-.7,5,5,0,0,1-2.3-2,5.5,5.5,0,0,1-.9-3.2,5.4,5.4,0,0,1,.9-3.1,5.5,5.5,0,0,1,2.4-2.1,9.4,9.4,0,0,1,3.9-.7,10.6,10.6,0,0,1,3.3.4,9,9,0,0,1,2.2,1.1l1.1.9v1.9a12.8,12.8,0,0,0-2.9-1.4,11.2,11.2,0,0,0-3.2-.4,6,6,0,0,0-2.5.4,3,3,0,0,0-1.5,1.1,3.4,3.4,0,0,0-.5,1.7A3.5,3.5,0,0,0,106,620.4Zm-2.5-12.6a12.8,12.8,0,0,1,2.9-1.5,11,11,0,0,1,4.3-.8,8.9,8.9,0,0,1,3.8.7,5.4,5.4,0,0,1,2.5,1.9,4.9,4.9,0,0,1,.9,3v13.2h-3.2V611.6a3.5,3.5,0,0,0-.3-1.6,2.2,2.2,0,0,0-.9-1l-1.3-.5-1.6-.2a9.5,9.5,0,0,0-2.5.3l-1.8.8a3.1,3.1,0,0,0-1.2.8Z"/>
          <path class="cls-4" d="M126.6,593.1v31.2h-3.2V593.1Z"/>
          <path class="cls-4" d="M146.6,620.4a3.3,3.3,0,0,0,1.4,1.2,6.5,6.5,0,0,0,2.1.4,5.8,5.8,0,0,0,2.6-.6,5.2,5.2,0,0,0,1.9-1.7,4.6,4.6,0,0,0,.7-2.6l.6,2.4a3.9,3.9,0,0,1-1,2.9,6.8,6.8,0,0,1-2.6,1.8,11.8,11.8,0,0,1-3.1.5,6.4,6.4,0,0,1-3.1-.7,5.2,5.2,0,0,1-2.4-2,5.5,5.5,0,0,1-.8-3.2,5.3,5.3,0,0,1,.8-3.1,5.8,5.8,0,0,1,2.5-2.1,9.4,9.4,0,0,1,3.9-.7,10.6,10.6,0,0,1,3.3.4,6.8,6.8,0,0,1,2.1,1.1l1.1.9v1.9a11.1,11.1,0,0,0-2.9-1.4,10.6,10.6,0,0,0-3.1-.4,6.5,6.5,0,0,0-2.6.4,3.1,3.1,0,0,0-1.4,1.1,3.4,3.4,0,0,0-.5,1.7A3.5,3.5,0,0,0,146.6,620.4Zm-2.5-12.6a11.7,11.7,0,0,1,2.8-1.5,11.5,11.5,0,0,1,4.4-.8,9.2,9.2,0,0,1,3.8.7,5.4,5.4,0,0,1,2.5,1.9,4.9,4.9,0,0,1,.9,3v13.2h-3.2V611.6a3.5,3.5,0,0,0-.3-1.6,2.2,2.2,0,0,0-.9-1l-1.4-.5-1.6-.2a8.8,8.8,0,0,0-2.4.3l-1.9.8a6.2,6.2,0,0,0-1.2.8Z"/>
          <path class="cls-4" d="M175.3,610.6A3.4,3.4,0,0,0,174,609a5.1,5.1,0,0,0-4.6.1,3.8,3.8,0,0,0-1.7,1.6,4.8,4.8,0,0,0-.6,2.4v11.2h-3.2V605.9h3.2v2.9a7,7,0,0,1,2.3-2.5,6.9,6.9,0,0,1,3.2-.8,6.4,6.4,0,0,1,3.4.9,6.7,6.7,0,0,1,2.2,2.5,8.6,8.6,0,0,1,.7,3.8v11.6h-3.2V613.1A6.2,6.2,0,0,0,175.3,610.6Z"/>
          <path class="cls-4" d="M184.6,610a8.7,8.7,0,0,1,3.3-3.3,9,9,0,0,1,4.6-1.2,6.4,6.4,0,0,1,3.1.7,6.7,6.7,0,0,1,2.5,1.9,8.6,8.6,0,0,1,1.6,3,16.2,16.2,0,0,1,.5,4,15.6,15.6,0,0,1-.5,4,10.1,10.1,0,0,1-1.6,3.1,7.9,7.9,0,0,1-2.5,1.9,7.8,7.8,0,0,1-3.1.6,10.1,10.1,0,0,1-4.6-1.1,8.3,8.3,0,0,1-3.3-3.4,11.4,11.4,0,0,1,0-10.2Zm2.9,8.7a5.1,5.1,0,0,0,2.3,2.3,6.4,6.4,0,0,0,3.1.7,5.2,5.2,0,0,0,2.1-.4,5.9,5.9,0,0,0,1.9-1.3,8.5,8.5,0,0,0,1.4-2.1,7.8,7.8,0,0,0,.5-2.8,8.2,8.2,0,0,0-.5-2.8,11,11,0,0,0-1.4-2.1A7.6,7.6,0,0,0,195,609a5.4,5.4,0,0,0-2.1-.5,6.5,6.5,0,0,0-3.1.8,4.9,4.9,0,0,0-2.3,2.2,7.7,7.7,0,0,0,0,7.2ZM202,593.1v31.2h-3.2V593.1Z"/>
          <path class="cls-4" d="M222.1,618.5a6,6,0,0,0,5.5,3.2,8.6,8.6,0,0,0,2.8-.4,8,8,0,0,0,2.2-1.3,5,5,0,0,0,1.4-1.6v4a7,7,0,0,1-2.8,1.7,11.3,11.3,0,0,1-3.6.6,10.2,10.2,0,0,1-4.9-1.2,10.1,10.1,0,0,1-3.4-3.4,10.3,10.3,0,0,1-1.2-5,9.9,9.9,0,0,1,1.2-4.9,9.5,9.5,0,0,1,8.3-4.7,11.3,11.3,0,0,1,3.6.6,7.1,7.1,0,0,1,2.8,1.8v4a4.4,4.4,0,0,0-1.4-1.7,7.8,7.8,0,0,0-2.2-1.2,8.7,8.7,0,0,0-2.8-.5,6.5,6.5,0,0,0-5.5,3.2,7.6,7.6,0,0,0,0,6.8Z"/>
          <path class="cls-4" d="M242.6,619.6a3.6,3.6,0,0,0,1.4,1.6,4.6,4.6,0,0,0,2.1.5,4.9,4.9,0,0,0,2.5-.6,3.5,3.5,0,0,0,1.6-1.6,4.8,4.8,0,0,0,.6-2.4V605.9H254v18.4h-3.2v-2.9a6.2,6.2,0,0,1-2.3,2.5,6.3,6.3,0,0,1-3.2.8,6,6,0,0,1-3.3-.9,4.9,4.9,0,0,1-2.2-2.5,8.6,8.6,0,0,1-.8-3.8V605.9h3.2v11.2A8.7,8.7,0,0,0,242.6,619.6Z"/>
          <path class="cls-4" d="M263.3,593.1v31.2h-3.2V593.1Z"/>
          <path class="cls-4" d="M275.7,605.9v3h-9.2v-3Zm-3-6.4v24.8h-3.2V599.5Z"/>
          <path class="cls-4" d="M282.6,619.6a3.4,3.4,0,0,0,1.3,1.6,5.1,5.1,0,0,0,4.6-.1,3.1,3.1,0,0,0,1.6-1.6,4.8,4.8,0,0,0,.6-2.4V605.9h3.2v18.4h-3.2v-2.9a5.6,5.6,0,0,1-2.3,2.5,6.2,6.2,0,0,1-3.1.8,6.4,6.4,0,0,1-3.4-.9,5.4,5.4,0,0,1-2.2-2.5,8.6,8.6,0,0,1-.8-3.8V605.9h3.2v11.2A6.2,6.2,0,0,0,282.6,619.6Z"/>
          <path class="cls-4" d="M303.2,624.3H300V605.9h3.2Zm4.4-15.6-1.3-.2a2.7,2.7,0,0,0-1.9.6,3.2,3.2,0,0,0-1,1.7,15.2,15.2,0,0,0-.2,2.3h-1.5a10.1,10.1,0,0,1,.8-3.9,7.9,7.9,0,0,1,2-2.7,4.7,4.7,0,0,1,2.6-1,5.7,5.7,0,0,1,1.8.3,3.9,3.9,0,0,1,1.6,1l-1.8,2.6Z"/>
          <path class="cls-4" d="M315.7,620.4a3.3,3.3,0,0,0,1.4,1.2,6.5,6.5,0,0,0,2,.4,6,6,0,0,0,2.7-.6,5.2,5.2,0,0,0,1.9-1.7,5.6,5.6,0,0,0,.7-2.6l.6,2.4a3.6,3.6,0,0,1-1.1,2.9,6.1,6.1,0,0,1-2.6,1.8,10.5,10.5,0,0,1-3,.5,7.1,7.1,0,0,1-3.2-.7,5.6,5.6,0,0,1-3.2-5.2,5.4,5.4,0,0,1,.9-3.1,5.8,5.8,0,0,1,2.5-2.1,8.6,8.6,0,0,1,3.8-.7,10.9,10.9,0,0,1,3.4.4,6.8,6.8,0,0,1,2.1,1.1l1.1.9v1.9a11.1,11.1,0,0,0-2.9-1.4,10.8,10.8,0,0,0-3.2-.4,6.2,6.2,0,0,0-2.5.4,4.2,4.2,0,0,0-1.5,1.1,3.3,3.3,0,0,0-.4,1.7A2.7,2.7,0,0,0,315.7,620.4Zm-2.6-12.6a15.4,15.4,0,0,1,2.9-1.5,11.5,11.5,0,0,1,4.4-.8,8.4,8.4,0,0,1,3.7.7,5.7,5.7,0,0,1,2.6,1.9,4.9,4.9,0,0,1,.9,3v13.2h-3.2V611.6a3.5,3.5,0,0,0-.3-1.6,3.2,3.2,0,0,0-1-1l-1.3-.5-1.6-.2a10.1,10.1,0,0,0-2.5.3l-1.8.8a6.2,6.2,0,0,0-1.2.8Z"/>
          <path class="cls-4" d="M336.2,593.1v31.2H333V593.1Z"/>
          <path class="cls-4" d="M357.5,624.3h-3.2V605.9h3.2Zm4.4-15.6-1.3-.2a2.7,2.7,0,0,0-1.9.6,3.2,3.2,0,0,0-1,1.7,15.2,15.2,0,0,0-.2,2.3H356a10.1,10.1,0,0,1,.8-3.9,7.9,7.9,0,0,1,2-2.7,4.7,4.7,0,0,1,2.6-1,5.2,5.2,0,0,1,1.8.3,3.9,3.9,0,0,1,1.6,1l-1.8,2.6Z"/>
          <path class="cls-4" d="M370.6,623.5a8.5,8.5,0,0,1-3.1-3.4,11.2,11.2,0,0,1-1.1-5,12.3,12.3,0,0,1,.7-3.9,7.7,7.7,0,0,1,1.9-3,8,8,0,0,1,2.8-2,11.7,11.7,0,0,1,3.8-.7,8.5,8.5,0,0,1,4.6,1.2,7.2,7.2,0,0,1,3,3.2,11.3,11.3,0,0,1,1,5.1v.9H368.5v-2.7h13.2l-1.3,1.8a.8.8,0,0,0,.2-.6,2.5,2.5,0,0,0,.2-.7,6.1,6.1,0,0,0-.7-2.8,4.7,4.7,0,0,0-1.8-1.9,5,5,0,0,0-2.7-.7,6.6,6.6,0,0,0-2.5.5,7.6,7.6,0,0,0-1.9,1.2,7,7,0,0,0-1.1,2.1,8.2,8.2,0,0,0-.4,2.8,8.2,8.2,0,0,0,.7,3.7,4.5,4.5,0,0,0,2,2.3,5.3,5.3,0,0,0,3.2.8,7.3,7.3,0,0,0,3.3-.8,6.4,6.4,0,0,0,2.4-2.5l2.6,1.6a8.1,8.1,0,0,1-3.6,3.5,10.4,10.4,0,0,1-5.1,1.2A8.8,8.8,0,0,1,370.6,623.5Z"/>
          <path class="cls-4" d="M390.7,620.2a6.6,6.6,0,0,0,1.7,1.2,4.5,4.5,0,0,0,2,.4,3.4,3.4,0,0,0,2.2-.6,2.1,2.1,0,0,0,.8-1.7,1.9,1.9,0,0,0-.7-1.6,4.4,4.4,0,0,0-1.5-1.2l-2.1-.8a13.4,13.4,0,0,1-2.4-1.2,5.5,5.5,0,0,1-2-1.7,3.9,3.9,0,0,1-.9-2.6,4.5,4.5,0,0,1,.9-2.8,6,6,0,0,1,2.2-1.6,9.8,9.8,0,0,1,2.9-.5,8.7,8.7,0,0,1,2.8.5,6.5,6.5,0,0,1,2.3,1.3,4.3,4.3,0,0,1,1.5,1.8l-2.5,1.7A8.1,8.1,0,0,0,396,609a5.5,5.5,0,0,0-2.6-.6,3.1,3.1,0,0,0-1.7.4,1.4,1.4,0,0,0-.7,1.4,1.8,1.8,0,0,0,.5,1.2,5.6,5.6,0,0,0,1.5,1l1.8.9a19.5,19.5,0,0,1,2.9,1.4,6,6,0,0,1,2.1,1.7,4.6,4.6,0,0,1,.8,2.7,5.7,5.7,0,0,1-.8,2.9,6.1,6.1,0,0,1-2.2,2,7.2,7.2,0,0,1-3.3.7,8.8,8.8,0,0,1-3.3-.6,7.9,7.9,0,0,1-2.5-1.7,8.2,8.2,0,0,1-1.6-2.2l2.5-1.5A9.3,9.3,0,0,0,390.7,620.2Z"/>
          <path class="cls-4" d="M404.5,610.2a8.6,8.6,0,0,1,3.4-3.4,9.2,9.2,0,0,1,4.9-1.3,8.6,8.6,0,0,1,4.8,1.3,8,8,0,0,1,3.4,3.4,9,9,0,0,1,1.3,4.9,9.3,9.3,0,0,1-1.3,5,8.6,8.6,0,0,1-3.4,3.4,9.5,9.5,0,0,1-4.8,1.2,10.2,10.2,0,0,1-4.9-1.2,9.2,9.2,0,0,1-3.4-3.4,10.3,10.3,0,0,1-1.3-5A9.9,9.9,0,0,1,404.5,610.2Zm2.8,8.3a5.7,5.7,0,0,0,5.5,3.2,6.9,6.9,0,0,0,3.2-.8,7.3,7.3,0,0,0,2.2-9.2,5.4,5.4,0,0,0-2.2-2.3,5.9,5.9,0,0,0-3.2-.9,6.3,6.3,0,0,0-3.3.9,6.1,6.1,0,0,0-2.2,2.3,7.6,7.6,0,0,0,0,6.8Z"/>
          <path class="cls-4" d="M430.4,619.6a3.4,3.4,0,0,0,1.3,1.6,4.6,4.6,0,0,0,2.1.5,4.9,4.9,0,0,0,2.5-.6,3.1,3.1,0,0,0,1.6-1.6,4.8,4.8,0,0,0,.6-2.4V605.9h3.2v18.4h-3.2v-2.9a5.6,5.6,0,0,1-2.3,2.5,6.6,6.6,0,0,1-6.5-.1,5.4,5.4,0,0,1-2.2-2.5,8.6,8.6,0,0,1-.8-3.8V605.9h3.2v11.2A6.2,6.2,0,0,0,430.4,619.6Z"/>
          <path class="cls-4" d="M451,624.3h-3.2V605.9H451Zm4.4-15.6-1.4-.2a2.4,2.4,0,0,0-1.8.6,3.2,3.2,0,0,0-1,1.7,15.2,15.2,0,0,0-.2,2.3h-1.5a10.1,10.1,0,0,1,.8-3.9,7.9,7.9,0,0,1,2-2.7,4.7,4.7,0,0,1,2.5-1,5.8,5.8,0,0,1,1.9.3,3.9,3.9,0,0,1,1.6,1l-1.8,2.6Z"/>
          <path class="cls-4" d="M463.8,618.5a6.4,6.4,0,0,0,2.2,2.4,6.9,6.9,0,0,0,3.2.8,8.2,8.2,0,0,0,2.8-.4,8.6,8.6,0,0,0,2.3-1.3,4.6,4.6,0,0,0,1.3-1.6v4a6,6,0,0,1-2.7,1.7,11.5,11.5,0,0,1-3.7.6,9.8,9.8,0,0,1-4.8-1.2,9.5,9.5,0,0,1-4.7-8.4,9,9,0,0,1,1.3-4.9,8.6,8.6,0,0,1,3.4-3.4,8.9,8.9,0,0,1,4.8-1.3,11.5,11.5,0,0,1,3.7.6,6.1,6.1,0,0,1,2.7,1.8v4a4.1,4.1,0,0,0-1.3-1.7A8.4,8.4,0,0,0,472,609a8.2,8.2,0,0,0-2.8-.5,5.9,5.9,0,0,0-3.2.9,5.4,5.4,0,0,0-2.2,2.3,7.6,7.6,0,0,0,0,6.8Z"/>
          <path class="cls-4" d="M483.3,623.5a7.3,7.3,0,0,1-3.1-3.4,11.2,11.2,0,0,1-1.1-5,12.3,12.3,0,0,1,.6-3.9,9.1,9.1,0,0,1,1.9-3,8.4,8.4,0,0,1,2.9-2,10.6,10.6,0,0,1,3.7-.7,8.9,8.9,0,0,1,4.7,1.2,6.5,6.5,0,0,1,2.9,3.2,11.3,11.3,0,0,1,1.1,5.1v.5a1,1,0,0,1-.1.4H481.1v-2.7h13.2L493,615a1.6,1.6,0,0,0,.3-.6,2,2,0,0,0,.1-.7,5.1,5.1,0,0,0-.7-2.8,4.9,4.9,0,0,0-4.5-2.6,7,7,0,0,0-2.5.5,5.7,5.7,0,0,0-1.8,1.2,7.2,7.2,0,0,0-1.2,2.1,11.8,11.8,0,0,0-.4,2.8,9.8,9.8,0,0,0,.7,3.7,5,5,0,0,0,2,2.3,5.7,5.7,0,0,0,3.2.8,6.4,6.4,0,0,0,5.8-3.3l2.6,1.6a8.8,8.8,0,0,1-3.7,3.5,10.1,10.1,0,0,1-5.1,1.2A8.4,8.4,0,0,1,483.3,623.5Z"/>
          <path class="cls-4" d="M503.4,620.2a4.8,4.8,0,0,0,1.6,1.2,4.9,4.9,0,0,0,2.1.4,3.3,3.3,0,0,0,2.1-.6,2.1,2.1,0,0,0,.8-1.7,2.1,2.1,0,0,0-.6-1.6,4.8,4.8,0,0,0-1.6-1.2l-2-.8-2.5-1.2a6.5,6.5,0,0,1-2-1.7,4.5,4.5,0,0,1-.8-2.6,5.1,5.1,0,0,1,.8-2.8,6.3,6.3,0,0,1,2.3-1.6,9.2,9.2,0,0,1,2.8-.5,8.2,8.2,0,0,1,2.8.5,5.8,5.8,0,0,1,2.3,1.3,5.5,5.5,0,0,1,1.6,1.8l-2.6,1.7a6.6,6.6,0,0,0-1.9-1.8,5.3,5.3,0,0,0-2.6-.6,3.3,3.3,0,0,0-1.7.4,1.4,1.4,0,0,0-.7,1.4,1.6,1.6,0,0,0,.6,1.2,3.9,3.9,0,0,0,1.4,1l1.8.9a20.9,20.9,0,0,1,3,1.4,8.7,8.7,0,0,1,2.1,1.7,4.5,4.5,0,0,1,.7,2.7,4.9,4.9,0,0,1-.8,2.9,5.4,5.4,0,0,1-2.2,2,6.7,6.7,0,0,1-3.3.7,8.8,8.8,0,0,1-3.3-.6,9.2,9.2,0,0,1-2.5-1.7,6.2,6.2,0,0,1-1.5-2.2l2.5-1.5A9.3,9.3,0,0,0,503.4,620.2Z"/>
        </g>
        <g>
          <circle class="cls-5" cx="306.2" cy="160.4" r="83.4"/>
          <g id="Layer_2-2" data-name="Layer 2">
            <g id="Layer_1-2-2" data-name="Layer 1-2">
              <ellipse class="cls-1" cx="268.5" cy="139.4" rx="19.1" ry="16.8"/>
              <ellipse class="cls-1" cx="330.5" cy="141.3" rx="17.6" ry="15.5"/>
              <ellipse class="cls-1" cx="306.6" cy="131.4" rx="19.1" ry="16.8"/>
              <ellipse class="cls-1" cx="283.1" cy="140" rx="19.1" ry="16.8"/>
              <ellipse class="cls-1" cx="308" cy="112.3" rx="19.1" ry="16.8"/>
              <ellipse class="cls-1" cx="280" cy="128.6" rx="18.6" ry="16.3"/>
              <ellipse class="cls-1" cx="295.3" cy="119.2" rx="20.9" ry="18.3"/>
              <ellipse class="cls-1" cx="324.6" cy="119.2" rx="19.1" ry="16.8"/>
              <ellipse class="cls-1" cx="340.1" cy="126.4" rx="15.5" ry="13.6"/>
              <ellipse class="cls-1" cx="269.7" cy="150.3" rx="15.5" ry="13.6"/>
              <ellipse class="cls-1" cx="344.5" cy="148.9" rx="15.5" ry="13.6"/>
              <ellipse class="cls-1" cx="346" cy="139.4" rx="15.5" ry="13.6"/>
              <path class="cls-1" d="M272.4,210c2.8-2.4,19.2-.3,22.6-6.8,1.6-3,7-14.1,3.9-27.4-.7-2.9-2.8-11.5-10-18-3.6-3.3-7-7-7-7l7.6-2.3s9.8,14.1,12.3,13.5,3.3-11.1-1.3-19.6a8.2,8.2,0,0,0-1.2-2h11.5c-.8,13.2-.5,19.9,1,20.2s3.7-4.9,7-15.3l8.8,6.3a41.4,41.4,0,0,0-10.1,13.7c-4.8,11.1-3.1,21.1-2.2,26,1.3,7.4,3.3,12.1,9,14.9,3.8,1.9,16.5,3.5,17.2,4.4-4.4-.1-14.9.6-18.7-.9s-9.4-3.7-9.3-1.8.4,4.6,9,6.8c2.6.6-6.7.7-13.3-4.1-4.8-3.6-3.8-5.1-13.6-1.4C292,210.6,276.2,209.9,272.4,210Z"/>
            </g>
          </g>
        </g>
      </g>
    </g>
  </g>
</svg>
