<svg xmlns="http://www.w3.org/2000/svg" xmlns:xlink="http://www.w3.org/1999/xlink" viewBox="0 0 612.3 648">
  <defs>
    <style>
      .cls-1 {
        fill: none;
      }

      .cls-2 {
        fill: #fff;
      }

      .cls-3 {
        fill: #f2f2f2;
      }

      .cls-4 {
        fill: #ffcf41;
      }

      .cls-5 {
        fill: #4c4c4c;
      }

      .cls-6 {
        fill: #27427c;
      }

      .cls-7 {
        clip-path: url(#clip-path);
      }

      .cls-8 {
        fill: #10263c;
      }

      .cls-9 {
        fill: #aaa;
      }

      .cls-10 {
        fill: #d3d3d3;
      }
    </style>
    <clipPath id="clip-path">
      <rect class="cls-1" x="313.1" y="136.2" width="21.1" height="47.25"/>
    </clipPath>
  </defs>
  <title>Asset 44</title>
  <g id="Layer_2" data-name="Layer 2">
    <g id="Layer_1-2" data-name="Layer 1">
      <g>
        <rect class="cls-2" width="612.3" height="648" rx="8"/>
        <g>
          <path class="cls-3" d="M0,481.5V639.2C0,644,3.3,648,7.3,648H605c4,0,7.3-4,7.3-8.8V481.5Z"/>
          <path class="cls-4" d="M612.3,8.8C612.3,4,609,0,605,0H7.3C3.3,0,0,4,0,8.8V39.5H612.3Z"/>
        </g>
        <g>
          <path class="cls-5" d="M174.4,321.7h-8.6l6-42.7,17,26.2L205.7,279l6.2,42.7h-8.7L200.5,299l-11.7,18.9L177.1,299Z"/>
          <path class="cls-5" d="M225.2,314.1a3.5,3.5,0,0,0,1.4,1.9,3.9,3.9,0,0,0,2.5.7,6.1,6.1,0,0,0,2.8-.7,5,5,0,0,0,1.9-1.9,5.4,5.4,0,0,0,.7-2.9V295H242v26.7h-7.5v-4.1a7.8,7.8,0,0,1-3.3,3.4,9.1,9.1,0,0,1-4.9,1.2,10.3,10.3,0,0,1-5.2-1.2,7.6,7.6,0,0,1-3.1-3.5,13.5,13.5,0,0,1-1.1-5.5V295h7.9v16.2A8.5,8.5,0,0,0,225.2,314.1Z"/>
          <path class="cls-5" d="M256.3,276.4v45.3h-7.5V276.4Z"/>
          <path class="cls-5" d="M276.2,295v6.4H259.7V295Zm-4.6-9.3v36h-7.3v-36Z"/>
          <path class="cls-5" d="M280.5,281.6a4.9,4.9,0,0,1,6.4,0,3.8,3.8,0,0,1,1.3,3,4,4,0,0,1-1.3,3.1,4.9,4.9,0,0,1-6.4,0,4.4,4.4,0,0,1-1.3-3.1A4.2,4.2,0,0,1,280.5,281.6Zm6.8,13.4v26.7H280V295Z"/>
          <path class="cls-5" d="M334,321.7h-7.5V305.4a8.7,8.7,0,0,0-.4-3,3.5,3.5,0,0,0-1.3-1.8,3.8,3.8,0,0,0-2.2-.6,5.4,5.4,0,0,0-2.5.6,4,4,0,0,0-1.6,1.8,8.5,8.5,0,0,0-.5,3v16.3h-7.6V305.4a12.1,12.1,0,0,0-.4-3,3.5,3.5,0,0,0-1.3-1.8,3.6,3.6,0,0,0-2.2-.6,4.8,4.8,0,0,0-2.4.6,4,4,0,0,0-1.6,1.8,6.7,6.7,0,0,0-.6,3v16.3h-7.3V295h7.3v3.9a6.5,6.5,0,0,1,1.9-2.4,7.2,7.2,0,0,1,2.5-1.6,10.6,10.6,0,0,1,3.1-.5,13.8,13.8,0,0,1,3.7.5,5.8,5.8,0,0,1,2.5,1.5,7.2,7.2,0,0,1,1.6,2.5,9,9,0,0,1,3.6-3.4,10.6,10.6,0,0,1,4.8-1.1,8.5,8.5,0,0,1,4.8,1.2,6.6,6.6,0,0,1,2.8,3.5,17.3,17.3,0,0,1,.8,5.5Z"/>
          <path class="cls-5" d="M341,301a13.6,13.6,0,0,1,5.2-4.9,17.3,17.3,0,0,1,7.6-1.7,17,17,0,0,1,7.6,1.7,13.2,13.2,0,0,1,5.3,4.9,14.3,14.3,0,0,1,0,14.6,13.2,13.2,0,0,1-5.3,4.9,15.8,15.8,0,0,1-7.6,1.7,16,16,0,0,1-7.6-1.7A14.1,14.1,0,0,1,341,301Zm6.7,11.2a6.6,6.6,0,0,0,2.5,2.7,7,7,0,0,0,7.2,0,6.9,6.9,0,0,0,2.5-2.6,7.7,7.7,0,0,0,1-4,7.1,7.1,0,0,0-1-3.9,6.6,6.6,0,0,0-2.5-2.7,7.7,7.7,0,0,0-7.2,0,6.9,6.9,0,0,0-2.5,2.6,8.8,8.8,0,0,0-1,4A8.1,8.1,0,0,0,347.7,312.2Z"/>
          <path class="cls-5" d="M373.6,300.7a13.2,13.2,0,0,1,4.7-4.7,12.8,12.8,0,0,1,6.3-1.6,10.3,10.3,0,0,1,8.3,3.7,14.3,14.3,0,0,1,2.4,4.4,21.4,21.4,0,0,1,0,11.6,13.2,13.2,0,0,1-2.4,4.4,10.3,10.3,0,0,1-8.3,3.7,12.8,12.8,0,0,1-6.3-1.6,13.2,13.2,0,0,1-4.7-4.7,16.9,16.9,0,0,1,0-15.2Zm7,11.7a7.2,7.2,0,0,0,2.6,2.6,6.5,6.5,0,0,0,3.6,1,6.1,6.1,0,0,0,2.5-.6,7.4,7.4,0,0,0,2.2-1.4,8.1,8.1,0,0,0,1.7-2.4,9.4,9.4,0,0,0,0-6.6,6.6,6.6,0,0,0-1.7-2.3,6.2,6.2,0,0,0-2.2-1.5,5.9,5.9,0,0,0-2.5-.5,7.4,7.4,0,0,0-3.6.9,7.2,7.2,0,0,0-2.6,2.6,8.9,8.9,0,0,0-1,4.1A8.6,8.6,0,0,0,380.6,312.4Zm20.7-36v45.3h-7.5V276.4Z"/>
          <path class="cls-5" d="M413.8,315.3a3.7,3.7,0,0,0,1.5,1.3,5.9,5.9,0,0,0,2.3.4,6.4,6.4,0,0,0,3.1-.7,5,5,0,0,0,2.3-2,5.8,5.8,0,0,0,.9-3.3l.9,3.5a6.9,6.9,0,0,1-1.4,4.3,9.9,9.9,0,0,1-3.7,2.6,14.4,14.4,0,0,1-4.6.8,10.4,10.4,0,0,1-4.7-1,7.7,7.7,0,0,1-4.7-7.4,8.4,8.4,0,0,1,1.2-4.5,7.4,7.4,0,0,1,3.6-2.9,13.5,13.5,0,0,1,5.7-1,20,20,0,0,1,4.4.4,17.5,17.5,0,0,1,3.3,1.3,6.6,6.6,0,0,1,1.9,1.4v3.6a8.8,8.8,0,0,0-3.5-1.7,14,14,0,0,0-4.1-.6,9.8,9.8,0,0,0-2.8.4,3.4,3.4,0,0,0-1.6,1.2,2.9,2.9,0,0,0-.5,1.9A3.3,3.3,0,0,0,413.8,315.3Zm-6.3-17.9a44.2,44.2,0,0,1,5.1-2.1,20.7,20.7,0,0,1,6.8-1,16.1,16.1,0,0,1,6,1,9.2,9.2,0,0,1,4.2,2.8,6.8,6.8,0,0,1,1.6,4.6v19h-7.3V304.4a4.9,4.9,0,0,0-.4-1.9,3.5,3.5,0,0,0-1.1-1.3,3.8,3.8,0,0,0-1.7-.8l-2.2-.2a13.4,13.4,0,0,0-3.5.4,16.3,16.3,0,0,0-2.9,1,7.4,7.4,0,0,0-1.8.9Z"/>
          <path class="cls-5" d="M445,276.4v45.3h-7.6V276.4Z"/>
          <path class="cls-5" d="M22.3,350.7H52.5v7.5h-11v33.1H33.2V358.2H22.3Z"/>
          <path class="cls-5" d="M63.3,391.3H55.9V364.6h7.4Zm6.3-19.9a4,4,0,0,0-2-.4,3.6,3.6,0,0,0-2.3.8,4.1,4.1,0,0,0-1.5,2.1,10.4,10.4,0,0,0-.5,3.3L61.2,375a12.5,12.5,0,0,1,1.2-5.6,10.7,10.7,0,0,1,3.2-4,7,7,0,0,1,4.1-1.4,9.2,9.2,0,0,1,2.8.5,6.2,6.2,0,0,1,2,1.5l-3.4,6.5A4.8,4.8,0,0,0,69.6,371.4Z"/>
          <path class="cls-5" d="M83.8,384.9a3.7,3.7,0,0,0,1.5,1.3,5.6,5.6,0,0,0,2.3.4,6.4,6.4,0,0,0,3.1-.7,5.5,5.5,0,0,0,2.3-2,5.8,5.8,0,0,0,.9-3.3l.9,3.5a6.9,6.9,0,0,1-1.4,4.3,9.9,9.9,0,0,1-3.7,2.6,14.5,14.5,0,0,1-4.7.8,10,10,0,0,1-4.6-1,7.7,7.7,0,0,1-4.7-7.4,8.4,8.4,0,0,1,1.2-4.5,7,7,0,0,1,3.6-2.9,13.4,13.4,0,0,1,5.6-1,20.3,20.3,0,0,1,4.5.4,17.5,17.5,0,0,1,3.3,1.3,8.4,8.4,0,0,1,1.9,1.4v3.6a8.8,8.8,0,0,0-3.5-1.7,14,14,0,0,0-4.1-.6,9.8,9.8,0,0,0-2.8.4,3,3,0,0,0-1.6,1.2,2.9,2.9,0,0,0-.6,1.9A3.4,3.4,0,0,0,83.8,384.9ZM77.5,367a44.2,44.2,0,0,1,5.1-2.1,20.5,20.5,0,0,1,6.7-1,16.6,16.6,0,0,1,6.1,1,9.2,9.2,0,0,1,4.2,2.8,6.8,6.8,0,0,1,1.6,4.6v19H93.9V374a4.9,4.9,0,0,0-.4-1.9,3.5,3.5,0,0,0-1.1-1.3,4.5,4.5,0,0,0-1.7-.8l-2.2-.2a13.4,13.4,0,0,0-3.5.4,16.3,16.3,0,0,0-2.9,1,7.4,7.4,0,0,0-1.8.9Z"/>
          <path class="cls-5" d="M124.3,372a3.7,3.7,0,0,0-1.4-1.8,5,5,0,0,0-2.6-.6,5.7,5.7,0,0,0-2.7.6,5,5,0,0,0-1.9,1.9,5.4,5.4,0,0,0-.7,2.9v16.3h-7.6V364.6H115v4a8.8,8.8,0,0,1,3.2-3.4,9.6,9.6,0,0,1,4.9-1.2,10,10,0,0,1,5.2,1.2,7.6,7.6,0,0,1,3.1,3.5,13.1,13.1,0,0,1,1.1,5.5v17.1h-7.8V375A9.5,9.5,0,0,0,124.3,372Z"/>
          <path class="cls-5" d="M143.8,384.6a10.9,10.9,0,0,0,2.7,1.3,7.9,7.9,0,0,0,2.5.5,3.3,3.3,0,0,0,2.3-.7,2.1,2.1,0,0,0,.7-1.8,2.7,2.7,0,0,0-.6-1.7,7.8,7.8,0,0,0-1.9-1.3,23.8,23.8,0,0,0-3.3-1.2l-3.5-1.6a8.1,8.1,0,0,1-2.9-2.6,7.3,7.3,0,0,1-1.1-4.1,6.3,6.3,0,0,1,1.3-4.1,8,8,0,0,1,3.4-2.5,14.9,14.9,0,0,1,9-.2,17.9,17.9,0,0,1,3.7,1.5,16.6,16.6,0,0,1,3,2.2l-3.3,4.7a11.2,11.2,0,0,0-3.5-2.5,8.2,8.2,0,0,0-3.9-1.1,3.2,3.2,0,0,0-2,.6,1.5,1.5,0,0,0-.7,1.4,2,2,0,0,0,.7,1.6,9.8,9.8,0,0,0,2.1,1.2l3.2,1.2,3.9,1.8a9.2,9.2,0,0,1,2.9,2.6,6.7,6.7,0,0,1,1.1,3.9,7.8,7.8,0,0,1-4.5,7.5,13.9,13.9,0,0,1-5.3,1,17.2,17.2,0,0,1-5.2-.8,15.4,15.4,0,0,1-4.3-2,21.6,21.6,0,0,1-3.3-2.7l3.6-4.7A22.9,22.9,0,0,0,143.8,384.6Z"/>
          <path class="cls-5" d="M164,404V364.6h7.6V404Zm27.7-18.3a12,12,0,0,1-4.8,4.7,12.3,12.3,0,0,1-6.3,1.6,9.7,9.7,0,0,1-4.6-1,8,8,0,0,1-3.5-2.8,12.3,12.3,0,0,1-2.3-4.4,21.7,21.7,0,0,1-.7-5.9,20.5,20.5,0,0,1,.7-5.8,12,12,0,0,1,2.3-4.5,9.9,9.9,0,0,1,3.5-2.9,11.1,11.1,0,0,1,4.6-.9,12.5,12.5,0,0,1,11.1,6.4,15.4,15.4,0,0,1,1.8,7.7A15.8,15.8,0,0,1,191.7,385.7Zm-7.1-11.8a5.7,5.7,0,0,0-2.6-2.5,7.4,7.4,0,0,0-3.6-.9,6.7,6.7,0,0,0-2.4.4,6.4,6.4,0,0,0-2.2,1.4,7.8,7.8,0,0,0-1.6,2.4,8.8,8.8,0,0,0,0,6.4,7.8,7.8,0,0,0,1.6,2.4,6.4,6.4,0,0,0,2.2,1.4,6.7,6.7,0,0,0,2.4.4,8.6,8.6,0,0,0,3.6-.8,6.5,6.5,0,0,0,2.6-2.6,8.5,8.5,0,0,0,0-8Z"/>
          <path class="cls-5" d="M198.6,370.6a13.2,13.2,0,0,1,5.3-4.9,16.6,16.6,0,0,1,7.5-1.7,17,17,0,0,1,7.6,1.7,13.2,13.2,0,0,1,5.3,4.9,14.3,14.3,0,0,1,0,14.6,13.2,13.2,0,0,1-5.3,4.9,15.8,15.8,0,0,1-7.6,1.7,15.4,15.4,0,0,1-7.5-1.7,13.2,13.2,0,0,1-5.3-4.9,14.3,14.3,0,0,1,0-14.6Zm6.7,11.2a6.6,6.6,0,0,0,2.5,2.7,7,7,0,0,0,7.2,0,6.3,6.3,0,0,0,2.5-2.6,7.7,7.7,0,0,0,1-4,7.1,7.1,0,0,0-1-3.9,6,6,0,0,0-2.5-2.7,7.7,7.7,0,0,0-7.2,0,6.9,6.9,0,0,0-2.5,2.6,8.8,8.8,0,0,0-1,4A8.1,8.1,0,0,0,205.3,381.8Z"/>
          <path class="cls-5" d="M238.6,391.3h-7.4V364.6h7.4Zm6.3-19.9a3.6,3.6,0,0,0-1.9-.4,4.1,4.1,0,0,0-3.9,2.9,10.4,10.4,0,0,0-.5,3.3l-2.1-2.2a11.3,11.3,0,0,1,1.3-5.6,10.5,10.5,0,0,1,3.1-4A7.2,7.2,0,0,1,245,364a8.7,8.7,0,0,1,2.8.5,5.7,5.7,0,0,1,2.1,1.5l-3.4,6.5A5.1,5.1,0,0,0,244.9,371.4Z"/>
          <path class="cls-5" d="M266.3,364.6V371H249.8v-6.4Zm-4.6-9.3v36h-7.4v-36Z"/>
          <path class="cls-5" d="M275.5,384.9a3.4,3.4,0,0,0,1.6,1.3,5.1,5.1,0,0,0,2.2.4,6.2,6.2,0,0,0,3.1-.7,4.5,4.5,0,0,0,2.3-2,5.8,5.8,0,0,0,.9-3.3l.9,3.5a6.4,6.4,0,0,1-1.4,4.3,9.5,9.5,0,0,1-3.6,2.6,15,15,0,0,1-4.7.8,10.4,10.4,0,0,1-4.7-1,8.4,8.4,0,0,1-3.4-2.8,8.5,8.5,0,0,1-1.2-4.6,8.4,8.4,0,0,1,1.2-4.5,7.2,7.2,0,0,1,3.5-2.9,13.9,13.9,0,0,1,5.7-1,19.4,19.4,0,0,1,4.4.4,17.5,17.5,0,0,1,3.3,1.3,9.5,9.5,0,0,1,2,1.4v3.6A9.2,9.2,0,0,0,284,380a13.5,13.5,0,0,0-4.1-.6,10.4,10.4,0,0,0-2.8.4,4,4,0,0,0-1.6,1.2,3.6,3.6,0,0,0-.5,1.9A4.2,4.2,0,0,0,275.5,384.9ZM269.3,367a33,33,0,0,1,5.1-2.1,20.1,20.1,0,0,1,6.7-1,16.6,16.6,0,0,1,6.1,1,9.2,9.2,0,0,1,4.2,2.8,7.3,7.3,0,0,1,1.5,4.6v19h-7.3V374a3.6,3.6,0,0,0-.4-1.9,3.2,3.2,0,0,0-1-1.3,5.3,5.3,0,0,0-1.7-.8l-2.2-.2a14.2,14.2,0,0,0-3.6.4,16.3,16.3,0,0,0-2.9,1,7.4,7.4,0,0,0-1.8.9Z"/>
          <path class="cls-5" d="M312.3,364.6V371H295.8v-6.4Zm-4.7-9.3v36h-7.3v-36Z"/>
          <path class="cls-5" d="M316.6,351.2a4.4,4.4,0,0,1,3.2-1.2,4.7,4.7,0,0,1,3.2,1.2,3.8,3.8,0,0,1,1.3,3,4,4,0,0,1-1.3,3.1,4.7,4.7,0,0,1-3.2,1.2,4.4,4.4,0,0,1-3.2-1.2,4,4,0,0,1-1.3-3.1A3.8,3.8,0,0,1,316.6,351.2Zm6.8,13.4v26.7h-7.3V364.6Z"/>
          <path class="cls-5" d="M330.8,370.6a13.9,13.9,0,0,1,5.3-4.9,16.7,16.7,0,0,1,7.6-1.7,17.3,17.3,0,0,1,7.6,1.7,13.9,13.9,0,0,1,5.3,4.9,15,15,0,0,1,0,14.6,13.9,13.9,0,0,1-5.3,4.9,16,16,0,0,1-7.6,1.7,15.5,15.5,0,0,1-7.6-1.7,13.9,13.9,0,0,1-5.3-4.9,15,15,0,0,1,0-14.6Zm6.7,11.2a6.8,6.8,0,0,0,2.6,2.7,6.9,6.9,0,0,0,3.6,1,6.8,6.8,0,0,0,3.5-1,7.2,7.2,0,0,0,2.6-2.6,8.7,8.7,0,0,0,.9-4,8,8,0,0,0-.9-3.9,6.7,6.7,0,0,0-6.1-3.6,6.9,6.9,0,0,0-3.6.9,7.2,7.2,0,0,0-2.6,2.6,8.7,8.7,0,0,0-.9,4A8,8,0,0,0,337.5,381.8Z"/>
          <path class="cls-5" d="M380.3,372a3.7,3.7,0,0,0-1.4-1.8,5,5,0,0,0-2.6-.6,6,6,0,0,0-2.7.6,5,5,0,0,0-1.9,1.9,5.4,5.4,0,0,0-.7,2.9v16.3h-7.6V364.6H371v4a8.8,8.8,0,0,1,3.2-3.4,9.6,9.6,0,0,1,4.9-1.2,10,10,0,0,1,5.2,1.2,7.8,7.8,0,0,1,3.2,3.5,15,15,0,0,1,1,5.5v17.1h-7.8V375A9.5,9.5,0,0,0,380.3,372Z"/>
          <path class="cls-5" d="M419.1,381.5a13.4,13.4,0,0,0,3.4,2.6,8.2,8.2,0,0,0,4,1,7,7,0,0,0,3-.6,4.3,4.3,0,0,0,1.9-1.6,4.4,4.4,0,0,0,.7-2.6,4.9,4.9,0,0,0-.9-3,8.4,8.4,0,0,0-2.9-2.1l-4.5-1.9-3.4-1.5a18.1,18.1,0,0,1-3.6-2.3A12,12,0,0,1,414,366a10.4,10.4,0,0,1-1.1-4.9,10.1,10.1,0,0,1,1.8-6,13.3,13.3,0,0,1,4.8-3.9,16.7,16.7,0,0,1,6.9-1.4,16.9,16.9,0,0,1,6.6,1.3,15.4,15.4,0,0,1,4.8,3.4,17.6,17.6,0,0,1,2.9,4l-6.5,3.8a13.5,13.5,0,0,0-2-2.7,7.9,7.9,0,0,0-2.6-1.9,6.6,6.6,0,0,0-3.2-.7,5.4,5.4,0,0,0-2.7.5,3.9,3.9,0,0,0-1.7,1.4,3.5,3.5,0,0,0-.5,1.8,3.7,3.7,0,0,0,.6,2.1,5.5,5.5,0,0,0,1.7,1.7,17.7,17.7,0,0,0,2.8,1.5l4,1.5a26.4,26.4,0,0,1,3.8,1.8,12,12,0,0,1,3.3,2.5,12.1,12.1,0,0,1,2.4,3.5,13.4,13.4,0,0,1,.8,4.6,10.8,10.8,0,0,1-1.2,5.2,10.2,10.2,0,0,1-3.2,3.9,14.6,14.6,0,0,1-4.6,2.5,18.2,18.2,0,0,1-5.2.8,17.5,17.5,0,0,1-7-1.4,16.8,16.8,0,0,1-5.6-3.8,17.5,17.5,0,0,1-3.7-5.3l5.9-4.2A24.4,24.4,0,0,0,419.1,381.5Z"/>
          <path class="cls-5" d="M454.4,404h-7.8l6.7-15.4-11.1-24h8.4l8.5,21.2h-3.7l8.5-21.1h7.9Z"/>
          <path class="cls-5" d="M478.9,384.6a10.9,10.9,0,0,0,2.7,1.3,7.9,7.9,0,0,0,2.5.5,3.3,3.3,0,0,0,2.3-.7,2.2,2.2,0,0,0,.8-1.8,2.8,2.8,0,0,0-.7-1.7,6.2,6.2,0,0,0-1.9-1.3l-3.2-1.2-3.6-1.6a8.1,8.1,0,0,1-2.9-2.6,7.3,7.3,0,0,1-1.1-4.1,6.3,6.3,0,0,1,1.3-4.1,8,8,0,0,1,3.4-2.5,14.2,14.2,0,0,1,4.8-.8,15.4,15.4,0,0,1,4.3.6,19.4,19.4,0,0,1,3.6,1.5,16.6,16.6,0,0,1,3,2.2l-3.3,4.7a10.1,10.1,0,0,0-3.5-2.5,8.2,8.2,0,0,0-3.8-1.1,3.3,3.3,0,0,0-2.1.6,1.5,1.5,0,0,0-.7,1.4,2,2,0,0,0,.7,1.6,9.7,9.7,0,0,0,2.1,1.2l3.2,1.2,3.9,1.8a9.2,9.2,0,0,1,2.9,2.6,6.7,6.7,0,0,1,1.1,3.9,8.5,8.5,0,0,1-1.2,4.6,7.8,7.8,0,0,1-3.3,2.9,13.9,13.9,0,0,1-5.3,1,17.7,17.7,0,0,1-5.2-.8,13.6,13.6,0,0,1-4.2-2,18.4,18.4,0,0,1-3.4-2.7l3.6-4.7A22.9,22.9,0,0,0,478.9,384.6Z"/>
          <path class="cls-5" d="M512.4,364.6V371H495.9v-6.4Zm-4.7-9.3v36h-7.3v-36Z"/>
          <path class="cls-5" d="M520.7,390.1a11.1,11.1,0,0,1-5-4.8,14.7,14.7,0,0,1-1.8-7.4,15.7,15.7,0,0,1,1-5.8,12.7,12.7,0,0,1,2.8-4.4,14.2,14.2,0,0,1,4.6-2.8,18.9,18.9,0,0,1,6-.9,15.4,15.4,0,0,1,7.5,1.6,11.2,11.2,0,0,1,4.8,4.6,15.6,15.6,0,0,1,1.7,7.4c0,.4-.1.7-.1,1.1s-.1.6-.1.8H518.2V375h17.3l-2.1,2.6a2.3,2.3,0,0,0,.5-1,1.6,1.6,0,0,0,.2-.9,6.9,6.9,0,0,0-.7-3.4,5.6,5.6,0,0,0-2.1-2.2,5.9,5.9,0,0,0-3.1-.8,8.8,8.8,0,0,0-2.9.5,6.5,6.5,0,0,0-2.1,1.6,7.5,7.5,0,0,0-1.3,2.7,12.8,12.8,0,0,0-.4,3.6,10.2,10.2,0,0,0,.7,4.5,7,7,0,0,0,2.4,2.9,6.4,6.4,0,0,0,3.7,1,8.3,8.3,0,0,0,4.3-1,6.8,6.8,0,0,0,2.9-2.9l6.6,2.1a13.5,13.5,0,0,1-5.5,5.6,16.4,16.4,0,0,1-8.3,1.9A15.2,15.2,0,0,1,520.7,390.1Z"/>
          <path class="cls-5" d="M586.7,391.3h-7.6V375a8.7,8.7,0,0,0-.4-3,3.4,3.4,0,0,0-1.2-1.8,4,4,0,0,0-2.2-.6,4.9,4.9,0,0,0-2.5.6,3.5,3.5,0,0,0-1.6,1.8,6.7,6.7,0,0,0-.6,3v16.3H563V375a8.7,8.7,0,0,0-.4-3,4.1,4.1,0,0,0-1.2-1.8,3.8,3.8,0,0,0-2.2-.6,4.5,4.5,0,0,0-2.4.6,4.2,4.2,0,0,0-1.7,1.8,6.7,6.7,0,0,0-.6,3v16.3h-7.3V364.6h7.3v3.9a9.6,9.6,0,0,1,1.9-2.4,7.6,7.6,0,0,1,2.6-1.6,10.1,10.1,0,0,1,3.1-.5,12.5,12.5,0,0,1,3.6.5,6.1,6.1,0,0,1,2.6,1.5,8.9,8.9,0,0,1,1.6,2.5,9.5,9.5,0,0,1,3.5-3.4,10.6,10.6,0,0,1,4.8-1.1,9.1,9.1,0,0,1,4.9,1.2,6.9,6.9,0,0,1,2.7,3.5,14.7,14.7,0,0,1,.9,5.5Z"/>
        </g>
        <g>
          <path class="cls-5" d="M18.9,508.5a16.2,16.2,0,0,1,3.1-4.6,14.1,14.1,0,0,1,4.6-3,15.8,15.8,0,0,1,11.6,0,14.1,14.1,0,0,1,4.6,3,16.2,16.2,0,0,1,3.1,4.6,17.3,17.3,0,0,1,0,11.6,14.9,14.9,0,0,1-3.1,4.6,12.1,12.1,0,0,1-4.6,3.1,14,14,0,0,1-5.8,1.1,13.6,13.6,0,0,1-5.8-1.1,12.1,12.1,0,0,1-4.6-3.1,14.9,14.9,0,0,1-3.1-4.6,17.3,17.3,0,0,1,0-11.6Zm4.7,9.8a9.4,9.4,0,0,0,1.9,3.2,9.2,9.2,0,0,0,3.1,2,9.2,9.2,0,0,0,3.8.8,9.6,9.6,0,0,0,3.8-.8,7.9,7.9,0,0,0,3-2,9.6,9.6,0,0,0,2-3.2,10.2,10.2,0,0,0,.7-4,10.9,10.9,0,0,0-.7-4,8.9,8.9,0,0,0-1.9-3.1,9.5,9.5,0,0,0-3.1-2.1,9.2,9.2,0,0,0-3.8-.7,9.2,9.2,0,0,0-3.8.7,9.5,9.5,0,0,0-3.1,2.1,8.9,8.9,0,0,0-1.9,3.1,10.9,10.9,0,0,0-.7,4A10.2,10.2,0,0,0,23.6,518.3Z"/>
          <path class="cls-5" d="M55.4,528.3H51.1V497.1h4.3Zm14-4a8.7,8.7,0,0,1-3.3,3.3,9.3,9.3,0,0,1-4.4,1.1,8.3,8.3,0,0,1-3.2-.6,7.5,7.5,0,0,1-2.4-1.9,10.3,10.3,0,0,1-1.7-3.1,12.2,12.2,0,0,1-.5-4,12.5,12.5,0,0,1,.5-4,8.7,8.7,0,0,1,1.7-3,6.3,6.3,0,0,1,2.4-1.9,6.8,6.8,0,0,1,3.2-.7,8.3,8.3,0,0,1,4.4,1.2,7.8,7.8,0,0,1,3.3,3.2,11,11,0,0,1,0,10.4Zm-4-8.3a4.8,4.8,0,0,0-2-2,5,5,0,0,0-2.7-.7,4.1,4.1,0,0,0-1.9.4,4.5,4.5,0,0,0-1.7,1.1,5.7,5.7,0,0,0-1.2,1.8,7,7,0,0,0-.5,2.5,6.2,6.2,0,0,0,.5,2.5,5.2,5.2,0,0,0,1.2,1.9,6.2,6.2,0,0,0,1.7,1.1,5.8,5.8,0,0,0,1.9.4,6,6,0,0,0,2.7-.7,6.4,6.4,0,0,0,2-2,6.6,6.6,0,0,0,.8-3.2A5.9,5.9,0,0,0,65.4,516Z"/>
          <path class="cls-5" d="M71.9,533a1.8,1.8,0,0,0,1.1.3,2,2,0,0,0,1.1-.3,1.7,1.7,0,0,0,.6-1.1,9,9,0,0,0,.2-1.8V509.9h4.3v21a9.1,9.1,0,0,1-.7,3.5,5.8,5.8,0,0,1-2.1,2.3,6.3,6.3,0,0,1-3.2.7,5,5,0,0,1-1.8-.2,4,4,0,0,1-1.3-.7,2.2,2.2,0,0,1-1-.9l2-3.3A1.8,1.8,0,0,0,71.9,533ZM75,500.7a2.6,2.6,0,0,1,1.9-.7,2.9,2.9,0,0,1,2,.7,2.9,2.9,0,0,1,0,3.8,2.9,2.9,0,0,1-2,.7,2.6,2.6,0,0,1-1.9-.7,2.7,2.7,0,0,1,0-3.8Z"/>
          <path class="cls-5" d="M88.2,527.5a8.7,8.7,0,0,1-3.3-3.3,10.7,10.7,0,0,1-1.2-5.1,12.3,12.3,0,0,1,.7-3.9,9.2,9.2,0,0,1,2-3.1,9.1,9.1,0,0,1,3-1.9,9.7,9.7,0,0,1,3.9-.7,10.9,10.9,0,0,1,5,1.1,7.6,7.6,0,0,1,3.1,3.3,9.7,9.7,0,0,1,1.1,5v1.2H86.3v-3H98.8L97.4,519l.3-.7a1.9,1.9,0,0,0,.2-.7,5.1,5.1,0,0,0-.6-2.5,4.4,4.4,0,0,0-1.6-1.7,4.8,4.8,0,0,0-2.4-.6,5.1,5.1,0,0,0-2.2.4,6.1,6.1,0,0,0-1.6,1.2,4.9,4.9,0,0,0-1,1.9,10.3,10.3,0,0,0-.4,2.7,8.1,8.1,0,0,0,.6,3.3,4.6,4.6,0,0,0,1.8,2.1,5.1,5.1,0,0,0,2.8.8,6.2,6.2,0,0,0,3.1-.8,5.2,5.2,0,0,0,2.2-2.2l3.8,1.5a9.9,9.9,0,0,1-3.8,3.8,11.5,11.5,0,0,1-5.5,1.2A9.6,9.6,0,0,1,88.2,527.5Z"/>
          <path class="cls-5" d="M110.3,522.2a5.3,5.3,0,0,0,2.1,2.1,5.7,5.7,0,0,0,2.9.7,6.9,6.9,0,0,0,2.5-.4,7,7,0,0,0,2.1-1.1,5.2,5.2,0,0,0,1.4-1.6v4.7a6.1,6.1,0,0,1-2.6,1.6,13.6,13.6,0,0,1-3.6.5,10.7,10.7,0,0,1-5.1-1.2,9,9,0,0,1-3.6-3.4,10.3,10.3,0,0,1,0-10,9.8,9.8,0,0,1,8.7-4.6,10.5,10.5,0,0,1,3.6.6,6,6,0,0,1,2.6,1.5v4.8a4.6,4.6,0,0,0-1.4-1.7,10.3,10.3,0,0,0-2.1-1.1,10.9,10.9,0,0,0-2.5-.4,5.7,5.7,0,0,0-2.9.8,5.3,5.3,0,0,0-2.1,2.1,6,6,0,0,0-.7,3A6.2,6.2,0,0,0,110.3,522.2Z"/>
          <path class="cls-5" d="M134,509.9v3.8H123.5v-3.8Zm-3.1-6.4v24.8h-4.3V503.5Z"/>
          <path class="cls-5" d="M137.6,500.7a2.6,2.6,0,0,1,1.9-.7,2.6,2.6,0,1,1,0,5.2,2.6,2.6,0,0,1-1.9-.7,2.7,2.7,0,0,1,0-3.8Zm4.1,9.2v18.4h-4.3V509.9Z"/>
          <path class="cls-5" d="M149.6,509.9l4.8,11.9,4.8-11.9h4.7L154.4,530l-9.6-20.1Z"/>
          <path class="cls-5" d="M169.7,527.5a8.7,8.7,0,0,1-3.3-3.3,10.6,10.6,0,0,1-1.1-5.1,12.3,12.3,0,0,1,.6-3.9,9.2,9.2,0,0,1,2-3.1,9.1,9.1,0,0,1,3-1.9,10,10,0,0,1,3.9-.7,10.9,10.9,0,0,1,5,1.1,7.6,7.6,0,0,1,3.1,3.3,9.7,9.7,0,0,1,1.2,5c0,.3-.1.5-.1.7v.5H167.8v-3h12.5l-1.4,1.9.3-.7a1.9,1.9,0,0,0,.2-.7,5.1,5.1,0,0,0-.6-2.5,4.4,4.4,0,0,0-1.6-1.7,4.8,4.8,0,0,0-2.4-.6,5.4,5.4,0,0,0-2.2.4,6.1,6.1,0,0,0-1.6,1.2,6.7,6.7,0,0,0-1,1.9,10.3,10.3,0,0,0-.4,2.7,6.7,6.7,0,0,0,.7,3.3,3.9,3.9,0,0,0,1.7,2.1,5.1,5.1,0,0,0,2.8.8,5.9,5.9,0,0,0,3.1-.8,5.2,5.2,0,0,0,2.2-2.2l3.8,1.5a9.9,9.9,0,0,1-3.8,3.8,11.5,11.5,0,0,1-5.5,1.2A9.9,9.9,0,0,1,169.7,527.5Z"/>
          <path class="cls-5" d="M189.6,509.2a2.8,2.8,0,0,1,4.8,2,2.4,2.4,0,0,1-.8,1.9,2.7,2.7,0,0,1-4,0,2.7,2.7,0,0,1-.8-1.9A2.8,2.8,0,0,1,189.6,509.2Zm0,15.1a2.9,2.9,0,0,1,4,0,2.4,2.4,0,0,1,.8,2,2.4,2.4,0,0,1-.8,1.9,2.7,2.7,0,0,1-4,0,2.7,2.7,0,0,1-.8-1.9A2.8,2.8,0,0,1,189.6,524.3Z"/>
          <path class="cls-5" d="M22.9,548.3v28H19.5v-28Z"/>
          <path class="cls-5" d="M54.4,576.3H51.2V565.1a9.5,9.5,0,0,0-.4-2.6,3.5,3.5,0,0,0-1.2-1.5,3.6,3.6,0,0,0-1.9-.5,4.1,4.1,0,0,0-2.3.6,2.8,2.8,0,0,0-1.5,1.5,5.1,5.1,0,0,0-.5,2.5v11.2H40.2V565.1a9.5,9.5,0,0,0-.4-2.6,3.5,3.5,0,0,0-1.2-1.5,3.6,3.6,0,0,0-1.9-.5,4.1,4.1,0,0,0-2.3.6,2.8,2.8,0,0,0-1.5,1.5,5.1,5.1,0,0,0-.5,2.5v11.2H29.2V557.9h3.2v2.7a4.5,4.5,0,0,1,1.3-1.7,3.7,3.7,0,0,1,1.7-1,4.6,4.6,0,0,1,2.1-.4,8.5,8.5,0,0,1,2.3.4,5.7,5.7,0,0,1,1.8,1.2,5.2,5.2,0,0,1,1.2,1.9,6.1,6.1,0,0,1,2.4-2.6,5.8,5.8,0,0,1,3.3-.9,5.7,5.7,0,0,1,3.2.9,5.4,5.4,0,0,1,2,2.4,11.3,11.3,0,0,1,.7,3.9Z"/>
          <path class="cls-5" d="M60.2,585.1V557.9h3.2v27.2Zm17.4-12.9a9.8,9.8,0,0,1-3.3,3.4,10.1,10.1,0,0,1-4.6,1.1,7.5,7.5,0,0,1-3.1-.6,7.9,7.9,0,0,1-2.5-1.9,10.1,10.1,0,0,1-1.6-3.1,15.6,15.6,0,0,1-.5-4,16.2,16.2,0,0,1,.5-4,8.6,8.6,0,0,1,1.6-3,6.7,6.7,0,0,1,2.5-1.9,6.2,6.2,0,0,1,3.1-.7,9,9,0,0,1,4.6,1.2,10.4,10.4,0,0,1,3.3,3.3,11.4,11.4,0,0,1,0,10.2Zm-2.9-8.7a5.4,5.4,0,0,0-2.3-2.2,6.5,6.5,0,0,0-3.1-.8,5.4,5.4,0,0,0-2.1.5,7.6,7.6,0,0,0-1.9,1.2,7.7,7.7,0,0,0-1.4,2.1,8.2,8.2,0,0,0-.5,2.8,7.8,7.8,0,0,0,.5,2.8,6.4,6.4,0,0,0,1.4,2.1,5.9,5.9,0,0,0,1.9,1.3,5.2,5.2,0,0,0,2.1.4,6.4,6.4,0,0,0,3.1-.7,5.7,5.7,0,0,0,2.3-2.3,7.7,7.7,0,0,0,0-7.2Z"/>
          <path class="cls-5" d="M86.5,576.3H83.3V557.9h3.2Zm4.4-15.6-1.4-.2a2.4,2.4,0,0,0-1.8.6,3.2,3.2,0,0,0-1,1.7,8.2,8.2,0,0,0-.2,2.3H85a10.1,10.1,0,0,1,.8-3.9,7.9,7.9,0,0,1,2-2.7,4.4,4.4,0,0,1,2.5-1,5.8,5.8,0,0,1,1.9.3,3.9,3.9,0,0,1,1.6,1L92,561.4Z"/>
          <path class="cls-5" d="M96.7,562.2a8.6,8.6,0,0,1,3.4-3.4,8.6,8.6,0,0,1,4.8-1.3,9,9,0,0,1,4.9,1.3,8.6,8.6,0,0,1,3.4,3.4,9.9,9.9,0,0,1,1.3,4.9,10.3,10.3,0,0,1-1.3,5,9.2,9.2,0,0,1-3.4,3.4,9.9,9.9,0,0,1-4.9,1.2,9.5,9.5,0,0,1-4.8-1.2,9.5,9.5,0,0,1-4.7-8.4A9,9,0,0,1,96.7,562.2Zm2.8,8.3a6.4,6.4,0,0,0,2.2,2.4,6.9,6.9,0,0,0,3.2.8,5.7,5.7,0,0,0,5.5-3.2,7.6,7.6,0,0,0,0-6.8,6.1,6.1,0,0,0-2.2-2.3,6.3,6.3,0,0,0-3.3-.9,5.9,5.9,0,0,0-3.2.9,5.4,5.4,0,0,0-2.2,2.3,7.6,7.6,0,0,0,0,6.8Z"/>
          <path class="cls-5" d="M119.5,557.9l5.2,13,5.2-13h3.6l-8.8,19.8-8.8-19.8Z"/>
          <path class="cls-5" d="M139.1,575.5a8.5,8.5,0,0,1-3.1-3.4,11.2,11.2,0,0,1-1.1-5,12.3,12.3,0,0,1,.7-3.9,7.7,7.7,0,0,1,1.9-3,8,8,0,0,1,2.8-2,11.7,11.7,0,0,1,3.8-.7,8.5,8.5,0,0,1,4.6,1.2,7.2,7.2,0,0,1,3,3.2,11.3,11.3,0,0,1,1,5.1v.9H137v-2.7h13.2l-1.3,1.8a.8.8,0,0,0,.2-.6,2.5,2.5,0,0,0,.2-.7,6.1,6.1,0,0,0-.7-2.8,5.5,5.5,0,0,0-1.8-1.9,5,5,0,0,0-2.7-.7,6.6,6.6,0,0,0-4.4,1.7,5.3,5.3,0,0,0-1.1,2.1,8.2,8.2,0,0,0-.4,2.8,8.2,8.2,0,0,0,.7,3.7,4.5,4.5,0,0,0,2,2.3,5.3,5.3,0,0,0,3.2.8,7.3,7.3,0,0,0,3.3-.8,7.2,7.2,0,0,0,2.4-2.5l2.6,1.6a8.6,8.6,0,0,1-3.6,3.5,10.7,10.7,0,0,1-5.1,1.2A8.5,8.5,0,0,1,139.1,575.5Z"/>
          <path class="cls-5" d="M171.3,572.2a4.8,4.8,0,0,0,1.6,1.2,4.6,4.6,0,0,0,2.1.4,3.3,3.3,0,0,0,2.1-.6,2.1,2.1,0,0,0,.8-1.7,2.1,2.1,0,0,0-.6-1.6,4.8,4.8,0,0,0-1.6-1.2l-2-.8a14.2,14.2,0,0,1-2.5-1.2,5.5,5.5,0,0,1-2-1.7,3.8,3.8,0,0,1-.8-2.6,5.1,5.1,0,0,1,.8-2.8,6.3,6.3,0,0,1,2.3-1.6,8.1,8.1,0,0,1,5.6,0,6.5,6.5,0,0,1,2.3,1.3,5.5,5.5,0,0,1,1.6,1.8l-2.6,1.7a6.6,6.6,0,0,0-1.9-1.8,5.3,5.3,0,0,0-2.6-.6,3.3,3.3,0,0,0-1.7.4,1.4,1.4,0,0,0-.7,1.4,1.6,1.6,0,0,0,.6,1.2,3.9,3.9,0,0,0,1.4,1l1.8.9a20.9,20.9,0,0,1,3,1.4,8.7,8.7,0,0,1,2.1,1.7,4.5,4.5,0,0,1,.7,2.7,4.9,4.9,0,0,1-.8,2.9,5.4,5.4,0,0,1-2.2,2,6.7,6.7,0,0,1-3.3.7,8.8,8.8,0,0,1-3.3-.6,9.2,9.2,0,0,1-2.5-1.7,6.2,6.2,0,0,1-1.5-2.2l2.5-1.5A6.1,6.1,0,0,0,171.3,572.2Z"/>
          <path class="cls-5" d="M187.3,572.4a3.3,3.3,0,0,0,1.4,1.2,6.5,6.5,0,0,0,2.1.4,5.5,5.5,0,0,0,2.6-.6,5.2,5.2,0,0,0,1.9-1.7,4.6,4.6,0,0,0,.7-2.6l.7,2.4a4,4,0,0,1-1.1,2.9,6.8,6.8,0,0,1-2.6,1.8,11.2,11.2,0,0,1-3.1.5,6.7,6.7,0,0,1-3.1-.7,4.5,4.5,0,0,1-2.3-2,5.5,5.5,0,0,1-.9-3.2,6.2,6.2,0,0,1,.8-3.1,5.8,5.8,0,0,1,2.5-2.1,9.4,9.4,0,0,1,3.9-.7,10.6,10.6,0,0,1,3.3.4,9,9,0,0,1,2.2,1.1l1,.9v1.9a12.2,12.2,0,0,0-2.8-1.4,11.2,11.2,0,0,0-3.2-.4,6,6,0,0,0-2.5.4,3,3,0,0,0-1.5,1.1,3.4,3.4,0,0,0-.5,1.7A3.5,3.5,0,0,0,187.3,572.4Zm-2.5-12.6a14.1,14.1,0,0,1,2.8-1.5,11.5,11.5,0,0,1,4.4-.8,8.9,8.9,0,0,1,3.8.7,5.4,5.4,0,0,1,2.5,1.9,4.9,4.9,0,0,1,.9,3v13.2H196V563.6a3.5,3.5,0,0,0-.3-1.6,2.2,2.2,0,0,0-.9-1l-1.3-.5-1.6-.2a9,9,0,0,0-2.5.3l-1.9.8a6.2,6.2,0,0,0-1.2.8Z"/>
          <path class="cls-5" d="M212.5,557.9v3h-9.2v-3Zm-1.3-9.8-1-.2a1.2,1.2,0,0,0-1,.4,2.3,2.3,0,0,0-.7,1.1,6.2,6.2,0,0,0-.2,2.1v24.8h-3.2V551.1a9.7,9.7,0,0,1,.6-3.6,4.6,4.6,0,0,1,1.8-2.1,6.5,6.5,0,0,1,2.9-.7,3.3,3.3,0,0,1,1.5.3,2.3,2.3,0,0,1,1.2.6l.8.7-1.8,2.7A1.3,1.3,0,0,0,211.2,548.1Z"/>
          <path class="cls-5" d="M218.7,575.5a8.5,8.5,0,0,1-3.1-3.4,11.2,11.2,0,0,1-1.1-5,12.3,12.3,0,0,1,.7-3.9,7.7,7.7,0,0,1,1.9-3,8,8,0,0,1,2.8-2,11.7,11.7,0,0,1,3.8-.7,8.5,8.5,0,0,1,4.6,1.2,7.2,7.2,0,0,1,3,3.2,11.3,11.3,0,0,1,1,5.1v.9H216.6v-2.7h13.2l-1.3,1.8a.8.8,0,0,0,.2-.6,2.5,2.5,0,0,0,.2-.7,6.1,6.1,0,0,0-.7-2.8,5.5,5.5,0,0,0-1.8-1.9,5,5,0,0,0-2.7-.7,6.6,6.6,0,0,0-4.4,1.7,5.3,5.3,0,0,0-1.1,2.1,8.2,8.2,0,0,0-.4,2.8,8.2,8.2,0,0,0,.7,3.7,4.5,4.5,0,0,0,2,2.3,5.3,5.3,0,0,0,3.2.8,7.3,7.3,0,0,0,3.3-.8,7.2,7.2,0,0,0,2.4-2.5L232,572a8.6,8.6,0,0,1-3.6,3.5,10.7,10.7,0,0,1-5.1,1.2A8.5,8.5,0,0,1,218.7,575.5Z"/>
          <path class="cls-5" d="M243.2,557.9v3H234v-3Zm-3-6.4v24.8H237V551.5Z"/>
          <path class="cls-5" d="M249,585.1h-3.6l5-11.4-7-15.8h3.8l5.8,14.4h-1.3l5.7-14.3H261Z"/>
          <path class="cls-5" d="M270.2,573.1l-4.4,10-2.4-.8,3.6-10.4Z"/>
          <path class="cls-5" d="M290.4,572.4a3.3,3.3,0,0,0,1.4,1.2,6.5,6.5,0,0,0,2,.4,6,6,0,0,0,2.7-.6,5.2,5.2,0,0,0,1.9-1.7,4.6,4.6,0,0,0,.7-2.6l.6,2.4a3.9,3.9,0,0,1-1,2.9,6.8,6.8,0,0,1-2.6,1.8,11.8,11.8,0,0,1-3.1.5,6.4,6.4,0,0,1-3.1-.7,5.2,5.2,0,0,1-2.4-2,5.5,5.5,0,0,1-.9-3.2,5.4,5.4,0,0,1,.9-3.1,5.8,5.8,0,0,1,2.5-2.1,9.2,9.2,0,0,1,3.8-.7,10.9,10.9,0,0,1,3.4.4,6.8,6.8,0,0,1,2.1,1.1l1.1.9v1.9a11.1,11.1,0,0,0-2.9-1.4,10.6,10.6,0,0,0-3.1-.4,6.5,6.5,0,0,0-2.6.4,3.1,3.1,0,0,0-1.4,1.1,2.6,2.6,0,0,0-.5,1.7A3.5,3.5,0,0,0,290.4,572.4Zm-2.6-12.6a15.4,15.4,0,0,1,2.9-1.5,11.5,11.5,0,0,1,4.4-.8,9.2,9.2,0,0,1,3.8.7,6,6,0,0,1,2.5,1.9,4.9,4.9,0,0,1,.9,3v13.2h-3.2V563.6a3.5,3.5,0,0,0-.3-1.6,2.2,2.2,0,0,0-.9-1l-1.4-.5-1.6-.2a8.8,8.8,0,0,0-2.4.3l-1.9.8a6.2,6.2,0,0,0-1.2.8Z"/>
          <path class="cls-5" d="M310,570.5a6.4,6.4,0,0,0,2.2,2.4,6.9,6.9,0,0,0,3.2.8,8.2,8.2,0,0,0,2.8-.4,8.6,8.6,0,0,0,2.3-1.3,4.6,4.6,0,0,0,1.3-1.6v4a6,6,0,0,1-2.7,1.7,11.5,11.5,0,0,1-3.7.6,9.8,9.8,0,0,1-4.8-1.2,9.5,9.5,0,0,1-4.7-8.4,9,9,0,0,1,1.3-4.9,8.6,8.6,0,0,1,3.4-3.4,8.9,8.9,0,0,1,4.8-1.3,11.5,11.5,0,0,1,3.7.6,6.1,6.1,0,0,1,2.7,1.8v4a4.1,4.1,0,0,0-1.3-1.7,8.4,8.4,0,0,0-2.3-1.2,8.2,8.2,0,0,0-2.8-.5,5.9,5.9,0,0,0-3.2.9,5.4,5.4,0,0,0-2.2,2.3,7.6,7.6,0,0,0,0,6.8Z"/>
          <path class="cls-5" d="M329.1,570.5a6,6,0,0,0,5.5,3.2,8.6,8.6,0,0,0,2.8-.4,6.7,6.7,0,0,0,2.2-1.3,5,5,0,0,0,1.4-1.6v4a6,6,0,0,1-2.7,1.7,11.5,11.5,0,0,1-3.7.6,9.5,9.5,0,0,1-8.3-4.6,10.3,10.3,0,0,1-1.2-5,9.9,9.9,0,0,1,1.2-4.9,8.8,8.8,0,0,1,3.5-3.4,8.6,8.6,0,0,1,4.8-1.3,11.5,11.5,0,0,1,3.7.6,6.1,6.1,0,0,1,2.7,1.8v4a4.4,4.4,0,0,0-1.4-1.7,6.6,6.6,0,0,0-2.2-1.2,8.7,8.7,0,0,0-2.8-.5,6.5,6.5,0,0,0-5.5,3.2,7.6,7.6,0,0,0,0,6.8Z"/>
          <path class="cls-5" d="M348.6,575.5a8.5,8.5,0,0,1-3.1-3.4,11.2,11.2,0,0,1-1.1-5,12.3,12.3,0,0,1,.7-3.9,7.7,7.7,0,0,1,1.9-3,8,8,0,0,1,2.8-2,11.7,11.7,0,0,1,3.8-.7,8.5,8.5,0,0,1,4.6,1.2,7.2,7.2,0,0,1,3,3.2,11.3,11.3,0,0,1,1,5.1v.9H346.5v-2.7h13.2l-1.3,1.8a.8.8,0,0,0,.2-.6,2.5,2.5,0,0,0,.2-.7,6.1,6.1,0,0,0-.7-2.8,4.7,4.7,0,0,0-1.8-1.9,5,5,0,0,0-2.7-.7,6.6,6.6,0,0,0-2.5.5,7.6,7.6,0,0,0-1.9,1.2,7,7,0,0,0-1.1,2.1,8.2,8.2,0,0,0-.4,2.8,8.2,8.2,0,0,0,.7,3.7,4.5,4.5,0,0,0,2,2.3,5.3,5.3,0,0,0,3.2.8,7.3,7.3,0,0,0,3.3-.8,6.4,6.4,0,0,0,2.4-2.5l2.6,1.6a8.1,8.1,0,0,1-3.6,3.5,10.4,10.4,0,0,1-5.1,1.2A8.8,8.8,0,0,1,348.6,575.5Z"/>
          <path class="cls-5" d="M368.7,572.2a6.6,6.6,0,0,0,1.7,1.2,4.5,4.5,0,0,0,2,.4,3.4,3.4,0,0,0,2.2-.6,2.1,2.1,0,0,0,.8-1.7,1.9,1.9,0,0,0-.7-1.6,4.4,4.4,0,0,0-1.5-1.2l-2.1-.8a13.4,13.4,0,0,1-2.4-1.2,5.5,5.5,0,0,1-2-1.7,3.9,3.9,0,0,1-.9-2.6,4.5,4.5,0,0,1,.9-2.8,6,6,0,0,1,2.2-1.6,9.8,9.8,0,0,1,2.9-.5,8.7,8.7,0,0,1,2.8.5,6.5,6.5,0,0,1,2.3,1.3,4.3,4.3,0,0,1,1.5,1.8l-2.5,1.7A8.1,8.1,0,0,0,374,561a5.5,5.5,0,0,0-2.6-.6,3.1,3.1,0,0,0-1.7.4,1.4,1.4,0,0,0-.7,1.4,1.8,1.8,0,0,0,.5,1.2,5.6,5.6,0,0,0,1.5,1l1.8.9a19.5,19.5,0,0,1,2.9,1.4,6,6,0,0,1,2.1,1.7,4.6,4.6,0,0,1,.8,2.7,5.7,5.7,0,0,1-.8,2.9,6.1,6.1,0,0,1-2.2,2,7.2,7.2,0,0,1-3.3.7,8.8,8.8,0,0,1-3.3-.6,7.9,7.9,0,0,1-2.5-1.7,8.2,8.2,0,0,1-1.6-2.2l2.5-1.5A9.3,9.3,0,0,0,368.7,572.2Z"/>
          <path class="cls-5" d="M384.9,572.2a6.1,6.1,0,0,0,1.6,1.2,5.2,5.2,0,0,0,2.1.4,3.3,3.3,0,0,0,2.1-.6,1.9,1.9,0,0,0,.8-1.7,2.1,2.1,0,0,0-.6-1.6,4,4,0,0,0-1.6-1.2l-2-.8a13.4,13.4,0,0,1-2.4-1.2,6.8,6.8,0,0,1-2.1-1.7,4.7,4.7,0,0,1,.1-5.4,5.2,5.2,0,0,1,2.2-1.6,9.3,9.3,0,0,1,2.9-.5,7.6,7.6,0,0,1,2.7.5,5.8,5.8,0,0,1,2.3,1.3,5.5,5.5,0,0,1,1.6,1.8l-2.6,1.7a6.6,6.6,0,0,0-1.9-1.8,5.1,5.1,0,0,0-2.5-.6,3.4,3.4,0,0,0-1.8.4,1.6,1.6,0,0,0-.7,1.4,1.6,1.6,0,0,0,.6,1.2,5,5,0,0,0,1.4,1l1.9.9,2.9,1.4a6,6,0,0,1,2.1,1.7,4.6,4.6,0,0,1,.8,2.7,5.7,5.7,0,0,1-.8,2.9,6.4,6.4,0,0,1-2.3,2,6.7,6.7,0,0,1-3.3.7,8.8,8.8,0,0,1-3.3-.6,9.2,9.2,0,0,1-2.5-1.7,6.2,6.2,0,0,1-1.5-2.2l2.5-1.5A9.3,9.3,0,0,0,384.9,572.2Z"/>
          <path class="cls-5" d="M399.7,548.8a1.8,1.8,0,0,1,1.5-.7,2.1,2.1,0,0,1,1.6.7,2,2,0,0,1,.6,1.5,2.1,2.1,0,0,1-2.2,2.2,2,2,0,0,1-1.5-.6,2.1,2.1,0,0,1-.7-1.6A1.8,1.8,0,0,1,399.7,548.8Zm3.1,9.1v18.4h-3.2V557.9Z"/>
          <path class="cls-5" d="M412.4,576.3h-3.2V545.1h3.2Zm14.2-4.1a8.3,8.3,0,0,1-3.3,3.4,10.1,10.1,0,0,1-4.6,1.1,7.8,7.8,0,0,1-3.1-.6,7.9,7.9,0,0,1-2.5-1.9,9.9,9.9,0,0,1-1.5-3.1,12,12,0,0,1-.6-4,12.5,12.5,0,0,1,.6-4,8.4,8.4,0,0,1,1.5-3,6.7,6.7,0,0,1,2.5-1.9,6.4,6.4,0,0,1,3.1-.7,9,9,0,0,1,4.6,1.2,8.7,8.7,0,0,1,3.3,3.3,11.4,11.4,0,0,1,0,10.2Zm-2.9-8.7a5.2,5.2,0,0,0-2.2-2.2,6.9,6.9,0,0,0-3.2-.8,5.4,5.4,0,0,0-2.1.5,10,10,0,0,0-1.9,1.2,7.4,7.4,0,0,0-1.3,2.1,6.4,6.4,0,0,0-.6,2.8,6.1,6.1,0,0,0,.6,2.8,6.2,6.2,0,0,0,1.3,2.1,7.2,7.2,0,0,0,1.9,1.3,5.2,5.2,0,0,0,2.1.4,6.8,6.8,0,0,0,3.2-.7,5.4,5.4,0,0,0,2.2-2.3,7.6,7.6,0,0,0,0-7.2Z"/>
          <path class="cls-5" d="M432.9,548.8a2.1,2.1,0,0,1,1.6-.7,2.4,2.4,0,0,1,2.2,2.2,2.1,2.1,0,0,1-.7,1.6,2,2,0,0,1-1.5.6,2.1,2.1,0,0,1-2.2-2.2A2,2,0,0,1,432.9,548.8Zm3.2,9.1v18.4h-3.2V557.9Z"/>
          <path class="cls-5" d="M445.9,545.1v31.2h-3.2V545.1Z"/>
          <path class="cls-5" d="M452.6,548.8a2.1,2.1,0,0,1,1.6-.7,2.4,2.4,0,0,1,2.2,2.2,2.1,2.1,0,0,1-.7,1.6,2,2,0,0,1-1.5.6,2.1,2.1,0,0,1-2.2-2.2A2,2,0,0,1,452.6,548.8Zm3.2,9.1v18.4h-3.2V557.9Z"/>
          <path class="cls-5" d="M468.8,557.9v3h-9.2v-3Zm-3-6.4v24.8h-3.2V551.5Z"/>
          <path class="cls-5" d="M474.6,585.1H471l5.1-11.4L469,557.9h3.8l5.9,14.4h-1.3l5.6-14.3h3.6Z"/>
          <path class="cls-5" d="M495.8,573.1l-4.4,10-2.3-.8,3.5-10.4Z"/>
          <path class="cls-5" d="M516,572.4a4.1,4.1,0,0,0,1.4,1.2,6.5,6.5,0,0,0,2.1.4,5.3,5.3,0,0,0,2.6-.6,4.5,4.5,0,0,0,1.9-1.7,4.6,4.6,0,0,0,.7-2.6l.7,2.4a4,4,0,0,1-1.1,2.9,6.8,6.8,0,0,1-2.6,1.8,10.6,10.6,0,0,1-3.1.5,6.7,6.7,0,0,1-3.1-.7,5,5,0,0,1-2.3-2,5.5,5.5,0,0,1-.9-3.2,6.2,6.2,0,0,1,.8-3.1,5.8,5.8,0,0,1,2.5-2.1,9.4,9.4,0,0,1,3.9-.7,10.6,10.6,0,0,1,3.3.4,9,9,0,0,1,2.2,1.1,4.8,4.8,0,0,1,1,.9v1.9a10.5,10.5,0,0,0-2.8-1.4,11.2,11.2,0,0,0-3.2-.4,6,6,0,0,0-2.5.4,3,3,0,0,0-1.5,1.1,3.4,3.4,0,0,0-.5,1.7A3.5,3.5,0,0,0,516,572.4Zm-2.5-12.6a14.1,14.1,0,0,1,2.8-1.5,11.9,11.9,0,0,1,4.4-.8,8.9,8.9,0,0,1,3.8.7,5.4,5.4,0,0,1,2.5,1.9,4.9,4.9,0,0,1,.9,3v13.2h-3.2V563.6a3.5,3.5,0,0,0-.3-1.6,2.2,2.2,0,0,0-.9-1l-1.3-.5-1.6-.2a9.5,9.5,0,0,0-2.5.3l-1.9.8a6.2,6.2,0,0,0-1.2.8Z"/>
          <path class="cls-5" d="M544.7,562.6a3.4,3.4,0,0,0-1.3-1.6,5.1,5.1,0,0,0-4.6.1,4.4,4.4,0,0,0-1.7,1.6,6,6,0,0,0-.5,2.4v11.2h-3.2V557.9h3.2v2.9a5.8,5.8,0,0,1,5.4-3.3,5.9,5.9,0,0,1,5.6,3.4,8.6,8.6,0,0,1,.8,3.8v11.6h-3.2V565.1A6.2,6.2,0,0,0,544.7,562.6Z"/>
          <path class="cls-5" d="M554,562a9.8,9.8,0,0,1,3.4-3.3,8.9,8.9,0,0,1,4.5-1.2,6.8,6.8,0,0,1,3.2.7,7.2,7.2,0,0,1,2.4,1.9,8.6,8.6,0,0,1,1.6,3,12.5,12.5,0,0,1,.5,4,12.2,12.2,0,0,1-.5,4,10.1,10.1,0,0,1-1.6,3.1,8.8,8.8,0,0,1-2.4,1.9,8.3,8.3,0,0,1-3.2.6,10,10,0,0,1-4.5-1.1,9.2,9.2,0,0,1-3.4-3.4,11.4,11.4,0,0,1,0-10.2Zm2.9,8.7a5.7,5.7,0,0,0,2.3,2.3,6.7,6.7,0,0,0,3.1.7,5.2,5.2,0,0,0,2.1-.4,5.9,5.9,0,0,0,1.9-1.3,6.4,6.4,0,0,0,1.4-2.1,7.8,7.8,0,0,0,.5-2.8,8.2,8.2,0,0,0-.5-2.8,7.7,7.7,0,0,0-1.4-2.1,7.6,7.6,0,0,0-1.9-1.2,5.4,5.4,0,0,0-2.1-.5,6.8,6.8,0,0,0-3.1.8,5.4,5.4,0,0,0-2.3,2.2,7.6,7.6,0,0,0,0,7.2Zm14.5-25.6v31.2h-3.2V545.1Z"/>
          <path class="cls-5" d="M21.6,618.5a6.4,6.4,0,0,0,2.2,2.4,7.3,7.3,0,0,0,3.3.8,8,8,0,0,0,2.7-.4,7.3,7.3,0,0,0,2.3-1.3,6.7,6.7,0,0,0,1.4-1.6v4a7,7,0,0,1-2.8,1.7,11.3,11.3,0,0,1-3.6.6,10.2,10.2,0,0,1-4.9-1.2,9.2,9.2,0,0,1-3.4-3.4,10.3,10.3,0,0,1-1.3-5,9.9,9.9,0,0,1,1.3-4.9,8.6,8.6,0,0,1,3.4-3.4,9.2,9.2,0,0,1,4.9-1.3,11.3,11.3,0,0,1,3.6.6,7.1,7.1,0,0,1,2.8,1.8v4a5.5,5.5,0,0,0-1.4-1.7,7.1,7.1,0,0,0-2.3-1.2,8.1,8.1,0,0,0-2.7-.5,6.3,6.3,0,0,0-3.3.9,5.4,5.4,0,0,0-2.2,2.3,7.6,7.6,0,0,0,0,6.8Z"/>
          <path class="cls-5" d="M38.2,610.2a8,8,0,0,1,3.4-3.4,8.6,8.6,0,0,1,4.8-1.3,9.5,9.5,0,0,1,8.3,4.7,9.9,9.9,0,0,1,1.2,4.9,10.3,10.3,0,0,1-1.2,5,10.1,10.1,0,0,1-3.4,3.4,10.2,10.2,0,0,1-4.9,1.2,9.5,9.5,0,0,1-4.8-1.2,8.6,8.6,0,0,1-3.4-3.4,9.3,9.3,0,0,1-1.3-5A9,9,0,0,1,38.2,610.2Zm2.8,8.3a5.6,5.6,0,0,0,2.2,2.4,6.3,6.3,0,0,0,8.7-2.4,7.6,7.6,0,0,0,0-6.8,6.5,6.5,0,0,0-5.5-3.2,5.7,5.7,0,0,0-3.2.9,4.9,4.9,0,0,0-2.2,2.3,6.9,6.9,0,0,0,0,6.8Z"/>
          <path class="cls-5" d="M71.7,610.6a3.4,3.4,0,0,0-1.3-1.6,4.6,4.6,0,0,0-2.1-.5,4.9,4.9,0,0,0-2.5.6,3.5,3.5,0,0,0-1.6,1.6,4.8,4.8,0,0,0-.6,2.4v11.2H60.4V605.9h3.2v2.9a7,7,0,0,1,2.3-2.5,6.6,6.6,0,0,1,3.2-.8,5.8,5.8,0,0,1,3.3.9,6,6,0,0,1,2.2,2.5,8.6,8.6,0,0,1,.8,3.8v11.6H72.2V613.1A6.2,6.2,0,0,0,71.7,610.6Z"/>
          <path class="cls-5" d="M92.8,610.6a4.2,4.2,0,0,0-1.3-1.6,5.3,5.3,0,0,0-4.7.1,4.1,4.1,0,0,0-1.6,1.6,4.8,4.8,0,0,0-.6,2.4v11.2H81.4V605.9h3.2v2.9a7,7,0,0,1,2.3-2.5,6.6,6.6,0,0,1,3.2-.8,6.4,6.4,0,0,1,3.4.9,5.8,5.8,0,0,1,2.1,2.5,7.4,7.4,0,0,1,.8,3.8v11.6H93.2V613.1A6.2,6.2,0,0,0,92.8,610.6Z"/>
          <path class="cls-5" d="M105,623.5a7.7,7.7,0,0,1-3-3.4,10,10,0,0,1-1.1-5,12.3,12.3,0,0,1,.6-3.9,9.1,9.1,0,0,1,1.9-3,7.5,7.5,0,0,1,2.9-2,10.6,10.6,0,0,1,3.7-.7,8.5,8.5,0,0,1,4.6,1.2,7.2,7.2,0,0,1,3,3.2,11.3,11.3,0,0,1,1.1,5.1,4.3,4.3,0,0,0-.1.5v.4H102.9v-2.7h13.2l-1.3,1.8a1.6,1.6,0,0,0,.3-.6c0-.3.1-.5.1-.7a5.1,5.1,0,0,0-.7-2.8,4.7,4.7,0,0,0-1.8-1.9,5,5,0,0,0-2.7-.7,6.6,6.6,0,0,0-2.5.5,5.7,5.7,0,0,0-1.8,1.2,5.5,5.5,0,0,0-1.2,2.1,8.2,8.2,0,0,0-.4,2.8,8.2,8.2,0,0,0,.7,3.7,4.5,4.5,0,0,0,2,2.3,5.5,5.5,0,0,0,3.2.8,7.3,7.3,0,0,0,3.3-.8,5.8,5.8,0,0,0,2.4-2.5l2.6,1.6a8.1,8.1,0,0,1-3.6,3.5,10.4,10.4,0,0,1-5.1,1.2A9,9,0,0,1,105,623.5Z"/>
          <path class="cls-5" d="M125.4,618.5a5.6,5.6,0,0,0,2.2,2.4,6.6,6.6,0,0,0,3.2.8,7.4,7.4,0,0,0,5.1-1.7,6.1,6.1,0,0,0,1.3-1.6v4a6,6,0,0,1-2.7,1.7,11.5,11.5,0,0,1-3.7.6,9.5,9.5,0,0,1-4.8-1.2,8.6,8.6,0,0,1-3.4-3.4,9.3,9.3,0,0,1-1.3-5,9,9,0,0,1,1.3-4.9,8,8,0,0,1,3.4-3.4,8.6,8.6,0,0,1,4.8-1.3,11.5,11.5,0,0,1,3.7.6,6.1,6.1,0,0,1,2.7,1.8v4a5.2,5.2,0,0,0-1.3-1.7,8.4,8.4,0,0,0-2.3-1.2,8.7,8.7,0,0,0-2.8-.5,5.7,5.7,0,0,0-3.2.9,4.9,4.9,0,0,0-2.2,2.3,6.9,6.9,0,0,0,0,6.8Z"/>
          <path class="cls-5" d="M148.7,605.9v3h-9.2v-3Zm-3-6.4v24.8h-3.2V599.5Z"/>
          <path class="cls-5" d="M152.6,596.8a1.8,1.8,0,0,1,1.5-.7,2.1,2.1,0,0,1,1.6.7,2,2,0,0,1,.6,1.5,2.1,2.1,0,0,1-2.2,2.2,2,2,0,0,1-1.5-.6,2.1,2.1,0,0,1-.7-1.6A1.8,1.8,0,0,1,152.6,596.8Zm3.1,9.1v18.4h-3.2V605.9Z"/>
          <path class="cls-5" d="M162.9,605.9l5.2,13,5.2-13h3.6l-8.8,19.8-8.8-19.8Z"/>
          <path class="cls-5" d="M180.6,596.8a2.1,2.1,0,0,1,1.6-.7,2.4,2.4,0,0,1,2.2,2.2,2.1,2.1,0,0,1-.7,1.6,2,2,0,0,1-1.5.6,2.1,2.1,0,0,1-2.2-2.2A2,2,0,0,1,180.6,596.8Zm3.2,9.1v18.4h-3.2V605.9Z"/>
          <path class="cls-5" d="M196.8,605.9v3h-9.2v-3Zm-3-6.4v24.8h-3.2V599.5Z"/>
          <path class="cls-5" d="M202.7,633.1h-3.6l5-11.4-7-15.8h3.8l5.8,14.4h-1.3l5.7-14.3h3.6Z"/>
          <path class="cls-5" d="M237.5,605.9v3h-9.2v-3Zm-1.2-9.8-1.1-.2a1.3,1.3,0,0,0-1,.4,1.7,1.7,0,0,0-.6,1.1,5.8,5.8,0,0,0-.3,2.1v24.8h-3.2V599.1a8,8,0,0,1,.7-3.6,4.6,4.6,0,0,1,1.8-2.1,6.1,6.1,0,0,1,2.8-.7,3.8,3.8,0,0,1,1.6.3,2.3,2.3,0,0,1,1.2.6l.8.7-1.8,2.7A1.9,1.9,0,0,0,236.3,596.1Z"/>
          <path class="cls-5" d="M240.9,610.2a8,8,0,0,1,3.4-3.4,8.6,8.6,0,0,1,4.8-1.3,9,9,0,0,1,4.9,1.3,9.2,9.2,0,0,1,3.4,3.4,9.9,9.9,0,0,1,1.2,4.9,10.3,10.3,0,0,1-1.2,5,10.1,10.1,0,0,1-3.4,3.4,9.9,9.9,0,0,1-4.9,1.2,9.5,9.5,0,0,1-4.8-1.2,8.6,8.6,0,0,1-3.4-3.4,9.3,9.3,0,0,1-1.3-5A9,9,0,0,1,240.9,610.2Zm2.8,8.3a6.4,6.4,0,0,0,2.2,2.4,6.9,6.9,0,0,0,3.2.8,6,6,0,0,0,5.5-3.2,7.6,7.6,0,0,0,0-6.8,6.5,6.5,0,0,0-5.5-3.2,5.9,5.9,0,0,0-3.2.9,5.4,5.4,0,0,0-2.2,2.3,6.9,6.9,0,0,0,0,6.8Z"/>
          <path class="cls-5" d="M266.3,624.3h-3.2V605.9h3.2Zm4.4-15.6-1.3-.2a2.7,2.7,0,0,0-1.9.6,3.2,3.2,0,0,0-1,1.7,15.2,15.2,0,0,0-.2,2.3h-1.5a10.1,10.1,0,0,1,.8-3.9,7.9,7.9,0,0,1,2-2.7,4.7,4.7,0,0,1,2.6-1,5.2,5.2,0,0,1,1.8.3,3.9,3.9,0,0,1,1.6,1l-1.8,2.6Z"/>
          <path class="cls-5" d="M288.7,633.1V605.9h3.2v27.2ZM306,620.2a8.3,8.3,0,0,1-3.3,3.4,9.7,9.7,0,0,1-4.5,1.1,8.3,8.3,0,0,1-3.2-.6,8.8,8.8,0,0,1-2.4-1.9,10.1,10.1,0,0,1-1.6-3.1,12,12,0,0,1-.6-4,12.5,12.5,0,0,1,.6-4,8.6,8.6,0,0,1,1.6-3,7.2,7.2,0,0,1,2.4-1.9,6.8,6.8,0,0,1,3.2-.7A9,9,0,0,1,306,610a10.7,10.7,0,0,1,0,10.2Zm-2.8-8.7a5.4,5.4,0,0,0-2.3-2.2,6.5,6.5,0,0,0-3.1-.8,5.4,5.4,0,0,0-2.1.5,7.6,7.6,0,0,0-1.9,1.2,7.7,7.7,0,0,0-1.4,2.1,8.2,8.2,0,0,0-.5,2.8,7.8,7.8,0,0,0,.5,2.8,6.4,6.4,0,0,0,1.4,2.1,5.9,5.9,0,0,0,1.9,1.3,5.2,5.2,0,0,0,2.1.4,6.4,6.4,0,0,0,3.1-.7,5.7,5.7,0,0,0,2.3-2.3,8.5,8.5,0,0,0,0-7.2Z"/>
          <path class="cls-5" d="M314.3,623.5a8.5,8.5,0,0,1-3.1-3.4,11.2,11.2,0,0,1-1.1-5,10,10,0,0,1,.7-3.9,7.5,7.5,0,0,1,1.8-3,8.4,8.4,0,0,1,2.9-2,11.1,11.1,0,0,1,3.7-.7,8.6,8.6,0,0,1,4.7,1.2,7.2,7.2,0,0,1,3,3.2,11.3,11.3,0,0,1,1,5.1v.9H312.2v-2.7h13.2l-1.3,1.8c.1-.1.1-.3.2-.6a2,2,0,0,0,.1-.7,6.1,6.1,0,0,0-.6-2.8A6.6,6.6,0,0,0,322,609a5.1,5.1,0,0,0-2.8-.7,6,6,0,0,0-2.4.5,6.2,6.2,0,0,0-1.9,1.2,5.3,5.3,0,0,0-1.1,2.1,8.2,8.2,0,0,0-.4,2.8,9.9,9.9,0,0,0,.6,3.7,5.3,5.3,0,0,0,5.2,3.1,7.4,7.4,0,0,0,3.4-.8,7.2,7.2,0,0,0,2.4-2.5l2.6,1.6a9.2,9.2,0,0,1-3.6,3.5,10.8,10.8,0,0,1-5.2,1.2A8.4,8.4,0,0,1,314.3,623.5Z"/>
          <path class="cls-5" d="M332,610.2a9.5,9.5,0,0,1,8.3-4.7,8.6,8.6,0,0,1,4.8,1.3,8,8,0,0,1,3.4,3.4,9,9,0,0,1,1.3,4.9,9.3,9.3,0,0,1-1.3,5,8.6,8.6,0,0,1-3.4,3.4,9.5,9.5,0,0,1-4.8,1.2,10.2,10.2,0,0,1-4.9-1.2,10.1,10.1,0,0,1-3.4-3.4,10.3,10.3,0,0,1-1.2-5A9.9,9.9,0,0,1,332,610.2Zm2.8,8.3a6.5,6.5,0,0,0,8.7,2.4,5.6,5.6,0,0,0,2.2-2.4,6.9,6.9,0,0,0,0-6.8,4.9,4.9,0,0,0-2.2-2.3,6.4,6.4,0,0,0-8.7,2.3,7.6,7.6,0,0,0,0,6.8Z"/>
          <path class="cls-5" d="M354,633.1V605.9h3.2v27.2Zm17.4-12.9a8.3,8.3,0,0,1-3.3,3.4,10.1,10.1,0,0,1-4.6,1.1,7.8,7.8,0,0,1-3.1-.6,7.9,7.9,0,0,1-2.5-1.9,9.9,9.9,0,0,1-1.5-3.1,12,12,0,0,1-.6-4,12.5,12.5,0,0,1,.6-4,8.4,8.4,0,0,1,1.5-3,6.7,6.7,0,0,1,2.5-1.9,6.4,6.4,0,0,1,3.1-.7,9,9,0,0,1,4.6,1.2,8.7,8.7,0,0,1,3.3,3.3,11.4,11.4,0,0,1,0,10.2Zm-2.9-8.7a5.2,5.2,0,0,0-2.2-2.2,6.9,6.9,0,0,0-3.2-.8,5.4,5.4,0,0,0-2.1.5,10,10,0,0,0-1.9,1.2,7.4,7.4,0,0,0-1.3,2.1,6.4,6.4,0,0,0-.6,2.8,6.1,6.1,0,0,0,.6,2.8,6.2,6.2,0,0,0,1.3,2.1,7.2,7.2,0,0,0,1.9,1.3,5.2,5.2,0,0,0,2.1.4,6.8,6.8,0,0,0,3.2-.7,5.4,5.4,0,0,0,2.2-2.3,7.7,7.7,0,0,0,0-7.2Z"/>
          <path class="cls-5" d="M380.3,593.1v31.2h-3.2V593.1Z"/>
          <path class="cls-5" d="M388.9,623.5a8.5,8.5,0,0,1-3.1-3.4,11.2,11.2,0,0,1-1.1-5,10,10,0,0,1,.7-3.9,7.5,7.5,0,0,1,1.8-3,8.4,8.4,0,0,1,2.9-2,11.1,11.1,0,0,1,3.7-.7,8.6,8.6,0,0,1,4.7,1.2,7.2,7.2,0,0,1,3,3.2,11.3,11.3,0,0,1,1,5.1v.9H386.8v-2.7H400l-1.3,1.8c.1-.1.1-.3.2-.6a2,2,0,0,0,.1-.7,6.1,6.1,0,0,0-.6-2.8,6.6,6.6,0,0,0-1.8-1.9,5.1,5.1,0,0,0-2.8-.7,6,6,0,0,0-2.4.5,6.2,6.2,0,0,0-1.9,1.2,5.3,5.3,0,0,0-1.1,2.1,8.2,8.2,0,0,0-.4,2.8,9.9,9.9,0,0,0,.6,3.7,5.3,5.3,0,0,0,5.2,3.1,7.4,7.4,0,0,0,3.4-.8,7.2,7.2,0,0,0,2.4-2.5l2.6,1.6a9.2,9.2,0,0,1-3.6,3.5,10.8,10.8,0,0,1-5.2,1.2A8.4,8.4,0,0,1,388.9,623.5Z"/>
          <path class="cls-5" d="M420.9,620.4a4.1,4.1,0,0,0,1.4,1.2,6.5,6.5,0,0,0,2.1.4,6,6,0,0,0,2.7-.6,4.2,4.2,0,0,0,1.8-1.7,4.6,4.6,0,0,0,.7-2.6l.7,2.4a4,4,0,0,1-1.1,2.9,6.1,6.1,0,0,1-2.6,1.8,10.5,10.5,0,0,1-3,.5,6.8,6.8,0,0,1-3.2-.7,5.6,5.6,0,0,1-3.2-5.2,5.4,5.4,0,0,1,.9-3.1,5.5,5.5,0,0,1,2.4-2.1,9.4,9.4,0,0,1,3.9-.7,10.2,10.2,0,0,1,3.3.4,7.5,7.5,0,0,1,2.2,1.1l1.1.9v1.9a12.8,12.8,0,0,0-2.9-1.4,11.2,11.2,0,0,0-3.2-.4,6,6,0,0,0-2.5.4,3,3,0,0,0-1.5,1.1,3.4,3.4,0,0,0-.5,1.7A3.5,3.5,0,0,0,420.9,620.4Zm-2.5-12.6a15.4,15.4,0,0,1,2.9-1.5,11,11,0,0,1,4.3-.8,8.9,8.9,0,0,1,3.8.7,5.4,5.4,0,0,1,2.5,1.9,4.9,4.9,0,0,1,.9,3v13.2h-3.2V611.6a3.5,3.5,0,0,0-.3-1.6,2.2,2.2,0,0,0-.9-1l-1.3-.5-1.6-.2a10.1,10.1,0,0,0-2.5.3l-1.8.8a6.2,6.2,0,0,0-1.2.8Z"/>
          <path class="cls-5" d="M449.6,610.6a2.9,2.9,0,0,0-1.3-1.6,4.6,4.6,0,0,0-2.1-.5,4.9,4.9,0,0,0-2.5.6,4.1,4.1,0,0,0-1.6,1.6,4.8,4.8,0,0,0-.6,2.4v11.2h-3.2V605.9h3.2v2.9a7,7,0,0,1,2.3-2.5,6.6,6.6,0,0,1,3.2-.8,5.8,5.8,0,0,1,3.3.9,5.4,5.4,0,0,1,2.2,2.5,8.6,8.6,0,0,1,.8,3.8v11.6h-3.2V613.1A6.2,6.2,0,0,0,449.6,610.6Z"/>
          <path class="cls-5" d="M459,610a8.7,8.7,0,0,1,3.3-3.3,8.9,8.9,0,0,1,4.5-1.2,6.8,6.8,0,0,1,3.2.7,7.2,7.2,0,0,1,2.4,1.9,8.6,8.6,0,0,1,1.6,3,12.5,12.5,0,0,1,.6,4,12,12,0,0,1-.6,4,10.1,10.1,0,0,1-1.6,3.1,8.8,8.8,0,0,1-2.4,1.9,8.3,8.3,0,0,1-3.2.6,10,10,0,0,1-4.5-1.1,8.3,8.3,0,0,1-3.3-3.4,10.7,10.7,0,0,1,0-10.2Zm2.8,8.7a6.3,6.3,0,0,0,2.3,2.3,6.7,6.7,0,0,0,3.1.7,5.2,5.2,0,0,0,2.1-.4,5,5,0,0,0,1.9-1.3,5.2,5.2,0,0,0,1.4-2.1,6.1,6.1,0,0,0,.5-2.8,6.4,6.4,0,0,0-.5-2.8,6,6,0,0,0-1.4-2.1,6.2,6.2,0,0,0-1.9-1.2,5.4,5.4,0,0,0-2.1-.5,6.8,6.8,0,0,0-3.1.8,6,6,0,0,0-2.3,2.2,8.5,8.5,0,0,0,0,7.2Zm14.5-25.6v31.2h-3.2V593.1Z"/>
          <path class="cls-5" d="M493.8,610a9.8,9.8,0,0,1,3.4-3.3,8.9,8.9,0,0,1,4.5-1.2,6.8,6.8,0,0,1,3.2.7,7.2,7.2,0,0,1,2.4,1.9,8.6,8.6,0,0,1,1.6,3,12.5,12.5,0,0,1,.5,4,12.2,12.2,0,0,1-.5,4,10.1,10.1,0,0,1-1.6,3.1,8.8,8.8,0,0,1-2.4,1.9,8.3,8.3,0,0,1-3.2.6,10,10,0,0,1-4.5-1.1,9.2,9.2,0,0,1-3.4-3.4,11.4,11.4,0,0,1,0-10.2Zm2.4,15.5a4.5,4.5,0,0,0,.7,2.5,5.3,5.3,0,0,0,2.1,1.8,5.9,5.9,0,0,0,3.1.7,5.4,5.4,0,0,0,2.7-.7,4.7,4.7,0,0,0,2.3-2.1,7.1,7.1,0,0,0,.9-3.8v-18h3.2v18a9.7,9.7,0,0,1-1.3,5.3,9.1,9.1,0,0,1-7.8,4.3,10.6,10.6,0,0,1-4.8-1,7.9,7.9,0,0,1-3.2-2.8,8.2,8.2,0,0,1-1.1-4.2Zm.5-6.8A5.7,5.7,0,0,0,499,621a6.7,6.7,0,0,0,3.1.7,5.2,5.2,0,0,0,2.1-.4,5.9,5.9,0,0,0,1.9-1.3,6.4,6.4,0,0,0,1.4-2.1,7.8,7.8,0,0,0,.5-2.8,8.2,8.2,0,0,0-.5-2.8,7.7,7.7,0,0,0-1.4-2.1,7.6,7.6,0,0,0-1.9-1.2,5.4,5.4,0,0,0-2.1-.5,6.8,6.8,0,0,0-3.1.8,5.4,5.4,0,0,0-2.3,2.2,7.6,7.6,0,0,0,0,7.2Z"/>
          <path class="cls-5" d="M516.7,610.2a8.6,8.6,0,0,1,3.4-3.4,9.2,9.2,0,0,1,4.9-1.3,8.6,8.6,0,0,1,4.8,1.3,8,8,0,0,1,3.4,3.4,9,9,0,0,1,1.3,4.9,9.3,9.3,0,0,1-1.3,5,8.6,8.6,0,0,1-3.4,3.4,9.5,9.5,0,0,1-4.8,1.2,10.2,10.2,0,0,1-4.9-1.2,9.2,9.2,0,0,1-3.4-3.4,10.3,10.3,0,0,1-1.3-5A9.9,9.9,0,0,1,516.7,610.2Zm2.8,8.3a5.7,5.7,0,0,0,5.5,3.2,6.9,6.9,0,0,0,3.2-.8,7.3,7.3,0,0,0,2.2-9.2,5.4,5.4,0,0,0-2.2-2.3,5.9,5.9,0,0,0-3.2-.9,6.3,6.3,0,0,0-3.3.9,6.1,6.1,0,0,0-2.2,2.3,7.6,7.6,0,0,0,0,6.8Z"/>
          <path class="cls-5" d="M538.6,610.2a8.6,8.6,0,0,1,3.4-3.4,8.9,8.9,0,0,1,4.8-1.3,8.8,8.8,0,0,1,4.9,1.3,8.6,8.6,0,0,1,3.4,3.4,9.9,9.9,0,0,1,1.3,4.9,10.3,10.3,0,0,1-1.3,5,9.2,9.2,0,0,1-3.4,3.4,9.6,9.6,0,0,1-4.9,1.2,9.8,9.8,0,0,1-4.8-1.2,9.5,9.5,0,0,1-4.7-8.4A9,9,0,0,1,538.6,610.2Zm2.8,8.3a6.4,6.4,0,0,0,2.2,2.4,6.9,6.9,0,0,0,3.2.8,7.3,7.3,0,0,0,3.3-.8,7.3,7.3,0,0,0,2.2-9.2,5.4,5.4,0,0,0-2.2-2.3,6.3,6.3,0,0,0-3.3-.9,5.9,5.9,0,0,0-3.2.9,5.4,5.4,0,0,0-2.2,2.3,7.6,7.6,0,0,0,0,6.8Z"/>
          <path class="cls-5" d="M560.4,610a9.8,9.8,0,0,1,3.4-3.3,8.9,8.9,0,0,1,4.5-1.2,6.8,6.8,0,0,1,3.2.7,7.2,7.2,0,0,1,2.4,1.9,8.6,8.6,0,0,1,1.6,3,12.5,12.5,0,0,1,.5,4,12.2,12.2,0,0,1-.5,4,10.1,10.1,0,0,1-1.6,3.1,8.8,8.8,0,0,1-2.4,1.9,8.3,8.3,0,0,1-3.2.6,10,10,0,0,1-4.5-1.1,9.2,9.2,0,0,1-3.4-3.4,11.4,11.4,0,0,1,0-10.2Zm2.9,8.7a5.7,5.7,0,0,0,2.3,2.3,6.7,6.7,0,0,0,3.1.7,5.2,5.2,0,0,0,2.1-.4,5.9,5.9,0,0,0,1.9-1.3,6.4,6.4,0,0,0,1.4-2.1,7.8,7.8,0,0,0,.5-2.8,8.2,8.2,0,0,0-.5-2.8,7.7,7.7,0,0,0-1.4-2.1,7.6,7.6,0,0,0-1.9-1.2,5.4,5.4,0,0,0-2.1-.5,6.8,6.8,0,0,0-3.1.8,5.4,5.4,0,0,0-2.3,2.2,7.6,7.6,0,0,0,0,7.2Zm14.5-25.6v31.2h-3.2V593.1Z"/>
          <path class="cls-5" d="M585.7,620.2a6.1,6.1,0,0,0,1.6,1.2,5.2,5.2,0,0,0,2.1.4,3.3,3.3,0,0,0,2.1-.6,1.9,1.9,0,0,0,.8-1.7,2.1,2.1,0,0,0-.6-1.6,4,4,0,0,0-1.6-1.2l-2-.8a13.4,13.4,0,0,1-2.4-1.2,6.8,6.8,0,0,1-2.1-1.7,4.7,4.7,0,0,1,.1-5.4,5.2,5.2,0,0,1,2.2-1.6,9.3,9.3,0,0,1,2.9-.5,7.6,7.6,0,0,1,2.7.5,5.8,5.8,0,0,1,2.3,1.3,5.5,5.5,0,0,1,1.6,1.8l-2.6,1.7a6.6,6.6,0,0,0-1.9-1.8,5.1,5.1,0,0,0-2.5-.6,3.4,3.4,0,0,0-1.8.4,1.6,1.6,0,0,0-.7,1.4,1.6,1.6,0,0,0,.6,1.2,5,5,0,0,0,1.4,1l1.9.9,2.9,1.4a6,6,0,0,1,2.1,1.7,4.6,4.6,0,0,1,.8,2.7,5.7,5.7,0,0,1-.8,2.9,6.4,6.4,0,0,1-2.3,2,6.7,6.7,0,0,1-3.3.7,8.8,8.8,0,0,1-3.3-.6,9.2,9.2,0,0,1-2.5-1.7,6.2,6.2,0,0,1-1.5-2.2l2.5-1.5A9.3,9.3,0,0,0,585.7,620.2Z"/>
        </g>
        <g id="Layer_1-2-2" data-name="Layer 1-2">
          <circle class="cls-6" cx="306.2" cy="160.4" r="83.4"/>
          <g id="Layer_2-2" data-name="Layer 2-2">
            <g id="Layer_1-2-2-2" data-name="Layer 1-2-2">
              <g class="cls-7">
                <g>
                  <path class="cls-2" d="M318.3,165.4l.4.2a1.9,1.9,0,0,0,2.6-.4h0l1.3-1.8a1.9,1.9,0,0,0-.5-2.6h0l-.4-.3a1.8,1.8,0,0,0-2.6.5h0l-1.2,1.8a1.9,1.9,0,0,0,.4,2.6"/>
                  <path class="cls-2" d="M329.2,165.2l-.4.2a1.8,1.8,0,0,1-2.6-.5h0l-1.3-1.7a1.9,1.9,0,0,1,.5-2.7h0l.4-.2a1.9,1.9,0,0,1,2.6.4h0l1.2,1.8a2,2,0,0,1-.4,2.7h0"/>
                  <path class="cls-2" d="M327.4,159.6h1.1a1.7,1.7,0,0,1,1.5,1.9v7.1a1.8,1.8,0,0,1-1.5,1.9h-1.1a1.8,1.8,0,0,1-1.5-1.9v-7.1a1.7,1.7,0,0,1,1.5-1.9"/>
                  <path class="cls-2" d="M319.1,162.6h1c.9,0,1.6.6,1.5,1.3v10.5a1.5,1.5,0,0,1-1.5,1.4h-1a1.6,1.6,0,0,1-1.6-1.4V163.9a1.5,1.5,0,0,1,1.6-1.3"/>
                  <path class="cls-2" d="M324.3,163.8h-1.1a4,4,0,0,1-4-4V149.6a4,4,0,0,1,4-4h1.1a4,4,0,0,1,4,4v10.2a4,4,0,0,1-4,4"/>
                  <g>
                    <path class="cls-8" d="M324.4,159.9v4.5a.6.6,0,0,1-.7.6.6.6,0,0,1-.6-.6v-4.5a.6.6,0,0,1,.7-.6h0a.5.5,0,0,1,.6.6"/>
                    <path class="cls-9" d="M323.8,165.5h-.2a1.2,1.2,0,0,1-1-1v-4.6a1.3,1.3,0,0,1,.4-.9,1,1,0,0,1,.9-.2,1.1,1.1,0,0,1,1,1h0v4.5A1,1,0,0,1,323.8,165.5Zm0-5.8a.2.2,0,0,0-.2.2v4.5h.3v-4.7Z"/>
                  </g>
                  <path class="cls-2" d="M323.8,159.2h0a.7.7,0,0,1,.6.7v4.5a.6.6,0,0,1-.6.6h-.1a.6.6,0,0,1-.6-.6v-4.5c0-.4.3-.6.7-.7m0-.5h0a1.1,1.1,0,0,0-1.2,1.1v4.7a1.2,1.2,0,0,0,1.1,1.1h.1a1.1,1.1,0,0,0,1.1-1.1v-4.7a1.1,1.1,0,0,0-1-1Z"/>
                  <path class="cls-2" d="M314,159h0c.9.5,1.9.3,2.9-.8a25.4,25.4,0,0,0,4.5-8c.5-1.4.1-2.4-.8-2.9h0a1.7,1.7,0,0,0-2.5,1.1,25,25,0,0,1-4.4,7.8,1.7,1.7,0,0,0,.3,2.8"/>
                  <path class="cls-2" d="M333.4,159h0c-.9.5-2,.3-3-.8a25.4,25.4,0,0,1-4.5-8c-.5-1.4-.1-2.4.8-2.9h0a1.7,1.7,0,0,1,2.5,1.1,25,25,0,0,0,4.4,7.8c1,1.2.7,2.2-.2,2.8"/>
                  <path class="cls-2" d="M321.5,152l1.4-.4a1.9,1.9,0,0,0,1.2-2.4l-.7-2.1a1.9,1.9,0,0,0-2.4-1.2l-1.4.5a1.9,1.9,0,0,0-1.2,2.4l.7,2a1.9,1.9,0,0,0,2.4,1.2"/>
                  <path class="cls-2" d="M324.2,151.3l1.1.6a1.9,1.9,0,0,0,2.6-.9l.9-1.9a1.8,1.8,0,0,0-.9-2.5l-1.1-.6a1.8,1.8,0,0,0-2.5.8l-1,2a1.8,1.8,0,0,0,.9,2.5"/>
                  <path class="cls-2" d="M323.8,163.3h0a1.6,1.6,0,0,1,1.5,1.6v16.4a1.6,1.6,0,0,1-1.5,1.6,1.5,1.5,0,0,1-1.6-1.4h0V164.9a1.6,1.6,0,0,1,1.6-1.6"/>
                  <g>
                    <path class="cls-8" d="M323.8,163.3h0a1.6,1.6,0,0,1,1.5,1.6v16.4a1.6,1.6,0,0,1-1.5,1.6,1.5,1.5,0,0,1-1.6-1.4h0V164.9a1.6,1.6,0,0,1,1.6-1.6Z"/>
                    <path class="cls-9" d="M323.7,183.4a2.1,2.1,0,0,1-2-1.9V164.9a2.1,2.1,0,0,1,2.1-2.1h0a2,2,0,0,1,2,2v16.5a2,2,0,0,1-1.9,2.1Zm.1-19.6a1.1,1.1,0,0,0-1.1,1.1v16.5a1.1,1.1,0,1,0,2.1-.1V164.9a1.1,1.1,0,0,0-1-1.1Z"/>
                  </g>
                  <path class="cls-2" d="M327.4,142.3a3.8,3.8,0,1,1-7.5,0,3.7,3.7,0,0,1,3.7-3.7h0a3.7,3.7,0,0,1,3.8,3.7"/>
                  <g>
                    <path class="cls-8" d="M328,139.9c0,2,.6,1.2-4.4,1.2s-4.3.8-4.3-1.2,1.9-3.5,4.3-3.5,4.4,1.6,4.4,3.5"/>
                    <path class="cls-9" d="M319.9,141.8a1.4,1.4,0,0,1-.9-.3c-.3-.3-.2-.6-.2-1.2v-.4c0-2.2,2.1-4,4.8-4s4.9,1.8,4.9,4v.5c.1.5.1.8-.2,1.1s-.7.3-1.7.2h-6.7Zm-.1-1h7.8a.8.8,0,0,0-.1-.4v-.5c0-1.6-1.7-3-3.9-3s-3.8,1.4-3.8,3v.9Z"/>
                  </g>
                  <path class="cls-10" d="M323.7,136.4c2.4,0,4.4,1.6,4.4,3.5s.1,1.4-.7,1.4H320c-.8,0-.7-.2-.7-1.4s1.9-3.5,4.4-3.5m0-.5c-2.8,0-4.9,1.8-4.9,4v.4a2,2,0,0,0,.2,1.2,1.7,1.7,0,0,0,1,.3h7.5a1.1,1.1,0,0,0,.8-.3c.3-.3.3-.6.3-1.1v-.5c0-2.2-2.2-4-4.9-4Z"/>
                  <path class="cls-2" d="M332.1,159.4H315.4a.7.7,0,0,1-.7-.6c0-.4.2-.7.6-.7h16.8c.4,0,.6.3.6.7a.6.6,0,0,1-.6.6"/>
                  <g>
                    <path class="cls-8" d="M315.4,159.7a1.1,1.1,0,0,1-1-.9,1,1,0,0,1,.9-1h16.8a1,1,0,1,1,.1,1.9H315.4Z"/>
                    <path class="cls-9" d="M332.1,160.2H315.5a1.5,1.5,0,0,1-1.6-1.4,1.4,1.4,0,0,1,.4-1,1.2,1.2,0,0,1,1-.5h16.8a1.9,1.9,0,0,1,1,.3,1.9,1.9,0,0,1,.5,1,1.6,1.6,0,0,1-1.4,1.6Zm-16.7-1h16.7v0c.2,0,.4-.3.4-.5s-.3-.4-.5-.4H315.4v0l-.3.2a1,1,0,0,0-.1.3.7.7,0,0,0,.5.4Z"/>
                  </g>
                  <path class="cls-8" d="M332.1,158.1c.4,0,.6.3.6.7a.6.6,0,0,1-.6.6H315.4a.7.7,0,0,1-.7-.6c0-.4.2-.7.6-.7h16.8m0-.5H315.4a1.2,1.2,0,1,0-.1,2.3h16.8a1.2,1.2,0,0,0,1.1-1.2A1.2,1.2,0,0,0,332.1,157.6Z"/>
                </g>
              </g>
            </g>
          </g>
          <g>
            <rect class="cls-8" x="294.1" y="161" width="8.2" height="21.52" rx="4"/>
            <path class="cls-9" d="M298.2,183h-.1a4.5,4.5,0,0,1-4.5-4.5V165a4.5,4.5,0,0,1,4.5-4.5h.1a4.5,4.5,0,0,1,4.5,4.5v13.5A4.5,4.5,0,0,1,298.2,183Zm-.1-21.5a3.5,3.5,0,0,0-3.5,3.5v13.5a3.4,3.4,0,0,0,3.5,3.5h.1a3.5,3.5,0,0,0,3.5-3.5V165a3.5,3.5,0,0,0-3.5-3.5Z"/>
          </g>
          <g>
            <rect class="cls-8" x="247.9" y="161" width="8.2" height="21.52" rx="4"/>
            <path class="cls-9" d="M252,183h-.1a4.5,4.5,0,0,1-4.5-4.5V165a4.5,4.5,0,0,1,4.5-4.5h.1a4.5,4.5,0,0,1,4.5,4.5v13.5A4.5,4.5,0,0,1,252,183Zm-.1-21.5a3.5,3.5,0,0,0-3.5,3.5v13.5a3.4,3.4,0,0,0,3.5,3.5h.1a3.5,3.5,0,0,0,3.5-3.5V165a3.5,3.5,0,0,0-3.5-3.5Z"/>
          </g>
          <g>
            <rect class="cls-8" x="244.2" y="150.3" width="8.7" height="5.21" rx="2.6"/>
            <path class="cls-9" d="M250.3,156h-3.5a3.1,3.1,0,0,1-3.1-3.1,3.1,3.1,0,0,1,3.1-3.1h3.5a3.1,3.1,0,0,1,3.1,3.1h0A3.1,3.1,0,0,1,250.3,156Zm-3.5-5.2a2.1,2.1,0,0,0-2.1,2.1,2.1,2.1,0,0,0,2.1,2.1h3.5a2.2,2.2,0,0,0,2.1-2.1h0a2.1,2.1,0,0,0-2.1-2.1Z"/>
          </g>
          <g>
            <rect class="cls-8" x="297.2" y="150.2" width="8.7" height="5.2" rx="2.6"/>
            <path class="cls-9" d="M303.3,156h-3.5a3.2,3.2,0,0,1,0-6.3h3.5a3.1,3.1,0,0,1,3.1,3.1h0A3.1,3.1,0,0,1,303.3,156Zm-3.5-5.3a2.1,2.1,0,0,0-2.1,2.1,2.1,2.1,0,0,0,2.1,2.2h3.5a2.2,2.2,0,0,0,2.1-2.1h0a2.2,2.2,0,0,0-2.1-2.1Z"/>
          </g>
          <path class="cls-2" d="M278.8,154.9a1.6,1.6,0,0,1-1.5-1.5v-3.5c0-.2.2-2.6,7.3-2.6s7.5,2.4,7.5,2.6v3.5a1.6,1.6,0,0,1-1.5,1.5Z"/>
          <path class="cls-2" d="M284.6,147.6c7.1,0,7.1,2.3,7.1,2.3v3.4a1.1,1.1,0,0,1-1.1,1.2H278.8a1.3,1.3,0,0,1-1.2-1.1h0v-3.4s0-2.3,7-2.3m0-.6c-3,0-5.2.4-6.4,1.2a2.3,2.3,0,0,0-1.2,1.7v3.4a1.9,1.9,0,0,0,1.7,1.9h11.8a1.9,1.9,0,0,0,1.9-1.8h0v-3.4a2.3,2.3,0,0,0-1.2-1.7c-1.3-.8-3.5-1.2-6.5-1.2Z"/>
          <circle class="cls-2" cx="284.7" cy="144" r="4.4"/>
          <path class="cls-2" d="M284.7,139.9a4.1,4.1,0,0,1,4.1,4.1,4.2,4.2,0,0,1-4.2,4.1,4.1,4.1,0,0,1-4-4.1,4.1,4.1,0,0,1,4.1-4.1h0m0-.6a4.7,4.7,0,1,0,0,9.4,4.7,4.7,0,0,0,4.7-4.7h0A4.7,4.7,0,0,0,284.7,139.3Z"/>
          <path class="cls-2" d="M259.9,154.9a1.5,1.5,0,0,1-1.5-1.5v-3.5c0-.2.2-2.6,7.3-2.6s7.4,2.4,7.4,2.6v3.5a1.5,1.5,0,0,1-1.4,1.5Z"/>
          <path class="cls-2" d="M265.7,147.6c7,0,7,2.3,7,2.3v3.4a1,1,0,0,1-1.1,1.2H259.9a1.1,1.1,0,0,1-1.2-1.1h0v-3.4s0-2.3,7-2.3m0-.6c-3,0-5.2.4-6.5,1.2a2.1,2.1,0,0,0-1.1,1.7v3.4a1.7,1.7,0,0,0,1.7,1.9h11.8a1.9,1.9,0,0,0,1.8-1.8v-3.5a2.3,2.3,0,0,0-1.2-1.7c-1.3-.8-3.5-1.2-6.5-1.2Z"/>
          <circle class="cls-2" cx="265.7" cy="144" r="4.4"/>
          <path class="cls-2" d="M265.7,139.9a4.1,4.1,0,0,1,4.1,4.1,4.1,4.1,0,0,1-8.2,0h0a4.1,4.1,0,0,1,4.1-4.1h0m0-.6A4.7,4.7,0,0,0,261,144a4.8,4.8,0,0,0,4.8,4.7,4.7,4.7,0,1,0-.1-9.4Z"/>
          <g>
            <path class="cls-8" d="M302.2,166.7v-5.1a21.1,21.1,0,0,0-1.8-8.6c-1.5-3.4-4.6-9.9-6-13.3a9.1,9.1,0,0,0-7.5-5.3c-4.3-.3-7.2-.4-12-.4s-7.5.2-11.7.4a8.8,8.8,0,0,0-7.5,5.3l-6,13.3a21.1,21.1,0,0,0-1.8,8.6v5.1a8,8,0,0,0,.9,3.6c2,4,6.4,5.1,7.1,5.3a92.7,92.7,0,0,0,38.3,0c.6-.2,5.8-1.3,7.5-5.7A7,7,0,0,0,302.2,166.7ZM295,149.2c-.6,3.8-18.3,3.8-20.2,3.8s-19.1-.2-19.7-3.8a1.4,1.4,0,0,1,.1-.9c3.7-8.6,2.2-5.7,3.7-8.6a4.7,4.7,0,0,1,3.9-2.5c3.7-.3,7.7-.4,12-.4s8.6.1,12.5.4a5,5,0,0,1,3.9,2.5c1.4,2.9,0,0,3.7,8.6a2.8,2.8,0,0,1,.1.9Z"/>
            <path class="cls-9" d="M275,178.1a88.9,88.9,0,0,1-19.2-2.1,10.9,10.9,0,0,1-7.5-5.5,8.5,8.5,0,0,1-.9-3.8v-5.1a22,22,0,0,1,1.8-8.8l6-13.3a9.5,9.5,0,0,1,8-5.6c4.2-.2,7-.4,11.7-.4s7.9.2,12,.4a9.4,9.4,0,0,1,7.9,5.6l3.3,7.3c1.1,2.3,2.1,4.4,2.8,6a22,22,0,0,1,1.8,8.8v5a7,7,0,0,1-.6,3.5c-1.7,4.5-6.8,5.7-7.8,5.9a88.9,88.9,0,0,1-19.2,2.1Zm-.1-43.6c-4.7,0-7.5.2-11.7.4a8.1,8.1,0,0,0-7,5l-6.1,13.3a20,20,0,0,0-1.7,8.4v5.1a7.6,7.6,0,0,0,.8,3.3c1.8,3.7,5.7,4.8,6.8,5.1a93.6,93.6,0,0,0,19,2h.1a94.3,94.3,0,0,0,19-2c.5-.1,5.5-1.2,7.1-5.3a6.7,6.7,0,0,0,.5-3.1v-5.1a21.7,21.7,0,0,0-1.7-8.4l-2.8-6c-1.2-2.7-2.5-5.4-3.3-7.3a8.2,8.2,0,0,0-7.1-5C282.7,134.6,279.8,134.5,274.9,134.5Zm.2,19h-.3c-5.9,0-19.6-.4-20.2-4.3a2.2,2.2,0,0,1,.1-1.1c1.9-4.3,2.4-5.7,2.7-6.4a16,16,0,0,1,1-2.2,5.5,5.5,0,0,1,4.4-2.8c4-.3,8-.4,12-.4s8.5.1,12.5.4a5.2,5.2,0,0,1,4.3,2.8,10.7,10.7,0,0,1,1.1,2.2c.2.7.8,2.1,2.6,6.4a2.5,2.5,0,0,1,.2,1.2h0C294.8,153.1,281.3,153.5,275.1,153.5Zm-.3-16.2c-4,0-8,.1-11.9.4a4.4,4.4,0,0,0-3.6,2.2l-1,2.1c-.2.7-.8,2.2-2.6,6.5a1.1,1.1,0,0,0-.1.5c.4,2.5,10.5,3.5,19.5,3.5s19-1.1,19.4-3.4h0a1.3,1.3,0,0,0-.1-.6l-2.7-6.5a6.9,6.9,0,0,0-1-2.1,4.3,4.3,0,0,0-3.5-2.2C283.2,137.4,279,137.3,274.8,137.3Z"/>
          </g>
          <circle class="cls-2" cx="256" cy="163.2" r="2.9"/>
          <circle class="cls-2" cx="294.1" cy="163.2" r="2.9"/>
          <g id="person">
            <path class="cls-2" d="M355.2,164.2H354a4.3,4.3,0,0,1-4.2-4.4V148.5a4.3,4.3,0,0,1,4.2-4.4h1.2a4.5,4.5,0,0,1,4.2,4.4v11.3a4.5,4.5,0,0,1-4.2,4.4"/>
            <path class="cls-2" d="M346.4,160.3c1.1.3,2.1-.2,2.3-1.7.5-3.2,1.5-7.8,3.1-10.5s.1-2.5-.9-2.8h0c-1-.4-2.1,0-2.8,1.4s-2.7,7.5-3.1,10.8c-.2,1.6.3,2.5,1.4,2.8h0"/>
            <path class="cls-2" d="M362.7,160.3h0c1-.3,1.6-1.2,1.4-2.8a33.5,33.5,0,0,0-3.1-10.8c-.7-1.4-1.8-1.8-2.8-1.4h0a1.8,1.8,0,0,0-.9,2.8c1.6,2.7,2.6,7.3,3.1,10.5.2,1.6,1.2,2.1,2.3,1.7"/>
            <path class="cls-2" d="M352.2,150.9l1.5-.5a1.9,1.9,0,0,0,1.2-2.5l-.7-2.2a2,2,0,0,0-2.6-1.2l-1.5.5a2,2,0,0,0-1.2,2.5l.8,2.2a1.9,1.9,0,0,0,2.5,1.2"/>
            <path class="cls-2" d="M356.8,150.9a2,2,0,0,0,2.6-1.2l.7-2.2a2.1,2.1,0,0,0-1.2-2.5l-1.5-.5a2,2,0,0,0-2.5,1.2l-.8,2.2a1.9,1.9,0,0,0,1.3,2.5l1.5.5"/>
            <path class="cls-2" d="M358.4,140.7a4,4,0,1,1-3.9-4h0a4,4,0,0,1,3.9,4h0"/>
            <path class="cls-2" d="M351.4,156.8h1c.9,0,1.6,1.1,1.6,2.6v20.4c0,1.4-.3,2.6-1.2,2.6h-1.1a2.6,2.6,0,0,1-2-2.6V159.4c0-1.5.8-2.6,1.7-2.6"/>
            <path class="cls-2" d="M356.7,156.8h1.1c.9,0,1.6,1.1,1.6,2.6v20.4c0,1.4-.4,2.6-1.3,2.6h-1a2.6,2.6,0,0,1-2-2.6V159.4c0-1.5.7-2.6,1.6-2.6"/>
          </g>
          <rect class="cls-2" x="244.2" y="182.4" width="122.5" height="2.78"/>
        </g>
      </g>
    </g>
  </g>
</svg>
