<svg xmlns="http://www.w3.org/2000/svg" xmlns:xlink="http://www.w3.org/1999/xlink" viewBox="0 0 612.3 648">
  <defs>
    <style>
      .cls-1 {
        fill: none;
      }

      .cls-2 {
        fill: #fff;
      }

      .cls-3 {
        fill: #f2f2f2;
      }

      .cls-4 {
        fill: #ffcf41;
      }

      .cls-5 {
        fill: #4c4c4c;
      }

      .cls-6 {
        fill: #27427c;
      }

      .cls-7 {
        clip-path: url(#clip-path);
      }

      .cls-8 {
        fill: #213e70;
      }

      .cls-9 {
        fill: #27437d;
      }

      .cls-10 {
        opacity: 0.3;
        isolation: isolate;
      }
    </style>
    <clipPath id="clip-path">
      <circle class="cls-1" cx="306.2" cy="160.4" r="83.4"/>
    </clipPath>
  </defs>
  <title>Asset 40</title>
  <g id="Layer_2" data-name="Layer 2">
    <g id="Layer_1-2" data-name="Layer 1">
      <g>
        <g>
          <rect class="cls-2" width="612.3" height="648" rx="8"/>
          <g>
            <path class="cls-3" d="M0,481.5V639.2C0,644,3.3,648,7.3,648H605c4,0,7.3-4,7.3-8.8V481.5Z"/>
            <path class="cls-4" d="M612.3,8.8C612.3,4,609,0,605,0H7.3C3.3,0,0,4,0,8.8V39.5H612.3Z"/>
          </g>
        </g>
        <g>
          <path class="cls-5" d="M69.5,311.9a13.4,13.4,0,0,0,3.4,2.6,8.2,8.2,0,0,0,4,1,7.3,7.3,0,0,0,3-.6,4.9,4.9,0,0,0,1.9-1.6,4.4,4.4,0,0,0,.7-2.6,4.4,4.4,0,0,0-1-3,7.1,7.1,0,0,0-2.8-2.1,46.8,46.8,0,0,0-4.6-1.9l-3.3-1.5a15.6,15.6,0,0,1-3.6-2.3,12,12,0,0,1-2.8-3.5,10.4,10.4,0,0,1-1.1-4.9,10.1,10.1,0,0,1,1.8-6,11.8,11.8,0,0,1,4.8-3.9,16.7,16.7,0,0,1,6.9-1.4,16.9,16.9,0,0,1,6.6,1.3,13.9,13.9,0,0,1,4.7,3.4,15.5,15.5,0,0,1,3,4l-6.5,3.8a18.9,18.9,0,0,0-2-2.7,7.9,7.9,0,0,0-2.6-1.9,7.1,7.1,0,0,0-3.2-.7,5.4,5.4,0,0,0-2.7.5,3.4,3.4,0,0,0-1.7,1.4,3.5,3.5,0,0,0-.5,1.8,3.7,3.7,0,0,0,.6,2.1,4.6,4.6,0,0,0,1.7,1.7,17.7,17.7,0,0,0,2.8,1.5l4,1.5a26.4,26.4,0,0,1,3.8,1.8,12,12,0,0,1,3.3,2.5,10.1,10.1,0,0,1,2.3,3.5,11.4,11.4,0,0,1,.9,4.6,10.8,10.8,0,0,1-1.2,5.2,10.2,10.2,0,0,1-3.2,3.9,15.8,15.8,0,0,1-4.6,2.5,18.4,18.4,0,0,1-5.3.8,17.4,17.4,0,0,1-6.9-1.4,15.9,15.9,0,0,1-5.6-3.8,17.8,17.8,0,0,1-3.8-5.3l6-4.2A24.4,24.4,0,0,0,69.5,311.9Z"/>
          <path class="cls-5" d="M102.6,315.3a3.7,3.7,0,0,0,1.5,1.3,5.6,5.6,0,0,0,2.3.4,6.7,6.7,0,0,0,3.1-.7,5.5,5.5,0,0,0,2.3-2,5.8,5.8,0,0,0,.9-3.3l.9,3.5a6.9,6.9,0,0,1-1.4,4.3,9.9,9.9,0,0,1-3.7,2.6,14.5,14.5,0,0,1-4.7.8,10,10,0,0,1-4.6-1,7.7,7.7,0,0,1-4.7-7.4,8.4,8.4,0,0,1,1.2-4.5,7,7,0,0,1,3.6-2.9,13.4,13.4,0,0,1,5.6-1,20.3,20.3,0,0,1,4.5.4,17.5,17.5,0,0,1,3.3,1.3,8.4,8.4,0,0,1,1.9,1.4v3.6a8.8,8.8,0,0,0-3.5-1.7,14,14,0,0,0-4.1-.6,9.8,9.8,0,0,0-2.8.4,3,3,0,0,0-1.6,1.2,2.9,2.9,0,0,0-.6,1.9A3.4,3.4,0,0,0,102.6,315.3Zm-6.3-17.9a44.2,44.2,0,0,1,5.1-2.1,20.5,20.5,0,0,1,6.7-1,16.6,16.6,0,0,1,6.1,1,9.2,9.2,0,0,1,4.2,2.8,7.3,7.3,0,0,1,1.6,4.6v19h-7.3V304.4a4.9,4.9,0,0,0-.4-1.9,3.5,3.5,0,0,0-1.1-1.3,4.5,4.5,0,0,0-1.7-.8l-2.2-.2a13.4,13.4,0,0,0-3.5.4,16.3,16.3,0,0,0-2.9,1,7.4,7.4,0,0,0-1.8.9Z"/>
          <path class="cls-5" d="M140.7,295v6.4H123.9V295Zm-2.1-12.2a3.3,3.3,0,0,0-1.5-.3,2.4,2.4,0,0,0-1.4.5,2.2,2.2,0,0,0-1,1.4,7.6,7.6,0,0,0-.4,2.5v34.8H127V285.1a11.7,11.7,0,0,1,1.1-5.2,7.1,7.1,0,0,1,3.2-3.2,11.3,11.3,0,0,1,5.1-1.1,9.7,9.7,0,0,1,3.1.4,11.3,11.3,0,0,1,2.2,1.1l1.5,1.2-3.3,5.7A2.9,2.9,0,0,0,138.6,282.8Z"/>
          <path class="cls-5" d="M149.5,320.5a11.1,11.1,0,0,1-5-4.8,14.7,14.7,0,0,1-1.8-7.4,15.7,15.7,0,0,1,1-5.8,11.7,11.7,0,0,1,2.9-4.4,12.8,12.8,0,0,1,4.5-2.8,18.9,18.9,0,0,1,6-.9,15.4,15.4,0,0,1,7.5,1.6,11.2,11.2,0,0,1,4.8,4.6,15.6,15.6,0,0,1,1.7,7.4c0,.4-.1.7-.1,1.1s-.1.6-.1.8H147v-4.5h17.3l-2.1,2.6a2.3,2.3,0,0,0,.5-1,1.8,1.8,0,0,0,.2-1,6.7,6.7,0,0,0-.7-3.3,6.1,6.1,0,0,0-2-2.2,6.6,6.6,0,0,0-3.2-.8,7.8,7.8,0,0,0-2.8.5,5,5,0,0,0-2.2,1.6,9.7,9.7,0,0,0-1.3,2.7,12.8,12.8,0,0,0-.4,3.6,11.8,11.8,0,0,0,.7,4.5,7,7,0,0,0,2.4,2.9,6.4,6.4,0,0,0,3.7,1,8.3,8.3,0,0,0,4.3-1,6.8,6.8,0,0,0,2.9-2.9l6.6,2.1a12.9,12.9,0,0,1-5.5,5.6,16.2,16.2,0,0,1-8.3,1.9A15.2,15.2,0,0,1,149.5,320.5Z"/>
          <path class="cls-5" d="M189.2,295v6.4H172.6V295Zm-4.7-9.3v36h-7.3v-36Z"/>
          <path class="cls-5" d="M200.6,334.4h-7.8l6.7-15.4-11.1-24h8.4l8.5,21.2h-3.7l8.5-21.1H218Z"/>
          <path class="cls-5" d="M243.3,315.3a3.7,3.7,0,0,0,1.5,1.3,5.6,5.6,0,0,0,2.3.4,6.7,6.7,0,0,0,3.1-.7,5.5,5.5,0,0,0,2.3-2,5.8,5.8,0,0,0,.9-3.3l.9,3.5a6.9,6.9,0,0,1-1.4,4.3,9.9,9.9,0,0,1-3.7,2.6,14.5,14.5,0,0,1-4.7.8,10,10,0,0,1-4.6-1,7.7,7.7,0,0,1-4.7-7.4,8.4,8.4,0,0,1,1.2-4.5,7,7,0,0,1,3.6-2.9,13.4,13.4,0,0,1,5.6-1,20.3,20.3,0,0,1,4.5.4,17.5,17.5,0,0,1,3.3,1.3,8.4,8.4,0,0,1,1.9,1.4v3.6a8.8,8.8,0,0,0-3.5-1.7,14,14,0,0,0-4.1-.6,9.8,9.8,0,0,0-2.8.4,3,3,0,0,0-1.6,1.2,2.9,2.9,0,0,0-.6,1.9A3.4,3.4,0,0,0,243.3,315.3ZM237,297.4a44.2,44.2,0,0,1,5.1-2.1,20.5,20.5,0,0,1,6.7-1,16.6,16.6,0,0,1,6.1,1,9.2,9.2,0,0,1,4.2,2.8,6.8,6.8,0,0,1,1.6,4.6v19h-7.3V304.4a4.9,4.9,0,0,0-.4-1.9,3.5,3.5,0,0,0-1.1-1.3,4.5,4.5,0,0,0-1.7-.8l-2.2-.2a13.4,13.4,0,0,0-3.5.4,16.3,16.3,0,0,0-2.9,1,7.4,7.4,0,0,0-1.8.9Z"/>
          <path class="cls-5" d="M283.8,302.4a3.7,3.7,0,0,0-1.4-1.8,5.3,5.3,0,0,0-2.6-.6,5.7,5.7,0,0,0-2.7.6,5,5,0,0,0-1.9,1.9,5.4,5.4,0,0,0-.7,2.9v16.3h-7.6V295h7.6v4a8.8,8.8,0,0,1,3.2-3.4,9.6,9.6,0,0,1,4.9-1.2,10,10,0,0,1,5.2,1.2,7.6,7.6,0,0,1,3.1,3.5,13.1,13.1,0,0,1,1.1,5.5v17.1h-7.8V305.4A9.5,9.5,0,0,0,283.8,302.4Z"/>
          <path class="cls-5" d="M298.8,300.7a12.4,12.4,0,0,1,11-6.3,11.4,11.4,0,0,1,4.6.9,12.5,12.5,0,0,1,3.7,2.8,12.3,12.3,0,0,1,2.3,4.4,19.1,19.1,0,0,1,0,11.6,11.5,11.5,0,0,1-2.3,4.4,12.5,12.5,0,0,1-3.7,2.8,11.4,11.4,0,0,1-4.6.9,12.4,12.4,0,0,1-11-6.3,16.9,16.9,0,0,1,0-15.2Zm7,11.7A7.3,7.3,0,0,0,312,316a5.3,5.3,0,0,0,2.4-.6,7.9,7.9,0,0,0,2.3-1.4,7.8,7.8,0,0,0,1.6-2.4,8.1,8.1,0,0,0,0-6.6,6.3,6.3,0,0,0-1.6-2.3,6.5,6.5,0,0,0-2.3-1.5,5.2,5.2,0,0,0-2.4-.5,7.4,7.4,0,0,0-3.6.9,6.5,6.5,0,0,0-2.6,2.6,7.8,7.8,0,0,0-1,4.1A7.6,7.6,0,0,0,305.8,312.4Zm20.7-36v45.3H319V276.4Z"/>
          <path class="cls-5" d="M356.9,311.9a11.9,11.9,0,0,0,3.4,2.6,7.9,7.9,0,0,0,4,1,6.5,6.5,0,0,0,2.9-.6,4.6,4.6,0,0,0,2-1.6,5.3,5.3,0,0,0,.7-2.6,4.4,4.4,0,0,0-1-3,7.9,7.9,0,0,0-2.8-2.1c-1.2-.6-2.8-1.2-4.6-1.9l-3.3-1.5a13.8,13.8,0,0,1-3.6-2.3,12,12,0,0,1-2.8-3.5,9.4,9.4,0,0,1-1.1-4.9,10.8,10.8,0,0,1,1.7-6,12.9,12.9,0,0,1,4.9-3.9,16.5,16.5,0,0,1,6.8-1.4,17,17,0,0,1,6.7,1.3,13.9,13.9,0,0,1,4.7,3.4,15.5,15.5,0,0,1,3,4l-6.5,3.8a18.9,18.9,0,0,0-2-2.7,7.9,7.9,0,0,0-2.6-1.9,7.2,7.2,0,0,0-3.3-.7,5.9,5.9,0,0,0-2.7.5,3.6,3.6,0,0,0-1.6,1.4,2.7,2.7,0,0,0-.5,1.8,4.6,4.6,0,0,0,.5,2.1,5.9,5.9,0,0,0,1.8,1.7,17.7,17.7,0,0,0,2.8,1.5l4,1.5a26.4,26.4,0,0,1,3.8,1.8,15.9,15.9,0,0,1,3.3,2.5,11.8,11.8,0,0,1,2.3,3.5,11.4,11.4,0,0,1,.9,4.6,10.8,10.8,0,0,1-1.2,5.2,11.2,11.2,0,0,1-3.2,3.9,15.8,15.8,0,0,1-4.6,2.5,18.9,18.9,0,0,1-5.3.8,18.2,18.2,0,0,1-7-1.4,17.9,17.9,0,0,1-5.6-3.8,19.5,19.5,0,0,1-3.7-5.3l6-4.2A24.4,24.4,0,0,0,356.9,311.9Z"/>
          <path class="cls-5" d="M389,320.5a12.2,12.2,0,0,1-5-4.8,14.7,14.7,0,0,1-1.8-7.4,18.1,18.1,0,0,1,1-5.8,13,13,0,0,1,2.9-4.4,13.7,13.7,0,0,1,4.5-2.8,19.1,19.1,0,0,1,6.1-.9,16,16,0,0,1,7.5,1.6,11,11,0,0,1,4.7,4.6,15.6,15.6,0,0,1,1.7,7.4,4.1,4.1,0,0,1-.1,1.1v.8H386.6v-4.5h17.3l-2.1,2.6a4.6,4.6,0,0,0,.5-1,3.6,3.6,0,0,0,.2-1,6.7,6.7,0,0,0-.8-3.3,4.7,4.7,0,0,0-2-2.2,6.2,6.2,0,0,0-3.1-.8,8.4,8.4,0,0,0-2.9.5,4.7,4.7,0,0,0-2.1,1.6,7.5,7.5,0,0,0-1.3,2.7,12.5,12.5,0,0,0-.5,3.6,10.1,10.1,0,0,0,.8,4.5,6.1,6.1,0,0,0,2.3,2.9,6.7,6.7,0,0,0,3.8,1,8.2,8.2,0,0,0,4.2-1,7,7,0,0,0,3-2.9l6.6,2.1a14.1,14.1,0,0,1-5.5,5.6,16.7,16.7,0,0,1-8.3,1.9A15.6,15.6,0,0,1,389,320.5Z"/>
          <path class="cls-5" d="M422.4,312.4a8.1,8.1,0,0,0,2.8,2.7,7.9,7.9,0,0,0,3.8.9,9.7,9.7,0,0,0,3.4-.5,7.3,7.3,0,0,0,2.9-1.5,5.9,5.9,0,0,0,2-2.2v7.7a8.9,8.9,0,0,1-3.6,2,18.5,18.5,0,0,1-12.8-1,12.6,12.6,0,0,1-5.3-4.9,14.3,14.3,0,0,1,0-14.6,12.6,12.6,0,0,1,5.3-4.9,17.4,17.4,0,0,1,7.7-1.7,16.1,16.1,0,0,1,5.1.7,10.3,10.3,0,0,1,3.6,2v7.7a5.9,5.9,0,0,0-2-2.2,14,14,0,0,0-3-1.5,9.6,9.6,0,0,0-3.3-.6,7,7,0,0,0-3.8,1.1,7.5,7.5,0,0,0-2.8,2.8,7.1,7.1,0,0,0-1,3.9A7.8,7.8,0,0,0,422.4,312.4Z"/>
          <path class="cls-5" d="M451.5,314.1a3.5,3.5,0,0,0,1.4,1.9,3.9,3.9,0,0,0,2.5.7,6.1,6.1,0,0,0,2.8-.7,4.4,4.4,0,0,0,1.9-1.9,5.4,5.4,0,0,0,.7-2.9V295h7.5v26.7h-7.5v-4.1a7.8,7.8,0,0,1-3.3,3.4,9.1,9.1,0,0,1-4.9,1.2,10.5,10.5,0,0,1-5.2-1.2,7.6,7.6,0,0,1-3.1-3.5,13.5,13.5,0,0,1-1.1-5.5V295h7.9v16.2A8.5,8.5,0,0,0,451.5,314.1Z"/>
          <path class="cls-5" d="M482.5,321.7h-7.4V295h7.4Zm6.3-19.9a3.8,3.8,0,0,0-1.9-.4,3.6,3.6,0,0,0-2.4.8,4.1,4.1,0,0,0-1.5,2.1,10.4,10.4,0,0,0-.5,3.3l-2.1-2.2a12.5,12.5,0,0,1,1.2-5.6,11.8,11.8,0,0,1,3.2-4,7.2,7.2,0,0,1,4.1-1.4,8.7,8.7,0,0,1,2.8.5,5.7,5.7,0,0,1,2.1,1.5l-3.5,6.5A4.8,4.8,0,0,0,488.8,301.8Z"/>
          <path class="cls-5" d="M498.1,281.6a4.3,4.3,0,0,1,3.1-1.2,4.8,4.8,0,0,1,3.3,1.2,4.2,4.2,0,0,1,1.3,3,4.4,4.4,0,0,1-1.3,3.1,4.8,4.8,0,0,1-3.3,1.2,4.3,4.3,0,0,1-3.1-1.2,4,4,0,0,1-1.3-3.1A3.8,3.8,0,0,1,498.1,281.6Zm6.7,13.4v26.7h-7.2V295Z"/>
          <path class="cls-5" d="M525.3,295v6.4H508.7V295Zm-4.7-9.3v36h-7.3v-36Z"/>
          <path class="cls-5" d="M536.7,334.4h-7.8l6.7-15.4-11.1-24h8.4l8.5,21.2h-3.7l8.5-21.1h7.9Z"/>
        </g>
        <g>
          <path class="cls-5" d="M18.9,508.5a16.2,16.2,0,0,1,3.1-4.6,14.1,14.1,0,0,1,4.6-3,15.8,15.8,0,0,1,11.6,0,14.1,14.1,0,0,1,4.6,3,16.2,16.2,0,0,1,3.1,4.6,17.3,17.3,0,0,1,0,11.6,14.9,14.9,0,0,1-3.1,4.6,12.1,12.1,0,0,1-4.6,3.1,14,14,0,0,1-5.8,1.1,13.6,13.6,0,0,1-5.8-1.1,12.1,12.1,0,0,1-4.6-3.1,14.9,14.9,0,0,1-3.1-4.6,17.3,17.3,0,0,1,0-11.6Zm4.7,9.8a9.4,9.4,0,0,0,1.9,3.2,9.2,9.2,0,0,0,3.1,2,9.2,9.2,0,0,0,3.8.8,9.6,9.6,0,0,0,3.8-.8,7.9,7.9,0,0,0,3-2,9.6,9.6,0,0,0,2-3.2,10.2,10.2,0,0,0,.7-4,10.9,10.9,0,0,0-.7-4,8.9,8.9,0,0,0-1.9-3.1,9.5,9.5,0,0,0-3.1-2.1,9.2,9.2,0,0,0-3.8-.7,9.2,9.2,0,0,0-3.8.7,9.5,9.5,0,0,0-3.1,2.1,8.9,8.9,0,0,0-1.9,3.1,10.9,10.9,0,0,0-.7,4A10.2,10.2,0,0,0,23.6,518.3Z"/>
          <path class="cls-5" d="M55.4,528.3H51.1V497.1h4.3Zm14-4a8.7,8.7,0,0,1-3.3,3.3,9.3,9.3,0,0,1-4.4,1.1,8.3,8.3,0,0,1-3.2-.6,7.5,7.5,0,0,1-2.4-1.9,10.3,10.3,0,0,1-1.7-3.1,12.2,12.2,0,0,1-.5-4,12.5,12.5,0,0,1,.5-4,8.7,8.7,0,0,1,1.7-3,6.3,6.3,0,0,1,2.4-1.9,6.8,6.8,0,0,1,3.2-.7,8.3,8.3,0,0,1,4.4,1.2,7.8,7.8,0,0,1,3.3,3.2,11,11,0,0,1,0,10.4Zm-4-8.3a4.8,4.8,0,0,0-2-2,5,5,0,0,0-2.7-.7,4.1,4.1,0,0,0-1.9.4,4.5,4.5,0,0,0-1.7,1.1,5.7,5.7,0,0,0-1.2,1.8,7,7,0,0,0-.5,2.5,6.2,6.2,0,0,0,.5,2.5,5.2,5.2,0,0,0,1.2,1.9,6.2,6.2,0,0,0,1.7,1.1,5.8,5.8,0,0,0,1.9.4,6,6,0,0,0,2.7-.7,6.4,6.4,0,0,0,2-2,6.6,6.6,0,0,0,.8-3.2A5.9,5.9,0,0,0,65.4,516Z"/>
          <path class="cls-5" d="M71.9,533a1.8,1.8,0,0,0,1.1.3,2,2,0,0,0,1.1-.3,1.7,1.7,0,0,0,.6-1.1,9,9,0,0,0,.2-1.8V509.9h4.3v21a9.1,9.1,0,0,1-.7,3.5,5.8,5.8,0,0,1-2.1,2.3,6.3,6.3,0,0,1-3.2.7,5,5,0,0,1-1.8-.2,4,4,0,0,1-1.3-.7,2.2,2.2,0,0,1-1-.9l2-3.3A1.8,1.8,0,0,0,71.9,533ZM75,500.7a2.6,2.6,0,0,1,1.9-.7,2.9,2.9,0,0,1,2,.7,2.9,2.9,0,0,1,0,3.8,2.9,2.9,0,0,1-2,.7,2.6,2.6,0,0,1-1.9-.7,2.7,2.7,0,0,1,0-3.8Z"/>
          <path class="cls-5" d="M88.2,527.5a8.7,8.7,0,0,1-3.3-3.3,10.7,10.7,0,0,1-1.2-5.1,12.3,12.3,0,0,1,.7-3.9,9.2,9.2,0,0,1,2-3.1,9.1,9.1,0,0,1,3-1.9,9.7,9.7,0,0,1,3.9-.7,10.9,10.9,0,0,1,5,1.1,7.6,7.6,0,0,1,3.1,3.3,9.7,9.7,0,0,1,1.1,5v1.2H86.3v-3H98.8L97.4,519l.3-.7a1.9,1.9,0,0,0,.2-.7,5.1,5.1,0,0,0-.6-2.5,4.4,4.4,0,0,0-1.6-1.7,4.8,4.8,0,0,0-2.4-.6,5.1,5.1,0,0,0-2.2.4,6.1,6.1,0,0,0-1.6,1.2,4.9,4.9,0,0,0-1,1.9,10.3,10.3,0,0,0-.4,2.7,8.1,8.1,0,0,0,.6,3.3,4.6,4.6,0,0,0,1.8,2.1,5.1,5.1,0,0,0,2.8.8,6.2,6.2,0,0,0,3.1-.8,5.2,5.2,0,0,0,2.2-2.2l3.8,1.5a9.9,9.9,0,0,1-3.8,3.8,11.5,11.5,0,0,1-5.5,1.2A9.6,9.6,0,0,1,88.2,527.5Z"/>
          <path class="cls-5" d="M110.3,522.2a5.3,5.3,0,0,0,2.1,2.1,5.7,5.7,0,0,0,2.9.7,6.9,6.9,0,0,0,2.5-.4,7,7,0,0,0,2.1-1.1,5.2,5.2,0,0,0,1.4-1.6v4.7a6.1,6.1,0,0,1-2.6,1.6,13.6,13.6,0,0,1-3.6.5,10.7,10.7,0,0,1-5.1-1.2,9,9,0,0,1-3.6-3.4,10.3,10.3,0,0,1,0-10,9.8,9.8,0,0,1,8.7-4.6,10.5,10.5,0,0,1,3.6.6,6,6,0,0,1,2.6,1.5v4.8a4.6,4.6,0,0,0-1.4-1.7,10.3,10.3,0,0,0-2.1-1.1,10.9,10.9,0,0,0-2.5-.4,5.7,5.7,0,0,0-2.9.8,5.3,5.3,0,0,0-2.1,2.1,6,6,0,0,0-.7,3A6.2,6.2,0,0,0,110.3,522.2Z"/>
          <path class="cls-5" d="M134,509.9v3.8H123.5v-3.8Zm-3.1-6.4v24.8h-4.3V503.5Z"/>
          <path class="cls-5" d="M137.6,500.7a2.6,2.6,0,0,1,1.9-.7,2.6,2.6,0,1,1,0,5.2,2.6,2.6,0,0,1-1.9-.7,2.7,2.7,0,0,1,0-3.8Zm4.1,9.2v18.4h-4.3V509.9Z"/>
          <path class="cls-5" d="M149.6,509.9l4.8,11.9,4.8-11.9h4.7L154.4,530l-9.6-20.1Z"/>
          <path class="cls-5" d="M169.7,527.5a8.7,8.7,0,0,1-3.3-3.3,10.6,10.6,0,0,1-1.1-5.1,12.3,12.3,0,0,1,.6-3.9,9.2,9.2,0,0,1,2-3.1,9.1,9.1,0,0,1,3-1.9,10,10,0,0,1,3.9-.7,10.9,10.9,0,0,1,5,1.1,7.6,7.6,0,0,1,3.1,3.3,9.7,9.7,0,0,1,1.2,5c0,.3-.1.5-.1.7v.5H167.8v-3h12.5l-1.4,1.9.3-.7a1.9,1.9,0,0,0,.2-.7,5.1,5.1,0,0,0-.6-2.5,4.4,4.4,0,0,0-1.6-1.7,4.8,4.8,0,0,0-2.4-.6,5.4,5.4,0,0,0-2.2.4,6.1,6.1,0,0,0-1.6,1.2,6.7,6.7,0,0,0-1,1.9,10.3,10.3,0,0,0-.4,2.7,6.7,6.7,0,0,0,.7,3.3,3.9,3.9,0,0,0,1.7,2.1,5.1,5.1,0,0,0,2.8.8,5.9,5.9,0,0,0,3.1-.8,5.2,5.2,0,0,0,2.2-2.2l3.8,1.5a9.9,9.9,0,0,1-3.8,3.8,11.5,11.5,0,0,1-5.5,1.2A9.9,9.9,0,0,1,169.7,527.5Z"/>
          <path class="cls-5" d="M189.6,509.2a2.8,2.8,0,0,1,4.8,2,2.4,2.4,0,0,1-.8,1.9,2.7,2.7,0,0,1-4,0,2.7,2.7,0,0,1-.8-1.9A2.8,2.8,0,0,1,189.6,509.2Zm0,15.1a2.9,2.9,0,0,1,4,0,2.4,2.4,0,0,1,.8,2,2.4,2.4,0,0,1-.8,1.9,2.7,2.7,0,0,1-4,0,2.7,2.7,0,0,1-.8-1.9A2.8,2.8,0,0,1,189.6,524.3Z"/>
          <path class="cls-5" d="M22.9,548.3v28H19.5v-28Zm-1.5,0h5.7a12.6,12.6,0,0,1,4.9,1,8.8,8.8,0,0,1,3.4,2.9,8.4,8.4,0,0,1,0,9,8.8,8.8,0,0,1-3.4,2.9,11,11,0,0,1-4.9,1H21.4v-3h5.7a7.9,7.9,0,0,0,3.2-.6,5.1,5.1,0,0,0,2.2-1.9,5.2,5.2,0,0,0,.8-2.9,5.5,5.5,0,0,0-.8-2.9,4.9,4.9,0,0,0-2.2-1.8,6.6,6.6,0,0,0-3.2-.7H21.4Zm6.9,14.2,10,13.8H34.1l-9.6-13.8Z"/>
          <path class="cls-5" d="M44.4,575.5a7.3,7.3,0,0,1-3.1-3.4,10,10,0,0,1-1.1-5,12.3,12.3,0,0,1,.6-3.9,9.1,9.1,0,0,1,1.9-3,8.4,8.4,0,0,1,2.9-2,10.6,10.6,0,0,1,3.7-.7,8.9,8.9,0,0,1,4.7,1.2,7.5,7.5,0,0,1,2.9,3.2A11.3,11.3,0,0,1,58,567v.5a1,1,0,0,0-.1.4H42.2v-2.7H55.4L54.1,567a1.6,1.6,0,0,0,.3-.6,2,2,0,0,0,.1-.7,5.1,5.1,0,0,0-.7-2.8A4.7,4.7,0,0,0,52,561a5,5,0,0,0-2.7-.7,7,7,0,0,0-2.5.5A5.7,5.7,0,0,0,45,562a7.2,7.2,0,0,0-1.2,2.1,8.2,8.2,0,0,0-.4,2.8,8.2,8.2,0,0,0,.7,3.7,4.5,4.5,0,0,0,2,2.3,5.5,5.5,0,0,0,3.2.8,7,7,0,0,0,3.3-.8,6.7,6.7,0,0,0,2.5-2.5l2.6,1.6a8.8,8.8,0,0,1-3.7,3.5,10.1,10.1,0,0,1-5.1,1.2A8.4,8.4,0,0,1,44.4,575.5Z"/>
          <path class="cls-5" d="M62.1,562a8.7,8.7,0,0,1,3.3-3.3,8.9,8.9,0,0,1,4.5-1.2,6.8,6.8,0,0,1,3.2.7,7.2,7.2,0,0,1,2.4,1.9,8.6,8.6,0,0,1,1.6,3,12.5,12.5,0,0,1,.6,4,12,12,0,0,1-.6,4,10.1,10.1,0,0,1-1.6,3.1,8.8,8.8,0,0,1-2.4,1.9,8.3,8.3,0,0,1-3.2.6,10,10,0,0,1-4.5-1.1,8.3,8.3,0,0,1-3.3-3.4,10.7,10.7,0,0,1,0-10.2Zm2.8,8.7a6.3,6.3,0,0,0,2.3,2.3,6.7,6.7,0,0,0,3.1.7,5.2,5.2,0,0,0,2.1-.4,5.9,5.9,0,0,0,1.9-1.3,6.4,6.4,0,0,0,1.4-2.1,7.8,7.8,0,0,0,.5-2.8,8.2,8.2,0,0,0-.5-2.8,7.7,7.7,0,0,0-1.4-2.1,7.6,7.6,0,0,0-1.9-1.2,5.4,5.4,0,0,0-2.1-.5,6.8,6.8,0,0,0-3.1.8,6,6,0,0,0-2.3,2.2,8.5,8.5,0,0,0,0,7.2Zm14.5-25.6v31.2H76.2V545.1Z"/>
          <path class="cls-5" d="M88.9,571.6a3.4,3.4,0,0,0,1.3,1.6,5.1,5.1,0,0,0,4.6-.1,3.7,3.7,0,0,0,1.7-1.6,4.8,4.8,0,0,0,.6-2.4V557.9h3.2v18.4H97.1v-2.9a7,7,0,0,1-2.3,2.5,6.6,6.6,0,0,1-3.2.8,6.4,6.4,0,0,1-3.4-.9,6,6,0,0,1-2.2-2.5,8.6,8.6,0,0,1-.7-3.8V557.9h3.2v11.2A6.2,6.2,0,0,0,88.9,571.6Z"/>
          <path class="cls-5" d="M108.6,570.5a5.6,5.6,0,0,0,2.2,2.4,6.6,6.6,0,0,0,3.2.8,7.4,7.4,0,0,0,5.1-1.7,6.1,6.1,0,0,0,1.3-1.6v4a6,6,0,0,1-2.7,1.7,11.5,11.5,0,0,1-3.7.6,9.5,9.5,0,0,1-4.8-1.2,8.6,8.6,0,0,1-3.4-3.4,9.3,9.3,0,0,1-1.3-5,9,9,0,0,1,1.3-4.9,8,8,0,0,1,3.4-3.4,8.6,8.6,0,0,1,4.8-1.3,11.5,11.5,0,0,1,3.7.6,6.1,6.1,0,0,1,2.7,1.8v4a5.2,5.2,0,0,0-1.3-1.7,8.4,8.4,0,0,0-2.3-1.2,8.7,8.7,0,0,0-2.8-.5,5.7,5.7,0,0,0-3.2.9,4.9,4.9,0,0,0-2.2,2.3,6.9,6.9,0,0,0,0,6.8Z"/>
          <path class="cls-5" d="M128,575.5a7.7,7.7,0,0,1-3-3.4,10,10,0,0,1-1.1-5,12.3,12.3,0,0,1,.6-3.9,9.1,9.1,0,0,1,1.9-3,7.5,7.5,0,0,1,2.9-2,10.6,10.6,0,0,1,3.7-.7,8.5,8.5,0,0,1,4.6,1.2,7.2,7.2,0,0,1,3,3.2,11.3,11.3,0,0,1,1.1,5.1,4.3,4.3,0,0,0-.1.5v.4H125.9v-2.7h13.2l-1.3,1.8a1.6,1.6,0,0,0,.3-.6c0-.3.1-.5.1-.7a5.1,5.1,0,0,0-.7-2.8,4.7,4.7,0,0,0-1.8-1.9,5,5,0,0,0-2.7-.7,6.6,6.6,0,0,0-2.5.5,5.7,5.7,0,0,0-1.8,1.2,5.5,5.5,0,0,0-1.2,2.1,8.2,8.2,0,0,0-.4,2.8,8.2,8.2,0,0,0,.7,3.7,4.5,4.5,0,0,0,2,2.3,5.5,5.5,0,0,0,3.2.8,7.3,7.3,0,0,0,3.3-.8,5.8,5.8,0,0,0,2.4-2.5l2.6,1.6a8.1,8.1,0,0,1-3.6,3.5,10.4,10.4,0,0,1-5.1,1.2A9,9,0,0,1,128,575.5Z"/>
          <path class="cls-5" d="M164.5,557.9v3h-9.2v-3Zm-3-6.4v24.8h-3.2V551.5Z"/>
          <path class="cls-5" d="M171,576.3h-3.2V545.1H171Zm8.1-13.7a3.4,3.4,0,0,0-1.3-1.6,4.3,4.3,0,0,0-2.1-.5,4.9,4.9,0,0,0-2.5.6,3.7,3.7,0,0,0-1.6,1.7,4.4,4.4,0,0,0-.6,2.3h-1.1a8.6,8.6,0,0,1,.9-3.9,6.7,6.7,0,0,1,2.3-2.7,6.2,6.2,0,0,1,3.4-1,7.3,7.3,0,0,1,3.3.8,6.4,6.4,0,0,1,2.2,2.4,9.5,9.5,0,0,1,.8,4v11.6h-3.2V565.1A6.2,6.2,0,0,0,179.1,562.6Z"/>
          <path class="cls-5" d="M191.4,575.5a7.9,7.9,0,0,1-3.1-3.4,11.2,11.2,0,0,1-1.1-5,10,10,0,0,1,.7-3.9,7.5,7.5,0,0,1,1.8-3,8.4,8.4,0,0,1,2.9-2,11.1,11.1,0,0,1,3.7-.7,8.9,8.9,0,0,1,4.7,1.2,7.2,7.2,0,0,1,3,3.2,11.3,11.3,0,0,1,1,5.1v.9H189.3v-2.7h13.2l-1.3,1.8c.1-.1.1-.3.2-.6a2,2,0,0,0,.1-.7,6.1,6.1,0,0,0-.6-2.8,6.6,6.6,0,0,0-1.8-1.9,5.1,5.1,0,0,0-2.8-.7,6,6,0,0,0-2.4.5A5.2,5.2,0,0,0,192,562a5.3,5.3,0,0,0-1.1,2.1,8.2,8.2,0,0,0-.4,2.8,9.9,9.9,0,0,0,.6,3.7,5.3,5.3,0,0,0,5.2,3.1,7.4,7.4,0,0,0,3.4-.8,7.2,7.2,0,0,0,2.4-2.5l2.6,1.6a9.2,9.2,0,0,1-3.6,3.5,10.8,10.8,0,0,1-5.2,1.2A8.4,8.4,0,0,1,191.4,575.5Z"/>
          <path class="cls-5" d="M232.9,562.6a3.6,3.6,0,0,0-1.4-1.6,4.6,4.6,0,0,0-2.1-.5,4.9,4.9,0,0,0-2.5.6,4.1,4.1,0,0,0-1.6,1.6,4.8,4.8,0,0,0-.6,2.4v11.2h-3.2V557.9h3.2v2.9a7,7,0,0,1,2.3-2.5,6.6,6.6,0,0,1,3.2-.8,5.8,5.8,0,0,1,3.3.9,5.4,5.4,0,0,1,2.2,2.5,8.6,8.6,0,0,1,.8,3.8v11.6h-3.2V565.1A8.7,8.7,0,0,0,232.9,562.6Z"/>
          <path class="cls-5" d="M246.2,571.6a3.4,3.4,0,0,0,1.3,1.6,5.1,5.1,0,0,0,4.6-.1,3.7,3.7,0,0,0,1.7-1.6,6,6,0,0,0,.5-2.4V557.9h3.2v18.4h-3.2v-2.9a6,6,0,0,1-2.2,2.5,6.9,6.9,0,0,1-3.2.8,6.4,6.4,0,0,1-3.4-.9,5.4,5.4,0,0,1-2.2-2.5,8.6,8.6,0,0,1-.8-3.8V557.9h3.2v11.2A6.2,6.2,0,0,0,246.2,571.6Z"/>
          <path class="cls-5" d="M288.8,576.3h-3.2V565.1a9.5,9.5,0,0,0-.4-2.6A3.5,3.5,0,0,0,284,561a3.6,3.6,0,0,0-1.9-.5,4.1,4.1,0,0,0-2.3.6,2.8,2.8,0,0,0-1.5,1.5,5.1,5.1,0,0,0-.5,2.5v11.2h-3.2V565.1a9.5,9.5,0,0,0-.4-2.6A3.5,3.5,0,0,0,273,561a3.6,3.6,0,0,0-1.9-.5,4.1,4.1,0,0,0-2.3.6,2.8,2.8,0,0,0-1.5,1.5,5.1,5.1,0,0,0-.5,2.5v11.2h-3.2V557.9h3.2v2.7a4.5,4.5,0,0,1,1.3-1.7,3.7,3.7,0,0,1,1.7-1,4.6,4.6,0,0,1,2.1-.4,8.5,8.5,0,0,1,2.3.4,5.7,5.7,0,0,1,1.8,1.2,5.2,5.2,0,0,1,1.2,1.9,6.1,6.1,0,0,1,2.4-2.6,5.8,5.8,0,0,1,3.3-.9,5.7,5.7,0,0,1,3.2.9,5.4,5.4,0,0,1,2,2.4,11.3,11.3,0,0,1,.7,3.9Z"/>
          <path class="cls-5" d="M297.8,576.3h-3.2V545.1h3.2Zm14.2-4.1a9.8,9.8,0,0,1-3.3,3.4,10.1,10.1,0,0,1-4.6,1.1,7.5,7.5,0,0,1-3.1-.6,7.9,7.9,0,0,1-2.5-1.9,10.1,10.1,0,0,1-1.6-3.1,15.6,15.6,0,0,1-.5-4,16.2,16.2,0,0,1,.5-4,8.6,8.6,0,0,1,1.6-3,6.7,6.7,0,0,1,2.5-1.9,6.2,6.2,0,0,1,3.1-.7,9,9,0,0,1,4.6,1.2A10.4,10.4,0,0,1,312,562a11.4,11.4,0,0,1,0,10.2Zm-2.9-8.7a5.4,5.4,0,0,0-2.3-2.2,6.5,6.5,0,0,0-3.1-.8,5.4,5.4,0,0,0-2.1.5,7.6,7.6,0,0,0-1.9,1.2,7.7,7.7,0,0,0-1.4,2.1,8.2,8.2,0,0,0-.5,2.8,7.8,7.8,0,0,0,.5,2.8,6.4,6.4,0,0,0,1.4,2.1,5.9,5.9,0,0,0,1.9,1.3,5.2,5.2,0,0,0,2.1.4,6.4,6.4,0,0,0,3.1-.7,5.7,5.7,0,0,0,2.3-2.3,7.7,7.7,0,0,0,0-7.2Z"/>
          <path class="cls-5" d="M320.2,575.5a7.7,7.7,0,0,1-3-3.4,10,10,0,0,1-1.1-5,12.3,12.3,0,0,1,.6-3.9,9.1,9.1,0,0,1,1.9-3,7.5,7.5,0,0,1,2.9-2,10.6,10.6,0,0,1,3.7-.7,8.5,8.5,0,0,1,4.6,1.2,7.2,7.2,0,0,1,3,3.2,11.3,11.3,0,0,1,1.1,5.1,4.3,4.3,0,0,0-.1.5v.4H318.1v-2.7h13.2L330,567a1.6,1.6,0,0,0,.3-.6c0-.3.1-.5.1-.7a5.1,5.1,0,0,0-.7-2.8,4.7,4.7,0,0,0-1.8-1.9,5,5,0,0,0-2.7-.7,6.6,6.6,0,0,0-2.5.5,5.7,5.7,0,0,0-1.8,1.2,5.5,5.5,0,0,0-1.2,2.1,8.2,8.2,0,0,0-.4,2.8,8.2,8.2,0,0,0,.7,3.7,4.5,4.5,0,0,0,2,2.3,5.5,5.5,0,0,0,3.2.8,7.3,7.3,0,0,0,3.3-.8,5.8,5.8,0,0,0,2.4-2.5l2.6,1.6a8.1,8.1,0,0,1-3.6,3.5,10.4,10.4,0,0,1-5.1,1.2A9,9,0,0,1,320.2,575.5Z"/>
          <path class="cls-5" d="M341.5,576.3h-3.2V557.9h3.2Zm4.4-15.6-1.3-.2a2.7,2.7,0,0,0-1.9.6,2.6,2.6,0,0,0-.9,1.7,8,8,0,0,0-.3,2.3h-1.4a10,10,0,0,1,.7-3.9,8.2,8.2,0,0,1,2.1-2.7,4.2,4.2,0,0,1,2.5-1,5.2,5.2,0,0,1,1.8.3,3.9,3.9,0,0,1,1.6,1l-1.7,2.6Z"/>
          <path class="cls-5" d="M366,572.4a4.1,4.1,0,0,0,1.4,1.2,6.5,6.5,0,0,0,2.1.4,5.3,5.3,0,0,0,2.6-.6,4.5,4.5,0,0,0,1.9-1.7,4.6,4.6,0,0,0,.7-2.6l.7,2.4a4,4,0,0,1-1.1,2.9,6.8,6.8,0,0,1-2.6,1.8,10.6,10.6,0,0,1-3.1.5,6.7,6.7,0,0,1-3.1-.7,5,5,0,0,1-2.3-2,5.5,5.5,0,0,1-.9-3.2,6.2,6.2,0,0,1,.8-3.1,6.4,6.4,0,0,1,2.5-2.1,9.4,9.4,0,0,1,3.9-.7,10.6,10.6,0,0,1,3.3.4,9,9,0,0,1,2.2,1.1l1.1.9v1.9a12.8,12.8,0,0,0-2.9-1.4,11.2,11.2,0,0,0-3.2-.4,6,6,0,0,0-2.5.4,3,3,0,0,0-1.5,1.1,3.4,3.4,0,0,0-.5,1.7A3.5,3.5,0,0,0,366,572.4Zm-2.5-12.6a14.1,14.1,0,0,1,2.8-1.5,11.9,11.9,0,0,1,4.4-.8,8.9,8.9,0,0,1,3.8.7,5.4,5.4,0,0,1,2.5,1.9,4.9,4.9,0,0,1,.9,3v13.2h-3.2V563.6a3.5,3.5,0,0,0-.3-1.6,2.2,2.2,0,0,0-.9-1l-1.3-.5-1.6-.2a9.5,9.5,0,0,0-2.5.3l-1.8.8a3.1,3.1,0,0,0-1.2.8Z"/>
          <path class="cls-5" d="M394.7,562.6a3.4,3.4,0,0,0-1.3-1.6,5.1,5.1,0,0,0-4.6.1,4.4,4.4,0,0,0-1.7,1.6,6,6,0,0,0-.5,2.4v11.2h-3.2V557.9h3.2v2.9a5.8,5.8,0,0,1,5.4-3.3,5.9,5.9,0,0,1,5.6,3.4,8.6,8.6,0,0,1,.8,3.8v11.6h-3.2V565.1A6.2,6.2,0,0,0,394.7,562.6Z"/>
          <path class="cls-5" d="M404,562a9.8,9.8,0,0,1,3.4-3.3,8.9,8.9,0,0,1,4.5-1.2,6.8,6.8,0,0,1,3.2.7,7.2,7.2,0,0,1,2.4,1.9,8.6,8.6,0,0,1,1.6,3,12.5,12.5,0,0,1,.5,4,12.2,12.2,0,0,1-.5,4,10.1,10.1,0,0,1-1.6,3.1,8.8,8.8,0,0,1-2.4,1.9,8.3,8.3,0,0,1-3.2.6,10,10,0,0,1-4.5-1.1,9.2,9.2,0,0,1-3.4-3.4,11.4,11.4,0,0,1,0-10.2Zm2.9,8.7a5.7,5.7,0,0,0,2.3,2.3,6.7,6.7,0,0,0,3.1.7,5.2,5.2,0,0,0,2.1-.4,5.9,5.9,0,0,0,1.9-1.3,6.4,6.4,0,0,0,1.4-2.1,7.8,7.8,0,0,0,.5-2.8,8.2,8.2,0,0,0-.5-2.8,7.7,7.7,0,0,0-1.4-2.1,7.6,7.6,0,0,0-1.9-1.2,5.4,5.4,0,0,0-2.1-.5,6.8,6.8,0,0,0-3.1.8,5.4,5.4,0,0,0-2.3,2.2,7.6,7.6,0,0,0,0,7.2Zm14.5-25.6v31.2h-3.2V545.1Z"/>
          <path class="cls-5" d="M441.3,572.2a6.6,6.6,0,0,0,1.7,1.2,4.5,4.5,0,0,0,2,.4,3.4,3.4,0,0,0,2.2-.6,2.1,2.1,0,0,0,.8-1.7,1.9,1.9,0,0,0-.7-1.6,4.4,4.4,0,0,0-1.5-1.2l-2.1-.8a13.4,13.4,0,0,1-2.4-1.2,5.5,5.5,0,0,1-2-1.7,3.9,3.9,0,0,1-.9-2.6,4.5,4.5,0,0,1,.9-2.8,6,6,0,0,1,2.2-1.6,9.8,9.8,0,0,1,2.9-.5,8.7,8.7,0,0,1,2.8.5,6.5,6.5,0,0,1,2.3,1.3,4.3,4.3,0,0,1,1.5,1.8l-2.5,1.7a8.1,8.1,0,0,0-1.9-1.8,5.5,5.5,0,0,0-2.6-.6,3.1,3.1,0,0,0-1.7.4,1.4,1.4,0,0,0-.7,1.4,1.8,1.8,0,0,0,.5,1.2,5.6,5.6,0,0,0,1.5,1l1.8.9a19.5,19.5,0,0,1,2.9,1.4,6,6,0,0,1,2.1,1.7,4.6,4.6,0,0,1,.8,2.7,5.7,5.7,0,0,1-.8,2.9,6.1,6.1,0,0,1-2.2,2,7.2,7.2,0,0,1-3.3.7,8.8,8.8,0,0,1-3.3-.6,7.9,7.9,0,0,1-2.5-1.7,8.2,8.2,0,0,1-1.6-2.2l2.5-1.5A9.3,9.3,0,0,0,441.3,572.2Z"/>
          <path class="cls-5" d="M458,575.5a8.5,8.5,0,0,1-3.1-3.4,11.2,11.2,0,0,1-1.1-5,12.3,12.3,0,0,1,.7-3.9,7.7,7.7,0,0,1,1.9-3,8,8,0,0,1,2.8-2,11.7,11.7,0,0,1,3.8-.7,8.5,8.5,0,0,1,4.6,1.2,7.2,7.2,0,0,1,3,3.2,11.3,11.3,0,0,1,1,5.1v.9H455.9v-2.7h13.2l-1.3,1.8a.8.8,0,0,0,.2-.6,2.5,2.5,0,0,0,.2-.7,6.1,6.1,0,0,0-.7-2.8,4.7,4.7,0,0,0-1.8-1.9,5,5,0,0,0-2.7-.7,6.6,6.6,0,0,0-2.5.5,7.6,7.6,0,0,0-1.9,1.2,7,7,0,0,0-1.1,2.1,8.2,8.2,0,0,0-.4,2.8,8.2,8.2,0,0,0,.7,3.7,4.5,4.5,0,0,0,2,2.3,5.3,5.3,0,0,0,3.2.8,7.3,7.3,0,0,0,3.3-.8,6.4,6.4,0,0,0,2.4-2.5l2.6,1.6a8.1,8.1,0,0,1-3.6,3.5,10.4,10.4,0,0,1-5.1,1.2A8.8,8.8,0,0,1,458,575.5Z"/>
          <path class="cls-5" d="M476.7,557.9l5.2,13,5.2-13h3.6l-8.8,19.8-8.8-19.8Z"/>
          <path class="cls-5" d="M496.3,575.5a8.5,8.5,0,0,1-3.1-3.4,11.2,11.2,0,0,1-1.1-5,10,10,0,0,1,.7-3.9,7.5,7.5,0,0,1,1.8-3,8.4,8.4,0,0,1,2.9-2,11.1,11.1,0,0,1,3.7-.7,8.6,8.6,0,0,1,4.7,1.2,7.2,7.2,0,0,1,3,3.2,11.3,11.3,0,0,1,1,5.1v.9H494.2v-2.7h13.2l-1.3,1.8c.1-.1.1-.3.2-.6a2,2,0,0,0,.1-.7,6.1,6.1,0,0,0-.6-2.8A6.6,6.6,0,0,0,504,561a5.1,5.1,0,0,0-2.8-.7,6,6,0,0,0-2.4.5,6.2,6.2,0,0,0-1.9,1.2,5.3,5.3,0,0,0-1.1,2.1,8.2,8.2,0,0,0-.4,2.8,9.9,9.9,0,0,0,.6,3.7,5.3,5.3,0,0,0,5.2,3.1,7.4,7.4,0,0,0,3.4-.8,7.2,7.2,0,0,0,2.4-2.5l2.6,1.6a9.2,9.2,0,0,1-3.6,3.5,10.8,10.8,0,0,1-5.2,1.2A8.4,8.4,0,0,1,496.3,575.5Z"/>
          <path class="cls-5" d="M517.6,576.3h-3.2V557.9h3.2Zm4.4-15.6-1.4-.2a2.4,2.4,0,0,0-1.8.6,3.2,3.2,0,0,0-1,1.7,15.2,15.2,0,0,0-.2,2.3h-1.5a10.1,10.1,0,0,1,.8-3.9,7.9,7.9,0,0,1,2-2.7,4.7,4.7,0,0,1,2.5-1,5.8,5.8,0,0,1,1.9.3,3.9,3.9,0,0,1,1.6,1l-1.8,2.6Z"/>
          <path class="cls-5" d="M528.8,548.8a1.8,1.8,0,0,1,1.5-.7,2,2,0,0,1,1.6.7,2,2,0,0,1,.6,1.5,2.5,2.5,0,0,1-.6,1.6,2.3,2.3,0,0,1-1.6.6,2,2,0,0,1-1.5-.6,2.1,2.1,0,0,1-.7-1.6A1.8,1.8,0,0,1,528.8,548.8Zm3.1,9.1v18.4h-3.2V557.9Z"/>
          <path class="cls-5" d="M545,557.9v3h-9.2v-3Zm-3-6.4v24.8h-3.2V551.5Z"/>
          <path class="cls-5" d="M550.8,585.1h-3.6l5-11.4-7-15.8H549l5.8,14.4h-1.3l5.7-14.3h3.6Z"/>
          <path class="cls-5" d="M19,610.2a8.6,8.6,0,0,1,3.4-3.4,9.2,9.2,0,0,1,4.9-1.3,8.6,8.6,0,0,1,4.8,1.3,8.6,8.6,0,0,1,3.4,3.4,9,9,0,0,1,1.3,4.9,9.5,9.5,0,0,1-4.7,8.4,9.5,9.5,0,0,1-4.8,1.2,10.2,10.2,0,0,1-4.9-1.2,9.2,9.2,0,0,1-3.4-3.4,10.3,10.3,0,0,1-1.3-5A9.9,9.9,0,0,1,19,610.2Zm2.8,8.3a6.4,6.4,0,0,0,2.2,2.4,7.3,7.3,0,0,0,3.3.8,6.9,6.9,0,0,0,3.2-.8,7.3,7.3,0,0,0,2.2-9.2,5.4,5.4,0,0,0-2.2-2.3,5.9,5.9,0,0,0-3.2-.9,6.3,6.3,0,0,0-3.3.9,5.4,5.4,0,0,0-2.2,2.3,7.6,7.6,0,0,0,0,6.8Z"/>
          <path class="cls-5" d="M49,605.9v3H39.8v-3Zm-1.2-9.8-1.1-.2a1.3,1.3,0,0,0-1,.4,1.7,1.7,0,0,0-.6,1.1,5.8,5.8,0,0,0-.3,2.1v24.8H41.6V599.1a8,8,0,0,1,.7-3.6,4.6,4.6,0,0,1,1.8-2.1,6.1,6.1,0,0,1,2.8-.7,4.1,4.1,0,0,1,1.6.3,3.4,3.4,0,0,1,1.2.6l.8.7L48.7,597A1.9,1.9,0,0,0,47.8,596.1Z"/>
          <path class="cls-5" d="M67,618.5a6.4,6.4,0,0,0,2.2,2.4,7.3,7.3,0,0,0,3.3.8,8,8,0,0,0,2.7-.4,7.3,7.3,0,0,0,2.3-1.3,6.7,6.7,0,0,0,1.4-1.6v4a7,7,0,0,1-2.8,1.7,11.3,11.3,0,0,1-3.6.6,10.2,10.2,0,0,1-4.9-1.2,9.2,9.2,0,0,1-3.4-3.4,10.3,10.3,0,0,1-1.3-5,9.9,9.9,0,0,1,1.3-4.9,8.6,8.6,0,0,1,3.4-3.4,9.2,9.2,0,0,1,4.9-1.3,11.3,11.3,0,0,1,3.6.6,7.1,7.1,0,0,1,2.8,1.8v4a5.5,5.5,0,0,0-1.4-1.7,7.1,7.1,0,0,0-2.3-1.2,8.1,8.1,0,0,0-2.7-.5,6.3,6.3,0,0,0-3.3.9,5.4,5.4,0,0,0-2.2,2.3,7.6,7.6,0,0,0,0,6.8Z"/>
          <path class="cls-5" d="M87.1,624.3H83.9V605.9h3.2Zm4.4-15.6-1.3-.2a2.7,2.7,0,0,0-1.9.6,2.6,2.6,0,0,0-.9,1.7,8,8,0,0,0-.3,2.3H85.7a10,10,0,0,1,.7-3.9,8.2,8.2,0,0,1,2.1-2.7,4.2,4.2,0,0,1,2.5-1,5.2,5.2,0,0,1,1.8.3,3.9,3.9,0,0,1,1.6,1l-1.7,2.6Z"/>
          <path class="cls-5" d="M99.6,620.4a3.3,3.3,0,0,0,1.4,1.2,6.5,6.5,0,0,0,2.1.4,5.8,5.8,0,0,0,2.6-.6,5.2,5.2,0,0,0,1.9-1.7,4.6,4.6,0,0,0,.7-2.6l.6,2.4a3.9,3.9,0,0,1-1,2.9,6.8,6.8,0,0,1-2.6,1.8,11.8,11.8,0,0,1-3.1.5,6.4,6.4,0,0,1-3.1-.7,5.2,5.2,0,0,1-2.4-2,5.5,5.5,0,0,1-.8-3.2,5.3,5.3,0,0,1,.8-3.1,5.8,5.8,0,0,1,2.5-2.1,9.4,9.4,0,0,1,3.9-.7,10.6,10.6,0,0,1,3.3.4,6.8,6.8,0,0,1,2.1,1.1l1.1.9v1.9a11.1,11.1,0,0,0-2.9-1.4,10.6,10.6,0,0,0-3.1-.4,6.5,6.5,0,0,0-2.6.4,3.1,3.1,0,0,0-1.4,1.1,3.4,3.4,0,0,0-.5,1.7A3.5,3.5,0,0,0,99.6,620.4Zm-2.5-12.6a11.7,11.7,0,0,1,2.8-1.5,11.5,11.5,0,0,1,4.4-.8,9.2,9.2,0,0,1,3.8.7,5.4,5.4,0,0,1,2.5,1.9,4.9,4.9,0,0,1,.9,3v13.2h-3.2V611.6a3.5,3.5,0,0,0-.3-1.6,2.2,2.2,0,0,0-.9-1l-1.4-.5-1.6-.2a8.8,8.8,0,0,0-2.4.3l-1.9.8a6.2,6.2,0,0,0-1.2.8Z"/>
          <path class="cls-5" d="M119,620.2a6.1,6.1,0,0,0,1.6,1.2,4.9,4.9,0,0,0,2.1.4,3.3,3.3,0,0,0,2.1-.6,1.9,1.9,0,0,0,.8-1.7,2.1,2.1,0,0,0-.6-1.6,4,4,0,0,0-1.6-1.2l-2-.8a13.4,13.4,0,0,1-2.4-1.2,5.8,5.8,0,0,1-2.1-1.7,4.7,4.7,0,0,1,.1-5.4,5.2,5.2,0,0,1,2.2-1.6,9.3,9.3,0,0,1,2.9-.5,8.1,8.1,0,0,1,2.7.5,5.8,5.8,0,0,1,2.3,1.3,5.5,5.5,0,0,1,1.6,1.8l-2.6,1.7a6.6,6.6,0,0,0-1.9-1.8,5.1,5.1,0,0,0-2.5-.6,3.4,3.4,0,0,0-1.8.4,1.6,1.6,0,0,0-.7,1.4,1.6,1.6,0,0,0,.6,1.2,3.9,3.9,0,0,0,1.4,1l1.9.9,2.9,1.4a6,6,0,0,1,2.1,1.7,4.6,4.6,0,0,1,.8,2.7,5.7,5.7,0,0,1-.8,2.9,6.4,6.4,0,0,1-2.3,2,6.7,6.7,0,0,1-3.3.7,8.8,8.8,0,0,1-3.3-.6,9.2,9.2,0,0,1-2.5-1.7,6.2,6.2,0,0,1-1.5-2.2l2.5-1.5A9.3,9.3,0,0,0,119,620.2Z"/>
          <path class="cls-5" d="M136.3,624.3h-3.2V593.1h3.2Zm8.2-13.7a4.2,4.2,0,0,0-1.3-1.6,4.8,4.8,0,0,0-2.2-.5,4.9,4.9,0,0,0-2.5.6,4.8,4.8,0,0,0-2.2,4h-1a8.5,8.5,0,0,1,.8-3.9,7.5,7.5,0,0,1,2.3-2.7,6.5,6.5,0,0,1,3.4-1,6.7,6.7,0,0,1,3.3.8,5.6,5.6,0,0,1,2.2,2.4,9.5,9.5,0,0,1,.8,4v11.6h-3.2V613.1A8.7,8.7,0,0,0,144.5,610.6Z"/>
          <path class="cls-5" d="M156.7,623.5a8.5,8.5,0,0,1-3.1-3.4,11.2,11.2,0,0,1-1.1-5,12.3,12.3,0,0,1,.7-3.9,7.7,7.7,0,0,1,1.9-3,8,8,0,0,1,2.8-2,11.7,11.7,0,0,1,3.8-.7,8.5,8.5,0,0,1,4.6,1.2,7.2,7.2,0,0,1,3,3.2,11.3,11.3,0,0,1,1,5.1v.9H154.6v-2.7h13.2l-1.3,1.8a.8.8,0,0,0,.2-.6,2.5,2.5,0,0,0,.2-.7,6.1,6.1,0,0,0-.7-2.8,5.5,5.5,0,0,0-1.8-1.9,5,5,0,0,0-2.7-.7,6.6,6.6,0,0,0-4.4,1.7,5.3,5.3,0,0,0-1.1,2.1,8.2,8.2,0,0,0-.4,2.8,8.2,8.2,0,0,0,.7,3.7,4.5,4.5,0,0,0,2,2.3,5.3,5.3,0,0,0,3.2.8,7.3,7.3,0,0,0,3.3-.8,7.2,7.2,0,0,0,2.4-2.5L170,620a8.6,8.6,0,0,1-3.6,3.5,10.7,10.7,0,0,1-5.1,1.2A8.5,8.5,0,0,1,156.7,623.5Z"/>
          <path class="cls-5" d="M176.8,620.2a5.2,5.2,0,0,0,1.7,1.2,4.5,4.5,0,0,0,2,.4,3.6,3.6,0,0,0,2.2-.6,2.1,2.1,0,0,0,.8-1.7,2.2,2.2,0,0,0-.7-1.6,4.4,4.4,0,0,0-1.5-1.2l-2.1-.8a13.4,13.4,0,0,1-2.4-1.2,5.5,5.5,0,0,1-2-1.7,3.9,3.9,0,0,1-.9-2.6,4.5,4.5,0,0,1,.9-2.8A6,6,0,0,1,177,606a9.8,9.8,0,0,1,2.9-.5,8.7,8.7,0,0,1,2.8.5,7.6,7.6,0,0,1,2.3,1.3,5.2,5.2,0,0,1,1.5,1.8l-2.5,1.7a8.1,8.1,0,0,0-1.9-1.8,5.5,5.5,0,0,0-2.6-.6,3.1,3.1,0,0,0-1.7.4,1.4,1.4,0,0,0-.7,1.4,1.5,1.5,0,0,0,.5,1.2,5.6,5.6,0,0,0,1.5,1l1.8.9a19.5,19.5,0,0,1,2.9,1.4,6,6,0,0,1,2.1,1.7,4.6,4.6,0,0,1,.8,2.7,5.7,5.7,0,0,1-.8,2.9,6.1,6.1,0,0,1-2.2,2,7.2,7.2,0,0,1-3.3.7,8.1,8.1,0,0,1-3.3-.6,7.9,7.9,0,0,1-2.5-1.7,8.2,8.2,0,0,1-1.6-2.2l2.5-1.5A9.3,9.3,0,0,0,176.8,620.2Z"/>
        </g>
        <g>
          <circle class="cls-6" cx="306.2" cy="160.4" r="83.4"/>
          <g class="cls-7">
            <g id="Layer_1-2-2" data-name="Layer 1-2">
              <path class="cls-2" d="M331.1,178.6a1.1,1.1,0,0,1-.7-.3,1,1,0,0,1,.3-1.2l8.5-5.5-10.1,2.1,6.1-9.7-9,6-.5-9.5-4.6,9.4-5.9-12.6.9,14.1-8.3-4.1,4.6,5.4a.8.8,0,0,1-.1,1.2.9.9,0,0,1-1.2-.1l-9.6-11.5,12.8,6.3-1.3-20,8.1,17.4,5.8-11.9.8,12.9,13.1-8.8-8.2,13.1,15-3.1-16,10.3Z"/>
              <path class="cls-2" d="M310,180.9c-.6.2-.1-1.4-1.2-.5a7,7,0,0,0-1.7,2.2s-1.2-3-2.2-3.2a2.8,2.8,0,0,0-2.8,1.7s-11.8-15.8-33-19.4c-2.7-.5-20.8-3.3-37.6,5.9a44.8,44.8,0,0,0-13.9,11.7c-5.5.8-21,3.3-30.4,9.9-4.3,3-6.8,6.7-6.3,8.2a12.3,12.3,0,0,1,.8,1.8,12.1,12.1,0,0,0,1,2,12.8,12.8,0,0,0,2.6,3.5,7.7,7.7,0,0,0,5.2,2h8.3a13.4,13.4,0,0,1,25.9-7.1,12.3,12.3,0,0,1,0,7.1h52a13.4,13.4,0,1,1,25.9-7,13.3,13.3,0,0,1,.5,3.4,11.2,11.2,0,0,1-.5,3.6l1.7-1c.2,0,.7.5,1.4.3s.6-.8,1.4-1,1.6.5,2.2.4,1.9-.8,2.3-.8.6-2.1.4-2.5c-2-4.6.1-11.6.1-11.6a27.4,27.4,0,0,1-.1-5.4C312.2,183.9,311,180.6,310,180.9Zm-52.9-15.5v14.2H229c-1.7,0-2.6-1.7-1.4-2.7a48.3,48.3,0,0,1,29.5-11.4Zm32.7,14.4H261.7V165.4h0a47.8,47.8,0,0,1,29.5,11.7C292.4,178.1,291.5,179.8,289.8,179.8Z"/>
              <path class="cls-2" d="M211.8,191.6a11.5,11.5,0,1,0,11.5,11.5h0A11.6,11.6,0,0,0,211.8,191.6Zm0,15.6a4.1,4.1,0,1,1,0-8.2,4.1,4.1,0,1,1,0,8.2Z"/>
              <path class="cls-2" d="M289.7,191.6a11.5,11.5,0,1,0,11.5,11.5h0A11.6,11.6,0,0,0,289.7,191.6Zm0,15.6a4.1,4.1,0,1,1,4.1-4.1,4.1,4.1,0,0,1-4.1,4.1Z"/>
              <circle class="cls-2" cx="211.9" cy="203.1" r="2.3"/>
              <circle class="cls-2" cx="289.7" cy="203.1" r="2.3"/>
              <path class="cls-2" d="M458.9,185.7c-.3-1.8-4.3-3.6-19.3-4.6-1.6-2.3-11.8-15.8-33-19.4-2.7-.5-20.8-3.3-37.6,5.9a44.8,44.8,0,0,0-13.9,11.7c-5.5.8-21,3.3-30.4,9.9-4.4,3-6.8,6.7-6.3,8.2l.7,1.8c.5.9.8,1.6,1.1,2a12.4,12.4,0,0,0,2.5,3.5,7.9,7.9,0,0,0,5.3,2h8.3a13.4,13.4,0,1,1,25.9-7.1,14.2,14.2,0,0,1,0,7.1h52a13.4,13.4,0,1,1,25.9-7,13.8,13.8,0,0,1,0,7h7.5a6.9,6.9,0,0,0,6.2-3.2A8.2,8.2,0,0,0,455,201c.7-2.1-.3-7.7,1.6-11.7C457.8,186.8,459.1,186.8,458.9,185.7Zm-64.3-20.3v14.2H366.5c-1.7,0-2.6-1.7-1.4-2.7a48.3,48.3,0,0,1,29.5-11.4Zm32.7,14.4H399.2V165.4h0a47.8,47.8,0,0,1,29.5,11.7C429.9,178.1,429,179.8,427.3,179.8Z"/>
              <path class="cls-2" d="M349.3,191.6a11.5,11.5,0,1,0,11.5,11.5h0A11.6,11.6,0,0,0,349.3,191.6Zm0,15.6a4.1,4.1,0,1,1,0-8.2,4.1,4.1,0,0,1,0,8.2Z"/>
              <path class="cls-2" d="M427.2,191.6a11.5,11.5,0,1,0,11.5,11.5h0A11.6,11.6,0,0,0,427.2,191.6Zm0,15.6a4.1,4.1,0,1,1,4.1-4.1,4.1,4.1,0,0,1-4.1,4.1Z"/>
              <circle class="cls-2" cx="349.3" cy="203.1" r="2.3"/>
              <circle class="cls-2" cx="427.2" cy="203.1" r="2.3"/>
            </g>
          </g>
          <g id="Layer_2-2" data-name="Layer 2">
            <g id="Layer_1-2-3" data-name="Layer 1-2">
              <g>
                <circle class="cls-2" cx="337.4" cy="100" r="37.3"/>
                <path class="cls-8" d="M337.4,138a38.1,38.1,0,1,1,38.1-38A38,38,0,0,1,337.4,138Zm0-74.6A36.6,36.6,0,1,0,374,100,36.6,36.6,0,0,0,337.4,63.4Z"/>
              </g>
              <path class="cls-9" d="M332.1,124.1l-26.3-10.2c-3-1.1-3-3,0-4.1l26.3-10.1a16.1,16.1,0,0,1,10.6,0l26.4,10.1c2.9,1.1,2.9,3,0,4.1l-26.4,10.2A17.4,17.4,0,0,1,332.1,124.1Z"/>
              <path class="cls-9" d="M343.1,77.1l-2.8-7.8c-.4-1.3-1.6-1.3-2.9-1.3s-2.5,0-2.9,1.3l-2.7,7.8A19.8,19.8,0,0,0,343.1,77.1Z"/>
              <path class="cls-9" d="M350.6,98.2,347,88a31.2,31.2,0,0,1-19.1,0l-3.6,10.2A30.3,30.3,0,0,0,350.6,98.2Z"/>
              <path class="cls-2" d="M350.6,98.2a30.3,30.3,0,0,1-26.3,0l-3.9,11h0a42.8,42.8,0,0,0,34,0h0Z"/>
              <path class="cls-2" d="M347,88l-3.9-10.9a19.8,19.8,0,0,1-11.3,0L327.9,88A31.2,31.2,0,0,0,347,88Z"/>
              <g class="cls-10">
                <path class="cls-2" d="M346.2,110.1l5.4-1.6a1.4,1.4,0,0,0,.9-1.7L339.4,69.5a1.3,1.3,0,0,0-1.7-.8h-.4a1.3,1.3,0,0,0-.8,1.7l8,38.8A1.3,1.3,0,0,0,346.2,110.1Z"/>
              </g>
              <g class="cls-10">
                <path class="cls-2" d="M339.2,121.7s26.4-9.2,26.4-10.1-11.2-5.8-11.2-5.8,15.2,4.4,15.2,6.1S339.2,121.7,339.2,121.7Z"/>
              </g>
            </g>
          </g>
        </g>
      </g>
    </g>
  </g>
</svg>
