<svg xmlns="http://www.w3.org/2000/svg" viewBox="0 0 613.7 648">
  <defs>
    <style>
      .cls-1 {
        fill: #fff;
      }

      .cls-2 {
        fill: #f2f2f2;
      }

      .cls-3 {
        fill: #ffcf41;
      }

      .cls-4 {
        font-size: 58px;
        font-family: Jost-SemiBold, Jost;
        font-weight: 600;
        letter-spacing: -0.01em;
      }

      .cls-4, .cls-6 {
        fill: #4c4c4c;
      }

      .cls-5 {
        fill: #27427c;
      }

      .cls-6 {
        font-size: 40px;
        font-family: Jost-Medium, Jost;
        font-weight: 500;
        letter-spacing: 0em;
      }

      .cls-7 {
        font-family: Jost-Regular, Jost;
        font-weight: 400;
      }
    </style>
  </defs>
  <title>1_Congestion</title>
  <g id="Layer_2" data-name="Layer 2">
    <g id="Layer_1-2" data-name="Layer 1">
      <g>
        <g>
          <rect class="cls-1" width="612.3" height="648" rx="8"/>
          <g>
            <path class="cls-2" d="M0,481.5V639.2C0,644,3.3,648,7.3,648H605c4,0,7.3-4,7.3-8.8V481.5Z"/>
            <path class="cls-3" d="M612.3,8.8C612.3,4,609,0,605,0H7.3C3.3,0,0,4,0,8.8V39.5H612.3Z"/>
          </g>
        </g>
        <text class="cls-4" transform="translate(14.8 321.7)">Congestion Reduction, <tspan x="24" y="69.6">Mobility, and System </tspan><tspan x="166.5" y="139.2" xml:space="preserve">Reliability  </tspan></text>
        <g>
          <circle class="cls-5" cx="306.2" cy="160.4" r="83.4"/>
          <g>
            <g>
              <g>
                <path class="cls-1" d="M312.2,216.2h0q-3,.3-6,.3V159.4Z"/>
                <path class="cls-1" d="M306.1,159.4v57.1l-5.9-.2h0Z"/>
                <path class="cls-1" d="M306.1,102.3v57.1l-5.9-56.8h0Z"/>
                <path class="cls-1" d="M300.2,102.6l5.9,56.8-11.8-55.9h0a55.8,55.8,0,0,1,5.9-.9Z"/>
                <path class="cls-1" d="M294.3,103.5l11.8,55.9-17.6-54.3h0a54.7,54.7,0,0,1,5.8-1.5Z"/>
                <path class="cls-1" d="M288.5,105.1l17.6,54.3-23.2-52.2h0a53.7,53.7,0,0,1,5.6-2.1Z"/>
                <path class="cls-1" d="M282.9,107.2l23.2,52.2-28.5-49.5h0a52.8,52.8,0,0,1,5.3-2.7Z"/>
                <path class="cls-1" d="M277.6,109.9l28.6,49.5-33.6-46.2h0a53.9,53.9,0,0,1,5-3.3Z"/>
                <path class="cls-1" d="M272.6,113.2l33.5,46.2L267.9,117h0a43.3,43.3,0,0,1,4.7-3.8Z"/>
                <path class="cls-1" d="M306.1,159.4l-5.9,56.9h0l-5.9-1h0Z"/>
                <path class="cls-1" d="M306.1,159.4l-11.8,55.9h0a35.3,35.3,0,0,1-5.8-1.6h0Z"/>
                <path class="cls-1" d="M306.1,159.4l-17.6,54.3h0a53.7,53.7,0,0,1-5.6-2.1h0Z"/>
                <path class="cls-1" d="M306.1,159.4l-23.2,52.2h0a52.8,52.8,0,0,1-5.3-2.7h0Z"/>
                <path class="cls-1" d="M306.1,159.4l-28.5,49.5h0a53.9,53.9,0,0,1-5-3.3h0Z"/>
                <path class="cls-1" d="M306.1,159.4l-33.5,46.3h0a58.1,58.1,0,0,1-4.6-3.8h0Z"/>
                <path class="cls-1" d="M306.1,159.4l-42.4,38.3h0c-1.3-1.5-2.6-3.1-3.8-4.7h0Z"/>
                <path class="cls-1" d="M306.1,159.4,260,193h0a53.9,53.9,0,0,1-3.3-5h0Z"/>
                <path class="cls-1" d="M306.1,159.4,256.7,188h0c-1-1.7-1.9-3.5-2.8-5.4h0Z"/>
                <path class="cls-1" d="M306.1,159.4l-52.2,23.3h0a53.7,53.7,0,0,1-2.1-5.6h.1Z"/>
                <path class="cls-1" d="M306.1,159.4l-54.3,17.7h0c-.6-1.9-1.2-3.9-1.6-5.8h0Z"/>
                <path class="cls-1" d="M306.1,159.4l-55.8,11.9h0a55.8,55.8,0,0,1-1-5.9h0Z"/>
                <path class="cls-1" d="M306.1,159.4l-56.7,6h0q-.3-3-.3-6Z"/>
                <path class="cls-1" d="M306.1,159.4H249a56.8,56.8,0,0,1,.3-5.9h0Z"/>
                <path class="cls-1" d="M306.1,159.4l-56.7-6h0a55.8,55.8,0,0,1,.9-5.9h0Z"/>
                <path class="cls-1" d="M306.1,159.4l-55.8-11.9h0a52.9,52.9,0,0,1,1.5-5.7h.1Z"/>
                <path class="cls-1" d="M306.1,159.4l-54.3-17.6h0a53.7,53.7,0,0,1,2.1-5.6h0Z"/>
                <path class="cls-1" d="M306.1,159.4l-52.2-23.2h0a55.2,55.2,0,0,1,2.8-5.4h0Z"/>
                <path class="cls-1" d="M306.1,159.4l-49.4-28.6h0a53.9,53.9,0,0,1,3.3-5h0Z"/>
                <path class="cls-1" d="M306.1,159.4,260,125.8h0a41.4,41.4,0,0,1,3.7-4.6h0Z"/>
                <path class="cls-1" d="M267.9,117l38.2,42.4-42.4-38.2h0a41.6,41.6,0,0,1,4.2-4.2Z"/>
                <path class="cls-1" d="M306.1,159.4l-38.2,42.5h0l-4.2-4.2h0Z"/>
              </g>
              <g id="Fill">
                <path class="cls-1" d="M363.3,159.4H306.1l56.9-5.9h0A56.8,56.8,0,0,1,363.3,159.4Z"/>
                <path class="cls-1" d="M306.1,159.4h57.2a58.8,58.8,0,0,1-.3,6h0Z"/>
                <path class="cls-1" d="M363,153.4h0l-56.9,6L362,147.5h0A40.4,40.4,0,0,1,363,153.4Z"/>
                <path class="cls-1" d="M363,165.4h0a55.8,55.8,0,0,1-.9,5.9h0l-55.9-11.9Z"/>
                <path class="cls-1" d="M362.1,147.5h0l-55.9,11.9,54.3-17.6h.1C361.1,143.6,361.7,145.6,362.1,147.5Z"/>
                <path class="cls-1" d="M362,171.3h0a38,38,0,0,1-1.5,5.8h0l-54.4-17.7Z"/>
                <path class="cls-1" d="M360.5,141.7h0l-54.4,17.7,52.2-23.2h0A37.1,37.1,0,0,1,360.5,141.7Z"/>
                <path class="cls-1" d="M360.5,177.1h0a54.2,54.2,0,0,1-2.2,5.6h0l-52.2-23.3Z"/>
                <path class="cls-1" d="M358.3,136.2h0l-52.2,23.2,49.5-28.6h0A34,34,0,0,1,358.3,136.2Z"/>
                <path class="cls-1" d="M358.3,182.7h0a52.8,52.8,0,0,1-2.7,5.3h0l-49.4-28.6Z"/>
                <path class="cls-1" d="M355.6,130.8h0l-49.5,28.6,46.3-33.5h0A41.3,41.3,0,0,1,355.6,130.8Z"/>
                <path class="cls-1" d="M355.6,188h0a52.9,52.9,0,0,1-3.2,5h0l-46.2-33.6Z"/>
                <path class="cls-1" d="M352.4,125.8h0l-46.3,33.6,42.5-38.2h0A42.2,42.2,0,0,1,352.4,125.8Z"/>
                <path class="cls-1" d="M352.4,193h0c-1.2,1.6-2.4,3.1-3.8,4.7h0l-42.4-38.3Z"/>
                <path class="cls-1" d="M344.4,116.9c1.4,1.3,2.9,2.8,4.2,4.2h0l-42.5,38.3,38.3-42.5Z"/>
                <path class="cls-1" d="M306.1,159.4l42.5,38.3h0l-4.2,4.2h0Z"/>
                <path class="cls-1" d="M344.4,116.9h0l-38.3,42.5,33.6-46.3h0Z"/>
                <path class="cls-1" d="M344.4,201.9h0a59.9,59.9,0,0,1-4.7,3.8h0l-33.5-46.3Z"/>
                <path class="cls-1" d="M339.7,113.2h0l-33.6,46.2L334.7,110h0A32.7,32.7,0,0,1,339.7,113.2Z"/>
                <path class="cls-1" d="M339.7,205.6h0a43.2,43.2,0,0,1-5,3.3h0l-28.6-49.5Z"/>
                <path class="cls-1" d="M334.7,109.9h0l-28.6,49.5,23.3-52.2h0A52.8,52.8,0,0,1,334.7,109.9Z"/>
                <path class="cls-1" d="M334.7,208.9h0a52.8,52.8,0,0,1-5.3,2.7h0l-23.3-52.2Z"/>
                <path class="cls-1" d="M329.4,211.6h0a54.2,54.2,0,0,1-5.6,2.2h0l-17.7-54.3Z"/>
                <path class="cls-1" d="M329.4,107.2h0l-23.3,52.2,17.7-54.3h0Z"/>
                <path class="cls-1" d="M323.8,213.7h0a38.3,38.3,0,0,1-5.8,1.6h0l-11.9-55.9Z"/>
                <path class="cls-1" d="M323.8,105h0l-17.6,54.4L318,103.5h0A54.7,54.7,0,0,1,323.8,105Z"/>
                <path class="cls-1" d="M318,215.3h0l-5.9,1h0l-6-56.9Z"/>
                <path class="cls-1" d="M318,103.5h0l-11.9,55.9,6.1-56.8h0A58.1,58.1,0,0,1,318,103.5Z"/>
                <path class="cls-1" d="M312.2,102.6h0l-6,56.8V102.3Z"/>
              </g>
            </g>
            <path class="cls-1" d="M306.1,104.8a54.6,54.6,0,1,1-54.6,54.6,54.7,54.7,0,0,1,54.6-54.6m0-2.5a57.1,57.1,0,1,0,57.2,57.1A57.1,57.1,0,0,0,306.1,102.3Z"/>
            <g>
              <rect class="cls-5" x="305.6" y="107" width="1.1" height="8.66"/>
              <rect class="cls-5" x="281.6" y="113.5" width="1.1" height="8.59" transform="translate(-20.5 161.1) rotate(-30.8)"/>
              <rect class="cls-5" x="264" y="131.1" width="1.1" height="8.56" transform="translate(15.5 297.6) rotate(-60.2)"/>
              <rect class="cls-5" x="253.8" y="158.9" width="8.5" height="1.11"/>
              <rect class="cls-5" x="260.2" y="183" width="8.6" height="1.11" transform="translate(-56.2 155.9) rotate(-29.8)"/>
              <rect class="cls-5" x="277.8" y="200.5" width="8.7" height="1.11" transform="translate(-33.8 343.2) rotate(-59.7)"/>
              <rect class="cls-5" x="305.6" y="203.2" width="1.1" height="8.66"/>
              <rect class="cls-5" x="329.7" y="196.7" width="1.1" height="8.72" transform="translate(-56.3 194.2) rotate(-30.3)"/>
              <rect class="cls-5" x="347.2" y="179.2" width="1.1" height="8.52" transform="translate(15 393) rotate(-60)"/>
              <rect class="cls-5" x="349.9" y="158.9" width="8.7" height="1.11"/>
              <rect class="cls-5" x="343.5" y="134.9" width="8.5" height="1.11" transform="translate(-21.1 191.8) rotate(-30)"/>
              <rect class="cls-5" x="325.9" y="117.2" width="8.6" height="1.11" transform="matrix(0.51, -0.86, 0.86, 0.51, 60.13, 341.31)"/>
            </g>
            <path class="cls-5" d="M303.9,159.8a2.1,2.1,0,0,1,2-2.4,2.1,2.1,0,0,1,2.3,2c.2,1.3,1.9,39,1.9,39S304.2,160.9,303.9,159.8Z"/>
            <circle class="cls-5" cx="306.1" cy="159.4" r="4.5"/>
            <rect class="cls-1" x="303.5" y="97.2" width="5.3" height="6.29"/>
            <path class="cls-1" d="M303.9,91.2h4.4A2.8,2.8,0,0,1,311,94v2a2.8,2.8,0,0,1-2.7,2.7h-4.4a2.8,2.8,0,0,1-2.8-2.7V94A3,3,0,0,1,303.9,91.2Z"/>
            <rect class="cls-1" x="333.3" y="106.1" width="5.2" height="4.26" transform="translate(73.8 344.5) rotate(-59.9)"/>
            <path class="cls-1" d="M335.8,102.4l5.6,3.3a1.6,1.6,0,0,1,.6,2.2h0a1.7,1.7,0,0,1-2.3.6l-5.6-3.2a1.8,1.8,0,0,1-.6-2.3h0A1.9,1.9,0,0,1,335.8,102.4Z"/>
          </g>
        </g>
        <text class="cls-6" transform="translate(16.3 528.3)">Objective: <tspan class="cls-7"><tspan x="0" y="48">Reduce travel time and delay and </tspan><tspan x="0" y="96">improve level of service</tspan></tspan></text>
      </g>
    </g>
  </g>
</svg>
