<svg xmlns="http://www.w3.org/2000/svg" viewBox="0 0 613 649"><rect x="0.28" y="0.08" width="612.33" height="648" rx="8.03" fill="#fff"/><path d="M.28,481.58V639.26c0,4.85,3.29,8.82,7.31,8.82H605.3c4,0,7.31-4,7.31-8.82V481.58Z" fill="#f2f2f2"/><path d="M612.61,8.89c0-4.85-3.29-8.81-7.31-8.81H7.59C3.57.08.28,4,.28,8.89V39.58H612.61Z" fill="#ffcf41"/><text transform="translate(131.32 321.73)" font-size="58" fill="#4c4c4c" font-family="Jost-SemiBold, Jost" font-weight="600" letter-spacing="0em">Infrastructure <tspan x="47.85" y="69.6">Condition</tspan></text><text transform="translate(16.61 528.39)" font-size="40" fill="#4c4c4c" font-family="Jost-Medium, Jost" font-weight="500" letter-spacing="0em">Objective: <tspan font-family="Jost-Regular, Jost" font-weight="400"><tspan x="0" y="48">Invest in existing highways and </tspan><tspan x="0" y="96">bridges to maintain and preserve</tspan></tspan></text><circle cx="306.44" cy="162.94" r="80.9" fill="#27427c"/><rect x="285.35" y="123.25" width="7.92" height="55.66" rx="2.95" transform="translate(-36.69 166.83) rotate(-30.34)" fill="#fff"/><path d="M281.73,131h0a2,2,0,0,1-2,1.95H249.68a2,2,0,0,1-2-1.95h0a2,2,0,0,1,2-2h0a61.35,61.35,0,0,0,31.49-3.88C281.9,126.13,281.73,124.27,281.73,131Z" fill="#fff"/><rect x="247.72" y="125.05" width="34" height="2.16" rx="1.08" fill="#fff"/><path d="M248.77,125.05h3.93a3,3,0,0,1,3,3h0v36.52a3,3,0,0,1-3,2.95h-2a3,3,0,0,1-3-2.95V126.1a1,1,0,0,1,1.05-1Z" fill="#fff"/><path d="M302.79,178.67a4.22,4.22,0,0,1-4.21-4.21v-16l6.88-.79a2.69,2.69,0,0,0,2.15-1.59l8.67-19.76a4.21,4.21,0,0,1,3.86-2.52H347.2a4.22,4.22,0,0,1,4.21,4.21v11.33a2.69,2.69,0,0,0,2.68,2.69l.32,0a4,4,0,0,1,.49,0,4.21,4.21,0,0,1,4.2,4.21v18.3a4.21,4.21,0,0,1-4.21,4.21Z" fill="#fff"/><path d="M347.2,134.53a3.46,3.46,0,0,1,3.45,3.45h0v11.33a3.45,3.45,0,0,0,3.44,3.45l.4,0a2.83,2.83,0,0,1,.41,0,3.45,3.45,0,0,1,3.44,3.45v18.3a3.44,3.44,0,0,1-3.45,3.45h-52.1a3.45,3.45,0,0,1-3.45-3.45h0V159.11l6.21-.72a3.42,3.42,0,0,0,2.76-2L317,136.6a3.45,3.45,0,0,1,3.16-2.07H347.2m0-1.52H320.13a5,5,0,0,0-4.55,3l-8.66,19.75a1.94,1.94,0,0,1-1.55,1.14l-6.2.72-1.35.15v16.71a5,5,0,0,0,5,5h52.1a5,5,0,0,0,5-5v-18.3a5,5,0,0,0-5-5,5.63,5.63,0,0,0-.58,0l-.23,0a1.94,1.94,0,0,1-1.92-1.93V138a5,5,0,0,0-5-5Z" fill="#27427c"/><path d="M298.89,199.1a8.3,8.3,0,0,1,0-16.6h59.86a8.3,8.3,0,1,1,0,16.6Z" fill="#27427c"/><path d="M358.75,184.24a6.56,6.56,0,1,1,0,13.11H298.89a6.56,6.56,0,1,1,0-13.11h59.86m0-3.48H298.89a9.87,9.87,0,0,0-3.91.8,10,10,0,0,0,0,18.49,10.22,10.22,0,0,0,3.9.79h59.86a10,10,0,0,0,7.09-17.13,10,10,0,0,0-7.09-3Z" fill="#fff"/><circle cx="318.98" cy="190.8" r="4.38" fill="#fff"/><circle cx="338.65" cy="190.8" r="4.38" fill="#fff"/><circle cx="358.32" cy="190.8" r="4.38" fill="#fff"/><circle cx="299.32" cy="190.8" r="4.38" fill="#fff"/><path d="M325.85,139.72h15.56a2.64,2.64,0,0,1,2.63,2.64h0v8.37a3.6,3.6,0,0,1-3.19,3.58l-21.51,2.49a2.47,2.47,0,0,1-2.54-3.44l4.76-10.84A4.68,4.68,0,0,1,325.85,139.72Z" fill="#28437c"/><path d="M265.48,195.94a2.05,2.05,0,0,1-.49-.06l-20.16-5.2a2,2,0,0,1-1.49-1.92V165.11a2,2,0,0,1,2-2h12.52a.46.46,0,0,0,.4-.23,2,2,0,0,1,3.58.2l8.52,21.1a.46.46,0,0,0,.43.29h.06l4.82-.64.28,0a2,2,0,0,1,1.2,3.55l-10.43,8.15a2,2,0,0,1-1.22.42Z" fill="#fff"/><path d="M260,162.62a1.18,1.18,0,0,1,1.13.76l8.53,21.1a1.22,1.22,0,0,0,1.13.76h.16l4.82-.64h.18a1.22,1.22,0,0,1,.73,2.19l-10.42,8.15a1.25,1.25,0,0,1-1.06.22L245,189.94a1.23,1.23,0,0,1-.92-1.18V165.11a1.22,1.22,0,0,1,1.22-1.22h12.52a1.23,1.23,0,0,0,1.07-.64,1.19,1.19,0,0,1,1.07-.63m0-1.53a2.73,2.73,0,0,0-2.31,1.27H245.32a2.75,2.75,0,0,0-2.74,2.75v23.65a2.74,2.74,0,0,0,2.06,2.65l20.16,5.2a2.73,2.73,0,0,0,2.37-.49L277.6,188a2.73,2.73,0,0,0,.91-3.06,2.79,2.79,0,0,0-.93-1.29,2.6,2.6,0,0,0-1.65-.56l-.38,0-4.59.61-8.43-20.88a2.75,2.75,0,0,0-2.55-1.72Z" fill="#27427c"/></svg>