<svg xmlns="http://www.w3.org/2000/svg" xmlns:xlink="http://www.w3.org/1999/xlink" viewBox="0 0 613 649"><defs><clipPath id="a"><circle cx="306.44" cy="160.44" r="83.4" fill="none"/></clipPath></defs><rect x="0.28" y="0.08" width="612.33" height="648" rx="8.03" fill="#fff"/><path d="M.28,481.58V639.26c0,4.85,3.29,8.82,7.31,8.82H605.3c4,0,7.31-4,7.31-8.82V481.58Z" fill="#f2f2f2"/><path d="M612.61,8.89c0-4.85-3.29-8.81-7.31-8.81H7.59C3.57.08.28,4,.28,8.89V39.58H612.61Z" fill="#ffcf41"/><text transform="translate(58.99 321.73)" font-size="58" fill="#4c4c4c" font-family="Jost-SemiBold, Jost" font-weight="600" letter-spacing="-0.01em"><tspan xml:space="preserve">Safety and Security  </tspan></text><text transform="translate(16.61 528.39)" font-size="40" fill="#4c4c4c" font-family="Jost-Medium, Jost" font-weight="500" letter-spacing="0em">Objective: <tspan font-family="Jost-Regular, Jost" font-weight="400"><tspan x="0" y="48">Reduce the number and severity of </tspan><tspan x="0" y="96">crashes</tspan></tspan></text><circle cx="306.44" cy="160.44" r="83.4" fill="#27427c"/><g clip-path="url(#a)"><path d="M331.41,178.71a.84.84,0,0,1-.7-.38.82.82,0,0,1,.25-1.14l8.55-5.51-10.14,2.12,6.12-9.76-9,6.06-.56-9.55-4.62,9.39-5.84-12.59.89,14.11-8.28-4.08,4.58,5.43a.82.82,0,0,1-1.26,1.06l-9.69-11.47,12.82,6.32-1.26-20,8.09,17.42,5.85-11.92.76,12.92,13-8.81-8.2,13.09,15.09-3.16-16.07,10.35A.8.8,0,0,1,331.41,178.71Z" fill="#fff"/><path d="M310.33,181c-.64.19-.15-1.4-1.21-.53a7.51,7.51,0,0,0-1.76,2.25s-1.23-3-2.19-3.22a2.75,2.75,0,0,0-2.79,1.65s-11.83-15.77-33-19.35c-2.73-.47-20.84-3.28-37.67,5.94a44.84,44.84,0,0,0-13.87,11.65c-5.48.77-21,3.3-30.4,9.86-4.32,3-6.8,6.77-6.25,8.26,0,.08.33.8.74,1.76s.77,1.6,1,2.06a13.83,13.83,0,0,0,2.56,3.5,7.53,7.53,0,0,0,5.23,1.93h8.35a13.42,13.42,0,1,1,25.91,0h52a13.42,13.42,0,1,1,25.91-7,13,13,0,0,1,.47,3.45,13.33,13.33,0,0,1-.47,3.6,13,13,0,0,1,1.69-1c.17,0,.66.55,1.35.38s.61-.88,1.44-1c.62-.09,1.62.47,2.18.39s1.91-.79,2.32-.85c.65-.09.56-2.1.38-2.53-2-4.56.13-11.53.13-11.53a26.12,26.12,0,0,1-.13-5.41C312.47,184,311.24,180.71,310.33,181Zm-53-15.51v14.2l-28.11-.11c-1.68,0-2.56-1.65-1.38-2.67a49,49,0,0,1,29.49-11.45Zm32.74,14.37L262,179.73V165.44a48.27,48.27,0,0,1,29.52,11.73C292.67,178.19,291.76,179.84,290.08,179.84Z" fill="#fff"/><path d="M212.05,191.68a11.51,11.51,0,1,0,11.51,11.51h0A11.53,11.53,0,0,0,212.05,191.68Zm0,15.64a4.13,4.13,0,1,1,4.13-4.13,4.12,4.12,0,0,1-4.13,4.13Z" fill="#fff"/><path d="M289.94,191.68a11.51,11.51,0,1,0,11.51,11.51h0A11.53,11.53,0,0,0,289.94,191.68Zm0,15.64a4.13,4.13,0,1,1,4.13-4.13,4.12,4.12,0,0,1-4.13,4.13Z" fill="#fff"/><circle cx="212.13" cy="203.19" r="2.34" fill="#fff"/><circle cx="290.02" cy="203.19" r="2.34" fill="#fff"/><path d="M459.19,185.79c-.3-1.77-4.27-3.64-19.3-4.66-1.63-2.23-11.84-15.77-33-19.35-2.72-.47-20.84-3.28-37.66,5.94a44.87,44.87,0,0,0-13.88,11.65c-5.48.77-20.95,3.3-30.43,9.86-4.35,3-6.8,6.77-6.25,8.26,0,.08.33.8.75,1.76a21.82,21.82,0,0,0,1,2.06,13.83,13.83,0,0,0,2.56,3.5,7.51,7.51,0,0,0,5.23,1.93h8.34a13.42,13.42,0,1,1,25.91,0h52a13.42,13.42,0,0,1,25.91-7,13.18,13.18,0,0,1,0,7h7.55a7,7,0,0,0,6.16-3.19,10.16,10.16,0,0,0,1.22-2.53c.63-2.07-.36-7.66,1.54-11.65C458,186.91,459.38,186.86,459.19,185.79Zm-64.35-20.32v14.2l-28.11-.11c-1.68,0-2.56-1.65-1.38-2.67a49,49,0,0,1,29.49-11.45Zm32.74,14.37-28.08-.11V165.44A48.26,48.26,0,0,1,429,177.17C430.17,178.19,429.26,179.84,427.58,179.84Z" fill="#fff"/><path d="M349.55,191.68a11.51,11.51,0,1,0,11.51,11.51h0A11.53,11.53,0,0,0,349.55,191.68Zm0,15.64a4.13,4.13,0,1,1,4.13-4.13,4.12,4.12,0,0,1-4.13,4.13Z" fill="#fff"/><path d="M427.44,191.68A11.51,11.51,0,1,0,439,203.19h0A11.53,11.53,0,0,0,427.44,191.68Zm0,15.64a4.13,4.13,0,1,1,4.13-4.13,4.13,4.13,0,0,1-4.13,4.13Z" fill="#fff"/><circle cx="349.55" cy="203.19" r="2.34" fill="#fff"/><circle cx="427.44" cy="203.19" r="2.34" fill="#fff"/></g><circle cx="337.71" cy="100.06" r="37.3" fill="#fff"/><path d="M337.71,138.11a38,38,0,1,1,38.05-38.05A38.09,38.09,0,0,1,337.71,138.11Zm0-74.6a36.55,36.55,0,1,0,36.55,36.55A36.6,36.6,0,0,0,337.71,63.51Z" fill="#213e70"/><path d="M332.39,124.15,306,114c-2.92-1.13-2.92-3,0-4.11l26.35-10.15a17.09,17.09,0,0,1,10.63,0l26.34,10.15c2.93,1.13,2.93,3,0,4.11L343,124.15A17.09,17.09,0,0,1,332.39,124.15Z" fill="#27437d"/><path d="M343.36,77.18c-.92-2.61-1.85-5.22-2.77-7.84-.41-1.26-1.6-1.31-2.92-1.3s-2.45.06-2.85,1.3L332,77.18A20.18,20.18,0,0,0,343.36,77.18Z" fill="#27437d"/><path d="M350.85,98.33l-3.61-10.22a32.22,32.22,0,0,1-19.05,0l-3.62,10.22A30.76,30.76,0,0,0,350.85,98.33Z" fill="#27437d"/><path d="M350.85,98.33a30.76,30.76,0,0,1-26.28,0l-3.88,10.94h0a42.37,42.37,0,0,0,34,0h0Q352.78,103.8,350.85,98.33Z" fill="#fff"/><path d="M347.24,88.11l-3.88-10.93a20.18,20.18,0,0,1-11.32,0l-3.86,10.93A32.1,32.1,0,0,0,347.24,88.11Z" fill="#fff"/><g opacity="0.3" style="isolation:isolate"><path d="M346.48,110.18l5.44-1.57a1.37,1.37,0,0,0,.83-1.73L339.66,69.57a1.36,1.36,0,0,0-1.72-.84l-.36.12a1.43,1.43,0,0,0-.83,1.74l8,38.75A1.36,1.36,0,0,0,346.48,110.18Z" fill="#fff"/></g><g opacity="0.3" style="isolation:isolate"><path d="M339.45,121.8s26.38-9.2,26.38-10.12-11.11-5.83-11.11-5.83,15.17,4.45,15.17,6.09S339.45,121.8,339.45,121.8Z" fill="#fff"/></g></svg>