<svg xmlns="http://www.w3.org/2000/svg" viewBox="0 0 613 649"><rect x="0.28" y="0.08" width="612.33" height="648" rx="8.03" fill="#fff"/><path d="M.28,481.58V639.26c0,4.85,3.29,8.82,7.31,8.82H605.3c4,0,7.31-4,7.31-8.82V481.58Z" fill="#f2f2f2"/><path d="M612.61,8.89c0-4.85-3.29-8.81-7.31-8.81H7.59C3.57.08.28,4,.28,8.89V39.58H612.61Z" fill="#ffcf41"/><text transform="translate(15.03 321.73)" font-size="58" fill="#4c4c4c" font-family="Jost-SemiBold, Jost" font-weight="600" letter-spacing="-0.01em">Congestion Reduction, <tspan x="24.04" y="69.6">Mobility, and System </tspan><tspan x="166.52" y="139.2" xml:space="preserve">Reliability  </tspan></text><circle cx="306.44" cy="160.44" r="83.4" fill="#27427c"/><path d="M312.43,216.28h0a49.61,49.61,0,0,1-6,.33V159.49Z" fill="#fff"/><path d="M306.42,159.49v57.12q-3,0-6-.28h0Z" fill="#fff"/><path d="M306.42,102.33v57.12l-6-56.79h0C302.45,102.47,304.43,102.33,306.42,102.33Z" fill="#fff"/><path d="M300.46,102.66l6,56.83-11.88-55.88h0a49,49,0,0,1,5.92-1Z" fill="#fff"/><path d="M294.54,103.61l11.88,55.88-17.65-54.32v0a50.47,50.47,0,0,1,5.77-1.51Z" fill="#fff"/><path d="M288.77,105.17l17.65,54.32L283.19,107.3h0a40.06,40.06,0,0,1,5.58-2.13Z" fill="#fff"/><path d="M283.19,107.3l23.23,52.19L277.89,110h0a40.6,40.6,0,0,1,5.3-2.7Z" fill="#fff"/><path d="M277.89,110l28.58,49.45-33.6-46.19h0a44.56,44.56,0,0,1,5-3.26Z" fill="#fff"/><path d="M272.87,113.26l33.55,46.23-38.24-42.44h0a44.13,44.13,0,0,1,4.69-3.79Z" fill="#fff"/><path d="M306.42,159.49l-6,56.84h0c-2-.24-4-.52-5.92-1h0Z" fill="#fff"/><path d="M306.42,159.49l-11.88,55.89h0a52.5,52.5,0,0,1-5.77-1.56v0Z" fill="#fff"/><path d="M306.42,159.49l-17.65,54.33v.05a58.38,58.38,0,0,1-5.58-2.13h0Z" fill="#fff"/><path d="M306.42,159.49l-23.23,52.2h0a46.51,46.51,0,0,1-5.35-2.74h0Z" fill="#fff"/><path d="M306.42,159.49,277.89,209h0a51.46,51.46,0,0,1-5-3.27h0Z" fill="#fff"/><path d="M306.42,159.49l-33.55,46.24h0a49.19,49.19,0,0,1-4.64-3.79h0Z" fill="#fff"/><path d="M306.42,159.49,264,197.73h0c-1.32-1.47-2.6-3-3.78-4.64h0Z" fill="#fff"/><path d="M306.42,159.49l-46.19,33.56h0a50.74,50.74,0,0,1-3.26-5h0Z" fill="#fff"/><path d="M306.42,159.49,257,188h0a50.82,50.82,0,0,1-2.75-5.35h0Z" fill="#fff"/><path d="M306.42,159.49l-52.2,23.24h0a54.56,54.56,0,0,1-2.13-5.58h0Z" fill="#fff"/><path d="M306.42,159.49l-54.33,17.66h0a58.74,58.74,0,0,1-1.56-5.78h0Z" fill="#fff"/><path d="M306.42,159.49l-55.89,11.88h0c-.38-1.94-.71-3.93-.94-5.91h0Z" fill="#fff"/><path d="M306.42,159.49l-56.79,6h0q-.28-3-.28-6Z" fill="#fff"/><path d="M306.42,159.49H249.3q0-3,.29-6h0Z" fill="#fff"/><path d="M306.42,159.49l-56.79-6h0c.24-2,.52-4,1-5.91h0Z" fill="#fff"/><path d="M306.42,159.49l-55.89-11.87h0a56.85,56.85,0,0,1,1.56-5.78h0Z" fill="#fff"/><path d="M306.42,159.49l-54.33-17.65h0a54.35,54.35,0,0,1,2.13-5.58h0Z" fill="#fff"/><path d="M306.42,159.49l-52.2-23.23h0a48.24,48.24,0,0,1,2.75-5.35h0Z" fill="#fff"/><path d="M306.42,159.49,257,130.91h0a49.45,49.45,0,0,1,3.26-5h0Z" fill="#fff"/><path d="M306.42,159.49,260.23,125.9h0a51.11,51.11,0,0,1,3.79-4.64h0Z" fill="#fff"/><path d="M268.18,117.05l38.24,42.44L264,121.26h0a50.68,50.68,0,0,1,4.21-4.21Z" fill="#fff"/><path d="M306.42,159.49l-38.24,42.45h0c-1.46-1.32-2.88-2.74-4.21-4.21h0Z" fill="#fff"/><path d="M363.59,159.49H306.42l56.84-6h0C363.44,155.47,363.59,157.46,363.59,159.49Z" fill="#fff"/><path d="M306.42,159.49h57.12c0,2-.1,4-.28,6h0Z" fill="#fff"/><path d="M363.26,153.48h0l-56.84,6,55.89-11.83h0A50.37,50.37,0,0,1,363.26,153.48Z" fill="#fff"/><path d="M363.26,165.46h0c-.19,2-.53,4-.9,5.91h0l-55.89-11.88Z" fill="#fff"/><path d="M362.36,147.62h0l-55.89,11.87,54.32-17.65h0C361.41,143.69,361.93,145.63,362.36,147.62Z" fill="#fff"/><path d="M362.31,171.37h0a54.31,54.31,0,0,1-1.52,5.78h0l-54.33-17.66Z" fill="#fff"/><path d="M360.79,141.8h0l-54.37,17.65,52.2-23.19h0A45.44,45.44,0,0,1,360.79,141.8Z" fill="#fff"/><path d="M360.75,177.15h0a54.56,54.56,0,0,1-2.13,5.58h0l-52.2-23.24Z" fill="#fff"/><path d="M358.62,136.26h0l-52.2,23.23,49.45-28.58h0A38.59,38.59,0,0,1,358.62,136.26Z" fill="#fff"/><path d="M358.62,182.73h0a58.22,58.22,0,0,1-2.7,5.35h0l-49.45-28.59Z" fill="#fff"/><path d="M355.92,130.91h0l-49.5,28.58,46.24-33.55h0A44.81,44.81,0,0,1,355.92,130.91Z" fill="#fff"/><path d="M355.92,188h0a58.78,58.78,0,0,1-3.22,5h0l-46.23-33.56Z" fill="#fff"/><path d="M352.66,125.9h0l-46.24,33.59,42.45-38.23h0A51.11,51.11,0,0,1,352.66,125.9Z" fill="#fff"/><path d="M352.66,193.05h0c-1.19,1.61-2.42,3.17-3.74,4.68h0l-42.45-38.24Z" fill="#fff"/><path d="M344.66,117c1.46,1.32,2.88,2.74,4.21,4.21h0l-42.45,38.24L344.66,117Z" fill="#fff"/><path d="M306.42,159.49l42.45,38.24h0c-1.33,1.47-2.75,2.89-4.21,4.21h0Z" fill="#fff"/><path d="M344.66,117h0l-38.24,42.45L340,113.21h0C341.63,114.44,343.19,115.67,344.66,117Z" fill="#fff"/><path d="M344.66,201.94h0a58.48,58.48,0,0,1-4.64,3.79h0l-33.55-46.24Z" fill="#fff"/><path d="M340,113.26h0l-33.6,46.23L335,110h0A44.1,44.1,0,0,1,340,113.26Z" fill="#fff"/><path d="M340,205.68h0a52.69,52.69,0,0,1-5,3.27h0l-28.58-49.46Z" fill="#fff"/><path d="M335,110h0l-28.58,49.49,23.24-52.19h0A41.75,41.75,0,0,1,335,110Z" fill="#fff"/><path d="M335,209h0a51.59,51.59,0,0,1-5.34,2.74h0l-23.24-52.2Z" fill="#fff"/><path d="M329.66,211.69h0a52.7,52.7,0,0,1-5.59,2.18v-.05l-17.65-54.33Z" fill="#fff"/><path d="M329.66,107.3h0l-23.24,52.19,17.65-54.32v0A45.31,45.31,0,0,1,329.66,107.3Z" fill="#fff"/><path d="M324.07,213.82h0a54.38,54.38,0,0,1-5.77,1.56h0l-11.88-55.89Z" fill="#fff"/><path d="M324.12,105.12h0l-17.65,54.37,11.83-55.88h0A48.69,48.69,0,0,1,324.12,105.12Z" fill="#fff"/><path d="M318.3,215.38h0c-1.94.43-3.93.71-5.92,1h0l-6-56.84Z" fill="#fff"/><path d="M318.3,103.56h0l-11.88,55.89,6-56.79h0C314.42,102.85,316.36,103.18,318.3,103.56Z" fill="#fff"/><path d="M312.43,102.66h0l-6,56.83V102.33C308.46,102.33,310.44,102.47,312.43,102.66Z" fill="#fff"/><path d="M306.42,104.88a54.62,54.62,0,1,1-54.61,54.61,54.63,54.63,0,0,1,54.61-54.61m0-2.55a57.14,57.14,0,1,0,57.12,57.16A57.19,57.19,0,0,0,306.42,102.33Z" fill="#fff"/><rect x="305.87" y="107.11" width="1.11" height="8.66" fill="#27427c"/><rect x="281.85" y="113.55" width="1.11" height="8.59" transform="translate(-20.51 161.24) rotate(-30.8)" fill="#27427c"/><rect x="264.25" y="131.22" width="1.11" height="8.56" transform="translate(15.56 297.85) rotate(-60.18)" fill="#27427c"/><rect x="254.08" y="158.94" width="8.52" height="1.11" fill="#27427c"/><rect x="260.52" y="183.03" width="8.56" height="1.11" transform="translate(-56.24 156.06) rotate(-29.83)" fill="#27427c"/><rect x="278.05" y="200.61" width="8.72" height="1.11" transform="translate(-33.78 343.46) rotate(-59.69)" fill="#27427c"/><rect x="305.87" y="203.32" width="1.11" height="8.66" fill="#27427c"/><rect x="329.93" y="196.8" width="1.11" height="8.72" transform="translate(-56.35 194.35) rotate(-30.32)" fill="#27427c"/><rect x="347.51" y="179.32" width="1.11" height="8.52" transform="translate(15.1 393.31) rotate(-60.02)" fill="#27427c"/><rect x="350.15" y="158.94" width="8.66" height="1.11" fill="#27427c"/><rect x="343.8" y="134.95" width="8.52" height="1.11" transform="translate(-21.15 191.99) rotate(-29.97)" fill="#27427c"/><rect x="326.19" y="117.29" width="8.59" height="1.11" transform="matrix(0.51, -0.86, 0.86, 0.51, 60.2, 341.58)" fill="#27427c"/><path d="M304.15,159.87a2.18,2.18,0,0,1,4.35-.38c.14,1.28,1.9,38.95,1.9,38.95S304.43,161,304.15,159.87Z" fill="#27427c"/><circle cx="306.42" cy="159.49" r="4.54" fill="#27427c"/><rect x="303.82" y="97.31" width="5.25" height="6.29" fill="#fff"/><path d="M304.15,91.3h4.4a2.79,2.79,0,0,1,2.75,2.75v2a2.78,2.78,0,0,1-2.75,2.75h-4.4A2.78,2.78,0,0,1,301.4,96v-2A2.92,2.92,0,0,1,304.15,91.3Z" fill="#fff"/><rect x="333.59" y="106.14" width="5.16" height="4.26" transform="translate(73.86 344.76) rotate(-59.89)" fill="#fff"/><path d="M336,102.47l5.64,3.27a1.77,1.77,0,0,1,.61,2.27h0a1.77,1.77,0,0,1-2.27.61l-5.63-3.26a1.76,1.76,0,0,1-.62-2.27h0A1.82,1.82,0,0,1,336,102.47Z" fill="#fff"/><text transform="translate(16.61 528.39)" font-size="40" fill="#4c4c4c" font-family="Jost-Medium, Jost" font-weight="500" letter-spacing="0em">Objective: <tspan font-family="Jost-Regular, Jost" font-weight="400"><tspan x="0" y="48">Reduce travel time and delay and </tspan><tspan x="0" y="96">improve level of service</tspan></tspan></text></svg>