<svg xmlns="http://www.w3.org/2000/svg" viewBox="0 0 613 649"><rect x="0.28" y="0.08" width="612.33" height="648" rx="8.03" fill="#fff"/><path d="M.28,481.58V639.26c0,4.85,3.29,8.82,7.31,8.82H605.3c4,0,7.31-4,7.31-8.82V481.58Z" fill="#f2f2f2"/><path d="M612.61,8.89c0-4.85-3.29-8.81-7.31-8.81H7.59C3.57.08.28,4,.28,8.89V39.58H612.61Z" fill="#ffcf41"/><text transform="translate(182.41 321.73)" font-size="58" fill="#4c4c4c" font-family="Jost-SemiBold, Jost" font-weight="600" letter-spacing="-0.01em">Economic <tspan x="-86.56" y="69.6">Competitiveness</tspan></text><text transform="translate(16.61 528.39)" font-size="40" fill="#4c4c4c" font-family="Jost-Medium, Jost" font-weight="500" letter-spacing="0em">Objective: <tspan font-family="Jost-Regular, Jost" font-weight="400"><tspan x="0" y="48">Support and strengthen local </tspan><tspan x="0" y="96">economic markets</tspan></tspan></text><path d="M306.44,243.84h0c-7.92,0-35.46-1.81-57.32-23.91-19.43-19.64-22.68-43.33-23.18-52.6-.41-8.08-.05-36.23,22-59.48s50.36-25.17,58.49-25.17A3.29,3.29,0,0,1,309.7,86l0,77.29h0v77.28a3.26,3.26,0,0,1-1,2.33A3.29,3.29,0,0,1,306.44,243.84ZM303.12,89.35c-10.09.56-32.46,4.05-50.43,23-20.23,21.35-20.57,47.2-20.19,54.62.46,8.51,3.45,30.27,21.29,48.31s39.47,21.29,49.36,21.86V163.27Z" fill="#fff"/><circle cx="306.48" cy="163.27" r="77.29" fill="#27437d"/><path d="M306.47,242.58a2,2,0,0,1-2-2V86a2,2,0,1,1,4.05,0V240.56A2,2,0,0,1,306.47,242.58Z" fill="#27437d"/><path d="M306.43,164.78H229.18a1.52,1.52,0,1,1,0-3h77.25a1.52,1.52,0,1,1,0,3Z" fill="#fff"/><path d="M306.41,136.29H234.2a1.52,1.52,0,1,1,0-3h72.21a1.52,1.52,0,0,1,0,3Z" fill="#fff"/><path d="M306.57,107.79H254.78a1.52,1.52,0,0,1,0-3h51.79a1.52,1.52,0,1,1,0,3Z" fill="#fff"/><path d="M306.41,193.28H234.2a1.52,1.52,0,1,1,0-3h72.21a1.52,1.52,0,0,1,0,3Z" fill="#fff"/><path d="M306.57,221.78H254.78a1.52,1.52,0,1,1,0-3h51.79a1.52,1.52,0,0,1,0,3Z" fill="#fff"/><path d="M306.48,242.07a1.52,1.52,0,0,1-1.19-.56,125.54,125.54,0,0,1-27.73-74.93c-1.1-41.25,19-70.78,27.73-81.56a1.52,1.52,0,0,1,2.37,1.9c-8.5,10.52-28.14,39.34-27.07,79.58a122.41,122.41,0,0,0,27.07,73.1,1.52,1.52,0,0,1-.23,2.13A1.5,1.5,0,0,1,306.48,242.07Z" fill="#fff"/><path d="M306.47,242.07A1.47,1.47,0,0,1,306,242a82.73,82.73,0,0,1,0-157.47,1.51,1.51,0,1,1,.93,2.88,79.7,79.7,0,0,0,0,151.7,1.52,1.52,0,0,1-.47,3Z" fill="#fff"/><path d="M306.44,163.27l0-77.3c4.87,0,33.71.49,56.1,24.14s21.34,52.16,21.09,57c-.32,6-2.33,30.34-22.23,50.46-22,22.28-49.68,22.93-55,22.94Z" fill="#fff"/><path d="M306.44,243.84a3.29,3.29,0,0,1-3.29-3.29V163.27h0l0-77.29a3.29,3.29,0,0,1,3.29-3.29c8.13,0,36.38,1.81,58.49,25.17s22.4,51.4,22,59.47c-.5,9.28-3.76,33-23.18,52.61-21.86,22.1-49.41,23.89-57.33,23.91Zm3.29-80.57v73.89c9.89-.57,31.67-4,49.37-21.86s20.83-39.8,21.29-48.32c.37-7.41,0-33.25-20.19-54.61-18-19-40.34-22.46-50.44-23l0,73.92Z" fill="#27437d"/><g style="isolation:isolate"><path d="M336.6,210.72v-8c-13.55-2-18.06-11.17-18.42-22.45h16.87c.24,5.58,1.9,9.62,7.49,9.62,4.28,0,6.53-3.09,6.53-7.49,0-5.34-2.25-8.19-9.74-11.52C324.84,164.74,319,158.8,319,146.09c0-11.17,6.42-19.48,17.59-21.38v-6.18h11.88v6.18c11.52,1.9,16.39,9.38,16.63,21.26H348.84c-.12-5.58-2.26-8.55-6.78-8.55-4,0-6.06,2.73-6.06,7,0,4.51,2.5,7.13,10.58,10.57,14.13,5.94,19.84,12.95,19.84,25.19,0,11.76-5.35,20.43-17.94,22.45v8.08Z" fill="#27437d" stroke="#27437d" stroke-miterlimit="10" stroke-width="0.92"/></g><g style="isolation:isolate"><path d="M336.6,210.72v-8c-13.55-2-18.06-11.17-18.42-22.45h16.87c.24,5.58,1.9,9.62,7.49,9.62,4.28,0,6.53-3.09,6.53-7.49,0-5.34-2.25-8.19-9.74-11.52C324.84,164.74,319,158.8,319,146.09c0-11.17,6.42-19.48,17.59-21.38v-6.18h11.88v6.18c11.52,1.9,16.39,9.38,16.63,21.26H348.84c-.12-5.58-2.26-8.55-6.78-8.55-4,0-6.06,2.73-6.06,7,0,4.51,2.5,7.13,10.58,10.57,14.13,5.94,19.84,12.95,19.84,25.19,0,11.76-5.35,20.43-17.94,22.45v8.08Z" fill="none" stroke="#27437d" stroke-miterlimit="10" stroke-width="0.14"/></g></svg>