<svg xmlns="http://www.w3.org/2000/svg" xmlns:xlink="http://www.w3.org/1999/xlink" viewBox="0 0 613 649"><defs><clipPath id="a"><rect x="313.41" y="136.3" width="21.07" height="47.25" fill="none"/></clipPath></defs><rect x="0.28" y="0.08" width="612.33" height="648" rx="8.03" fill="#fff"/><path d="M.28,481.58V639.26c0,4.85,3.29,8.82,7.31,8.82H605.3c4,0,7.31-4,7.31-8.82V481.58Z" fill="#f2f2f2"/><path d="M612.61,8.89c0-4.85-3.29-8.81-7.31-8.81H7.59C3.57.08.28,4,.28,8.89V39.58H612.61Z" fill="#ffcf41"/><text transform="translate(163.91 321.73)" font-size="58" fill="#4c4c4c" font-family="Jost-SemiBold, Jost" font-weight="600" letter-spacing="-0.01em">Multimodal <tspan x="-141.69" y="69.6" xml:space="preserve">Transportation System  </tspan></text><text transform="translate(16.61 528.39)" font-size="40" fill="#4c4c4c" font-family="Jost-Medium, Jost" font-weight="500" letter-spacing="0em">Objective: <tspan font-family="Jost-Regular, Jost" font-weight="400"><tspan x="0" y="48">Improve safety, accessibility, and </tspan><tspan x="0" y="96">connectivity for people and goods</tspan></tspan></text><circle cx="306.44" cy="160.44" r="83.4" fill="#27427c"/><g clip-path="url(#a)"><path d="M318.59,165.48l.36.24a1.88,1.88,0,0,0,2.64-.46h0l1.24-1.79a1.89,1.89,0,0,0-.46-2.63h0l-.35-.25a1.91,1.91,0,0,0-2.65.47h0l-1.24,1.8a1.89,1.89,0,0,0,.47,2.64" fill="#fff"/><path d="M329.43,165.23l-.36.25a1.89,1.89,0,0,1-2.63-.46h0l-1.24-1.79a1.89,1.89,0,0,1,.46-2.63h0l.36-.25a1.89,1.89,0,0,1,2.63.46h0l1.24,1.79a1.9,1.9,0,0,1-.46,2.64h0" fill="#fff"/><path d="M327.69,159.63h1.06a1.76,1.76,0,0,1,1.54,1.9v7.14a1.76,1.76,0,0,1-1.54,1.91h-1.06a1.77,1.77,0,0,1-1.55-1.91v-7.11a1.77,1.77,0,0,1,1.55-1.91" fill="#fff"/><path d="M319.34,162.63h1a1.45,1.45,0,0,1,1.55,1.33V174.5a1.46,1.46,0,0,1-1.55,1.33h-1c-.9,0-1.59-.63-1.55-1.33V164c0-.7.65-1.29,1.55-1.33" fill="#fff"/><path d="M324.6,163.89h-1.14a4,4,0,0,1-4-4V149.66a4,4,0,0,1,4-4h1.13a4,4,0,0,1,4,4v10.23a4,4,0,0,1-4,4" fill="#fff"/><path d="M324.72,160v4.54a.69.69,0,0,1-.77.6.7.7,0,0,1-.6-.6V160a.68.68,0,0,1,.75-.62h0a.68.68,0,0,1,.62.62" fill="#10263c"/><path d="M324,165.6h-.14a1.21,1.21,0,0,1-1-1V160a1.22,1.22,0,0,1,.42-.85,1.21,1.21,0,0,1,.87-.27,1.18,1.18,0,0,1,1.08,1.08v4.58A1.21,1.21,0,0,1,324,165.6Zm0-5.77a.19.19,0,0,0-.19.17v4.49a.23.23,0,0,0,.16.1.18.18,0,0,0,.21-.16V160a.17.17,0,0,0-.16-.15Z" fill="#aaa"/><path d="M324,159.32h.07a.69.69,0,0,1,.62.63v4.53a.68.68,0,0,1-.68.63H324a.68.68,0,0,1-.62-.62V160a.7.7,0,0,1,.68-.63m0-.5h0a1.19,1.19,0,0,0-1.18,1.09v4.65a1.2,1.2,0,0,0,1.08,1.08H324a1.19,1.19,0,0,0,1.18-1.08v-4.65a1.19,1.19,0,0,0-1.08-1.08Z" fill="#fff"/><path d="M314.24,159.06h0c.9.55,1.93.35,2.93-.79a24.08,24.08,0,0,0,4.5-8c.5-1.43.15-2.41-.76-2.9h0a1.71,1.71,0,0,0-2.55,1.13,24.82,24.82,0,0,1-4.36,7.79c-1,1.14-.67,2.2.23,2.75" fill="#fff"/><path d="M333.63,159.06h0c-.89.55-1.92.35-2.93-.79a24.72,24.72,0,0,1-4.5-8c-.5-1.43-.14-2.41.77-2.9h0a1.71,1.71,0,0,1,2.55,1.13,24.82,24.82,0,0,0,4.36,7.79c1,1.14.67,2.2-.23,2.75" fill="#fff"/><path d="M321.78,152.09l1.41-.45a1.9,1.9,0,0,0,1.18-2.4l-.71-2.06a1.9,1.9,0,0,0-2.4-1.18l-1.41.48a1.89,1.89,0,0,0-1.15,2.37l.69,2.06a1.9,1.9,0,0,0,2.4,1.18" fill="#fff"/><path d="M324.45,151.42l1.15.57a1.9,1.9,0,0,0,2.53-.88l1-2a1.89,1.89,0,0,0-.87-2.5l-1.16-.59a1.89,1.89,0,0,0-2.53.86l-1,2a1.91,1.91,0,0,0,.87,2.53" fill="#fff"/><path d="M324,163.38h0a1.55,1.55,0,0,1,1.53,1.55v16.42a1.55,1.55,0,1,1-3.09.18h0a.54.54,0,0,1,0-.18V164.93a1.55,1.55,0,0,1,1.55-1.55" fill="#fff"/><path d="M324,163.38h0a1.55,1.55,0,0,1,1.53,1.55v16.42a1.55,1.55,0,1,1-3.09.18h0a.54.54,0,0,1,0-.18V164.93a1.55,1.55,0,0,1,1.55-1.55Z" fill="#10263c"/><path d="M324,183.49a2.05,2.05,0,0,1-2-1.93,1,1,0,0,1,0-.25V164.93a2.07,2.07,0,0,1,2-2.05h0a2.06,2.06,0,0,1,2,2.05v16.42a2,2,0,0,1-1.92,2.14Zm0-19.61a1.06,1.06,0,0,0-1,1.05V181.5a1.05,1.05,0,1,0,2.1-.12V164.93a1.05,1.05,0,0,0-1-1.05Z" fill="#aaa"/><path d="M327.69,142.39a3.77,3.77,0,1,1-3.77-3.76h0a3.76,3.76,0,0,1,3.77,3.76" fill="#fff"/><path d="M328.31,140c0,1.93.53,1.22-4.39,1.22-4.71,0-4.38.74-4.38-1.22s2-3.5,4.38-3.5,4.39,1.58,4.39,3.5" fill="#10263c"/><path d="M320.22,141.85a1.16,1.16,0,0,1-.9-.26c-.3-.28-.29-.66-.28-1.24V140c0-2.25,2.15-4,4.88-4s4.89,1.79,4.89,4c0,.19,0,.35,0,.49,0,.48,0,.83-.25,1.1s-.72.28-1.7.22c-.64,0-1.59-.09-2.95-.09s-2.2.05-2.85.1Zm-.18-1a9,9,0,0,0,1,0c.64,0,1.59-.1,2.92-.1s2.36.05,3,.09l.91,0v-.33c0-.15,0-.32,0-.52,0-1.66-1.74-3-3.89-3s-3.88,1.34-3.88,3v.36A4,4,0,0,0,320,140.85Z" fill="#aaa"/><path d="M323.94,136.51c2.42,0,4.39,1.57,4.39,3.5,0,1.11.17,1.35-.61,1.35-.58,0-1.69-.13-3.78-.13s-3.12.15-3.71.15c-.79,0-.68-.25-.68-1.37,0-1.95,2-3.5,4.39-3.5m0-.5c-2.74,0-4.89,1.75-4.89,4v.35c0,.57,0,.95.27,1.24a1.28,1.28,0,0,0,.92.28,6.16,6.16,0,0,0,.88,0c.65,0,1.55-.09,2.82-.1s2.32.06,2.95.09c.35,0,.62,0,.84,0a1.13,1.13,0,0,0,.88-.27c.26-.27.25-.61.23-1.08V140c0-2.2-2.19-4-4.89-4Z" fill="#d3d3d3"/><path d="M332.35,159.49H315.72a.67.67,0,0,1-.74-.62.68.68,0,0,1,.62-.74h16.75a.68.68,0,0,1,0,1.36" fill="#fff"/><path d="M315.72,159.74a.93.93,0,0,1-.14-1.86h16.77a.93.93,0,1,1,.14,1.86H315.72Z" fill="#10263c"/><path d="M332.42,160.25H315.74a1.44,1.44,0,0,1-1.18-2.37,1.45,1.45,0,0,1,1-.49h16.8a1.42,1.42,0,0,1,1.5,1.32,1.43,1.43,0,0,1-1.32,1.54Zm-16.72-1h16.65l.14.5,0-.5a.44.44,0,0,0,.4-.46.45.45,0,0,0-.47-.4H315.72l-.14-.5,0,.5a.44.44,0,0,0-.3.15.43.43,0,0,0-.1.31.44.44,0,0,0,.46.4Z" fill="#aaa"/><path d="M332.35,158.13a.68.68,0,0,1,0,1.36H315.72a.67.67,0,0,1-.74-.62.68.68,0,0,1,.62-.74h16.75m0-.5H315.72a1.18,1.18,0,1,0-.15,2.36h16.78a1.18,1.18,0,0,0,0-2.36Z" fill="#10263c"/></g><rect x="294.34" y="161.09" width="8.17" height="21.52" rx="4.03" fill="#10263c"/><path d="M298.48,183.11h-.12a4.53,4.53,0,0,1-4.52-4.52V165.11a4.53,4.53,0,0,1,4.52-4.52h.12a4.53,4.53,0,0,1,4.52,4.52v13.48A4.53,4.53,0,0,1,298.48,183.11Zm-.12-21.52a3.53,3.53,0,0,0-3.52,3.52v13.48a3.53,3.53,0,0,0,3.52,3.52h.12a3.53,3.53,0,0,0,3.52-3.52V165.11a3.53,3.53,0,0,0-3.52-3.52Z" fill="#aaa"/><rect x="248.13" y="161.09" width="8.16" height="21.52" rx="4.03" fill="#10263c"/><path d="M252.27,183.11h-.12a4.53,4.53,0,0,1-4.52-4.52V165.11a4.53,4.53,0,0,1,4.52-4.52h.12a4.53,4.53,0,0,1,4.52,4.52v13.48A4.53,4.53,0,0,1,252.27,183.11Zm-.12-21.52a3.53,3.53,0,0,0-3.52,3.52v13.48a3.53,3.53,0,0,0,3.52,3.52h.12a3.53,3.53,0,0,0,3.52-3.52V165.11a3.53,3.53,0,0,0-3.52-3.52Z" fill="#aaa"/><rect x="244.47" y="150.33" width="8.67" height="5.21" rx="2.6" fill="#10263c"/><path d="M250.54,156h-3.47a3.1,3.1,0,0,1,0-6.2h3.47a3.1,3.1,0,0,1,3.1,3.1h0A3.1,3.1,0,0,1,250.54,156Zm-3.47-5.2a2.1,2.1,0,0,0,0,4.2h3.47a2.1,2.1,0,0,0,2.1-2.1h0a2.1,2.1,0,0,0-2.1-2.1Z" fill="#aaa"/><rect x="297.48" y="150.32" width="8.67" height="5.2" rx="2.6" fill="#10263c"/><path d="M303.55,156h-3.47a3.11,3.11,0,0,1,0-6.21h3.47a3.1,3.1,0,0,1,3.1,3.1h0A3.1,3.1,0,0,1,303.55,156Zm-3.47-5.21a2.11,2.11,0,0,0,0,4.21h3.47a2.1,2.1,0,0,0,2.1-2.1h0a2.1,2.1,0,0,0-2.1-2.1Z" fill="#aaa"/><path d="M279.11,154.93a1.48,1.48,0,0,1-1.5-1.42V150c0-.27.21-2.63,7.31-2.63s7.41,2.36,7.41,2.63v3.43a1.49,1.49,0,0,1-1.42,1.5h-11.8Z" fill="#fff"/><path d="M284.91,147.68c7.06,0,7.06,2.3,7.06,2.3v3.44a1.16,1.16,0,0,1-1.13,1.19H279.11a1.18,1.18,0,0,1-1.19-1.14V150s0-2.3,7-2.3m0-.65c-3,0-5.2.43-6.47,1.26a2.14,2.14,0,0,0-1.16,1.7v3.43a1.79,1.79,0,0,0,1.73,1.84h11.8a1.79,1.79,0,0,0,1.84-1.74h0V150a2.18,2.18,0,0,0-1.18-1.7c-1.28-.83-3.5-1.25-6.55-1.25Z" fill="#fff"/><circle cx="284.96" cy="144.06" r="4.41" fill="#fff"/><path d="M285,140a4.09,4.09,0,1,1-4.11,4.08A4.07,4.07,0,0,1,285,140h0m0-.65a4.74,4.74,0,1,0,4.72,4.75v0A4.73,4.73,0,0,0,285,139.33Z" fill="#fff"/><path d="M260.15,154.93a1.46,1.46,0,0,1-1.5-1.42V150c0-.27.2-2.63,7.31-2.63s7.41,2.36,7.41,2.63v3.43a1.5,1.5,0,0,1-1.43,1.5H260.15Z" fill="#fff"/><path d="M265.94,147.68c7.08,0,7.08,2.3,7.08,2.3v3.44a1.16,1.16,0,0,1-1.14,1.19H260.15a1.18,1.18,0,0,1-1.18-1.16V150s0-2.3,7-2.3m0-.65c-3,0-5.2.43-6.47,1.26a2.14,2.14,0,0,0-1.16,1.7v3.43a1.79,1.79,0,0,0,1.73,1.84h11.77a1.8,1.8,0,0,0,1.84-1.74V150a2.17,2.17,0,0,0-1.19-1.7c-1.28-.83-3.5-1.25-6.54-1.25Z" fill="#fff"/><circle cx="265.99" cy="144.06" r="4.41" fill="#fff"/><path d="M266,140a4.09,4.09,0,1,1-4.07,4.1v0A4.1,4.1,0,0,1,266,140h0m0-.65a4.74,4.74,0,1,0,4.77,4.73,4.74,4.74,0,0,0-4.77-4.73Z" fill="#fff"/><path d="M302.5,166.73v-5.09a21.3,21.3,0,0,0-1.8-8.58c-1.5-3.37-4.59-9.91-6.06-13.27a8.86,8.86,0,0,0-7.5-5.29c-4.28-.28-7.17-.44-12-.44s-7.51.17-11.71.44a8.83,8.83,0,0,0-7.5,5.29l-6,13.27a21.34,21.34,0,0,0-1.8,8.59v5.08a9.15,9.15,0,0,0,.9,3.6c2,4,6.4,5.13,7.15,5.3a93,93,0,0,0,19.18,2,92,92,0,0,0,19.08-2c.59-.12,5.8-1.22,7.5-5.61A7.88,7.88,0,0,0,302.5,166.73Zm-7.25-17.5c-.57,3.83-18.25,3.85-20.2,3.85-2.54,0-19.12-.16-19.67-3.85a1.39,1.39,0,0,1,.09-.83c3.68-8.62,2.24-5.75,3.68-8.62a4.75,4.75,0,0,1,4-2.47c3.68-.29,7.67-.47,11.93-.47,4.47,0,8.65.17,12.5.47a4.74,4.74,0,0,1,3.93,2.47c1.44,2.87,0,0,3.67,8.62a1.35,1.35,0,0,1,.11.84Z" fill="#10263c"/><path d="M275.3,178.13a93.4,93.4,0,0,1-19.22-2c-1.26-.29-5.51-1.53-7.5-5.57a9.43,9.43,0,0,1-1-3.8v-5.1a21.79,21.79,0,0,1,1.84-8.79l6.05-13.28a9.3,9.3,0,0,1,7.92-5.58c4.22-.27,7.05-.44,11.74-.44,4.92,0,7.94.17,12,.44a9.31,9.31,0,0,1,7.93,5.59c.8,1.83,2.08,4.6,3.32,7.28,1,2.26,2.05,4.45,2.74,6a21.82,21.82,0,0,1,1.84,8.79v5.08a8.43,8.43,0,0,1-.59,3.48c-1.75,4.5-6.86,5.72-7.87,5.92a93,93,0,0,1-19.18,2Zm-.12-43.57c-4.66,0-7.47.17-11.67.44a8.3,8.3,0,0,0-7.08,5l-6.05,13.27a20.86,20.86,0,0,0-1.75,8.39v5.08a8.61,8.61,0,0,0,.85,3.39c1.79,3.63,5.67,4.76,6.81,5a92.06,92.06,0,0,0,19,2h.06a91.71,91.71,0,0,0,19-2c.57-.11,5.55-1.2,7.14-5.3a7.43,7.43,0,0,0,.52-3.09v-5.11a20.69,20.69,0,0,0-1.76-8.38c-.68-1.53-1.69-3.72-2.73-6-1.24-2.68-2.52-5.46-3.33-7.3a8.32,8.32,0,0,0-7.07-5C283,134.73,280.08,134.56,275.18,134.56Zm.23,19h-.36c-5.87,0-19.59-.42-20.16-4.28a1.8,1.8,0,0,1,.13-1.11c1.83-4.29,2.39-5.74,2.67-6.44a17.92,17.92,0,0,1,1-2.19,5.3,5.3,0,0,1,4.39-2.75c4-.31,8-.47,12-.47,4.3,0,8.52.16,12.54.47a5.27,5.27,0,0,1,4.33,2.73,18.76,18.76,0,0,1,1,2.21c.27.7.83,2.15,2.66,6.45a1.76,1.76,0,0,1,.14,1.13h0C295.11,153.14,281.6,153.58,275.41,153.58ZM275,137.34c-3.92,0-7.93.16-11.89.47a4.26,4.26,0,0,0-3.56,2.21,17.15,17.15,0,0,0-1,2.1c-.28.7-.84,2.16-2.69,6.47a1,1,0,0,0-.06.53c.36,2.42,10.46,3.46,19.5,3.46s19-1.06,19.38-3.42h.16l-.15,0a.88.88,0,0,0-.07-.53c-1.84-4.33-2.41-5.79-2.69-6.49a18.41,18.41,0,0,0-1-2.12,4.27,4.27,0,0,0-3.51-2.19C283.51,137.5,279.32,137.34,275,137.34Z" fill="#aaa"/><circle cx="256.29" cy="163.29" r="2.91" fill="#fff"/><circle cx="294.34" cy="163.29" r="2.91" fill="#fff"/><path d="M355.45,164.23h-1.21a4.32,4.32,0,0,1-4.21-4.39V148.61a4.32,4.32,0,0,1,4.21-4.39h1.21a4.32,4.32,0,0,1,4.21,4.39v11.23a4.32,4.32,0,0,1-4.21,4.39" fill="#fff"/><path d="M346.69,160.4c1.07.32,2.12-.18,2.32-1.75.47-3.13,1.5-7.73,3.05-10.5a1.81,1.81,0,0,0-.91-2.8h0c-1-.37-2,.05-2.81,1.44-1.6,2.83-2.65,7.52-3.09,10.75-.19,1.59.37,2.54,1.44,2.85h0" fill="#fff"/><path d="M363,160.4h0c1.07-.31,1.63-1.26,1.45-2.85-.45-3.23-1.5-7.92-3.09-10.75-.78-1.39-1.79-1.81-2.82-1.44h0a1.82,1.82,0,0,0-.91,2.8c1.55,2.76,2.58,7.36,3.05,10.5.2,1.57,1.26,2.07,2.32,1.75" fill="#fff"/><path d="M352.45,151l1.5-.5A2,2,0,0,0,355.2,148l-.75-2.15a2,2,0,0,0-2.53-1.26l-1.5.5a2,2,0,0,0-1.22,2.5l.75,2.19a2,2,0,0,0,2.53,1.25" fill="#fff"/><path d="M357.11,151a2,2,0,0,0,2.53-1.25l.74-2.17a2,2,0,0,0-1.22-2.5l-1.5-.5a2,2,0,0,0-2.53,1.24l-.75,2.18a2,2,0,0,0,1.25,2.52l1.5.5" fill="#fff"/><path d="M358.7,140.77a4,4,0,1,1-4-4h0a4,4,0,0,1,4,4h0" fill="#fff"/><path d="M351.63,156.85h1.06c.88,0,1.6,1.16,1.6,2.58v20.45c0,1.43-.36,2.59-1.24,2.59H352a2.51,2.51,0,0,1-2-2.59V159.43c0-1.42.73-2.58,1.61-2.58" fill="#fff"/><path d="M357,156.85H358c.89,0,1.61,1.16,1.61,2.58v20.45c0,1.43-.36,2.59-1.25,2.59h-1.06a2.51,2.51,0,0,1-2-2.59V159.43c0-1.42.72-2.58,1.6-2.58" fill="#fff"/><rect x="244.47" y="182.47" width="122.5" height="2.78" fill="#fff"/></svg>