<svg xmlns="http://www.w3.org/2000/svg" viewBox="0 0 613 649"><rect x="0.28" y="0.08" width="612.33" height="648" rx="8.03" fill="#fff"/><path d="M.28,481.58V639.26c0,4.85,3.29,8.82,7.31,8.82H605.3c4,0,7.31-4,7.31-8.82V481.58Z" fill="#f2f2f2"/><path d="M612.61,8.89c0-4.85-3.29-8.81-7.31-8.81H7.59C3.57.08.28,4,.28,8.89V39.58H612.61Z" fill="#ffcf41"/><text transform="translate(123.51 321.73)" font-size="58" fill="#4c4c4c" font-family="Jost-SemiBold, Jost" font-weight="600" letter-spacing="-0.01em">Environmental <tspan x="14.24" y="69.6">Sustainability</tspan></text><text transform="translate(16.61 528.39)" font-size="40" fill="#4c4c4c" font-family="Jost-Medium, Jost" font-weight="500" letter-spacing="0em">Objective: <tspan font-family="Jost-Regular, Jost" font-weight="400"><tspan x="0" y="48">Minimize potential impacts on </tspan><tspan x="0" y="96">natural and cultural resources</tspan></tspan></text><circle cx="306.44" cy="160.44" r="83.4" fill="#27427c"/><ellipse cx="268.78" cy="139.5" rx="19.12" ry="16.76" fill="#fff"/><ellipse cx="330.82" cy="141.39" rx="17.63" ry="15.45" fill="#fff"/><ellipse cx="306.9" cy="131.5" rx="19.12" ry="16.76" fill="#fff"/><ellipse cx="283.38" cy="140.09" rx="19.12" ry="16.76" fill="#fff"/><ellipse cx="308.31" cy="112.39" rx="19.12" ry="16.76" fill="#fff"/><ellipse cx="280.26" cy="128.72" rx="18.63" ry="16.33" fill="#fff"/><ellipse cx="295.56" cy="119.25" rx="20.86" ry="18.28" fill="#fff"/><ellipse cx="324.9" cy="119.25" rx="19.12" ry="16.76" fill="#fff"/><ellipse cx="340.38" cy="126.52" rx="15.48" ry="13.57" fill="#fff"/><ellipse cx="269.97" cy="150.36" rx="15.48" ry="13.57" fill="#fff"/><ellipse cx="344.79" cy="148.98" rx="15.48" ry="13.57" fill="#fff"/><ellipse cx="346.3" cy="139.5" rx="15.48" ry="13.57" fill="#fff"/><path d="M272.67,210c2.84-2.34,19.22-.23,22.62-6.75,1.54-3,7-14.13,3.89-27.43-.69-2.91-2.84-11.52-10-18-3.58-3.23-7-7-7-7l7.57-2.25s9.8,14.08,12.28,13.51c2.24-.51,3.32-11.13-1.22-19.66q-.57-1-1.23-2h11.47q-1.23,19.86,1,20.26,2,.38,7-15.35l8.8,6.35a40.23,40.23,0,0,0-10,13.71c-4.87,11-3.16,21.09-2.25,26,1.35,7.34,3.3,12.09,9,14.9,3.83,1.87,16.49,3.51,17.14,4.37-4.36,0-14.81.58-18.62-.84-4.43-1.89-9.46-3.7-9.32-1.81,0,.64.37,4.52,9,6.72,2.51.64-6.79.75-13.36-4.09-4.82-3.56-3.76-5.11-13.56-1.33C292.29,210.71,276.5,210,272.67,210Z" fill="#fff"/></svg>